<?xml version="1.0" encoding="utf-8" standalone="no"?>
<!DOCTYPE svg PUBLIC "-//W3C//DTD SVG 1.1//EN"
  "http://www.w3.org/Graphics/SVG/1.1/DTD/svg11.dtd">
<svg xmlns:xlink="http://www.w3.org/1999/xlink" width="403.315pt" height="310.23075pt" viewBox="0 0 403.315 310.23075" xmlns="http://www.w3.org/2000/svg" version="1.1">
 <metadata>
  <rdf:RDF xmlns:dc="http://purl.org/dc/elements/1.1/" xmlns:cc="http://creativecommons.org/ns#" xmlns:rdf="http://www.w3.org/1999/02/22-rdf-syntax-ns#">
   <cc:Work>
    <dc:type rdf:resource="http://purl.org/dc/dcmitype/StillImage"/>
    <dc:date>2026-05-03T16:55:14.258881</dc:date>
    <dc:format>image/svg+xml</dc:format>
    <dc:creator>
     <cc:Agent>
      <dc:title>Matplotlib v3.10.8, https://matplotlib.org/</dc:title>
     </cc:Agent>
    </dc:creator>
   </cc:Work>
  </rdf:RDF>
 </metadata>
 <defs>
  <style type="text/css">*{stroke-linejoin: round; stroke-linecap: butt}</style>
 </defs>
 <g id="figure_1">
  <g id="patch_1">
   <path d="M 0 310.23075 
L 403.315 310.23075 
L 403.315 0 
L 0 0 
z
" style="fill: #ffffff"/>
  </g>
  <g id="axes_1">
   <g id="patch_2">
    <path d="M 38.995 273.312 
L 396.115 273.312 
L 396.115 7.2 
L 38.995 7.2 
z
" style="fill: #ffffff"/>
   </g>
   <g id="matplotlib.axis_1">
    <g id="xtick_1">
     <g id="line2d_1">
      <path d="M 55.227727 273.312 
L 55.227727 7.2 
" clip-path="url(#p5a88cdcc48)" style="fill: none; stroke: #e0e0e0; stroke-opacity: 0.7; stroke-width: 0.8; stroke-linecap: square"/>
     </g>
     <g id="line2d_2">
      <defs>
       <path id="m10a91bfbf0" d="M 0 0 
L 0 -4 
" style="stroke: #000000; stroke-width: 0.8"/>
      </defs>
      <g>
       <use xlink:href="#m10a91bfbf0" x="55.227727" y="273.312" style="stroke: #000000; stroke-width: 0.8"/>
      </g>
     </g>
     <g id="text_1">
      <text style="font-size: 10px; font-family: 'Helvetica', 'Arial', sans-serif; text-anchor: middle" x="55.227727" y="283.985437" transform="rotate(-0 55.227727 283.985437)">1</text>
     </g>
    </g>
    <g id="xtick_2">
     <g id="line2d_3">
      <path d="M 133.269685 273.312 
L 133.269685 7.2 
" clip-path="url(#p5a88cdcc48)" style="fill: none; stroke: #e0e0e0; stroke-opacity: 0.7; stroke-width: 0.8; stroke-linecap: square"/>
     </g>
     <g id="line2d_4">
      <g>
       <use xlink:href="#m10a91bfbf0" x="133.269685" y="273.312" style="stroke: #000000; stroke-width: 0.8"/>
      </g>
     </g>
     <g id="text_2">
      <text style="font-size: 10px; font-family: 'Helvetica', 'Arial', sans-serif; text-anchor: middle" x="133.269685" y="283.985437" transform="rotate(-0 133.269685 283.985437)">2</text>
     </g>
    </g>
    <g id="xtick_3">
     <g id="line2d_5">
      <path d="M 211.311643 273.312 
L 211.311643 7.2 
" clip-path="url(#p5a88cdcc48)" style="fill: none; stroke: #e0e0e0; stroke-opacity: 0.7; stroke-width: 0.8; stroke-linecap: square"/>
     </g>
     <g id="line2d_6">
      <g>
       <use xlink:href="#m10a91bfbf0" x="211.311643" y="273.312" style="stroke: #000000; stroke-width: 0.8"/>
      </g>
     </g>
     <g id="text_3">
      <text style="font-size: 10px; font-family: 'Helvetica', 'Arial', sans-serif; text-anchor: middle" x="211.311643" y="283.985437" transform="rotate(-0 211.311643 283.985437)">3</text>
     </g>
    </g>
    <g id="xtick_4">
     <g id="line2d_7">
      <path d="M 289.353601 273.312 
L 289.353601 7.2 
" clip-path="url(#p5a88cdcc48)" style="fill: none; stroke: #e0e0e0; stroke-opacity: 0.7; stroke-width: 0.8; stroke-linecap: square"/>
     </g>
     <g id="line2d_8">
      <g>
       <use xlink:href="#m10a91bfbf0" x="289.353601" y="273.312" style="stroke: #000000; stroke-width: 0.8"/>
      </g>
     </g>
     <g id="text_4">
      <text style="font-size: 10px; font-family: 'Helvetica', 'Arial', sans-serif; text-anchor: middle" x="289.353601" y="283.985437" transform="rotate(-0 289.353601 283.985437)">4</text>
     </g>
    </g>
    <g id="xtick_5">
     <g id="line2d_9">
      <path d="M 367.395559 273.312 
L 367.395559 7.2 
" clip-path="url(#p5a88cdcc48)" style="fill: none; stroke: #e0e0e0; stroke-opacity: 0.7; stroke-width: 0.8; stroke-linecap: square"/>
     </g>
     <g id="line2d_10">
      <g>
       <use xlink:href="#m10a91bfbf0" x="367.395559" y="273.312" style="stroke: #000000; stroke-width: 0.8"/>
      </g>
     </g>
     <g id="text_5">
      <text style="font-size: 10px; font-family: 'Helvetica', 'Arial', sans-serif; text-anchor: middle" x="367.395559" y="283.985437" transform="rotate(-0 367.395559 283.985437)">5</text>
     </g>
    </g>
    <g id="text_6">
     <text style="font-size: 14px; font-family: 'Helvetica', 'Arial', sans-serif; text-anchor: middle" x="217.555" y="300.112625" transform="rotate(-0 217.555 300.112625)">Detector Count</text>
    </g>
   </g>
   <g id="matplotlib.axis_2">
    <g id="ytick_1">
     <g id="line2d_11">
      <path d="M 38.995 273.312 
L 396.115 273.312 
" clip-path="url(#p5a88cdcc48)" style="fill: none; stroke: #e0e0e0; stroke-opacity: 0.7; stroke-width: 0.8; stroke-linecap: square"/>
     </g>
     <g id="line2d_12">
      <defs>
       <path id="m71fe029d67" d="M 0 0 
L 4 0 
" style="stroke: #000000; stroke-width: 0.8"/>
      </defs>
      <g>
       <use xlink:href="#m71fe029d67" x="38.995" y="273.312" style="stroke: #000000; stroke-width: 0.8"/>
      </g>
     </g>
     <g id="text_7">
      <text style="font-size: 10px; font-family: 'Helvetica', 'Arial', sans-serif; text-anchor: end" x="35.495" y="276.898719" transform="rotate(-0 35.495 276.898719)">0</text>
     </g>
    </g>
    <g id="ytick_2">
     <g id="line2d_13">
      <path d="M 38.995 215.835733 
L 396.115 215.835733 
" clip-path="url(#p5a88cdcc48)" style="fill: none; stroke: #e0e0e0; stroke-opacity: 0.7; stroke-width: 0.8; stroke-linecap: square"/>
     </g>
     <g id="line2d_14">
      <g>
       <use xlink:href="#m71fe029d67" x="38.995" y="215.835733" style="stroke: #000000; stroke-width: 0.8"/>
      </g>
     </g>
     <g id="text_8">
      <text style="font-size: 10px; font-family: 'Helvetica', 'Arial', sans-serif; text-anchor: end" x="35.495" y="219.422452" transform="rotate(-0 35.495 219.422452)">5</text>
     </g>
    </g>
    <g id="ytick_3">
     <g id="line2d_15">
      <path d="M 38.995 158.359466 
L 396.115 158.359466 
" clip-path="url(#p5a88cdcc48)" style="fill: none; stroke: #e0e0e0; stroke-opacity: 0.7; stroke-width: 0.8; stroke-linecap: square"/>
     </g>
     <g id="line2d_16">
      <g>
       <use xlink:href="#m71fe029d67" x="38.995" y="158.359466" style="stroke: #000000; stroke-width: 0.8"/>
      </g>
     </g>
     <g id="text_9">
      <text style="font-size: 10px; font-family: 'Helvetica', 'Arial', sans-serif; text-anchor: end" x="35.495" y="161.946185" transform="rotate(-0 35.495 161.946185)">10</text>
     </g>
    </g>
    <g id="ytick_4">
     <g id="line2d_17">
      <path d="M 38.995 100.8832 
L 396.115 100.8832 
" clip-path="url(#p5a88cdcc48)" style="fill: none; stroke: #e0e0e0; stroke-opacity: 0.7; stroke-width: 0.8; stroke-linecap: square"/>
     </g>
     <g id="line2d_18">
      <g>
       <use xlink:href="#m71fe029d67" x="38.995" y="100.8832" style="stroke: #000000; stroke-width: 0.8"/>
      </g>
     </g>
     <g id="text_10">
      <text style="font-size: 10px; font-family: 'Helvetica', 'Arial', sans-serif; text-anchor: end" x="35.495" y="104.469918" transform="rotate(-0 35.495 104.469918)">15</text>
     </g>
    </g>
    <g id="ytick_5">
     <g id="line2d_19">
      <path d="M 38.995 43.406933 
L 396.115 43.406933 
" clip-path="url(#p5a88cdcc48)" style="fill: none; stroke: #e0e0e0; stroke-opacity: 0.7; stroke-width: 0.8; stroke-linecap: square"/>
     </g>
     <g id="line2d_20">
      <g>
       <use xlink:href="#m71fe029d67" x="38.995" y="43.406933" style="stroke: #000000; stroke-width: 0.8"/>
      </g>
     </g>
     <g id="text_11">
      <text style="font-size: 10px; font-family: 'Helvetica', 'Arial', sans-serif; text-anchor: end" x="35.495" y="46.993652" transform="rotate(-0 35.495 46.993652)">20</text>
     </g>
    </g>
    <g id="text_12">
     <text style="font-size: 14px; font-family: 'Helvetica', 'Arial', sans-serif; text-anchor: middle" x="17.455" y="140.256" transform="rotate(-90 17.455 140.256)">Test Error (MAE % Saturation)</text>
    </g>
   </g>
   <g id="LineCollection_1">
    <path d="M 55.227727 59.51115 
L 55.227727 45.592516 
" clip-path="url(#p5a88cdcc48)" style="fill: none; stroke: #2d3047"/>
    <path d="M 133.269685 73.455623 
L 133.269685 48.178263 
" clip-path="url(#p5a88cdcc48)" style="fill: none; stroke: #2d3047"/>
    <path d="M 211.311643 158.96808 
L 211.311643 118.374103 
" clip-path="url(#p5a88cdcc48)" style="fill: none; stroke: #2d3047"/>
    <path d="M 289.353601 124.647265 
L 289.353601 98.164159 
" clip-path="url(#p5a88cdcc48)" style="fill: none; stroke: #2d3047"/>
    <path d="M 367.395559 233.086135 
L 367.395559 232.342823 
" clip-path="url(#p5a88cdcc48)" style="fill: none; stroke: #2d3047"/>
   </g>
   <g id="line2d_21">
    <defs>
     <path id="mfc247073a9" d="M 3 0 
L -3 -0 
" style="stroke: #2d3047"/>
    </defs>
    <g clip-path="url(#p5a88cdcc48)">
     <use xlink:href="#mfc247073a9" x="55.227727" y="59.51115" style="fill: #2d3047; stroke: #2d3047"/>
     <use xlink:href="#mfc247073a9" x="133.269685" y="73.455623" style="fill: #2d3047; stroke: #2d3047"/>
     <use xlink:href="#mfc247073a9" x="211.311643" y="158.96808" style="fill: #2d3047; stroke: #2d3047"/>
     <use xlink:href="#mfc247073a9" x="289.353601" y="124.647265" style="fill: #2d3047; stroke: #2d3047"/>
     <use xlink:href="#mfc247073a9" x="367.395559" y="233.086135" style="fill: #2d3047; stroke: #2d3047"/>
    </g>
   </g>
   <g id="line2d_22">
    <g clip-path="url(#p5a88cdcc48)">
     <use xlink:href="#mfc247073a9" x="55.227727" y="45.592516" style="fill: #2d3047; stroke: #2d3047"/>
     <use xlink:href="#mfc247073a9" x="133.269685" y="48.178263" style="fill: #2d3047; stroke: #2d3047"/>
     <use xlink:href="#mfc247073a9" x="211.311643" y="118.374103" style="fill: #2d3047; stroke: #2d3047"/>
     <use xlink:href="#mfc247073a9" x="289.353601" y="98.164159" style="fill: #2d3047; stroke: #2d3047"/>
     <use xlink:href="#mfc247073a9" x="367.395559" y="232.342823" style="fill: #2d3047; stroke: #2d3047"/>
    </g>
   </g>
   <g id="LineCollection_2">
    <path d="M 61.471084 59.51115 
L 61.471084 45.592516 
" clip-path="url(#p5a88cdcc48)" style="fill: none; stroke: #d1345b"/>
    <path d="M 139.513042 73.455623 
L 139.513042 48.178263 
" clip-path="url(#p5a88cdcc48)" style="fill: none; stroke: #d1345b"/>
    <path d="M 217.555 158.96808 
L 217.555 118.374103 
" clip-path="url(#p5a88cdcc48)" style="fill: none; stroke: #d1345b"/>
    <path d="M 295.596958 197.426481 
L 295.596958 173.972583 
" clip-path="url(#p5a88cdcc48)" style="fill: none; stroke: #d1345b"/>
    <path d="M 373.638916 233.086135 
L 373.638916 232.342823 
" clip-path="url(#p5a88cdcc48)" style="fill: none; stroke: #d1345b"/>
   </g>
   <g id="line2d_23">
    <defs>
     <path id="mf432fc53a7" d="M 3 0 
L -3 -0 
" style="stroke: #d1345b"/>
    </defs>
    <g clip-path="url(#p5a88cdcc48)">
     <use xlink:href="#mf432fc53a7" x="61.471084" y="59.51115" style="fill: #d1345b; stroke: #d1345b"/>
     <use xlink:href="#mf432fc53a7" x="139.513042" y="73.455623" style="fill: #d1345b; stroke: #d1345b"/>
     <use xlink:href="#mf432fc53a7" x="217.555" y="158.96808" style="fill: #d1345b; stroke: #d1345b"/>
     <use xlink:href="#mf432fc53a7" x="295.596958" y="197.426481" style="fill: #d1345b; stroke: #d1345b"/>
     <use xlink:href="#mf432fc53a7" x="373.638916" y="233.086135" style="fill: #d1345b; stroke: #d1345b"/>
    </g>
   </g>
   <g id="line2d_24">
    <g clip-path="url(#p5a88cdcc48)">
     <use xlink:href="#mf432fc53a7" x="61.471084" y="45.592516" style="fill: #d1345b; stroke: #d1345b"/>
     <use xlink:href="#mf432fc53a7" x="139.513042" y="48.178263" style="fill: #d1345b; stroke: #d1345b"/>
     <use xlink:href="#mf432fc53a7" x="217.555" y="118.374103" style="fill: #d1345b; stroke: #d1345b"/>
     <use xlink:href="#mf432fc53a7" x="295.596958" y="173.972583" style="fill: #d1345b; stroke: #d1345b"/>
     <use xlink:href="#mf432fc53a7" x="373.638916" y="232.342823" style="fill: #d1345b; stroke: #d1345b"/>
    </g>
   </g>
   <g id="LineCollection_3">
    <path d="M 67.714441 129.451665 
L 67.714441 92.63099 
" clip-path="url(#p5a88cdcc48)" style="fill: none; stroke: #ff9b71"/>
    <path d="M 145.756399 43.34843 
L 145.756399 17.956483 
" clip-path="url(#p5a88cdcc48)" style="fill: none; stroke: #ff9b71"/>
    <path d="M 223.798357 94.026031 
L 223.798357 63.384594 
" clip-path="url(#p5a88cdcc48)" style="fill: none; stroke: #ff9b71"/>
    <path d="M 301.840315 49.962698 
L 301.840315 19.671504 
" clip-path="url(#p5a88cdcc48)" style="fill: none; stroke: #ff9b71"/>
    <path d="M 379.882273 233.086135 
L 379.882273 232.342823 
" clip-path="url(#p5a88cdcc48)" style="fill: none; stroke: #ff9b71"/>
   </g>
   <g id="line2d_25">
    <defs>
     <path id="m85320f580a" d="M 3 0 
L -3 -0 
" style="stroke: #ff9b71"/>
    </defs>
    <g clip-path="url(#p5a88cdcc48)">
     <use xlink:href="#m85320f580a" x="67.714441" y="129.451665" style="fill: #ff9b71; stroke: #ff9b71"/>
     <use xlink:href="#m85320f580a" x="145.756399" y="43.34843" style="fill: #ff9b71; stroke: #ff9b71"/>
     <use xlink:href="#m85320f580a" x="223.798357" y="94.026031" style="fill: #ff9b71; stroke: #ff9b71"/>
     <use xlink:href="#m85320f580a" x="301.840315" y="49.962698" style="fill: #ff9b71; stroke: #ff9b71"/>
     <use xlink:href="#m85320f580a" x="379.882273" y="233.086135" style="fill: #ff9b71; stroke: #ff9b71"/>
    </g>
   </g>
   <g id="line2d_26">
    <g clip-path="url(#p5a88cdcc48)">
     <use xlink:href="#m85320f580a" x="67.714441" y="92.63099" style="fill: #ff9b71; stroke: #ff9b71"/>
     <use xlink:href="#m85320f580a" x="145.756399" y="17.956483" style="fill: #ff9b71; stroke: #ff9b71"/>
     <use xlink:href="#m85320f580a" x="223.798357" y="63.384594" style="fill: #ff9b71; stroke: #ff9b71"/>
     <use xlink:href="#m85320f580a" x="301.840315" y="19.671504" style="fill: #ff9b71; stroke: #ff9b71"/>
     <use xlink:href="#m85320f580a" x="379.882273" y="232.342823" style="fill: #ff9b71; stroke: #ff9b71"/>
    </g>
   </g>
   <g id="line2d_27">
    <path d="M 55.227727 52.551833 
L 133.269685 60.816943 
L 211.311643 138.671091 
L 289.353601 111.405712 
L 367.395559 232.714479 
" clip-path="url(#p5a88cdcc48)" style="fill: none; stroke: #2d3047; stroke-width: 1.6; stroke-linecap: square"/>
    <defs>
     <path id="mac196c17f2" d="M 0 3 
C 0.795609 3 1.55874 2.683901 2.12132 2.12132 
C 2.683901 1.55874 3 0.795609 3 0 
C 3 -0.795609 2.683901 -1.55874 2.12132 -2.12132 
C 1.55874 -2.683901 0.795609 -3 0 -3 
C -0.795609 -3 -1.55874 -2.683901 -2.12132 -2.12132 
C -2.683901 -1.55874 -3 -0.795609 -3 0 
C -3 0.795609 -2.683901 1.55874 -2.12132 2.12132 
C -1.55874 2.683901 -0.795609 3 0 3 
z
" style="stroke: #2d3047"/>
    </defs>
    <g clip-path="url(#p5a88cdcc48)">
     <use xlink:href="#mac196c17f2" x="55.227727" y="52.551833" style="fill: #2d3047; stroke: #2d3047"/>
     <use xlink:href="#mac196c17f2" x="133.269685" y="60.816943" style="fill: #2d3047; stroke: #2d3047"/>
     <use xlink:href="#mac196c17f2" x="211.311643" y="138.671091" style="fill: #2d3047; stroke: #2d3047"/>
     <use xlink:href="#mac196c17f2" x="289.353601" y="111.405712" style="fill: #2d3047; stroke: #2d3047"/>
     <use xlink:href="#mac196c17f2" x="367.395559" y="232.714479" style="fill: #2d3047; stroke: #2d3047"/>
    </g>
   </g>
   <g id="line2d_28">
    <path d="M 61.471084 52.551833 
L 139.513042 60.816943 
L 217.555 138.671091 
L 295.596958 185.699532 
L 373.638916 232.714479 
" clip-path="url(#p5a88cdcc48)" style="fill: none; stroke: #d1345b; stroke-width: 1.6; stroke-linecap: square"/>
    <defs>
     <path id="md33ec80d9d" d="M 0 3 
C 0.795609 3 1.55874 2.683901 2.12132 2.12132 
C 2.683901 1.55874 3 0.795609 3 0 
C 3 -0.795609 2.683901 -1.55874 2.12132 -2.12132 
C 1.55874 -2.683901 0.795609 -3 0 -3 
C -0.795609 -3 -1.55874 -2.683901 -2.12132 -2.12132 
C -2.683901 -1.55874 -3 -0.795609 -3 0 
C -3 0.795609 -2.683901 1.55874 -2.12132 2.12132 
C -1.55874 2.683901 -0.795609 3 0 3 
z
" style="stroke: #d1345b"/>
    </defs>
    <g clip-path="url(#p5a88cdcc48)">
     <use xlink:href="#md33ec80d9d" x="61.471084" y="52.551833" style="fill: #d1345b; stroke: #d1345b"/>
     <use xlink:href="#md33ec80d9d" x="139.513042" y="60.816943" style="fill: #d1345b; stroke: #d1345b"/>
     <use xlink:href="#md33ec80d9d" x="217.555" y="138.671091" style="fill: #d1345b; stroke: #d1345b"/>
     <use xlink:href="#md33ec80d9d" x="295.596958" y="185.699532" style="fill: #d1345b; stroke: #d1345b"/>
     <use xlink:href="#md33ec80d9d" x="373.638916" y="232.714479" style="fill: #d1345b; stroke: #d1345b"/>
    </g>
   </g>
   <g id="line2d_29">
    <path d="M 67.714441 111.041328 
L 145.756399 30.652456 
L 223.798357 78.705312 
L 301.840315 34.817101 
L 379.882273 232.714479 
" clip-path="url(#p5a88cdcc48)" style="fill: none; stroke: #ff9b71; stroke-width: 1.6; stroke-linecap: square"/>
    <defs>
     <path id="m068269cd36" d="M 0 3 
C 0.795609 3 1.55874 2.683901 2.12132 2.12132 
C 2.683901 1.55874 3 0.795609 3 0 
C 3 -0.795609 2.683901 -1.55874 2.12132 -2.12132 
C 1.55874 -2.683901 0.795609 -3 0 -3 
C -0.795609 -3 -1.55874 -2.683901 -2.12132 -2.12132 
C -2.683901 -1.55874 -3 -0.795609 -3 0 
C -3 0.795609 -2.683901 1.55874 -2.12132 2.12132 
C -1.55874 2.683901 -0.795609 3 0 3 
z
" style="stroke: #ff9b71"/>
    </defs>
    <g clip-path="url(#p5a88cdcc48)">
     <use xlink:href="#m068269cd36" x="67.714441" y="111.041328" style="fill: #ff9b71; stroke: #ff9b71"/>
     <use xlink:href="#m068269cd36" x="145.756399" y="30.652456" style="fill: #ff9b71; stroke: #ff9b71"/>
     <use xlink:href="#m068269cd36" x="223.798357" y="78.705312" style="fill: #ff9b71; stroke: #ff9b71"/>
     <use xlink:href="#m068269cd36" x="301.840315" y="34.817101" style="fill: #ff9b71; stroke: #ff9b71"/>
     <use xlink:href="#m068269cd36" x="379.882273" y="232.714479" style="fill: #ff9b71; stroke: #ff9b71"/>
    </g>
   </g>
   <g id="patch_3">
    <path d="M 38.995 273.312 
L 38.995 7.2 
" style="fill: none; stroke: #000000; stroke-width: 0.8; stroke-linejoin: miter; stroke-linecap: square"/>
   </g>
   <g id="patch_4">
    <path d="M 396.115 273.312 
L 396.115 7.2 
" style="fill: none; stroke: #000000; stroke-width: 0.8; stroke-linejoin: miter; stroke-linecap: square"/>
   </g>
   <g id="patch_5">
    <path d="M 38.995 273.312 
L 396.115 273.312 
" style="fill: none; stroke: #000000; stroke-width: 0.8; stroke-linejoin: miter; stroke-linecap: square"/>
   </g>
   <g id="patch_6">
    <path d="M 38.995 7.2 
L 396.115 7.2 
" style="fill: none; stroke: #000000; stroke-width: 0.8; stroke-linejoin: miter; stroke-linecap: square"/>
   </g>
   <g id="legend_1">
    <g id="patch_7">
     <path d="M 326.005625 57.973437 
L 389.115 57.973437 
Q 391.115 57.973437 391.115 55.973437 
L 391.115 14.2 
Q 391.115 12.2 389.115 12.2 
L 326.005625 12.2 
Q 324.005625 12.2 324.005625 14.2 
L 324.005625 55.973437 
Q 324.005625 57.973437 326.005625 57.973437 
z
" style="fill: #ffffff; opacity: 0.8"/>
    </g>
    <g id="LineCollection_4">
     <path d="M 338.005625 24.873437 
L 338.005625 14.873437 
" style="fill: none; stroke: #2d3047"/>
    </g>
    <g id="line2d_30">
     <g>
      <use xlink:href="#mfc247073a9" x="338.005625" y="24.873437" style="fill: #2d3047; stroke: #2d3047"/>
     </g>
    </g>
    <g id="line2d_31">
     <g>
      <use xlink:href="#mfc247073a9" x="338.005625" y="14.873437" style="fill: #2d3047; stroke: #2d3047"/>
     </g>
    </g>
    <g id="line2d_32">
     <path d="M 328.005625 19.873437 
L 348.005625 19.873437 
" style="fill: none; stroke: #2d3047; stroke-width: 1.6; stroke-linecap: square"/>
    </g>
    <g id="line2d_33">
     <g>
      <use xlink:href="#mac196c17f2" x="338.005625" y="19.873437" style="fill: #2d3047; stroke: #2d3047"/>
     </g>
    </g>
    <g id="text_13">
     <text style="font-size: 10px; font-family: 'Helvetica', 'Arial', sans-serif; text-anchor: start" x="356.005625" y="23.373437" transform="rotate(-0 356.005625 23.373437)">ROWS</text>
    </g>
    <g id="LineCollection_5">
     <path d="M 338.005625 39.13125 
L 338.005625 29.13125 
" style="fill: none; stroke: #d1345b"/>
    </g>
    <g id="line2d_34">
     <g>
      <use xlink:href="#mf432fc53a7" x="338.005625" y="39.13125" style="fill: #d1345b; stroke: #d1345b"/>
     </g>
    </g>
    <g id="line2d_35">
     <g>
      <use xlink:href="#mf432fc53a7" x="338.005625" y="29.13125" style="fill: #d1345b; stroke: #d1345b"/>
     </g>
    </g>
    <g id="line2d_36">
     <path d="M 328.005625 34.13125 
L 348.005625 34.13125 
" style="fill: none; stroke: #d1345b; stroke-width: 1.6; stroke-linecap: square"/>
    </g>
    <g id="line2d_37">
     <g>
      <use xlink:href="#md33ec80d9d" x="338.005625" y="34.13125" style="fill: #d1345b; stroke: #d1345b"/>
     </g>
    </g>
    <g id="text_14">
     <text style="font-size: 10px; font-family: 'Helvetica', 'Arial', sans-serif; text-anchor: start" x="356.005625" y="37.63125" transform="rotate(-0 356.005625 37.63125)">PFI</text>
    </g>
    <g id="LineCollection_6">
     <path d="M 338.005625 53.389062 
L 338.005625 43.389062 
" style="fill: none; stroke: #ff9b71"/>
    </g>
    <g id="line2d_38">
     <g>
      <use xlink:href="#m85320f580a" x="338.005625" y="53.389062" style="fill: #ff9b71; stroke: #ff9b71"/>
     </g>
    </g>
    <g id="line2d_39">
     <g>
      <use xlink:href="#m85320f580a" x="338.005625" y="43.389062" style="fill: #ff9b71; stroke: #ff9b71"/>
     </g>
    </g>
    <g id="line2d_40">
     <path d="M 328.005625 48.389062 
L 348.005625 48.389062 
" style="fill: none; stroke: #ff9b71; stroke-width: 1.6; stroke-linecap: square"/>
    </g>
    <g id="line2d_41">
     <g>
      <use xlink:href="#m068269cd36" x="338.005625" y="48.389062" style="fill: #ff9b71; stroke: #ff9b71"/>
     </g>
    </g>
    <g id="text_15">
     <text style="font-size: 10px; font-family: 'Helvetica', 'Arial', sans-serif; text-anchor: start" x="356.005625" y="51.889062" transform="rotate(-0 356.005625 51.889062)">SAGE</text>
    </g>
   </g>
  </g>
 </g>
 <defs>
  <clipPath id="p5a88cdcc48">
   <rect x="38.995" y="7.2" width="357.12" height="266.112"/>
  </clipPath>
 </defs>
</svg>
