<?xml version="1.0" encoding="utf-8" standalone="no"?>
<!DOCTYPE svg PUBLIC "-//W3C//DTD SVG 1.1//EN"
  "http://www.w3.org/Graphics/SVG/1.1/DTD/svg11.dtd">
<svg xmlns:xlink="http://www.w3.org/1999/xlink" width="397.754062pt" height="310.23075pt" viewBox="0 0 397.754062 310.23075" xmlns="http://www.w3.org/2000/svg" version="1.1">
 <metadata>
  <rdf:RDF xmlns:dc="http://purl.org/dc/elements/1.1/" xmlns:cc="http://creativecommons.org/ns#" xmlns:rdf="http://www.w3.org/1999/02/22-rdf-syntax-ns#">
   <cc:Work>
    <dc:type rdf:resource="http://purl.org/dc/dcmitype/StillImage"/>
    <dc:date>2026-04-17T13:30:33.547199</dc:date>
    <dc:format>image/svg+xml</dc:format>
    <dc:creator>
     <cc:Agent>
      <dc:title>Matplotlib v3.10.8, https://matplotlib.org/</dc:title>
     </cc:Agent>
    </dc:creator>
   </cc:Work>
  </rdf:RDF>
 </metadata>
 <defs>
  <style type="text/css">*{stroke-linejoin: round; stroke-linecap: butt}</style>
 </defs>
 <g id="figure_1">
  <g id="patch_1">
   <path d="M 0 310.23075 
L 397.754062 310.23075 
L 397.754062 0 
L 0 0 
z
" style="fill: #ffffff"/>
  </g>
  <g id="axes_1">
   <g id="patch_2">
    <path d="M 33.434063 273.312 
L 390.554062 273.312 
L 390.554062 7.2 
L 33.434063 7.2 
z
" style="fill: #ffffff"/>
   </g>
   <g id="matplotlib.axis_1">
    <g id="xtick_1">
     <g id="line2d_1">
      <path d="M 49.66679 273.312 
L 49.66679 7.2 
" clip-path="url(#p3f55dbc5f7)" style="fill: none; stroke: #e0e0e0; stroke-opacity: 0.7; stroke-width: 0.8; stroke-linecap: square"/>
     </g>
     <g id="line2d_2">
      <defs>
       <path id="m68571dce72" d="M 0 0 
L 0 -4 
" style="stroke: #000000; stroke-width: 0.8"/>
      </defs>
      <g>
       <use xlink:href="#m68571dce72" x="49.66679" y="273.312" style="stroke: #000000; stroke-width: 0.8"/>
      </g>
     </g>
     <g id="text_1">
      <text style="font-size: 10px; font-family: 'Helvetica', 'Arial', sans-serif; text-anchor: middle" x="49.66679" y="283.985437" transform="rotate(-0 49.66679 283.985437)">1</text>
     </g>
    </g>
    <g id="xtick_2">
     <g id="line2d_3">
      <path d="M 127.708748 273.312 
L 127.708748 7.2 
" clip-path="url(#p3f55dbc5f7)" style="fill: none; stroke: #e0e0e0; stroke-opacity: 0.7; stroke-width: 0.8; stroke-linecap: square"/>
     </g>
     <g id="line2d_4">
      <g>
       <use xlink:href="#m68571dce72" x="127.708748" y="273.312" style="stroke: #000000; stroke-width: 0.8"/>
      </g>
     </g>
     <g id="text_2">
      <text style="font-size: 10px; font-family: 'Helvetica', 'Arial', sans-serif; text-anchor: middle" x="127.708748" y="283.985437" transform="rotate(-0 127.708748 283.985437)">2</text>
     </g>
    </g>
    <g id="xtick_3">
     <g id="line2d_5">
      <path d="M 205.750706 273.312 
L 205.750706 7.2 
" clip-path="url(#p3f55dbc5f7)" style="fill: none; stroke: #e0e0e0; stroke-opacity: 0.7; stroke-width: 0.8; stroke-linecap: square"/>
     </g>
     <g id="line2d_6">
      <g>
       <use xlink:href="#m68571dce72" x="205.750706" y="273.312" style="stroke: #000000; stroke-width: 0.8"/>
      </g>
     </g>
     <g id="text_3">
      <text style="font-size: 10px; font-family: 'Helvetica', 'Arial', sans-serif; text-anchor: middle" x="205.750706" y="283.985437" transform="rotate(-0 205.750706 283.985437)">3</text>
     </g>
    </g>
    <g id="xtick_4">
     <g id="line2d_7">
      <path d="M 283.792664 273.312 
L 283.792664 7.2 
" clip-path="url(#p3f55dbc5f7)" style="fill: none; stroke: #e0e0e0; stroke-opacity: 0.7; stroke-width: 0.8; stroke-linecap: square"/>
     </g>
     <g id="line2d_8">
      <g>
       <use xlink:href="#m68571dce72" x="283.792664" y="273.312" style="stroke: #000000; stroke-width: 0.8"/>
      </g>
     </g>
     <g id="text_4">
      <text style="font-size: 10px; font-family: 'Helvetica', 'Arial', sans-serif; text-anchor: middle" x="283.792664" y="283.985437" transform="rotate(-0 283.792664 283.985437)">4</text>
     </g>
    </g>
    <g id="xtick_5">
     <g id="line2d_9">
      <path d="M 361.834622 273.312 
L 361.834622 7.2 
" clip-path="url(#p3f55dbc5f7)" style="fill: none; stroke: #e0e0e0; stroke-opacity: 0.7; stroke-width: 0.8; stroke-linecap: square"/>
     </g>
     <g id="line2d_10">
      <g>
       <use xlink:href="#m68571dce72" x="361.834622" y="273.312" style="stroke: #000000; stroke-width: 0.8"/>
      </g>
     </g>
     <g id="text_5">
      <text style="font-size: 10px; font-family: 'Helvetica', 'Arial', sans-serif; text-anchor: middle" x="361.834622" y="283.985437" transform="rotate(-0 361.834622 283.985437)">5</text>
     </g>
    </g>
    <g id="text_6">
     <text style="font-size: 14px; font-family: 'Helvetica', 'Arial', sans-serif; text-anchor: middle" x="211.994063" y="300.112625" transform="rotate(-0 211.994063 300.112625)">Detector Count</text>
    </g>
   </g>
   <g id="matplotlib.axis_2">
    <g id="ytick_1">
     <g id="line2d_11">
      <path d="M 33.434063 273.312 
L 390.554062 273.312 
" clip-path="url(#p3f55dbc5f7)" style="fill: none; stroke: #e0e0e0; stroke-opacity: 0.7; stroke-width: 0.8; stroke-linecap: square"/>
     </g>
     <g id="line2d_12">
      <defs>
       <path id="mdf9b2c35b0" d="M 0 0 
L 4 0 
" style="stroke: #000000; stroke-width: 0.8"/>
      </defs>
      <g>
       <use xlink:href="#mdf9b2c35b0" x="33.434063" y="273.312" style="stroke: #000000; stroke-width: 0.8"/>
      </g>
     </g>
     <g id="text_7">
      <text style="font-size: 10px; font-family: 'Helvetica', 'Arial', sans-serif; text-anchor: end" x="29.934063" y="276.898719" transform="rotate(-0 29.934063 276.898719)">0</text>
     </g>
    </g>
    <g id="ytick_2">
     <g id="line2d_13">
      <path d="M 33.434063 218.863952 
L 390.554062 218.863952 
" clip-path="url(#p3f55dbc5f7)" style="fill: none; stroke: #e0e0e0; stroke-opacity: 0.7; stroke-width: 0.8; stroke-linecap: square"/>
     </g>
     <g id="line2d_14">
      <g>
       <use xlink:href="#mdf9b2c35b0" x="33.434063" y="218.863952" style="stroke: #000000; stroke-width: 0.8"/>
      </g>
     </g>
     <g id="text_8">
      <text style="font-size: 10px; font-family: 'Helvetica', 'Arial', sans-serif; text-anchor: end" x="29.934063" y="222.450671" transform="rotate(-0 29.934063 222.450671)">2</text>
     </g>
    </g>
    <g id="ytick_3">
     <g id="line2d_15">
      <path d="M 33.434063 164.415904 
L 390.554062 164.415904 
" clip-path="url(#p3f55dbc5f7)" style="fill: none; stroke: #e0e0e0; stroke-opacity: 0.7; stroke-width: 0.8; stroke-linecap: square"/>
     </g>
     <g id="line2d_16">
      <g>
       <use xlink:href="#mdf9b2c35b0" x="33.434063" y="164.415904" style="stroke: #000000; stroke-width: 0.8"/>
      </g>
     </g>
     <g id="text_9">
      <text style="font-size: 10px; font-family: 'Helvetica', 'Arial', sans-serif; text-anchor: end" x="29.934063" y="168.002622" transform="rotate(-0 29.934063 168.002622)">4</text>
     </g>
    </g>
    <g id="ytick_4">
     <g id="line2d_17">
      <path d="M 33.434063 109.967855 
L 390.554062 109.967855 
" clip-path="url(#p3f55dbc5f7)" style="fill: none; stroke: #e0e0e0; stroke-opacity: 0.7; stroke-width: 0.8; stroke-linecap: square"/>
     </g>
     <g id="line2d_18">
      <g>
       <use xlink:href="#mdf9b2c35b0" x="33.434063" y="109.967855" style="stroke: #000000; stroke-width: 0.8"/>
      </g>
     </g>
     <g id="text_10">
      <text style="font-size: 10px; font-family: 'Helvetica', 'Arial', sans-serif; text-anchor: end" x="29.934063" y="113.554574" transform="rotate(-0 29.934063 113.554574)">6</text>
     </g>
    </g>
    <g id="ytick_5">
     <g id="line2d_19">
      <path d="M 33.434063 55.519807 
L 390.554062 55.519807 
" clip-path="url(#p3f55dbc5f7)" style="fill: none; stroke: #e0e0e0; stroke-opacity: 0.7; stroke-width: 0.8; stroke-linecap: square"/>
     </g>
     <g id="line2d_20">
      <g>
       <use xlink:href="#mdf9b2c35b0" x="33.434063" y="55.519807" style="stroke: #000000; stroke-width: 0.8"/>
      </g>
     </g>
     <g id="text_11">
      <text style="font-size: 10px; font-family: 'Helvetica', 'Arial', sans-serif; text-anchor: end" x="29.934063" y="59.106526" transform="rotate(-0 29.934063 59.106526)">8</text>
     </g>
    </g>
    <g id="text_12">
     <text style="font-size: 14px; font-family: 'Helvetica', 'Arial', sans-serif; text-anchor: middle" x="17.455" y="140.256" transform="rotate(-90 17.455 140.256)">Test Error (MAE % Saturation)</text>
    </g>
   </g>
   <g id="LineCollection_1">
    <path d="M 49.66679 129.298364 
L 49.66679 13.085168 
" clip-path="url(#p3f55dbc5f7)" style="fill: none; stroke: #2d3047"/>
    <path d="M 127.708748 129.255882 
L 127.708748 13.063831 
" clip-path="url(#p3f55dbc5f7)" style="fill: none; stroke: #2d3047"/>
    <path d="M 205.750706 129.200964 
L 205.750706 13.036224 
" clip-path="url(#p3f55dbc5f7)" style="fill: none; stroke: #2d3047"/>
    <path d="M 283.792664 129.189016 
L 283.792664 13.030214 
" clip-path="url(#p3f55dbc5f7)" style="fill: none; stroke: #2d3047"/>
    <path d="M 361.834622 129.157209 
L 361.834622 13.014208 
" clip-path="url(#p3f55dbc5f7)" style="fill: none; stroke: #2d3047"/>
   </g>
   <g id="line2d_21">
    <defs>
     <path id="m05c85b0309" d="M 3 0 
L -3 -0 
" style="stroke: #2d3047"/>
    </defs>
    <g clip-path="url(#p3f55dbc5f7)">
     <use xlink:href="#m05c85b0309" x="49.66679" y="129.298364" style="fill: #2d3047; stroke: #2d3047"/>
     <use xlink:href="#m05c85b0309" x="127.708748" y="129.255882" style="fill: #2d3047; stroke: #2d3047"/>
     <use xlink:href="#m05c85b0309" x="205.750706" y="129.200964" style="fill: #2d3047; stroke: #2d3047"/>
     <use xlink:href="#m05c85b0309" x="283.792664" y="129.189016" style="fill: #2d3047; stroke: #2d3047"/>
     <use xlink:href="#m05c85b0309" x="361.834622" y="129.157209" style="fill: #2d3047; stroke: #2d3047"/>
    </g>
   </g>
   <g id="line2d_22">
    <g clip-path="url(#p3f55dbc5f7)">
     <use xlink:href="#m05c85b0309" x="49.66679" y="13.085168" style="fill: #2d3047; stroke: #2d3047"/>
     <use xlink:href="#m05c85b0309" x="127.708748" y="13.063831" style="fill: #2d3047; stroke: #2d3047"/>
     <use xlink:href="#m05c85b0309" x="205.750706" y="13.036224" style="fill: #2d3047; stroke: #2d3047"/>
     <use xlink:href="#m05c85b0309" x="283.792664" y="13.030214" style="fill: #2d3047; stroke: #2d3047"/>
     <use xlink:href="#m05c85b0309" x="361.834622" y="13.014208" style="fill: #2d3047; stroke: #2d3047"/>
    </g>
   </g>
   <g id="LineCollection_2">
    <path d="M 55.910146 129.298364 
L 55.910146 13.085168 
" clip-path="url(#p3f55dbc5f7)" style="fill: none; stroke: #d1345b"/>
    <path d="M 133.952104 129.286408 
L 133.952104 13.079165 
" clip-path="url(#p3f55dbc5f7)" style="fill: none; stroke: #d1345b"/>
    <path d="M 211.994063 129.25458 
L 211.994063 13.063178 
" clip-path="url(#p3f55dbc5f7)" style="fill: none; stroke: #d1345b"/>
    <path d="M 290.036021 129.199662 
L 290.036021 13.035569 
" clip-path="url(#p3f55dbc5f7)" style="fill: none; stroke: #d1345b"/>
    <path d="M 368.077979 129.157209 
L 368.077979 13.014208 
" clip-path="url(#p3f55dbc5f7)" style="fill: none; stroke: #d1345b"/>
   </g>
   <g id="line2d_23">
    <defs>
     <path id="mcd78d408e8" d="M 3 0 
L -3 -0 
" style="stroke: #d1345b"/>
    </defs>
    <g clip-path="url(#p3f55dbc5f7)">
     <use xlink:href="#mcd78d408e8" x="55.910146" y="129.298364" style="fill: #d1345b; stroke: #d1345b"/>
     <use xlink:href="#mcd78d408e8" x="133.952104" y="129.286408" style="fill: #d1345b; stroke: #d1345b"/>
     <use xlink:href="#mcd78d408e8" x="211.994063" y="129.25458" style="fill: #d1345b; stroke: #d1345b"/>
     <use xlink:href="#mcd78d408e8" x="290.036021" y="129.199662" style="fill: #d1345b; stroke: #d1345b"/>
     <use xlink:href="#mcd78d408e8" x="368.077979" y="129.157209" style="fill: #d1345b; stroke: #d1345b"/>
    </g>
   </g>
   <g id="line2d_24">
    <g clip-path="url(#p3f55dbc5f7)">
     <use xlink:href="#mcd78d408e8" x="55.910146" y="13.085168" style="fill: #d1345b; stroke: #d1345b"/>
     <use xlink:href="#mcd78d408e8" x="133.952104" y="13.079165" style="fill: #d1345b; stroke: #d1345b"/>
     <use xlink:href="#mcd78d408e8" x="211.994063" y="13.063178" style="fill: #d1345b; stroke: #d1345b"/>
     <use xlink:href="#mcd78d408e8" x="290.036021" y="13.035569" style="fill: #d1345b; stroke: #d1345b"/>
     <use xlink:href="#mcd78d408e8" x="368.077979" y="13.014208" style="fill: #d1345b; stroke: #d1345b"/>
    </g>
   </g>
   <g id="LineCollection_3">
    <path d="M 62.153503 129.281966 
L 62.153503 13.076934 
" clip-path="url(#p3f55dbc5f7)" style="fill: none; stroke: #ff9b71"/>
    <path d="M 140.195461 129.270015 
L 140.195461 13.070932 
" clip-path="url(#p3f55dbc5f7)" style="fill: none; stroke: #ff9b71"/>
    <path d="M 218.237419 129.227545 
L 218.237419 13.04959 
" clip-path="url(#p3f55dbc5f7)" style="fill: none; stroke: #ff9b71"/>
    <path d="M 296.279377 129.189016 
L 296.279377 13.030214 
" clip-path="url(#p3f55dbc5f7)" style="fill: none; stroke: #ff9b71"/>
    <path d="M 374.321335 129.157209 
L 374.321335 13.014208 
" clip-path="url(#p3f55dbc5f7)" style="fill: none; stroke: #ff9b71"/>
   </g>
   <g id="line2d_25">
    <defs>
     <path id="m02e94e0f2c" d="M 3 0 
L -3 -0 
" style="stroke: #ff9b71"/>
    </defs>
    <g clip-path="url(#p3f55dbc5f7)">
     <use xlink:href="#m02e94e0f2c" x="62.153503" y="129.281966" style="fill: #ff9b71; stroke: #ff9b71"/>
     <use xlink:href="#m02e94e0f2c" x="140.195461" y="129.270015" style="fill: #ff9b71; stroke: #ff9b71"/>
     <use xlink:href="#m02e94e0f2c" x="218.237419" y="129.227545" style="fill: #ff9b71; stroke: #ff9b71"/>
     <use xlink:href="#m02e94e0f2c" x="296.279377" y="129.189016" style="fill: #ff9b71; stroke: #ff9b71"/>
     <use xlink:href="#m02e94e0f2c" x="374.321335" y="129.157209" style="fill: #ff9b71; stroke: #ff9b71"/>
    </g>
   </g>
   <g id="line2d_26">
    <g clip-path="url(#p3f55dbc5f7)">
     <use xlink:href="#m02e94e0f2c" x="62.153503" y="13.076934" style="fill: #ff9b71; stroke: #ff9b71"/>
     <use xlink:href="#m02e94e0f2c" x="140.195461" y="13.070932" style="fill: #ff9b71; stroke: #ff9b71"/>
     <use xlink:href="#m02e94e0f2c" x="218.237419" y="13.04959" style="fill: #ff9b71; stroke: #ff9b71"/>
     <use xlink:href="#m02e94e0f2c" x="296.279377" y="13.030214" style="fill: #ff9b71; stroke: #ff9b71"/>
     <use xlink:href="#m02e94e0f2c" x="374.321335" y="13.014208" style="fill: #ff9b71; stroke: #ff9b71"/>
    </g>
   </g>
   <g id="line2d_27">
    <path d="M 49.66679 71.191766 
L 127.708748 71.159857 
L 205.750706 71.118594 
L 283.792664 71.109615 
L 361.834622 71.085708 
" clip-path="url(#p3f55dbc5f7)" style="fill: none; stroke: #2d3047; stroke-width: 1.6; stroke-linecap: square"/>
    <defs>
     <path id="m2ba266bd3b" d="M 0 3 
C 0.795609 3 1.55874 2.683901 2.12132 2.12132 
C 2.683901 1.55874 3 0.795609 3 0 
C 3 -0.795609 2.683901 -1.55874 2.12132 -2.12132 
C 1.55874 -2.683901 0.795609 -3 0 -3 
C -0.795609 -3 -1.55874 -2.683901 -2.12132 -2.12132 
C -2.683901 -1.55874 -3 -0.795609 -3 0 
C -3 0.795609 -2.683901 1.55874 -2.12132 2.12132 
C -1.55874 2.683901 -0.795609 3 0 3 
z
" style="stroke: #2d3047"/>
    </defs>
    <g clip-path="url(#p3f55dbc5f7)">
     <use xlink:href="#m2ba266bd3b" x="49.66679" y="71.191766" style="fill: #2d3047; stroke: #2d3047"/>
     <use xlink:href="#m2ba266bd3b" x="127.708748" y="71.159857" style="fill: #2d3047; stroke: #2d3047"/>
     <use xlink:href="#m2ba266bd3b" x="205.750706" y="71.118594" style="fill: #2d3047; stroke: #2d3047"/>
     <use xlink:href="#m2ba266bd3b" x="283.792664" y="71.109615" style="fill: #2d3047; stroke: #2d3047"/>
     <use xlink:href="#m2ba266bd3b" x="361.834622" y="71.085708" style="fill: #2d3047; stroke: #2d3047"/>
    </g>
   </g>
   <g id="line2d_28">
    <path d="M 55.910146 71.191766 
L 133.952104 71.182787 
L 211.994063 71.158879 
L 290.036021 71.117616 
L 368.077979 71.085708 
" clip-path="url(#p3f55dbc5f7)" style="fill: none; stroke: #d1345b; stroke-width: 1.6; stroke-linecap: square"/>
    <defs>
     <path id="m21cc782f43" d="M 0 3 
C 0.795609 3 1.55874 2.683901 2.12132 2.12132 
C 2.683901 1.55874 3 0.795609 3 0 
C 3 -0.795609 2.683901 -1.55874 2.12132 -2.12132 
C 1.55874 -2.683901 0.795609 -3 0 -3 
C -0.795609 -3 -1.55874 -2.683901 -2.12132 -2.12132 
C -2.683901 -1.55874 -3 -0.795609 -3 0 
C -3 0.795609 -2.683901 1.55874 -2.12132 2.12132 
C -1.55874 2.683901 -0.795609 3 0 3 
z
" style="stroke: #d1345b"/>
    </defs>
    <g clip-path="url(#p3f55dbc5f7)">
     <use xlink:href="#m21cc782f43" x="55.910146" y="71.191766" style="fill: #d1345b; stroke: #d1345b"/>
     <use xlink:href="#m21cc782f43" x="133.952104" y="71.182787" style="fill: #d1345b; stroke: #d1345b"/>
     <use xlink:href="#m21cc782f43" x="211.994063" y="71.158879" style="fill: #d1345b; stroke: #d1345b"/>
     <use xlink:href="#m21cc782f43" x="290.036021" y="71.117616" style="fill: #d1345b; stroke: #d1345b"/>
     <use xlink:href="#m21cc782f43" x="368.077979" y="71.085708" style="fill: #d1345b; stroke: #d1345b"/>
    </g>
   </g>
   <g id="line2d_29">
    <path d="M 62.153503 71.17945 
L 140.195461 71.170473 
L 218.237419 71.138567 
L 296.279377 71.109615 
L 374.321335 71.085708 
" clip-path="url(#p3f55dbc5f7)" style="fill: none; stroke: #ff9b71; stroke-width: 1.6; stroke-linecap: square"/>
    <defs>
     <path id="mb0a3eaf216" d="M 0 3 
C 0.795609 3 1.55874 2.683901 2.12132 2.12132 
C 2.683901 1.55874 3 0.795609 3 0 
C 3 -0.795609 2.683901 -1.55874 2.12132 -2.12132 
C 1.55874 -2.683901 0.795609 -3 0 -3 
C -0.795609 -3 -1.55874 -2.683901 -2.12132 -2.12132 
C -2.683901 -1.55874 -3 -0.795609 -3 0 
C -3 0.795609 -2.683901 1.55874 -2.12132 2.12132 
C -1.55874 2.683901 -0.795609 3 0 3 
z
" style="stroke: #ff9b71"/>
    </defs>
    <g clip-path="url(#p3f55dbc5f7)">
     <use xlink:href="#mb0a3eaf216" x="62.153503" y="71.17945" style="fill: #ff9b71; stroke: #ff9b71"/>
     <use xlink:href="#mb0a3eaf216" x="140.195461" y="71.170473" style="fill: #ff9b71; stroke: #ff9b71"/>
     <use xlink:href="#mb0a3eaf216" x="218.237419" y="71.138567" style="fill: #ff9b71; stroke: #ff9b71"/>
     <use xlink:href="#mb0a3eaf216" x="296.279377" y="71.109615" style="fill: #ff9b71; stroke: #ff9b71"/>
     <use xlink:href="#mb0a3eaf216" x="374.321335" y="71.085708" style="fill: #ff9b71; stroke: #ff9b71"/>
    </g>
   </g>
   <g id="patch_3">
    <path d="M 33.434063 273.312 
L 33.434063 7.2 
" style="fill: none; stroke: #000000; stroke-width: 0.8; stroke-linejoin: miter; stroke-linecap: square"/>
   </g>
   <g id="patch_4">
    <path d="M 390.554062 273.312 
L 390.554062 7.2 
" style="fill: none; stroke: #000000; stroke-width: 0.8; stroke-linejoin: miter; stroke-linecap: square"/>
   </g>
   <g id="patch_5">
    <path d="M 33.434063 273.312 
L 390.554063 273.312 
" style="fill: none; stroke: #000000; stroke-width: 0.8; stroke-linejoin: miter; stroke-linecap: square"/>
   </g>
   <g id="patch_6">
    <path d="M 33.434063 7.2 
L 390.554063 7.2 
" style="fill: none; stroke: #000000; stroke-width: 0.8; stroke-linejoin: miter; stroke-linecap: square"/>
   </g>
   <g id="legend_1">
    <g id="patch_7">
     <path d="M 40.434063 268.312 
L 101.32625 268.312 
Q 103.32625 268.312 103.32625 266.312 
L 103.32625 224.538562 
Q 103.32625 222.538562 101.32625 222.538562 
L 40.434063 222.538562 
Q 38.434063 222.538562 38.434063 224.538562 
L 38.434063 266.312 
Q 38.434063 268.312 40.434063 268.312 
z
" style="fill: #ffffff; opacity: 0.8"/>
    </g>
    <g id="LineCollection_4">
     <path d="M 52.434063 235.212 
L 52.434063 225.212 
" style="fill: none; stroke: #2d3047"/>
    </g>
    <g id="line2d_30">
     <g>
      <use xlink:href="#m05c85b0309" x="52.434063" y="235.212" style="fill: #2d3047; stroke: #2d3047"/>
     </g>
    </g>
    <g id="line2d_31">
     <g>
      <use xlink:href="#m05c85b0309" x="52.434063" y="225.212" style="fill: #2d3047; stroke: #2d3047"/>
     </g>
    </g>
    <g id="line2d_32">
     <path d="M 42.434063 230.212 
L 62.434063 230.212 
" style="fill: none; stroke: #2d3047; stroke-width: 1.6; stroke-linecap: square"/>
    </g>
    <g id="line2d_33">
     <g>
      <use xlink:href="#m2ba266bd3b" x="52.434063" y="230.212" style="fill: #2d3047; stroke: #2d3047"/>
     </g>
    </g>
    <g id="text_13">
     <text style="font-size: 10px; font-family: 'Helvetica', 'Arial', sans-serif; text-anchor: start" x="70.434063" y="233.712" transform="rotate(-0 70.434063 233.712)">OURS</text>
    </g>
    <g id="LineCollection_5">
     <path d="M 52.434063 249.469812 
L 52.434063 239.469812 
" style="fill: none; stroke: #d1345b"/>
    </g>
    <g id="line2d_34">
     <g>
      <use xlink:href="#mcd78d408e8" x="52.434063" y="249.469812" style="fill: #d1345b; stroke: #d1345b"/>
     </g>
    </g>
    <g id="line2d_35">
     <g>
      <use xlink:href="#mcd78d408e8" x="52.434063" y="239.469812" style="fill: #d1345b; stroke: #d1345b"/>
     </g>
    </g>
    <g id="line2d_36">
     <path d="M 42.434063 244.469812 
L 62.434063 244.469812 
" style="fill: none; stroke: #d1345b; stroke-width: 1.6; stroke-linecap: square"/>
    </g>
    <g id="line2d_37">
     <g>
      <use xlink:href="#m21cc782f43" x="52.434063" y="244.469812" style="fill: #d1345b; stroke: #d1345b"/>
     </g>
    </g>
    <g id="text_14">
     <text style="font-size: 10px; font-family: 'Helvetica', 'Arial', sans-serif; text-anchor: start" x="70.434063" y="247.969812" transform="rotate(-0 70.434063 247.969812)">PFI</text>
    </g>
    <g id="LineCollection_6">
     <path d="M 52.434063 263.727625 
L 52.434063 253.727625 
" style="fill: none; stroke: #ff9b71"/>
    </g>
    <g id="line2d_38">
     <g>
      <use xlink:href="#m02e94e0f2c" x="52.434063" y="263.727625" style="fill: #ff9b71; stroke: #ff9b71"/>
     </g>
    </g>
    <g id="line2d_39">
     <g>
      <use xlink:href="#m02e94e0f2c" x="52.434063" y="253.727625" style="fill: #ff9b71; stroke: #ff9b71"/>
     </g>
    </g>
    <g id="line2d_40">
     <path d="M 42.434063 258.727625 
L 62.434063 258.727625 
" style="fill: none; stroke: #ff9b71; stroke-width: 1.6; stroke-linecap: square"/>
    </g>
    <g id="line2d_41">
     <g>
      <use xlink:href="#mb0a3eaf216" x="52.434063" y="258.727625" style="fill: #ff9b71; stroke: #ff9b71"/>
     </g>
    </g>
    <g id="text_15">
     <text style="font-size: 10px; font-family: 'Helvetica', 'Arial', sans-serif; text-anchor: start" x="70.434063" y="262.227625" transform="rotate(-0 70.434063 262.227625)">SAGE</text>
    </g>
   </g>
  </g>
 </g>
 <defs>
  <clipPath id="p3f55dbc5f7">
   <rect x="33.434063" y="7.2" width="357.12" height="266.112"/>
  </clipPath>
 </defs>
</svg>
