<?xml version="1.0" encoding="utf-8" standalone="no"?>
<!DOCTYPE svg PUBLIC "-//W3C//DTD SVG 1.1//EN"
  "http://www.w3.org/Graphics/SVG/1.1/DTD/svg11.dtd">
<svg xmlns:xlink="http://www.w3.org/1999/xlink" width="403.315pt" height="310.683562pt" viewBox="0 0 403.315 310.683562" xmlns="http://www.w3.org/2000/svg" version="1.1">
 <metadata>
  <rdf:RDF xmlns:dc="http://purl.org/dc/elements/1.1/" xmlns:cc="http://creativecommons.org/ns#" xmlns:rdf="http://www.w3.org/1999/02/22-rdf-syntax-ns#">
   <cc:Work>
    <dc:type rdf:resource="http://purl.org/dc/dcmitype/StillImage"/>
    <dc:date>2026-04-21T14:23:09.712343</dc:date>
    <dc:format>image/svg+xml</dc:format>
    <dc:creator>
     <cc:Agent>
      <dc:title>Matplotlib v3.10.8, https://matplotlib.org/</dc:title>
     </cc:Agent>
    </dc:creator>
   </cc:Work>
  </rdf:RDF>
 </metadata>
 <defs>
  <style type="text/css">*{stroke-linejoin: round; stroke-linecap: butt}</style>
 </defs>
 <g id="figure_1">
  <g id="patch_1">
   <path d="M 0 310.683562 
L 403.315 310.683562 
L 403.315 0 
L 0 0 
z
" style="fill: #ffffff"/>
  </g>
  <g id="axes_1">
   <g id="patch_2">
    <path d="M 38.995 273.312 
L 396.115 273.312 
L 396.115 7.2 
L 38.995 7.2 
z
" style="fill: #ffffff"/>
   </g>
   <g id="matplotlib.axis_1">
    <g id="xtick_1">
     <g id="line2d_1">
      <path d="M 55.227727 273.312 
L 55.227727 7.2 
" clip-path="url(#pd18a18bf59)" style="fill: none; stroke: #e0e0e0; stroke-opacity: 0.7; stroke-width: 0.8; stroke-linecap: square"/>
     </g>
     <g id="line2d_2">
      <defs>
       <path id="mf7e721e243" d="M 0 0 
L 0 -4 
" style="stroke: #000000; stroke-width: 0.8"/>
      </defs>
      <g>
       <use xlink:href="#mf7e721e243" x="55.227727" y="273.312" style="stroke: #000000; stroke-width: 0.8"/>
      </g>
     </g>
     <g id="text_1">
      <text style="font-size: 10px; font-family: 'Helvetica', 'Arial', sans-serif; text-anchor: middle" x="55.227727" y="283.985437" transform="rotate(-0 55.227727 283.985437)">1</text>
     </g>
    </g>
    <g id="xtick_2">
     <g id="line2d_3">
      <path d="M 134.411763 273.312 
L 134.411763 7.2 
" clip-path="url(#pd18a18bf59)" style="fill: none; stroke: #e0e0e0; stroke-opacity: 0.7; stroke-width: 0.8; stroke-linecap: square"/>
     </g>
     <g id="line2d_4">
      <g>
       <use xlink:href="#mf7e721e243" x="134.411763" y="273.312" style="stroke: #000000; stroke-width: 0.8"/>
      </g>
     </g>
     <g id="text_2">
      <text style="font-size: 10px; font-family: 'Helvetica', 'Arial', sans-serif; text-anchor: middle" x="134.411763" y="283.985437" transform="rotate(-0 134.411763 283.985437)">2</text>
     </g>
    </g>
    <g id="xtick_3">
     <g id="line2d_5">
      <path d="M 213.595798 273.312 
L 213.595798 7.2 
" clip-path="url(#pd18a18bf59)" style="fill: none; stroke: #e0e0e0; stroke-opacity: 0.7; stroke-width: 0.8; stroke-linecap: square"/>
     </g>
     <g id="line2d_6">
      <g>
       <use xlink:href="#mf7e721e243" x="213.595798" y="273.312" style="stroke: #000000; stroke-width: 0.8"/>
      </g>
     </g>
     <g id="text_3">
      <text style="font-size: 10px; font-family: 'Helvetica', 'Arial', sans-serif; text-anchor: middle" x="213.595798" y="283.985437" transform="rotate(-0 213.595798 283.985437)">3</text>
     </g>
    </g>
    <g id="xtick_4">
     <g id="line2d_7">
      <path d="M 292.779834 273.312 
L 292.779834 7.2 
" clip-path="url(#pd18a18bf59)" style="fill: none; stroke: #e0e0e0; stroke-opacity: 0.7; stroke-width: 0.8; stroke-linecap: square"/>
     </g>
     <g id="line2d_8">
      <g>
       <use xlink:href="#mf7e721e243" x="292.779834" y="273.312" style="stroke: #000000; stroke-width: 0.8"/>
      </g>
     </g>
     <g id="text_4">
      <text style="font-size: 10px; font-family: 'Helvetica', 'Arial', sans-serif; text-anchor: middle" x="292.779834" y="283.985437" transform="rotate(-0 292.779834 283.985437)">4</text>
     </g>
    </g>
    <g id="xtick_5">
     <g id="line2d_9">
      <path d="M 371.963869 273.312 
L 371.963869 7.2 
" clip-path="url(#pd18a18bf59)" style="fill: none; stroke: #e0e0e0; stroke-opacity: 0.7; stroke-width: 0.8; stroke-linecap: square"/>
     </g>
     <g id="line2d_10">
      <g>
       <use xlink:href="#mf7e721e243" x="371.963869" y="273.312" style="stroke: #000000; stroke-width: 0.8"/>
      </g>
     </g>
     <g id="text_5">
      <text style="font-size: 10px; font-family: 'Helvetica', 'Arial', sans-serif; text-anchor: middle" x="371.963869" y="283.985437" transform="rotate(-0 371.963869 283.985437)">5</text>
     </g>
    </g>
    <g id="text_6">
     <text style="font-size: 14px; font-family: 'Helvetica', 'Arial', sans-serif; text-anchor: middle" x="217.555" y="300.386062" transform="rotate(-0 217.555 300.386062)">Wavelength Count</text>
    </g>
   </g>
   <g id="matplotlib.axis_2">
    <g id="ytick_1">
     <g id="line2d_11">
      <path d="M 38.995 273.312 
L 396.115 273.312 
" clip-path="url(#pd18a18bf59)" style="fill: none; stroke: #e0e0e0; stroke-opacity: 0.7; stroke-width: 0.8; stroke-linecap: square"/>
     </g>
     <g id="line2d_12">
      <defs>
       <path id="m2897728978" d="M 0 0 
L 4 0 
" style="stroke: #000000; stroke-width: 0.8"/>
      </defs>
      <g>
       <use xlink:href="#m2897728978" x="38.995" y="273.312" style="stroke: #000000; stroke-width: 0.8"/>
      </g>
     </g>
     <g id="text_7">
      <text style="font-size: 10px; font-family: 'Helvetica', 'Arial', sans-serif; text-anchor: end" x="35.495" y="276.898719" transform="rotate(-0 35.495 276.898719)">0</text>
     </g>
    </g>
    <g id="ytick_2">
     <g id="line2d_13">
      <path d="M 38.995 225.982788 
L 396.115 225.982788 
" clip-path="url(#pd18a18bf59)" style="fill: none; stroke: #e0e0e0; stroke-opacity: 0.7; stroke-width: 0.8; stroke-linecap: square"/>
     </g>
     <g id="line2d_14">
      <g>
       <use xlink:href="#m2897728978" x="38.995" y="225.982788" style="stroke: #000000; stroke-width: 0.8"/>
      </g>
     </g>
     <g id="text_8">
      <text style="font-size: 10px; font-family: 'Helvetica', 'Arial', sans-serif; text-anchor: end" x="35.495" y="229.569507" transform="rotate(-0 35.495 229.569507)">2</text>
     </g>
    </g>
    <g id="ytick_3">
     <g id="line2d_15">
      <path d="M 38.995 178.653576 
L 396.115 178.653576 
" clip-path="url(#pd18a18bf59)" style="fill: none; stroke: #e0e0e0; stroke-opacity: 0.7; stroke-width: 0.8; stroke-linecap: square"/>
     </g>
     <g id="line2d_16">
      <g>
       <use xlink:href="#m2897728978" x="38.995" y="178.653576" style="stroke: #000000; stroke-width: 0.8"/>
      </g>
     </g>
     <g id="text_9">
      <text style="font-size: 10px; font-family: 'Helvetica', 'Arial', sans-serif; text-anchor: end" x="35.495" y="182.240295" transform="rotate(-0 35.495 182.240295)">4</text>
     </g>
    </g>
    <g id="ytick_4">
     <g id="line2d_17">
      <path d="M 38.995 131.324364 
L 396.115 131.324364 
" clip-path="url(#pd18a18bf59)" style="fill: none; stroke: #e0e0e0; stroke-opacity: 0.7; stroke-width: 0.8; stroke-linecap: square"/>
     </g>
     <g id="line2d_18">
      <g>
       <use xlink:href="#m2897728978" x="38.995" y="131.324364" style="stroke: #000000; stroke-width: 0.8"/>
      </g>
     </g>
     <g id="text_10">
      <text style="font-size: 10px; font-family: 'Helvetica', 'Arial', sans-serif; text-anchor: end" x="35.495" y="134.911083" transform="rotate(-0 35.495 134.911083)">6</text>
     </g>
    </g>
    <g id="ytick_5">
     <g id="line2d_19">
      <path d="M 38.995 83.995152 
L 396.115 83.995152 
" clip-path="url(#pd18a18bf59)" style="fill: none; stroke: #e0e0e0; stroke-opacity: 0.7; stroke-width: 0.8; stroke-linecap: square"/>
     </g>
     <g id="line2d_20">
      <g>
       <use xlink:href="#m2897728978" x="38.995" y="83.995152" style="stroke: #000000; stroke-width: 0.8"/>
      </g>
     </g>
     <g id="text_11">
      <text style="font-size: 10px; font-family: 'Helvetica', 'Arial', sans-serif; text-anchor: end" x="35.495" y="87.581871" transform="rotate(-0 35.495 87.581871)">8</text>
     </g>
    </g>
    <g id="ytick_6">
     <g id="line2d_21">
      <path d="M 38.995 36.66594 
L 396.115 36.66594 
" clip-path="url(#pd18a18bf59)" style="fill: none; stroke: #e0e0e0; stroke-opacity: 0.7; stroke-width: 0.8; stroke-linecap: square"/>
     </g>
     <g id="line2d_22">
      <g>
       <use xlink:href="#m2897728978" x="38.995" y="36.66594" style="stroke: #000000; stroke-width: 0.8"/>
      </g>
     </g>
     <g id="text_12">
      <text style="font-size: 10px; font-family: 'Helvetica', 'Arial', sans-serif; text-anchor: end" x="35.495" y="40.252658" transform="rotate(-0 35.495 40.252658)">10</text>
     </g>
    </g>
    <g id="text_13">
     <text style="font-size: 14px; font-family: 'Helvetica', 'Arial', sans-serif; text-anchor: middle" x="17.455" y="140.256" transform="rotate(-90 17.455 140.256)">Test MAE (%Saturation)</text>
    </g>
   </g>
   <g id="LineCollection_1">
    <path d="M 55.227727 127.897418 
L 55.227727 92.66487 
" clip-path="url(#pd18a18bf59)" style="fill: none; stroke: #2d3047"/>
    <path d="M 134.411763 161.279051 
L 134.411763 51.465696 
" clip-path="url(#pd18a18bf59)" style="fill: none; stroke: #2d3047"/>
    <path d="M 213.595798 178.084503 
L 213.595798 48.666444 
" clip-path="url(#pd18a18bf59)" style="fill: none; stroke: #2d3047"/>
    <path d="M 292.779834 172.964482 
L 292.779834 156.075483 
" clip-path="url(#pd18a18bf59)" style="fill: none; stroke: #2d3047"/>
    <path d="M 371.963869 188.146995 
L 371.963869 166.298369 
" clip-path="url(#pd18a18bf59)" style="fill: none; stroke: #2d3047"/>
   </g>
   <g id="line2d_23">
    <defs>
     <path id="m6a7c596b6a" d="M 3 0 
L -3 -0 
" style="stroke: #2d3047"/>
    </defs>
    <g clip-path="url(#pd18a18bf59)">
     <use xlink:href="#m6a7c596b6a" x="55.227727" y="127.897418" style="fill: #2d3047; stroke: #2d3047"/>
     <use xlink:href="#m6a7c596b6a" x="134.411763" y="161.279051" style="fill: #2d3047; stroke: #2d3047"/>
     <use xlink:href="#m6a7c596b6a" x="213.595798" y="178.084503" style="fill: #2d3047; stroke: #2d3047"/>
     <use xlink:href="#m6a7c596b6a" x="292.779834" y="172.964482" style="fill: #2d3047; stroke: #2d3047"/>
     <use xlink:href="#m6a7c596b6a" x="371.963869" y="188.146995" style="fill: #2d3047; stroke: #2d3047"/>
    </g>
   </g>
   <g id="line2d_24">
    <g clip-path="url(#pd18a18bf59)">
     <use xlink:href="#m6a7c596b6a" x="55.227727" y="92.66487" style="fill: #2d3047; stroke: #2d3047"/>
     <use xlink:href="#m6a7c596b6a" x="134.411763" y="51.465696" style="fill: #2d3047; stroke: #2d3047"/>
     <use xlink:href="#m6a7c596b6a" x="213.595798" y="48.666444" style="fill: #2d3047; stroke: #2d3047"/>
     <use xlink:href="#m6a7c596b6a" x="292.779834" y="156.075483" style="fill: #2d3047; stroke: #2d3047"/>
     <use xlink:href="#m6a7c596b6a" x="371.963869" y="166.298369" style="fill: #2d3047; stroke: #2d3047"/>
    </g>
   </g>
   <g id="LineCollection_2">
    <path d="M 59.186929 127.897418 
L 59.186929 92.66487 
" clip-path="url(#pd18a18bf59)" style="fill: none; stroke: #d1345b"/>
    <path d="M 138.370965 161.279051 
L 138.370965 51.465696 
" clip-path="url(#pd18a18bf59)" style="fill: none; stroke: #d1345b"/>
    <path d="M 217.555 169.85984 
L 217.555 15.816524 
" clip-path="url(#pd18a18bf59)" style="fill: none; stroke: #d1345b"/>
    <path d="M 296.739035 172.964482 
L 296.739035 156.075483 
" clip-path="url(#pd18a18bf59)" style="fill: none; stroke: #d1345b"/>
    <path d="M 375.923071 188.146995 
L 375.923071 166.298369 
" clip-path="url(#pd18a18bf59)" style="fill: none; stroke: #d1345b"/>
   </g>
   <g id="line2d_25">
    <defs>
     <path id="m228c9fef3c" d="M 3 0 
L -3 -0 
" style="stroke: #d1345b"/>
    </defs>
    <g clip-path="url(#pd18a18bf59)">
     <use xlink:href="#m228c9fef3c" x="59.186929" y="127.897418" style="fill: #d1345b; stroke: #d1345b"/>
     <use xlink:href="#m228c9fef3c" x="138.370965" y="161.279051" style="fill: #d1345b; stroke: #d1345b"/>
     <use xlink:href="#m228c9fef3c" x="217.555" y="169.85984" style="fill: #d1345b; stroke: #d1345b"/>
     <use xlink:href="#m228c9fef3c" x="296.739035" y="172.964482" style="fill: #d1345b; stroke: #d1345b"/>
     <use xlink:href="#m228c9fef3c" x="375.923071" y="188.146995" style="fill: #d1345b; stroke: #d1345b"/>
    </g>
   </g>
   <g id="line2d_26">
    <g clip-path="url(#pd18a18bf59)">
     <use xlink:href="#m228c9fef3c" x="59.186929" y="92.66487" style="fill: #d1345b; stroke: #d1345b"/>
     <use xlink:href="#m228c9fef3c" x="138.370965" y="51.465696" style="fill: #d1345b; stroke: #d1345b"/>
     <use xlink:href="#m228c9fef3c" x="217.555" y="15.816524" style="fill: #d1345b; stroke: #d1345b"/>
     <use xlink:href="#m228c9fef3c" x="296.739035" y="156.075483" style="fill: #d1345b; stroke: #d1345b"/>
     <use xlink:href="#m228c9fef3c" x="375.923071" y="166.298369" style="fill: #d1345b; stroke: #d1345b"/>
    </g>
   </g>
   <g id="LineCollection_3">
    <path d="M 63.146131 55.431943 
L 63.146131 22.482901 
" clip-path="url(#pd18a18bf59)" style="fill: none; stroke: #ff9b71"/>
    <path d="M 142.330166 161.279051 
L 142.330166 51.465696 
" clip-path="url(#pd18a18bf59)" style="fill: none; stroke: #ff9b71"/>
    <path d="M 221.514202 178.084503 
L 221.514202 48.666444 
" clip-path="url(#pd18a18bf59)" style="fill: none; stroke: #ff9b71"/>
    <path d="M 300.698237 172.964482 
L 300.698237 156.075483 
" clip-path="url(#pd18a18bf59)" style="fill: none; stroke: #ff9b71"/>
    <path d="M 379.882273 188.146995 
L 379.882273 166.298369 
" clip-path="url(#pd18a18bf59)" style="fill: none; stroke: #ff9b71"/>
   </g>
   <g id="line2d_27">
    <defs>
     <path id="m26f12bb80f" d="M 3 0 
L -3 -0 
" style="stroke: #ff9b71"/>
    </defs>
    <g clip-path="url(#pd18a18bf59)">
     <use xlink:href="#m26f12bb80f" x="63.146131" y="55.431943" style="fill: #ff9b71; stroke: #ff9b71"/>
     <use xlink:href="#m26f12bb80f" x="142.330166" y="161.279051" style="fill: #ff9b71; stroke: #ff9b71"/>
     <use xlink:href="#m26f12bb80f" x="221.514202" y="178.084503" style="fill: #ff9b71; stroke: #ff9b71"/>
     <use xlink:href="#m26f12bb80f" x="300.698237" y="172.964482" style="fill: #ff9b71; stroke: #ff9b71"/>
     <use xlink:href="#m26f12bb80f" x="379.882273" y="188.146995" style="fill: #ff9b71; stroke: #ff9b71"/>
    </g>
   </g>
   <g id="line2d_28">
    <g clip-path="url(#pd18a18bf59)">
     <use xlink:href="#m26f12bb80f" x="63.146131" y="22.482901" style="fill: #ff9b71; stroke: #ff9b71"/>
     <use xlink:href="#m26f12bb80f" x="142.330166" y="51.465696" style="fill: #ff9b71; stroke: #ff9b71"/>
     <use xlink:href="#m26f12bb80f" x="221.514202" y="48.666444" style="fill: #ff9b71; stroke: #ff9b71"/>
     <use xlink:href="#m26f12bb80f" x="300.698237" y="156.075483" style="fill: #ff9b71; stroke: #ff9b71"/>
     <use xlink:href="#m26f12bb80f" x="379.882273" y="166.298369" style="fill: #ff9b71; stroke: #ff9b71"/>
    </g>
   </g>
   <g id="line2d_29">
    <path d="M 55.227727 110.281144 
L 134.411763 106.372374 
L 213.595798 113.375473 
L 292.779834 164.519982 
L 371.963869 177.222682 
" clip-path="url(#pd18a18bf59)" style="fill: none; stroke: #2d3047; stroke-width: 1.6; stroke-linecap: square"/>
    <defs>
     <path id="m2d9a00ed03" d="M 0 3 
C 0.795609 3 1.55874 2.683901 2.12132 2.12132 
C 2.683901 1.55874 3 0.795609 3 0 
C 3 -0.795609 2.683901 -1.55874 2.12132 -2.12132 
C 1.55874 -2.683901 0.795609 -3 0 -3 
C -0.795609 -3 -1.55874 -2.683901 -2.12132 -2.12132 
C -2.683901 -1.55874 -3 -0.795609 -3 0 
C -3 0.795609 -2.683901 1.55874 -2.12132 2.12132 
C -1.55874 2.683901 -0.795609 3 0 3 
z
" style="stroke: #2d3047"/>
    </defs>
    <g clip-path="url(#pd18a18bf59)">
     <use xlink:href="#m2d9a00ed03" x="55.227727" y="110.281144" style="fill: #2d3047; stroke: #2d3047"/>
     <use xlink:href="#m2d9a00ed03" x="134.411763" y="106.372374" style="fill: #2d3047; stroke: #2d3047"/>
     <use xlink:href="#m2d9a00ed03" x="213.595798" y="113.375473" style="fill: #2d3047; stroke: #2d3047"/>
     <use xlink:href="#m2d9a00ed03" x="292.779834" y="164.519982" style="fill: #2d3047; stroke: #2d3047"/>
     <use xlink:href="#m2d9a00ed03" x="371.963869" y="177.222682" style="fill: #2d3047; stroke: #2d3047"/>
    </g>
   </g>
   <g id="line2d_30">
    <path d="M 59.186929 110.281144 
L 138.370965 106.372374 
L 217.555 92.838182 
L 296.739035 164.519982 
L 375.923071 177.222682 
" clip-path="url(#pd18a18bf59)" style="fill: none; stroke: #d1345b; stroke-width: 1.6; stroke-linecap: square"/>
    <defs>
     <path id="m79c4240216" d="M 0 3 
C 0.795609 3 1.55874 2.683901 2.12132 2.12132 
C 2.683901 1.55874 3 0.795609 3 0 
C 3 -0.795609 2.683901 -1.55874 2.12132 -2.12132 
C 1.55874 -2.683901 0.795609 -3 0 -3 
C -0.795609 -3 -1.55874 -2.683901 -2.12132 -2.12132 
C -2.683901 -1.55874 -3 -0.795609 -3 0 
C -3 0.795609 -2.683901 1.55874 -2.12132 2.12132 
C -1.55874 2.683901 -0.795609 3 0 3 
z
" style="stroke: #d1345b"/>
    </defs>
    <g clip-path="url(#pd18a18bf59)">
     <use xlink:href="#m79c4240216" x="59.186929" y="110.281144" style="fill: #d1345b; stroke: #d1345b"/>
     <use xlink:href="#m79c4240216" x="138.370965" y="106.372374" style="fill: #d1345b; stroke: #d1345b"/>
     <use xlink:href="#m79c4240216" x="217.555" y="92.838182" style="fill: #d1345b; stroke: #d1345b"/>
     <use xlink:href="#m79c4240216" x="296.739035" y="164.519982" style="fill: #d1345b; stroke: #d1345b"/>
     <use xlink:href="#m79c4240216" x="375.923071" y="177.222682" style="fill: #d1345b; stroke: #d1345b"/>
    </g>
   </g>
   <g id="line2d_31">
    <path d="M 63.146131 38.957422 
L 142.330166 106.372374 
L 221.514202 113.375473 
L 300.698237 164.519982 
L 379.882273 177.222682 
" clip-path="url(#pd18a18bf59)" style="fill: none; stroke: #ff9b71; stroke-width: 1.6; stroke-linecap: square"/>
    <defs>
     <path id="m9a8be9bbc5" d="M 0 3 
C 0.795609 3 1.55874 2.683901 2.12132 2.12132 
C 2.683901 1.55874 3 0.795609 3 0 
C 3 -0.795609 2.683901 -1.55874 2.12132 -2.12132 
C 1.55874 -2.683901 0.795609 -3 0 -3 
C -0.795609 -3 -1.55874 -2.683901 -2.12132 -2.12132 
C -2.683901 -1.55874 -3 -0.795609 -3 0 
C -3 0.795609 -2.683901 1.55874 -2.12132 2.12132 
C -1.55874 2.683901 -0.795609 3 0 3 
z
" style="stroke: #ff9b71"/>
    </defs>
    <g clip-path="url(#pd18a18bf59)">
     <use xlink:href="#m9a8be9bbc5" x="63.146131" y="38.957422" style="fill: #ff9b71; stroke: #ff9b71"/>
     <use xlink:href="#m9a8be9bbc5" x="142.330166" y="106.372374" style="fill: #ff9b71; stroke: #ff9b71"/>
     <use xlink:href="#m9a8be9bbc5" x="221.514202" y="113.375473" style="fill: #ff9b71; stroke: #ff9b71"/>
     <use xlink:href="#m9a8be9bbc5" x="300.698237" y="164.519982" style="fill: #ff9b71; stroke: #ff9b71"/>
     <use xlink:href="#m9a8be9bbc5" x="379.882273" y="177.222682" style="fill: #ff9b71; stroke: #ff9b71"/>
    </g>
   </g>
   <g id="patch_3">
    <path d="M 38.995 273.312 
L 38.995 7.2 
" style="fill: none; stroke: #000000; stroke-width: 0.8; stroke-linejoin: miter; stroke-linecap: square"/>
   </g>
   <g id="patch_4">
    <path d="M 396.115 273.312 
L 396.115 7.2 
" style="fill: none; stroke: #000000; stroke-width: 0.8; stroke-linejoin: miter; stroke-linecap: square"/>
   </g>
   <g id="patch_5">
    <path d="M 38.995 273.312 
L 396.115 273.312 
" style="fill: none; stroke: #000000; stroke-width: 0.8; stroke-linejoin: miter; stroke-linecap: square"/>
   </g>
   <g id="patch_6">
    <path d="M 38.995 7.2 
L 396.115 7.2 
" style="fill: none; stroke: #000000; stroke-width: 0.8; stroke-linejoin: miter; stroke-linecap: square"/>
   </g>
   <g id="legend_1">
    <g id="patch_7">
     <path d="M 328.222813 57.973437 
L 389.115 57.973437 
Q 391.115 57.973437 391.115 55.973437 
L 391.115 14.2 
Q 391.115 12.2 389.115 12.2 
L 328.222813 12.2 
Q 326.222813 12.2 326.222813 14.2 
L 326.222813 55.973437 
Q 326.222813 57.973437 328.222813 57.973437 
z
" style="fill: #ffffff; opacity: 0.8"/>
    </g>
    <g id="LineCollection_4">
     <path d="M 340.222813 24.873437 
L 340.222813 14.873437 
" style="fill: none; stroke: #2d3047"/>
    </g>
    <g id="line2d_32">
     <g>
      <use xlink:href="#m6a7c596b6a" x="340.222813" y="24.873437" style="fill: #2d3047; stroke: #2d3047"/>
     </g>
    </g>
    <g id="line2d_33">
     <g>
      <use xlink:href="#m6a7c596b6a" x="340.222813" y="14.873437" style="fill: #2d3047; stroke: #2d3047"/>
     </g>
    </g>
    <g id="line2d_34">
     <path d="M 330.222813 19.873437 
L 350.222813 19.873437 
" style="fill: none; stroke: #2d3047; stroke-width: 1.6; stroke-linecap: square"/>
    </g>
    <g id="line2d_35">
     <g>
      <use xlink:href="#m2d9a00ed03" x="340.222813" y="19.873437" style="fill: #2d3047; stroke: #2d3047"/>
     </g>
    </g>
    <g id="text_14">
     <text style="font-size: 10px; font-family: 'Helvetica', 'Arial', sans-serif; text-anchor: start" x="358.222813" y="23.373437" transform="rotate(-0 358.222813 23.373437)">OURS</text>
    </g>
    <g id="LineCollection_5">
     <path d="M 340.222813 39.13125 
L 340.222813 29.13125 
" style="fill: none; stroke: #d1345b"/>
    </g>
    <g id="line2d_36">
     <g>
      <use xlink:href="#m228c9fef3c" x="340.222813" y="39.13125" style="fill: #d1345b; stroke: #d1345b"/>
     </g>
    </g>
    <g id="line2d_37">
     <g>
      <use xlink:href="#m228c9fef3c" x="340.222813" y="29.13125" style="fill: #d1345b; stroke: #d1345b"/>
     </g>
    </g>
    <g id="line2d_38">
     <path d="M 330.222813 34.13125 
L 350.222813 34.13125 
" style="fill: none; stroke: #d1345b; stroke-width: 1.6; stroke-linecap: square"/>
    </g>
    <g id="line2d_39">
     <g>
      <use xlink:href="#m79c4240216" x="340.222813" y="34.13125" style="fill: #d1345b; stroke: #d1345b"/>
     </g>
    </g>
    <g id="text_15">
     <text style="font-size: 10px; font-family: 'Helvetica', 'Arial', sans-serif; text-anchor: start" x="358.222813" y="37.63125" transform="rotate(-0 358.222813 37.63125)">PFI</text>
    </g>
    <g id="LineCollection_6">
     <path d="M 340.222813 53.389062 
L 340.222813 43.389062 
" style="fill: none; stroke: #ff9b71"/>
    </g>
    <g id="line2d_40">
     <g>
      <use xlink:href="#m26f12bb80f" x="340.222813" y="53.389062" style="fill: #ff9b71; stroke: #ff9b71"/>
     </g>
    </g>
    <g id="line2d_41">
     <g>
      <use xlink:href="#m26f12bb80f" x="340.222813" y="43.389062" style="fill: #ff9b71; stroke: #ff9b71"/>
     </g>
    </g>
    <g id="line2d_42">
     <path d="M 330.222813 48.389062 
L 350.222813 48.389062 
" style="fill: none; stroke: #ff9b71; stroke-width: 1.6; stroke-linecap: square"/>
    </g>
    <g id="line2d_43">
     <g>
      <use xlink:href="#m9a8be9bbc5" x="340.222813" y="48.389062" style="fill: #ff9b71; stroke: #ff9b71"/>
     </g>
    </g>
    <g id="text_16">
     <text style="font-size: 10px; font-family: 'Helvetica', 'Arial', sans-serif; text-anchor: start" x="358.222813" y="51.889062" transform="rotate(-0 358.222813 51.889062)">SAGE</text>
    </g>
   </g>
  </g>
 </g>
 <defs>
  <clipPath id="pd18a18bf59">
   <rect x="38.995" y="7.2" width="357.12" height="266.112"/>
  </clipPath>
 </defs>
</svg>
