<?xml version="1.0" encoding="utf-8" standalone="no"?>
<!DOCTYPE svg PUBLIC "-//W3C//DTD SVG 1.1//EN"
  "http://www.w3.org/Graphics/SVG/1.1/DTD/svg11.dtd">
<svg xmlns:xlink="http://www.w3.org/1999/xlink" width="397.754062pt" height="310.23075pt" viewBox="0 0 397.754062 310.23075" xmlns="http://www.w3.org/2000/svg" version="1.1">
 <metadata>
  <rdf:RDF xmlns:dc="http://purl.org/dc/elements/1.1/" xmlns:cc="http://creativecommons.org/ns#" xmlns:rdf="http://www.w3.org/1999/02/22-rdf-syntax-ns#">
   <cc:Work>
    <dc:type rdf:resource="http://purl.org/dc/dcmitype/StillImage"/>
    <dc:date>2026-05-03T16:55:18.409076</dc:date>
    <dc:format>image/svg+xml</dc:format>
    <dc:creator>
     <cc:Agent>
      <dc:title>Matplotlib v3.10.8, https://matplotlib.org/</dc:title>
     </cc:Agent>
    </dc:creator>
   </cc:Work>
  </rdf:RDF>
 </metadata>
 <defs>
  <style type="text/css">*{stroke-linejoin: round; stroke-linecap: butt}</style>
 </defs>
 <g id="figure_1">
  <g id="patch_1">
   <path d="M 0 310.23075 
L 397.754062 310.23075 
L 397.754062 0 
L 0 0 
z
" style="fill: #ffffff"/>
  </g>
  <g id="axes_1">
   <g id="patch_2">
    <path d="M 33.434063 273.312 
L 390.554062 273.312 
L 390.554062 7.2 
L 33.434063 7.2 
z
" style="fill: #ffffff"/>
   </g>
   <g id="matplotlib.axis_1">
    <g id="xtick_1">
     <g id="line2d_1">
      <path d="M 49.66679 273.312 
L 49.66679 7.2 
" clip-path="url(#p0bce422c78)" style="fill: none; stroke: #e0e0e0; stroke-opacity: 0.7; stroke-width: 0.8; stroke-linecap: square"/>
     </g>
     <g id="line2d_2">
      <defs>
       <path id="mf27247afd8" d="M 0 0 
L 0 -4 
" style="stroke: #000000; stroke-width: 0.8"/>
      </defs>
      <g>
       <use xlink:href="#mf27247afd8" x="49.66679" y="273.312" style="stroke: #000000; stroke-width: 0.8"/>
      </g>
     </g>
     <g id="text_1">
      <text style="font-size: 10px; font-family: 'Helvetica', 'Arial', sans-serif; text-anchor: middle" x="49.66679" y="283.985437" transform="rotate(-0 49.66679 283.985437)">1</text>
     </g>
    </g>
    <g id="xtick_2">
     <g id="line2d_3">
      <path d="M 128.850825 273.312 
L 128.850825 7.2 
" clip-path="url(#p0bce422c78)" style="fill: none; stroke: #e0e0e0; stroke-opacity: 0.7; stroke-width: 0.8; stroke-linecap: square"/>
     </g>
     <g id="line2d_4">
      <g>
       <use xlink:href="#mf27247afd8" x="128.850825" y="273.312" style="stroke: #000000; stroke-width: 0.8"/>
      </g>
     </g>
     <g id="text_2">
      <text style="font-size: 10px; font-family: 'Helvetica', 'Arial', sans-serif; text-anchor: middle" x="128.850825" y="283.985437" transform="rotate(-0 128.850825 283.985437)">2</text>
     </g>
    </g>
    <g id="xtick_3">
     <g id="line2d_5">
      <path d="M 208.034861 273.312 
L 208.034861 7.2 
" clip-path="url(#p0bce422c78)" style="fill: none; stroke: #e0e0e0; stroke-opacity: 0.7; stroke-width: 0.8; stroke-linecap: square"/>
     </g>
     <g id="line2d_6">
      <g>
       <use xlink:href="#mf27247afd8" x="208.034861" y="273.312" style="stroke: #000000; stroke-width: 0.8"/>
      </g>
     </g>
     <g id="text_3">
      <text style="font-size: 10px; font-family: 'Helvetica', 'Arial', sans-serif; text-anchor: middle" x="208.034861" y="283.985437" transform="rotate(-0 208.034861 283.985437)">3</text>
     </g>
    </g>
    <g id="xtick_4">
     <g id="line2d_7">
      <path d="M 287.218896 273.312 
L 287.218896 7.2 
" clip-path="url(#p0bce422c78)" style="fill: none; stroke: #e0e0e0; stroke-opacity: 0.7; stroke-width: 0.8; stroke-linecap: square"/>
     </g>
     <g id="line2d_8">
      <g>
       <use xlink:href="#mf27247afd8" x="287.218896" y="273.312" style="stroke: #000000; stroke-width: 0.8"/>
      </g>
     </g>
     <g id="text_4">
      <text style="font-size: 10px; font-family: 'Helvetica', 'Arial', sans-serif; text-anchor: middle" x="287.218896" y="283.985437" transform="rotate(-0 287.218896 283.985437)">4</text>
     </g>
    </g>
    <g id="xtick_5">
     <g id="line2d_9">
      <path d="M 366.402932 273.312 
L 366.402932 7.2 
" clip-path="url(#p0bce422c78)" style="fill: none; stroke: #e0e0e0; stroke-opacity: 0.7; stroke-width: 0.8; stroke-linecap: square"/>
     </g>
     <g id="line2d_10">
      <g>
       <use xlink:href="#mf27247afd8" x="366.402932" y="273.312" style="stroke: #000000; stroke-width: 0.8"/>
      </g>
     </g>
     <g id="text_5">
      <text style="font-size: 10px; font-family: 'Helvetica', 'Arial', sans-serif; text-anchor: middle" x="366.402932" y="283.985437" transform="rotate(-0 366.402932 283.985437)">5</text>
     </g>
    </g>
    <g id="text_6">
     <text style="font-size: 14px; font-family: 'Helvetica', 'Arial', sans-serif; text-anchor: middle" x="211.994063" y="300.112625" transform="rotate(-0 211.994063 300.112625)">Detector Count</text>
    </g>
   </g>
   <g id="matplotlib.axis_2">
    <g id="ytick_1">
     <g id="line2d_11">
      <path d="M 33.434063 248.919824 
L 390.554062 248.919824 
" clip-path="url(#p0bce422c78)" style="fill: none; stroke: #e0e0e0; stroke-opacity: 0.7; stroke-width: 0.8; stroke-linecap: square"/>
     </g>
     <g id="line2d_12">
      <defs>
       <path id="m96c3938202" d="M 0 0 
L 4 0 
" style="stroke: #000000; stroke-width: 0.8"/>
      </defs>
      <g>
       <use xlink:href="#m96c3938202" x="33.434063" y="248.919824" style="stroke: #000000; stroke-width: 0.8"/>
      </g>
     </g>
     <g id="text_7">
      <text style="font-size: 10px; font-family: 'Helvetica', 'Arial', sans-serif; text-anchor: end" x="29.934063" y="252.506543" transform="rotate(-0 29.934063 252.506543)">3</text>
     </g>
    </g>
    <g id="ytick_2">
     <g id="line2d_13">
      <path d="M 33.434063 211.600769 
L 390.554062 211.600769 
" clip-path="url(#p0bce422c78)" style="fill: none; stroke: #e0e0e0; stroke-opacity: 0.7; stroke-width: 0.8; stroke-linecap: square"/>
     </g>
     <g id="line2d_14">
      <g>
       <use xlink:href="#m96c3938202" x="33.434063" y="211.600769" style="stroke: #000000; stroke-width: 0.8"/>
      </g>
     </g>
     <g id="text_8">
      <text style="font-size: 10px; font-family: 'Helvetica', 'Arial', sans-serif; text-anchor: end" x="29.934063" y="215.187488" transform="rotate(-0 29.934063 215.187488)">4</text>
     </g>
    </g>
    <g id="ytick_3">
     <g id="line2d_15">
      <path d="M 33.434063 174.281714 
L 390.554062 174.281714 
" clip-path="url(#p0bce422c78)" style="fill: none; stroke: #e0e0e0; stroke-opacity: 0.7; stroke-width: 0.8; stroke-linecap: square"/>
     </g>
     <g id="line2d_16">
      <g>
       <use xlink:href="#m96c3938202" x="33.434063" y="174.281714" style="stroke: #000000; stroke-width: 0.8"/>
      </g>
     </g>
     <g id="text_9">
      <text style="font-size: 10px; font-family: 'Helvetica', 'Arial', sans-serif; text-anchor: end" x="29.934063" y="177.868433" transform="rotate(-0 29.934063 177.868433)">5</text>
     </g>
    </g>
    <g id="ytick_4">
     <g id="line2d_17">
      <path d="M 33.434063 136.962659 
L 390.554062 136.962659 
" clip-path="url(#p0bce422c78)" style="fill: none; stroke: #e0e0e0; stroke-opacity: 0.7; stroke-width: 0.8; stroke-linecap: square"/>
     </g>
     <g id="line2d_18">
      <g>
       <use xlink:href="#m96c3938202" x="33.434063" y="136.962659" style="stroke: #000000; stroke-width: 0.8"/>
      </g>
     </g>
     <g id="text_10">
      <text style="font-size: 10px; font-family: 'Helvetica', 'Arial', sans-serif; text-anchor: end" x="29.934063" y="140.549378" transform="rotate(-0 29.934063 140.549378)">6</text>
     </g>
    </g>
    <g id="ytick_5">
     <g id="line2d_19">
      <path d="M 33.434063 99.643604 
L 390.554062 99.643604 
" clip-path="url(#p0bce422c78)" style="fill: none; stroke: #e0e0e0; stroke-opacity: 0.7; stroke-width: 0.8; stroke-linecap: square"/>
     </g>
     <g id="line2d_20">
      <g>
       <use xlink:href="#m96c3938202" x="33.434063" y="99.643604" style="stroke: #000000; stroke-width: 0.8"/>
      </g>
     </g>
     <g id="text_11">
      <text style="font-size: 10px; font-family: 'Helvetica', 'Arial', sans-serif; text-anchor: end" x="29.934063" y="103.230323" transform="rotate(-0 29.934063 103.230323)">7</text>
     </g>
    </g>
    <g id="ytick_6">
     <g id="line2d_21">
      <path d="M 33.434063 62.324549 
L 390.554062 62.324549 
" clip-path="url(#p0bce422c78)" style="fill: none; stroke: #e0e0e0; stroke-opacity: 0.7; stroke-width: 0.8; stroke-linecap: square"/>
     </g>
     <g id="line2d_22">
      <g>
       <use xlink:href="#m96c3938202" x="33.434063" y="62.324549" style="stroke: #000000; stroke-width: 0.8"/>
      </g>
     </g>
     <g id="text_12">
      <text style="font-size: 10px; font-family: 'Helvetica', 'Arial', sans-serif; text-anchor: end" x="29.934063" y="65.911268" transform="rotate(-0 29.934063 65.911268)">8</text>
     </g>
    </g>
    <g id="ytick_7">
     <g id="line2d_23">
      <path d="M 33.434063 25.005494 
L 390.554062 25.005494 
" clip-path="url(#p0bce422c78)" style="fill: none; stroke: #e0e0e0; stroke-opacity: 0.7; stroke-width: 0.8; stroke-linecap: square"/>
     </g>
     <g id="line2d_24">
      <g>
       <use xlink:href="#m96c3938202" x="33.434063" y="25.005494" style="stroke: #000000; stroke-width: 0.8"/>
      </g>
     </g>
     <g id="text_13">
      <text style="font-size: 10px; font-family: 'Helvetica', 'Arial', sans-serif; text-anchor: end" x="29.934063" y="28.592213" transform="rotate(-0 29.934063 28.592213)">9</text>
     </g>
    </g>
    <g id="text_14">
     <text style="font-size: 14px; font-family: 'Helvetica', 'Arial', sans-serif; text-anchor: middle" x="17.455" y="140.256" transform="rotate(-90 17.455 140.256)">Test MAE (%Saturation)</text>
    </g>
   </g>
   <g id="LineCollection_1">
    <path d="M 49.66679 126.149518 
L 49.66679 78.753224 
" clip-path="url(#p0bce422c78)" style="fill: none; stroke: #2d3047"/>
    <path d="M 128.850825 204.206908 
L 128.850825 139.623385 
" clip-path="url(#p0bce422c78)" style="fill: none; stroke: #2d3047"/>
    <path d="M 208.034861 229.329544 
L 208.034861 183.763689 
" clip-path="url(#p0bce422c78)" style="fill: none; stroke: #2d3047"/>
    <path d="M 287.218896 237.00334 
L 287.218896 190.826256 
" clip-path="url(#p0bce422c78)" style="fill: none; stroke: #2d3047"/>
    <path d="M 366.402932 223.910361 
L 366.402932 189.689692 
" clip-path="url(#p0bce422c78)" style="fill: none; stroke: #2d3047"/>
   </g>
   <g id="line2d_25">
    <defs>
     <path id="m2ddfea3625" d="M 3 0 
L -3 -0 
" style="stroke: #2d3047"/>
    </defs>
    <g clip-path="url(#p0bce422c78)">
     <use xlink:href="#m2ddfea3625" x="49.66679" y="126.149518" style="fill: #2d3047; stroke: #2d3047"/>
     <use xlink:href="#m2ddfea3625" x="128.850825" y="204.206908" style="fill: #2d3047; stroke: #2d3047"/>
     <use xlink:href="#m2ddfea3625" x="208.034861" y="229.329544" style="fill: #2d3047; stroke: #2d3047"/>
     <use xlink:href="#m2ddfea3625" x="287.218896" y="237.00334" style="fill: #2d3047; stroke: #2d3047"/>
     <use xlink:href="#m2ddfea3625" x="366.402932" y="223.910361" style="fill: #2d3047; stroke: #2d3047"/>
    </g>
   </g>
   <g id="line2d_26">
    <g clip-path="url(#p0bce422c78)">
     <use xlink:href="#m2ddfea3625" x="49.66679" y="78.753224" style="fill: #2d3047; stroke: #2d3047"/>
     <use xlink:href="#m2ddfea3625" x="128.850825" y="139.623385" style="fill: #2d3047; stroke: #2d3047"/>
     <use xlink:href="#m2ddfea3625" x="208.034861" y="183.763689" style="fill: #2d3047; stroke: #2d3047"/>
     <use xlink:href="#m2ddfea3625" x="287.218896" y="190.826256" style="fill: #2d3047; stroke: #2d3047"/>
     <use xlink:href="#m2ddfea3625" x="366.402932" y="189.689692" style="fill: #2d3047; stroke: #2d3047"/>
    </g>
   </g>
   <g id="LineCollection_2">
    <path d="M 53.625992 126.149518 
L 53.625992 78.753224 
" clip-path="url(#p0bce422c78)" style="fill: none; stroke: #d1345b"/>
    <path d="M 132.810027 204.206908 
L 132.810027 139.623385 
" clip-path="url(#p0bce422c78)" style="fill: none; stroke: #d1345b"/>
    <path d="M 211.994062 229.329544 
L 211.994062 183.763689 
" clip-path="url(#p0bce422c78)" style="fill: none; stroke: #d1345b"/>
    <path d="M 291.178098 237.02805 
L 291.178098 185.616518 
" clip-path="url(#p0bce422c78)" style="fill: none; stroke: #d1345b"/>
    <path d="M 370.362133 223.910361 
L 370.362133 189.689692 
" clip-path="url(#p0bce422c78)" style="fill: none; stroke: #d1345b"/>
   </g>
   <g id="line2d_27">
    <defs>
     <path id="m2b15b2f67a" d="M 3 0 
L -3 -0 
" style="stroke: #d1345b"/>
    </defs>
    <g clip-path="url(#p0bce422c78)">
     <use xlink:href="#m2b15b2f67a" x="53.625992" y="126.149518" style="fill: #d1345b; stroke: #d1345b"/>
     <use xlink:href="#m2b15b2f67a" x="132.810027" y="204.206908" style="fill: #d1345b; stroke: #d1345b"/>
     <use xlink:href="#m2b15b2f67a" x="211.994062" y="229.329544" style="fill: #d1345b; stroke: #d1345b"/>
     <use xlink:href="#m2b15b2f67a" x="291.178098" y="237.02805" style="fill: #d1345b; stroke: #d1345b"/>
     <use xlink:href="#m2b15b2f67a" x="370.362133" y="223.910361" style="fill: #d1345b; stroke: #d1345b"/>
    </g>
   </g>
   <g id="line2d_28">
    <g clip-path="url(#p0bce422c78)">
     <use xlink:href="#m2b15b2f67a" x="53.625992" y="78.753224" style="fill: #d1345b; stroke: #d1345b"/>
     <use xlink:href="#m2b15b2f67a" x="132.810027" y="139.623385" style="fill: #d1345b; stroke: #d1345b"/>
     <use xlink:href="#m2b15b2f67a" x="211.994062" y="183.763689" style="fill: #d1345b; stroke: #d1345b"/>
     <use xlink:href="#m2b15b2f67a" x="291.178098" y="185.616518" style="fill: #d1345b; stroke: #d1345b"/>
     <use xlink:href="#m2b15b2f67a" x="370.362133" y="189.689692" style="fill: #d1345b; stroke: #d1345b"/>
    </g>
   </g>
   <g id="LineCollection_3">
    <path d="M 57.585193 244.041292 
L 57.585193 29.704201 
" clip-path="url(#p0bce422c78)" style="fill: none; stroke: #ff9b71"/>
    <path d="M 136.769229 223.227358 
L 136.769229 19.296 
" clip-path="url(#p0bce422c78)" style="fill: none; stroke: #ff9b71"/>
    <path d="M 215.953264 261.216 
L 215.953264 32.217663 
" clip-path="url(#p0bce422c78)" style="fill: none; stroke: #ff9b71"/>
    <path d="M 295.1373 237.02805 
L 295.1373 185.616518 
" clip-path="url(#p0bce422c78)" style="fill: none; stroke: #ff9b71"/>
    <path d="M 374.321335 223.910361 
L 374.321335 189.689692 
" clip-path="url(#p0bce422c78)" style="fill: none; stroke: #ff9b71"/>
   </g>
   <g id="line2d_29">
    <defs>
     <path id="me4599d17c9" d="M 3 0 
L -3 -0 
" style="stroke: #ff9b71"/>
    </defs>
    <g clip-path="url(#p0bce422c78)">
     <use xlink:href="#me4599d17c9" x="57.585193" y="244.041292" style="fill: #ff9b71; stroke: #ff9b71"/>
     <use xlink:href="#me4599d17c9" x="136.769229" y="223.227358" style="fill: #ff9b71; stroke: #ff9b71"/>
     <use xlink:href="#me4599d17c9" x="215.953264" y="261.216" style="fill: #ff9b71; stroke: #ff9b71"/>
     <use xlink:href="#me4599d17c9" x="295.1373" y="237.02805" style="fill: #ff9b71; stroke: #ff9b71"/>
     <use xlink:href="#me4599d17c9" x="374.321335" y="223.910361" style="fill: #ff9b71; stroke: #ff9b71"/>
    </g>
   </g>
   <g id="line2d_30">
    <g clip-path="url(#p0bce422c78)">
     <use xlink:href="#me4599d17c9" x="57.585193" y="29.704201" style="fill: #ff9b71; stroke: #ff9b71"/>
     <use xlink:href="#me4599d17c9" x="136.769229" y="19.296" style="fill: #ff9b71; stroke: #ff9b71"/>
     <use xlink:href="#me4599d17c9" x="215.953264" y="32.217663" style="fill: #ff9b71; stroke: #ff9b71"/>
     <use xlink:href="#me4599d17c9" x="295.1373" y="185.616518" style="fill: #ff9b71; stroke: #ff9b71"/>
     <use xlink:href="#me4599d17c9" x="374.321335" y="189.689692" style="fill: #ff9b71; stroke: #ff9b71"/>
    </g>
   </g>
   <g id="line2d_31">
    <path d="M 49.66679 102.451371 
L 128.850825 171.915147 
L 208.034861 206.546616 
L 287.218896 213.914798 
L 366.402932 206.800026 
" clip-path="url(#p0bce422c78)" style="fill: none; stroke: #2d3047; stroke-width: 1.6; stroke-linecap: square"/>
    <defs>
     <path id="m5e57192027" d="M 0 3 
C 0.795609 3 1.55874 2.683901 2.12132 2.12132 
C 2.683901 1.55874 3 0.795609 3 0 
C 3 -0.795609 2.683901 -1.55874 2.12132 -2.12132 
C 1.55874 -2.683901 0.795609 -3 0 -3 
C -0.795609 -3 -1.55874 -2.683901 -2.12132 -2.12132 
C -2.683901 -1.55874 -3 -0.795609 -3 0 
C -3 0.795609 -2.683901 1.55874 -2.12132 2.12132 
C -1.55874 2.683901 -0.795609 3 0 3 
z
" style="stroke: #2d3047"/>
    </defs>
    <g clip-path="url(#p0bce422c78)">
     <use xlink:href="#m5e57192027" x="49.66679" y="102.451371" style="fill: #2d3047; stroke: #2d3047"/>
     <use xlink:href="#m5e57192027" x="128.850825" y="171.915147" style="fill: #2d3047; stroke: #2d3047"/>
     <use xlink:href="#m5e57192027" x="208.034861" y="206.546616" style="fill: #2d3047; stroke: #2d3047"/>
     <use xlink:href="#m5e57192027" x="287.218896" y="213.914798" style="fill: #2d3047; stroke: #2d3047"/>
     <use xlink:href="#m5e57192027" x="366.402932" y="206.800026" style="fill: #2d3047; stroke: #2d3047"/>
    </g>
   </g>
   <g id="line2d_32">
    <path d="M 53.625992 102.451371 
L 132.810027 171.915147 
L 211.994062 206.546616 
L 291.178098 211.322284 
L 370.362133 206.800026 
" clip-path="url(#p0bce422c78)" style="fill: none; stroke: #d1345b; stroke-width: 1.6; stroke-linecap: square"/>
    <defs>
     <path id="m57f6ba1650" d="M 0 3 
C 0.795609 3 1.55874 2.683901 2.12132 2.12132 
C 2.683901 1.55874 3 0.795609 3 0 
C 3 -0.795609 2.683901 -1.55874 2.12132 -2.12132 
C 1.55874 -2.683901 0.795609 -3 0 -3 
C -0.795609 -3 -1.55874 -2.683901 -2.12132 -2.12132 
C -2.683901 -1.55874 -3 -0.795609 -3 0 
C -3 0.795609 -2.683901 1.55874 -2.12132 2.12132 
C -1.55874 2.683901 -0.795609 3 0 3 
z
" style="stroke: #d1345b"/>
    </defs>
    <g clip-path="url(#p0bce422c78)">
     <use xlink:href="#m57f6ba1650" x="53.625992" y="102.451371" style="fill: #d1345b; stroke: #d1345b"/>
     <use xlink:href="#m57f6ba1650" x="132.810027" y="171.915147" style="fill: #d1345b; stroke: #d1345b"/>
     <use xlink:href="#m57f6ba1650" x="211.994062" y="206.546616" style="fill: #d1345b; stroke: #d1345b"/>
     <use xlink:href="#m57f6ba1650" x="291.178098" y="211.322284" style="fill: #d1345b; stroke: #d1345b"/>
     <use xlink:href="#m57f6ba1650" x="370.362133" y="206.800026" style="fill: #d1345b; stroke: #d1345b"/>
    </g>
   </g>
   <g id="line2d_33">
    <path d="M 57.585193 136.872746 
L 136.769229 121.261679 
L 215.953264 146.716832 
L 295.1373 211.322284 
L 374.321335 206.800026 
" clip-path="url(#p0bce422c78)" style="fill: none; stroke: #ff9b71; stroke-width: 1.6; stroke-linecap: square"/>
    <defs>
     <path id="mf5aa0f4001" d="M 0 3 
C 0.795609 3 1.55874 2.683901 2.12132 2.12132 
C 2.683901 1.55874 3 0.795609 3 0 
C 3 -0.795609 2.683901 -1.55874 2.12132 -2.12132 
C 1.55874 -2.683901 0.795609 -3 0 -3 
C -0.795609 -3 -1.55874 -2.683901 -2.12132 -2.12132 
C -2.683901 -1.55874 -3 -0.795609 -3 0 
C -3 0.795609 -2.683901 1.55874 -2.12132 2.12132 
C -1.55874 2.683901 -0.795609 3 0 3 
z
" style="stroke: #ff9b71"/>
    </defs>
    <g clip-path="url(#p0bce422c78)">
     <use xlink:href="#mf5aa0f4001" x="57.585193" y="136.872746" style="fill: #ff9b71; stroke: #ff9b71"/>
     <use xlink:href="#mf5aa0f4001" x="136.769229" y="121.261679" style="fill: #ff9b71; stroke: #ff9b71"/>
     <use xlink:href="#mf5aa0f4001" x="215.953264" y="146.716832" style="fill: #ff9b71; stroke: #ff9b71"/>
     <use xlink:href="#mf5aa0f4001" x="295.1373" y="211.322284" style="fill: #ff9b71; stroke: #ff9b71"/>
     <use xlink:href="#mf5aa0f4001" x="374.321335" y="206.800026" style="fill: #ff9b71; stroke: #ff9b71"/>
    </g>
   </g>
   <g id="patch_3">
    <path d="M 33.434063 273.312 
L 33.434063 7.2 
" style="fill: none; stroke: #000000; stroke-width: 0.8; stroke-linejoin: miter; stroke-linecap: square"/>
   </g>
   <g id="patch_4">
    <path d="M 390.554062 273.312 
L 390.554062 7.2 
" style="fill: none; stroke: #000000; stroke-width: 0.8; stroke-linejoin: miter; stroke-linecap: square"/>
   </g>
   <g id="patch_5">
    <path d="M 33.434063 273.312 
L 390.554062 273.312 
" style="fill: none; stroke: #000000; stroke-width: 0.8; stroke-linejoin: miter; stroke-linecap: square"/>
   </g>
   <g id="patch_6">
    <path d="M 33.434063 7.2 
L 390.554062 7.2 
" style="fill: none; stroke: #000000; stroke-width: 0.8; stroke-linejoin: miter; stroke-linecap: square"/>
   </g>
   <g id="legend_1">
    <g id="patch_7">
     <path d="M 320.444687 57.973437 
L 383.554062 57.973437 
Q 385.554062 57.973437 385.554062 55.973437 
L 385.554062 14.2 
Q 385.554062 12.2 383.554062 12.2 
L 320.444687 12.2 
Q 318.444687 12.2 318.444687 14.2 
L 318.444687 55.973437 
Q 318.444687 57.973437 320.444687 57.973437 
z
" style="fill: #ffffff; opacity: 0.8"/>
    </g>
    <g id="LineCollection_4">
     <path d="M 332.444687 24.873437 
L 332.444687 14.873437 
" style="fill: none; stroke: #2d3047"/>
    </g>
    <g id="line2d_34">
     <g>
      <use xlink:href="#m2ddfea3625" x="332.444687" y="24.873437" style="fill: #2d3047; stroke: #2d3047"/>
     </g>
    </g>
    <g id="line2d_35">
     <g>
      <use xlink:href="#m2ddfea3625" x="332.444687" y="14.873437" style="fill: #2d3047; stroke: #2d3047"/>
     </g>
    </g>
    <g id="line2d_36">
     <path d="M 322.444687 19.873437 
L 342.444687 19.873437 
" style="fill: none; stroke: #2d3047; stroke-width: 1.6; stroke-linecap: square"/>
    </g>
    <g id="line2d_37">
     <g>
      <use xlink:href="#m5e57192027" x="332.444687" y="19.873437" style="fill: #2d3047; stroke: #2d3047"/>
     </g>
    </g>
    <g id="text_15">
     <text style="font-size: 10px; font-family: 'Helvetica', 'Arial', sans-serif; text-anchor: start" x="350.444687" y="23.373437" transform="rotate(-0 350.444687 23.373437)">ROWS</text>
    </g>
    <g id="LineCollection_5">
     <path d="M 332.444687 39.13125 
L 332.444687 29.13125 
" style="fill: none; stroke: #d1345b"/>
    </g>
    <g id="line2d_38">
     <g>
      <use xlink:href="#m2b15b2f67a" x="332.444687" y="39.13125" style="fill: #d1345b; stroke: #d1345b"/>
     </g>
    </g>
    <g id="line2d_39">
     <g>
      <use xlink:href="#m2b15b2f67a" x="332.444687" y="29.13125" style="fill: #d1345b; stroke: #d1345b"/>
     </g>
    </g>
    <g id="line2d_40">
     <path d="M 322.444687 34.13125 
L 342.444687 34.13125 
" style="fill: none; stroke: #d1345b; stroke-width: 1.6; stroke-linecap: square"/>
    </g>
    <g id="line2d_41">
     <g>
      <use xlink:href="#m57f6ba1650" x="332.444687" y="34.13125" style="fill: #d1345b; stroke: #d1345b"/>
     </g>
    </g>
    <g id="text_16">
     <text style="font-size: 10px; font-family: 'Helvetica', 'Arial', sans-serif; text-anchor: start" x="350.444687" y="37.63125" transform="rotate(-0 350.444687 37.63125)">PFI</text>
    </g>
    <g id="LineCollection_6">
     <path d="M 332.444687 53.389062 
L 332.444687 43.389062 
" style="fill: none; stroke: #ff9b71"/>
    </g>
    <g id="line2d_42">
     <g>
      <use xlink:href="#me4599d17c9" x="332.444687" y="53.389062" style="fill: #ff9b71; stroke: #ff9b71"/>
     </g>
    </g>
    <g id="line2d_43">
     <g>
      <use xlink:href="#me4599d17c9" x="332.444687" y="43.389062" style="fill: #ff9b71; stroke: #ff9b71"/>
     </g>
    </g>
    <g id="line2d_44">
     <path d="M 322.444687 48.389062 
L 342.444687 48.389062 
" style="fill: none; stroke: #ff9b71; stroke-width: 1.6; stroke-linecap: square"/>
    </g>
    <g id="line2d_45">
     <g>
      <use xlink:href="#mf5aa0f4001" x="332.444687" y="48.389062" style="fill: #ff9b71; stroke: #ff9b71"/>
     </g>
    </g>
    <g id="text_17">
     <text style="font-size: 10px; font-family: 'Helvetica', 'Arial', sans-serif; text-anchor: start" x="350.444687" y="51.889062" transform="rotate(-0 350.444687 51.889062)">SAGE</text>
    </g>
   </g>
  </g>
 </g>
 <defs>
  <clipPath id="p0bce422c78">
   <rect x="33.434063" y="7.2" width="357.12" height="266.112"/>
  </clipPath>
 </defs>
</svg>
