<?xml version="1.0" encoding="utf-8" standalone="no"?>
<!DOCTYPE svg PUBLIC "-//W3C//DTD SVG 1.1//EN"
  "http://www.w3.org/Graphics/SVG/1.1/DTD/svg11.dtd">
<svg xmlns:xlink="http://www.w3.org/1999/xlink" width="403.315pt" height="310.683562pt" viewBox="0 0 403.315 310.683562" xmlns="http://www.w3.org/2000/svg" version="1.1">
 <metadata>
  <rdf:RDF xmlns:dc="http://purl.org/dc/elements/1.1/" xmlns:cc="http://creativecommons.org/ns#" xmlns:rdf="http://www.w3.org/1999/02/22-rdf-syntax-ns#">
   <cc:Work>
    <dc:type rdf:resource="http://purl.org/dc/dcmitype/StillImage"/>
    <dc:date>2026-05-03T16:55:14.336011</dc:date>
    <dc:format>image/svg+xml</dc:format>
    <dc:creator>
     <cc:Agent>
      <dc:title>Matplotlib v3.10.8, https://matplotlib.org/</dc:title>
     </cc:Agent>
    </dc:creator>
   </cc:Work>
  </rdf:RDF>
 </metadata>
 <defs>
  <style type="text/css">*{stroke-linejoin: round; stroke-linecap: butt}</style>
 </defs>
 <g id="figure_1">
  <g id="patch_1">
   <path d="M 0 310.683562 
L 403.315 310.683562 
L 403.315 0 
L 0 0 
z
" style="fill: #ffffff"/>
  </g>
  <g id="axes_1">
   <g id="patch_2">
    <path d="M 38.995 273.312 
L 396.115 273.312 
L 396.115 7.2 
L 38.995 7.2 
z
" style="fill: #ffffff"/>
   </g>
   <g id="matplotlib.axis_1">
    <g id="xtick_1">
     <g id="line2d_1">
      <path d="M 55.227727 273.312 
L 55.227727 7.2 
" clip-path="url(#p89550b7e6e)" style="fill: none; stroke: #e0e0e0; stroke-opacity: 0.7; stroke-width: 0.8; stroke-linecap: square"/>
     </g>
     <g id="line2d_2">
      <defs>
       <path id="mc11378d637" d="M 0 0 
L 0 -4 
" style="stroke: #000000; stroke-width: 0.8"/>
      </defs>
      <g>
       <use xlink:href="#mc11378d637" x="55.227727" y="273.312" style="stroke: #000000; stroke-width: 0.8"/>
      </g>
     </g>
     <g id="text_1">
      <text style="font-size: 10px; font-family: 'Helvetica', 'Arial', sans-serif; text-anchor: middle" x="55.227727" y="283.985437" transform="rotate(-0 55.227727 283.985437)">1</text>
     </g>
    </g>
    <g id="xtick_2">
     <g id="line2d_3">
      <path d="M 133.269685 273.312 
L 133.269685 7.2 
" clip-path="url(#p89550b7e6e)" style="fill: none; stroke: #e0e0e0; stroke-opacity: 0.7; stroke-width: 0.8; stroke-linecap: square"/>
     </g>
     <g id="line2d_4">
      <g>
       <use xlink:href="#mc11378d637" x="133.269685" y="273.312" style="stroke: #000000; stroke-width: 0.8"/>
      </g>
     </g>
     <g id="text_2">
      <text style="font-size: 10px; font-family: 'Helvetica', 'Arial', sans-serif; text-anchor: middle" x="133.269685" y="283.985437" transform="rotate(-0 133.269685 283.985437)">2</text>
     </g>
    </g>
    <g id="xtick_3">
     <g id="line2d_5">
      <path d="M 211.311643 273.312 
L 211.311643 7.2 
" clip-path="url(#p89550b7e6e)" style="fill: none; stroke: #e0e0e0; stroke-opacity: 0.7; stroke-width: 0.8; stroke-linecap: square"/>
     </g>
     <g id="line2d_6">
      <g>
       <use xlink:href="#mc11378d637" x="211.311643" y="273.312" style="stroke: #000000; stroke-width: 0.8"/>
      </g>
     </g>
     <g id="text_3">
      <text style="font-size: 10px; font-family: 'Helvetica', 'Arial', sans-serif; text-anchor: middle" x="211.311643" y="283.985437" transform="rotate(-0 211.311643 283.985437)">3</text>
     </g>
    </g>
    <g id="xtick_4">
     <g id="line2d_7">
      <path d="M 289.353601 273.312 
L 289.353601 7.2 
" clip-path="url(#p89550b7e6e)" style="fill: none; stroke: #e0e0e0; stroke-opacity: 0.7; stroke-width: 0.8; stroke-linecap: square"/>
     </g>
     <g id="line2d_8">
      <g>
       <use xlink:href="#mc11378d637" x="289.353601" y="273.312" style="stroke: #000000; stroke-width: 0.8"/>
      </g>
     </g>
     <g id="text_4">
      <text style="font-size: 10px; font-family: 'Helvetica', 'Arial', sans-serif; text-anchor: middle" x="289.353601" y="283.985437" transform="rotate(-0 289.353601 283.985437)">4</text>
     </g>
    </g>
    <g id="xtick_5">
     <g id="line2d_9">
      <path d="M 367.395559 273.312 
L 367.395559 7.2 
" clip-path="url(#p89550b7e6e)" style="fill: none; stroke: #e0e0e0; stroke-opacity: 0.7; stroke-width: 0.8; stroke-linecap: square"/>
     </g>
     <g id="line2d_10">
      <g>
       <use xlink:href="#mc11378d637" x="367.395559" y="273.312" style="stroke: #000000; stroke-width: 0.8"/>
      </g>
     </g>
     <g id="text_5">
      <text style="font-size: 10px; font-family: 'Helvetica', 'Arial', sans-serif; text-anchor: middle" x="367.395559" y="283.985437" transform="rotate(-0 367.395559 283.985437)">5</text>
     </g>
    </g>
    <g id="text_6">
     <text style="font-size: 14px; font-family: 'Helvetica', 'Arial', sans-serif; text-anchor: middle" x="217.555" y="300.386062" transform="rotate(-0 217.555 300.386062)">Wavelength Count</text>
    </g>
   </g>
   <g id="matplotlib.axis_2">
    <g id="ytick_1">
     <g id="line2d_11">
      <path d="M 38.995 273.312 
L 396.115 273.312 
" clip-path="url(#p89550b7e6e)" style="fill: none; stroke: #e0e0e0; stroke-opacity: 0.7; stroke-width: 0.8; stroke-linecap: square"/>
     </g>
     <g id="line2d_12">
      <defs>
       <path id="mc69cb32dac" d="M 0 0 
L 4 0 
" style="stroke: #000000; stroke-width: 0.8"/>
      </defs>
      <g>
       <use xlink:href="#mc69cb32dac" x="38.995" y="273.312" style="stroke: #000000; stroke-width: 0.8"/>
      </g>
     </g>
     <g id="text_7">
      <text style="font-size: 10px; font-family: 'Helvetica', 'Arial', sans-serif; text-anchor: end" x="35.495" y="276.898719" transform="rotate(-0 35.495 276.898719)">0</text>
     </g>
    </g>
    <g id="ytick_2">
     <g id="line2d_13">
      <path d="M 38.995 243.190921 
L 396.115 243.190921 
" clip-path="url(#p89550b7e6e)" style="fill: none; stroke: #e0e0e0; stroke-opacity: 0.7; stroke-width: 0.8; stroke-linecap: square"/>
     </g>
     <g id="line2d_14">
      <g>
       <use xlink:href="#mc69cb32dac" x="38.995" y="243.190921" style="stroke: #000000; stroke-width: 0.8"/>
      </g>
     </g>
     <g id="text_8">
      <text style="font-size: 10px; font-family: 'Helvetica', 'Arial', sans-serif; text-anchor: end" x="35.495" y="246.77764" transform="rotate(-0 35.495 246.77764)">5</text>
     </g>
    </g>
    <g id="ytick_3">
     <g id="line2d_15">
      <path d="M 38.995 213.069843 
L 396.115 213.069843 
" clip-path="url(#p89550b7e6e)" style="fill: none; stroke: #e0e0e0; stroke-opacity: 0.7; stroke-width: 0.8; stroke-linecap: square"/>
     </g>
     <g id="line2d_16">
      <g>
       <use xlink:href="#mc69cb32dac" x="38.995" y="213.069843" style="stroke: #000000; stroke-width: 0.8"/>
      </g>
     </g>
     <g id="text_9">
      <text style="font-size: 10px; font-family: 'Helvetica', 'Arial', sans-serif; text-anchor: end" x="35.495" y="216.656562" transform="rotate(-0 35.495 216.656562)">10</text>
     </g>
    </g>
    <g id="ytick_4">
     <g id="line2d_17">
      <path d="M 38.995 182.948764 
L 396.115 182.948764 
" clip-path="url(#p89550b7e6e)" style="fill: none; stroke: #e0e0e0; stroke-opacity: 0.7; stroke-width: 0.8; stroke-linecap: square"/>
     </g>
     <g id="line2d_18">
      <g>
       <use xlink:href="#mc69cb32dac" x="38.995" y="182.948764" style="stroke: #000000; stroke-width: 0.8"/>
      </g>
     </g>
     <g id="text_10">
      <text style="font-size: 10px; font-family: 'Helvetica', 'Arial', sans-serif; text-anchor: end" x="35.495" y="186.535483" transform="rotate(-0 35.495 186.535483)">15</text>
     </g>
    </g>
    <g id="ytick_5">
     <g id="line2d_19">
      <path d="M 38.995 152.827686 
L 396.115 152.827686 
" clip-path="url(#p89550b7e6e)" style="fill: none; stroke: #e0e0e0; stroke-opacity: 0.7; stroke-width: 0.8; stroke-linecap: square"/>
     </g>
     <g id="line2d_20">
      <g>
       <use xlink:href="#mc69cb32dac" x="38.995" y="152.827686" style="stroke: #000000; stroke-width: 0.8"/>
      </g>
     </g>
     <g id="text_11">
      <text style="font-size: 10px; font-family: 'Helvetica', 'Arial', sans-serif; text-anchor: end" x="35.495" y="156.414404" transform="rotate(-0 35.495 156.414404)">20</text>
     </g>
    </g>
    <g id="ytick_6">
     <g id="line2d_21">
      <path d="M 38.995 122.706607 
L 396.115 122.706607 
" clip-path="url(#p89550b7e6e)" style="fill: none; stroke: #e0e0e0; stroke-opacity: 0.7; stroke-width: 0.8; stroke-linecap: square"/>
     </g>
     <g id="line2d_22">
      <g>
       <use xlink:href="#mc69cb32dac" x="38.995" y="122.706607" style="stroke: #000000; stroke-width: 0.8"/>
      </g>
     </g>
     <g id="text_12">
      <text style="font-size: 10px; font-family: 'Helvetica', 'Arial', sans-serif; text-anchor: end" x="35.495" y="126.293326" transform="rotate(-0 35.495 126.293326)">25</text>
     </g>
    </g>
    <g id="ytick_7">
     <g id="line2d_23">
      <path d="M 38.995 92.585528 
L 396.115 92.585528 
" clip-path="url(#p89550b7e6e)" style="fill: none; stroke: #e0e0e0; stroke-opacity: 0.7; stroke-width: 0.8; stroke-linecap: square"/>
     </g>
     <g id="line2d_24">
      <g>
       <use xlink:href="#mc69cb32dac" x="38.995" y="92.585528" style="stroke: #000000; stroke-width: 0.8"/>
      </g>
     </g>
     <g id="text_13">
      <text style="font-size: 10px; font-family: 'Helvetica', 'Arial', sans-serif; text-anchor: end" x="35.495" y="96.172247" transform="rotate(-0 35.495 96.172247)">30</text>
     </g>
    </g>
    <g id="ytick_8">
     <g id="line2d_25">
      <path d="M 38.995 62.46445 
L 396.115 62.46445 
" clip-path="url(#p89550b7e6e)" style="fill: none; stroke: #e0e0e0; stroke-opacity: 0.7; stroke-width: 0.8; stroke-linecap: square"/>
     </g>
     <g id="line2d_26">
      <g>
       <use xlink:href="#mc69cb32dac" x="38.995" y="62.46445" style="stroke: #000000; stroke-width: 0.8"/>
      </g>
     </g>
     <g id="text_14">
      <text style="font-size: 10px; font-family: 'Helvetica', 'Arial', sans-serif; text-anchor: end" x="35.495" y="66.051169" transform="rotate(-0 35.495 66.051169)">35</text>
     </g>
    </g>
    <g id="ytick_9">
     <g id="line2d_27">
      <path d="M 38.995 32.343371 
L 396.115 32.343371 
" clip-path="url(#p89550b7e6e)" style="fill: none; stroke: #e0e0e0; stroke-opacity: 0.7; stroke-width: 0.8; stroke-linecap: square"/>
     </g>
     <g id="line2d_28">
      <g>
       <use xlink:href="#mc69cb32dac" x="38.995" y="32.343371" style="stroke: #000000; stroke-width: 0.8"/>
      </g>
     </g>
     <g id="text_15">
      <text style="font-size: 10px; font-family: 'Helvetica', 'Arial', sans-serif; text-anchor: end" x="35.495" y="35.93009" transform="rotate(-0 35.495 35.93009)">40</text>
     </g>
    </g>
    <g id="text_16">
     <text style="font-size: 14px; font-family: 'Helvetica', 'Arial', sans-serif; text-anchor: middle" x="17.455" y="140.256" transform="rotate(-90 17.455 140.256)">Test Error (MAE % Saturation)</text>
    </g>
   </g>
   <g id="LineCollection_1">
    <path d="M 55.227727 141.458139 
L 55.227727 85.846391 
" clip-path="url(#p89550b7e6e)" style="fill: none; stroke: #2d3047"/>
    <path d="M 133.269685 100.801424 
L 133.269685 18.868152 
" clip-path="url(#p89550b7e6e)" style="fill: none; stroke: #2d3047"/>
    <path d="M 211.311643 118.581394 
L 211.311643 63.212277 
" clip-path="url(#p89550b7e6e)" style="fill: none; stroke: #2d3047"/>
    <path d="M 289.353601 138.788069 
L 289.353601 122.884071 
" clip-path="url(#p89550b7e6e)" style="fill: none; stroke: #2d3047"/>
    <path d="M 367.395559 252.231187 
L 367.395559 251.841646 
" clip-path="url(#p89550b7e6e)" style="fill: none; stroke: #2d3047"/>
   </g>
   <g id="line2d_29">
    <defs>
     <path id="m84c5b46234" d="M 3 0 
L -3 -0 
" style="stroke: #2d3047"/>
    </defs>
    <g clip-path="url(#p89550b7e6e)">
     <use xlink:href="#m84c5b46234" x="55.227727" y="141.458139" style="fill: #2d3047; stroke: #2d3047"/>
     <use xlink:href="#m84c5b46234" x="133.269685" y="100.801424" style="fill: #2d3047; stroke: #2d3047"/>
     <use xlink:href="#m84c5b46234" x="211.311643" y="118.581394" style="fill: #2d3047; stroke: #2d3047"/>
     <use xlink:href="#m84c5b46234" x="289.353601" y="138.788069" style="fill: #2d3047; stroke: #2d3047"/>
     <use xlink:href="#m84c5b46234" x="367.395559" y="252.231187" style="fill: #2d3047; stroke: #2d3047"/>
    </g>
   </g>
   <g id="line2d_30">
    <g clip-path="url(#p89550b7e6e)">
     <use xlink:href="#m84c5b46234" x="55.227727" y="85.846391" style="fill: #2d3047; stroke: #2d3047"/>
     <use xlink:href="#m84c5b46234" x="133.269685" y="18.868152" style="fill: #2d3047; stroke: #2d3047"/>
     <use xlink:href="#m84c5b46234" x="211.311643" y="63.212277" style="fill: #2d3047; stroke: #2d3047"/>
     <use xlink:href="#m84c5b46234" x="289.353601" y="122.884071" style="fill: #2d3047; stroke: #2d3047"/>
     <use xlink:href="#m84c5b46234" x="367.395559" y="251.841646" style="fill: #2d3047; stroke: #2d3047"/>
    </g>
   </g>
   <g id="LineCollection_2">
    <path d="M 61.471084 141.458139 
L 61.471084 85.846391 
" clip-path="url(#p89550b7e6e)" style="fill: none; stroke: #d1345b"/>
    <path d="M 139.513042 100.801424 
L 139.513042 18.868152 
" clip-path="url(#p89550b7e6e)" style="fill: none; stroke: #d1345b"/>
    <path d="M 217.555 147.432085 
L 217.555 96.783692 
" clip-path="url(#p89550b7e6e)" style="fill: none; stroke: #d1345b"/>
    <path d="M 295.596958 138.788069 
L 295.596958 122.884071 
" clip-path="url(#p89550b7e6e)" style="fill: none; stroke: #d1345b"/>
    <path d="M 373.638916 252.231187 
L 373.638916 251.841646 
" clip-path="url(#p89550b7e6e)" style="fill: none; stroke: #d1345b"/>
   </g>
   <g id="line2d_31">
    <defs>
     <path id="m22c03ab1cb" d="M 3 0 
L -3 -0 
" style="stroke: #d1345b"/>
    </defs>
    <g clip-path="url(#p89550b7e6e)">
     <use xlink:href="#m22c03ab1cb" x="61.471084" y="141.458139" style="fill: #d1345b; stroke: #d1345b"/>
     <use xlink:href="#m22c03ab1cb" x="139.513042" y="100.801424" style="fill: #d1345b; stroke: #d1345b"/>
     <use xlink:href="#m22c03ab1cb" x="217.555" y="147.432085" style="fill: #d1345b; stroke: #d1345b"/>
     <use xlink:href="#m22c03ab1cb" x="295.596958" y="138.788069" style="fill: #d1345b; stroke: #d1345b"/>
     <use xlink:href="#m22c03ab1cb" x="373.638916" y="252.231187" style="fill: #d1345b; stroke: #d1345b"/>
    </g>
   </g>
   <g id="line2d_32">
    <g clip-path="url(#p89550b7e6e)">
     <use xlink:href="#m22c03ab1cb" x="61.471084" y="85.846391" style="fill: #d1345b; stroke: #d1345b"/>
     <use xlink:href="#m22c03ab1cb" x="139.513042" y="18.868152" style="fill: #d1345b; stroke: #d1345b"/>
     <use xlink:href="#m22c03ab1cb" x="217.555" y="96.783692" style="fill: #d1345b; stroke: #d1345b"/>
     <use xlink:href="#m22c03ab1cb" x="295.596958" y="122.884071" style="fill: #d1345b; stroke: #d1345b"/>
     <use xlink:href="#m22c03ab1cb" x="373.638916" y="251.841646" style="fill: #d1345b; stroke: #d1345b"/>
    </g>
   </g>
   <g id="LineCollection_3">
    <path d="M 67.714441 154.838178 
L 67.714441 138.964282 
" clip-path="url(#p89550b7e6e)" style="fill: none; stroke: #ff9b71"/>
    <path d="M 145.756399 152.395644 
L 145.756399 134.864278 
" clip-path="url(#p89550b7e6e)" style="fill: none; stroke: #ff9b71"/>
    <path d="M 223.798357 201.834151 
L 223.798357 182.578766 
" clip-path="url(#p89550b7e6e)" style="fill: none; stroke: #ff9b71"/>
    <path d="M 301.840315 138.788069 
L 301.840315 122.884071 
" clip-path="url(#p89550b7e6e)" style="fill: none; stroke: #ff9b71"/>
    <path d="M 379.882273 252.231187 
L 379.882273 251.841646 
" clip-path="url(#p89550b7e6e)" style="fill: none; stroke: #ff9b71"/>
   </g>
   <g id="line2d_33">
    <defs>
     <path id="m5ea4d68627" d="M 3 0 
L -3 -0 
" style="stroke: #ff9b71"/>
    </defs>
    <g clip-path="url(#p89550b7e6e)">
     <use xlink:href="#m5ea4d68627" x="67.714441" y="154.838178" style="fill: #ff9b71; stroke: #ff9b71"/>
     <use xlink:href="#m5ea4d68627" x="145.756399" y="152.395644" style="fill: #ff9b71; stroke: #ff9b71"/>
     <use xlink:href="#m5ea4d68627" x="223.798357" y="201.834151" style="fill: #ff9b71; stroke: #ff9b71"/>
     <use xlink:href="#m5ea4d68627" x="301.840315" y="138.788069" style="fill: #ff9b71; stroke: #ff9b71"/>
     <use xlink:href="#m5ea4d68627" x="379.882273" y="252.231187" style="fill: #ff9b71; stroke: #ff9b71"/>
    </g>
   </g>
   <g id="line2d_34">
    <g clip-path="url(#p89550b7e6e)">
     <use xlink:href="#m5ea4d68627" x="67.714441" y="138.964282" style="fill: #ff9b71; stroke: #ff9b71"/>
     <use xlink:href="#m5ea4d68627" x="145.756399" y="134.864278" style="fill: #ff9b71; stroke: #ff9b71"/>
     <use xlink:href="#m5ea4d68627" x="223.798357" y="182.578766" style="fill: #ff9b71; stroke: #ff9b71"/>
     <use xlink:href="#m5ea4d68627" x="301.840315" y="122.884071" style="fill: #ff9b71; stroke: #ff9b71"/>
     <use xlink:href="#m5ea4d68627" x="379.882273" y="251.841646" style="fill: #ff9b71; stroke: #ff9b71"/>
    </g>
   </g>
   <g id="line2d_35">
    <path d="M 55.227727 113.652265 
L 133.269685 59.834788 
L 211.311643 90.896836 
L 289.353601 130.83607 
L 367.395559 252.036416 
" clip-path="url(#p89550b7e6e)" style="fill: none; stroke: #2d3047; stroke-width: 1.6; stroke-linecap: square"/>
    <defs>
     <path id="m5174d85a2c" d="M 0 3 
C 0.795609 3 1.55874 2.683901 2.12132 2.12132 
C 2.683901 1.55874 3 0.795609 3 0 
C 3 -0.795609 2.683901 -1.55874 2.12132 -2.12132 
C 1.55874 -2.683901 0.795609 -3 0 -3 
C -0.795609 -3 -1.55874 -2.683901 -2.12132 -2.12132 
C -2.683901 -1.55874 -3 -0.795609 -3 0 
C -3 0.795609 -2.683901 1.55874 -2.12132 2.12132 
C -1.55874 2.683901 -0.795609 3 0 3 
z
" style="stroke: #2d3047"/>
    </defs>
    <g clip-path="url(#p89550b7e6e)">
     <use xlink:href="#m5174d85a2c" x="55.227727" y="113.652265" style="fill: #2d3047; stroke: #2d3047"/>
     <use xlink:href="#m5174d85a2c" x="133.269685" y="59.834788" style="fill: #2d3047; stroke: #2d3047"/>
     <use xlink:href="#m5174d85a2c" x="211.311643" y="90.896836" style="fill: #2d3047; stroke: #2d3047"/>
     <use xlink:href="#m5174d85a2c" x="289.353601" y="130.83607" style="fill: #2d3047; stroke: #2d3047"/>
     <use xlink:href="#m5174d85a2c" x="367.395559" y="252.036416" style="fill: #2d3047; stroke: #2d3047"/>
    </g>
   </g>
   <g id="line2d_36">
    <path d="M 61.471084 113.652265 
L 139.513042 59.834788 
L 217.555 122.107889 
L 295.596958 130.83607 
L 373.638916 252.036416 
" clip-path="url(#p89550b7e6e)" style="fill: none; stroke: #d1345b; stroke-width: 1.6; stroke-linecap: square"/>
    <defs>
     <path id="mb52cf1fe19" d="M 0 3 
C 0.795609 3 1.55874 2.683901 2.12132 2.12132 
C 2.683901 1.55874 3 0.795609 3 0 
C 3 -0.795609 2.683901 -1.55874 2.12132 -2.12132 
C 1.55874 -2.683901 0.795609 -3 0 -3 
C -0.795609 -3 -1.55874 -2.683901 -2.12132 -2.12132 
C -2.683901 -1.55874 -3 -0.795609 -3 0 
C -3 0.795609 -2.683901 1.55874 -2.12132 2.12132 
C -1.55874 2.683901 -0.795609 3 0 3 
z
" style="stroke: #d1345b"/>
    </defs>
    <g clip-path="url(#p89550b7e6e)">
     <use xlink:href="#mb52cf1fe19" x="61.471084" y="113.652265" style="fill: #d1345b; stroke: #d1345b"/>
     <use xlink:href="#mb52cf1fe19" x="139.513042" y="59.834788" style="fill: #d1345b; stroke: #d1345b"/>
     <use xlink:href="#mb52cf1fe19" x="217.555" y="122.107889" style="fill: #d1345b; stroke: #d1345b"/>
     <use xlink:href="#mb52cf1fe19" x="295.596958" y="130.83607" style="fill: #d1345b; stroke: #d1345b"/>
     <use xlink:href="#mb52cf1fe19" x="373.638916" y="252.036416" style="fill: #d1345b; stroke: #d1345b"/>
    </g>
   </g>
   <g id="line2d_37">
    <path d="M 67.714441 146.90123 
L 145.756399 143.629961 
L 223.798357 192.206459 
L 301.840315 130.83607 
L 379.882273 252.036416 
" clip-path="url(#p89550b7e6e)" style="fill: none; stroke: #ff9b71; stroke-width: 1.6; stroke-linecap: square"/>
    <defs>
     <path id="m34dfe49e92" d="M 0 3 
C 0.795609 3 1.55874 2.683901 2.12132 2.12132 
C 2.683901 1.55874 3 0.795609 3 0 
C 3 -0.795609 2.683901 -1.55874 2.12132 -2.12132 
C 1.55874 -2.683901 0.795609 -3 0 -3 
C -0.795609 -3 -1.55874 -2.683901 -2.12132 -2.12132 
C -2.683901 -1.55874 -3 -0.795609 -3 0 
C -3 0.795609 -2.683901 1.55874 -2.12132 2.12132 
C -1.55874 2.683901 -0.795609 3 0 3 
z
" style="stroke: #ff9b71"/>
    </defs>
    <g clip-path="url(#p89550b7e6e)">
     <use xlink:href="#m34dfe49e92" x="67.714441" y="146.90123" style="fill: #ff9b71; stroke: #ff9b71"/>
     <use xlink:href="#m34dfe49e92" x="145.756399" y="143.629961" style="fill: #ff9b71; stroke: #ff9b71"/>
     <use xlink:href="#m34dfe49e92" x="223.798357" y="192.206459" style="fill: #ff9b71; stroke: #ff9b71"/>
     <use xlink:href="#m34dfe49e92" x="301.840315" y="130.83607" style="fill: #ff9b71; stroke: #ff9b71"/>
     <use xlink:href="#m34dfe49e92" x="379.882273" y="252.036416" style="fill: #ff9b71; stroke: #ff9b71"/>
    </g>
   </g>
   <g id="patch_3">
    <path d="M 38.995 273.312 
L 38.995 7.2 
" style="fill: none; stroke: #000000; stroke-width: 0.8; stroke-linejoin: miter; stroke-linecap: square"/>
   </g>
   <g id="patch_4">
    <path d="M 396.115 273.312 
L 396.115 7.2 
" style="fill: none; stroke: #000000; stroke-width: 0.8; stroke-linejoin: miter; stroke-linecap: square"/>
   </g>
   <g id="patch_5">
    <path d="M 38.995 273.312 
L 396.115 273.312 
" style="fill: none; stroke: #000000; stroke-width: 0.8; stroke-linejoin: miter; stroke-linecap: square"/>
   </g>
   <g id="patch_6">
    <path d="M 38.995 7.2 
L 396.115 7.2 
" style="fill: none; stroke: #000000; stroke-width: 0.8; stroke-linejoin: miter; stroke-linecap: square"/>
   </g>
   <g id="legend_1">
    <g id="patch_7">
     <path d="M 326.005625 57.973437 
L 389.115 57.973437 
Q 391.115 57.973437 391.115 55.973437 
L 391.115 14.2 
Q 391.115 12.2 389.115 12.2 
L 326.005625 12.2 
Q 324.005625 12.2 324.005625 14.2 
L 324.005625 55.973437 
Q 324.005625 57.973437 326.005625 57.973437 
z
" style="fill: #ffffff; opacity: 0.8"/>
    </g>
    <g id="LineCollection_4">
     <path d="M 338.005625 24.873437 
L 338.005625 14.873437 
" style="fill: none; stroke: #2d3047"/>
    </g>
    <g id="line2d_38">
     <g>
      <use xlink:href="#m84c5b46234" x="338.005625" y="24.873437" style="fill: #2d3047; stroke: #2d3047"/>
     </g>
    </g>
    <g id="line2d_39">
     <g>
      <use xlink:href="#m84c5b46234" x="338.005625" y="14.873437" style="fill: #2d3047; stroke: #2d3047"/>
     </g>
    </g>
    <g id="line2d_40">
     <path d="M 328.005625 19.873437 
L 348.005625 19.873437 
" style="fill: none; stroke: #2d3047; stroke-width: 1.6; stroke-linecap: square"/>
    </g>
    <g id="line2d_41">
     <g>
      <use xlink:href="#m5174d85a2c" x="338.005625" y="19.873437" style="fill: #2d3047; stroke: #2d3047"/>
     </g>
    </g>
    <g id="text_17">
     <text style="font-size: 10px; font-family: 'Helvetica', 'Arial', sans-serif; text-anchor: start" x="356.005625" y="23.373437" transform="rotate(-0 356.005625 23.373437)">ROWS</text>
    </g>
    <g id="LineCollection_5">
     <path d="M 338.005625 39.13125 
L 338.005625 29.13125 
" style="fill: none; stroke: #d1345b"/>
    </g>
    <g id="line2d_42">
     <g>
      <use xlink:href="#m22c03ab1cb" x="338.005625" y="39.13125" style="fill: #d1345b; stroke: #d1345b"/>
     </g>
    </g>
    <g id="line2d_43">
     <g>
      <use xlink:href="#m22c03ab1cb" x="338.005625" y="29.13125" style="fill: #d1345b; stroke: #d1345b"/>
     </g>
    </g>
    <g id="line2d_44">
     <path d="M 328.005625 34.13125 
L 348.005625 34.13125 
" style="fill: none; stroke: #d1345b; stroke-width: 1.6; stroke-linecap: square"/>
    </g>
    <g id="line2d_45">
     <g>
      <use xlink:href="#mb52cf1fe19" x="338.005625" y="34.13125" style="fill: #d1345b; stroke: #d1345b"/>
     </g>
    </g>
    <g id="text_18">
     <text style="font-size: 10px; font-family: 'Helvetica', 'Arial', sans-serif; text-anchor: start" x="356.005625" y="37.63125" transform="rotate(-0 356.005625 37.63125)">PFI</text>
    </g>
    <g id="LineCollection_6">
     <path d="M 338.005625 53.389062 
L 338.005625 43.389062 
" style="fill: none; stroke: #ff9b71"/>
    </g>
    <g id="line2d_46">
     <g>
      <use xlink:href="#m5ea4d68627" x="338.005625" y="53.389062" style="fill: #ff9b71; stroke: #ff9b71"/>
     </g>
    </g>
    <g id="line2d_47">
     <g>
      <use xlink:href="#m5ea4d68627" x="338.005625" y="43.389062" style="fill: #ff9b71; stroke: #ff9b71"/>
     </g>
    </g>
    <g id="line2d_48">
     <path d="M 328.005625 48.389062 
L 348.005625 48.389062 
" style="fill: none; stroke: #ff9b71; stroke-width: 1.6; stroke-linecap: square"/>
    </g>
    <g id="line2d_49">
     <g>
      <use xlink:href="#m34dfe49e92" x="338.005625" y="48.389062" style="fill: #ff9b71; stroke: #ff9b71"/>
     </g>
    </g>
    <g id="text_19">
     <text style="font-size: 10px; font-family: 'Helvetica', 'Arial', sans-serif; text-anchor: start" x="356.005625" y="51.889062" transform="rotate(-0 356.005625 51.889062)">SAGE</text>
    </g>
   </g>
  </g>
 </g>
 <defs>
  <clipPath id="p89550b7e6e">
   <rect x="38.995" y="7.2" width="357.12" height="266.112"/>
  </clipPath>
 </defs>
</svg>
