<?xml version="1.0" encoding="utf-8" standalone="no"?>
<!DOCTYPE svg PUBLIC "-//W3C//DTD SVG 1.1//EN"
  "http://www.w3.org/Graphics/SVG/1.1/DTD/svg11.dtd">
<svg xmlns:xlink="http://www.w3.org/1999/xlink" width="403.315pt" height="310.683562pt" viewBox="0 0 403.315 310.683562" xmlns="http://www.w3.org/2000/svg" version="1.1">
 <metadata>
  <rdf:RDF xmlns:dc="http://purl.org/dc/elements/1.1/" xmlns:cc="http://creativecommons.org/ns#" xmlns:rdf="http://www.w3.org/1999/02/22-rdf-syntax-ns#">
   <cc:Work>
    <dc:type rdf:resource="http://purl.org/dc/dcmitype/StillImage"/>
    <dc:date>2026-04-21T14:23:09.870974</dc:date>
    <dc:format>image/svg+xml</dc:format>
    <dc:creator>
     <cc:Agent>
      <dc:title>Matplotlib v3.10.8, https://matplotlib.org/</dc:title>
     </cc:Agent>
    </dc:creator>
   </cc:Work>
  </rdf:RDF>
 </metadata>
 <defs>
  <style type="text/css">*{stroke-linejoin: round; stroke-linecap: butt}</style>
 </defs>
 <g id="figure_1">
  <g id="patch_1">
   <path d="M 0 310.683562 
L 403.315 310.683562 
L 403.315 0 
L 0 0 
z
" style="fill: #ffffff"/>
  </g>
  <g id="axes_1">
   <g id="patch_2">
    <path d="M 38.995 273.312 
L 396.115 273.312 
L 396.115 7.2 
L 38.995 7.2 
z
" style="fill: #ffffff"/>
   </g>
   <g id="matplotlib.axis_1">
    <g id="xtick_1">
     <g id="line2d_1">
      <path d="M 55.227727 273.312 
L 55.227727 7.2 
" clip-path="url(#p0a702382f1)" style="fill: none; stroke: #e0e0e0; stroke-opacity: 0.7; stroke-width: 0.8; stroke-linecap: square"/>
     </g>
     <g id="line2d_2">
      <defs>
       <path id="md045dd7f20" d="M 0 0 
L 0 -4 
" style="stroke: #000000; stroke-width: 0.8"/>
      </defs>
      <g>
       <use xlink:href="#md045dd7f20" x="55.227727" y="273.312" style="stroke: #000000; stroke-width: 0.8"/>
      </g>
     </g>
     <g id="text_1">
      <text style="font-size: 10px; font-family: 'Helvetica', 'Arial', sans-serif; text-anchor: middle" x="55.227727" y="283.985437" transform="rotate(-0 55.227727 283.985437)">1</text>
     </g>
    </g>
    <g id="xtick_2">
     <g id="line2d_3">
      <path d="M 209.82513 273.312 
L 209.82513 7.2 
" clip-path="url(#p0a702382f1)" style="fill: none; stroke: #e0e0e0; stroke-opacity: 0.7; stroke-width: 0.8; stroke-linecap: square"/>
     </g>
     <g id="line2d_4">
      <g>
       <use xlink:href="#md045dd7f20" x="209.82513" y="273.312" style="stroke: #000000; stroke-width: 0.8"/>
      </g>
     </g>
     <g id="text_2">
      <text style="font-size: 10px; font-family: 'Helvetica', 'Arial', sans-serif; text-anchor: middle" x="209.82513" y="283.985437" transform="rotate(-0 209.82513 283.985437)">2</text>
     </g>
    </g>
    <g id="xtick_3">
     <g id="line2d_5">
      <path d="M 364.422532 273.312 
L 364.422532 7.2 
" clip-path="url(#p0a702382f1)" style="fill: none; stroke: #e0e0e0; stroke-opacity: 0.7; stroke-width: 0.8; stroke-linecap: square"/>
     </g>
     <g id="line2d_6">
      <g>
       <use xlink:href="#md045dd7f20" x="364.422532" y="273.312" style="stroke: #000000; stroke-width: 0.8"/>
      </g>
     </g>
     <g id="text_3">
      <text style="font-size: 10px; font-family: 'Helvetica', 'Arial', sans-serif; text-anchor: middle" x="364.422532" y="283.985437" transform="rotate(-0 364.422532 283.985437)">3</text>
     </g>
    </g>
    <g id="text_4">
     <text style="font-size: 14px; font-family: 'Helvetica', 'Arial', sans-serif; text-anchor: middle" x="217.555" y="300.386062" transform="rotate(-0 217.555 300.386062)">Wavelength Count</text>
    </g>
   </g>
   <g id="matplotlib.axis_2">
    <g id="ytick_1">
     <g id="line2d_7">
      <path d="M 38.995 273.312 
L 396.115 273.312 
" clip-path="url(#p0a702382f1)" style="fill: none; stroke: #e0e0e0; stroke-opacity: 0.7; stroke-width: 0.8; stroke-linecap: square"/>
     </g>
     <g id="line2d_8">
      <defs>
       <path id="mc5d30b7132" d="M 0 0 
L 4 0 
" style="stroke: #000000; stroke-width: 0.8"/>
      </defs>
      <g>
       <use xlink:href="#mc5d30b7132" x="38.995" y="273.312" style="stroke: #000000; stroke-width: 0.8"/>
      </g>
     </g>
     <g id="text_5">
      <text style="font-size: 10px; font-family: 'Helvetica', 'Arial', sans-serif; text-anchor: end" x="35.495" y="276.898719" transform="rotate(-0 35.495 276.898719)">0</text>
     </g>
    </g>
    <g id="ytick_2">
     <g id="line2d_9">
      <path d="M 38.995 225.816006 
L 396.115 225.816006 
" clip-path="url(#p0a702382f1)" style="fill: none; stroke: #e0e0e0; stroke-opacity: 0.7; stroke-width: 0.8; stroke-linecap: square"/>
     </g>
     <g id="line2d_10">
      <g>
       <use xlink:href="#mc5d30b7132" x="38.995" y="225.816006" style="stroke: #000000; stroke-width: 0.8"/>
      </g>
     </g>
     <g id="text_6">
      <text style="font-size: 10px; font-family: 'Helvetica', 'Arial', sans-serif; text-anchor: end" x="35.495" y="229.402725" transform="rotate(-0 35.495 229.402725)">2</text>
     </g>
    </g>
    <g id="ytick_3">
     <g id="line2d_11">
      <path d="M 38.995 178.320012 
L 396.115 178.320012 
" clip-path="url(#p0a702382f1)" style="fill: none; stroke: #e0e0e0; stroke-opacity: 0.7; stroke-width: 0.8; stroke-linecap: square"/>
     </g>
     <g id="line2d_12">
      <g>
       <use xlink:href="#mc5d30b7132" x="38.995" y="178.320012" style="stroke: #000000; stroke-width: 0.8"/>
      </g>
     </g>
     <g id="text_7">
      <text style="font-size: 10px; font-family: 'Helvetica', 'Arial', sans-serif; text-anchor: end" x="35.495" y="181.906731" transform="rotate(-0 35.495 181.906731)">4</text>
     </g>
    </g>
    <g id="ytick_4">
     <g id="line2d_13">
      <path d="M 38.995 130.824018 
L 396.115 130.824018 
" clip-path="url(#p0a702382f1)" style="fill: none; stroke: #e0e0e0; stroke-opacity: 0.7; stroke-width: 0.8; stroke-linecap: square"/>
     </g>
     <g id="line2d_14">
      <g>
       <use xlink:href="#mc5d30b7132" x="38.995" y="130.824018" style="stroke: #000000; stroke-width: 0.8"/>
      </g>
     </g>
     <g id="text_8">
      <text style="font-size: 10px; font-family: 'Helvetica', 'Arial', sans-serif; text-anchor: end" x="35.495" y="134.410737" transform="rotate(-0 35.495 134.410737)">6</text>
     </g>
    </g>
    <g id="ytick_5">
     <g id="line2d_15">
      <path d="M 38.995 83.328025 
L 396.115 83.328025 
" clip-path="url(#p0a702382f1)" style="fill: none; stroke: #e0e0e0; stroke-opacity: 0.7; stroke-width: 0.8; stroke-linecap: square"/>
     </g>
     <g id="line2d_16">
      <g>
       <use xlink:href="#mc5d30b7132" x="38.995" y="83.328025" style="stroke: #000000; stroke-width: 0.8"/>
      </g>
     </g>
     <g id="text_9">
      <text style="font-size: 10px; font-family: 'Helvetica', 'Arial', sans-serif; text-anchor: end" x="35.495" y="86.914743" transform="rotate(-0 35.495 86.914743)">8</text>
     </g>
    </g>
    <g id="ytick_6">
     <g id="line2d_17">
      <path d="M 38.995 35.832031 
L 396.115 35.832031 
" clip-path="url(#p0a702382f1)" style="fill: none; stroke: #e0e0e0; stroke-opacity: 0.7; stroke-width: 0.8; stroke-linecap: square"/>
     </g>
     <g id="line2d_18">
      <g>
       <use xlink:href="#mc5d30b7132" x="38.995" y="35.832031" style="stroke: #000000; stroke-width: 0.8"/>
      </g>
     </g>
     <g id="text_10">
      <text style="font-size: 10px; font-family: 'Helvetica', 'Arial', sans-serif; text-anchor: end" x="35.495" y="39.418749" transform="rotate(-0 35.495 39.418749)">10</text>
     </g>
    </g>
    <g id="text_11">
     <text style="font-size: 14px; font-family: 'Helvetica', 'Arial', sans-serif; text-anchor: middle" x="17.455" y="140.256" transform="rotate(-90 17.455 140.256)">Test MAE (%Saturation)</text>
    </g>
   </g>
   <g id="LineCollection_1">
    <path d="M 55.227727 171.841376 
L 55.227727 16.003529 
" clip-path="url(#p0a702382f1)" style="fill: none; stroke: #2d3047"/>
    <path d="M 209.82513 188.24519 
L 209.82513 33.471144 
" clip-path="url(#p0a702382f1)" style="fill: none; stroke: #2d3047"/>
    <path d="M 364.422532 192.0741 
L 364.422532 40.717191 
" clip-path="url(#p0a702382f1)" style="fill: none; stroke: #2d3047"/>
   </g>
   <g id="line2d_19">
    <defs>
     <path id="mf1887fd826" d="M 3 0 
L -3 -0 
" style="stroke: #2d3047"/>
    </defs>
    <g clip-path="url(#p0a702382f1)">
     <use xlink:href="#mf1887fd826" x="55.227727" y="171.841376" style="fill: #2d3047; stroke: #2d3047"/>
     <use xlink:href="#mf1887fd826" x="209.82513" y="188.24519" style="fill: #2d3047; stroke: #2d3047"/>
     <use xlink:href="#mf1887fd826" x="364.422532" y="192.0741" style="fill: #2d3047; stroke: #2d3047"/>
    </g>
   </g>
   <g id="line2d_20">
    <g clip-path="url(#p0a702382f1)">
     <use xlink:href="#mf1887fd826" x="55.227727" y="16.003529" style="fill: #2d3047; stroke: #2d3047"/>
     <use xlink:href="#mf1887fd826" x="209.82513" y="33.471144" style="fill: #2d3047; stroke: #2d3047"/>
     <use xlink:href="#mf1887fd826" x="364.422532" y="40.717191" style="fill: #2d3047; stroke: #2d3047"/>
    </g>
   </g>
   <g id="LineCollection_2">
    <path d="M 62.957597 171.841376 
L 62.957597 16.003529 
" clip-path="url(#p0a702382f1)" style="fill: none; stroke: #d1345b"/>
    <path d="M 217.555 182.834993 
L 217.555 33.460936 
" clip-path="url(#p0a702382f1)" style="fill: none; stroke: #d1345b"/>
    <path d="M 372.152403 192.0741 
L 372.152403 40.717191 
" clip-path="url(#p0a702382f1)" style="fill: none; stroke: #d1345b"/>
   </g>
   <g id="line2d_21">
    <defs>
     <path id="m68f5924aa7" d="M 3 0 
L -3 -0 
" style="stroke: #d1345b"/>
    </defs>
    <g clip-path="url(#p0a702382f1)">
     <use xlink:href="#m68f5924aa7" x="62.957597" y="171.841376" style="fill: #d1345b; stroke: #d1345b"/>
     <use xlink:href="#m68f5924aa7" x="217.555" y="182.834993" style="fill: #d1345b; stroke: #d1345b"/>
     <use xlink:href="#m68f5924aa7" x="372.152403" y="192.0741" style="fill: #d1345b; stroke: #d1345b"/>
    </g>
   </g>
   <g id="line2d_22">
    <g clip-path="url(#p0a702382f1)">
     <use xlink:href="#m68f5924aa7" x="62.957597" y="16.003529" style="fill: #d1345b; stroke: #d1345b"/>
     <use xlink:href="#m68f5924aa7" x="217.555" y="33.460936" style="fill: #d1345b; stroke: #d1345b"/>
     <use xlink:href="#m68f5924aa7" x="372.152403" y="40.717191" style="fill: #d1345b; stroke: #d1345b"/>
    </g>
   </g>
   <g id="LineCollection_3">
    <path d="M 70.687468 171.841376 
L 70.687468 16.003529 
" clip-path="url(#p0a702382f1)" style="fill: none; stroke: #ff9b71"/>
    <path d="M 225.28487 188.24519 
L 225.28487 33.471144 
" clip-path="url(#p0a702382f1)" style="fill: none; stroke: #ff9b71"/>
    <path d="M 379.882273 192.0741 
L 379.882273 40.717191 
" clip-path="url(#p0a702382f1)" style="fill: none; stroke: #ff9b71"/>
   </g>
   <g id="line2d_23">
    <defs>
     <path id="m5182280995" d="M 3 0 
L -3 -0 
" style="stroke: #ff9b71"/>
    </defs>
    <g clip-path="url(#p0a702382f1)">
     <use xlink:href="#m5182280995" x="70.687468" y="171.841376" style="fill: #ff9b71; stroke: #ff9b71"/>
     <use xlink:href="#m5182280995" x="225.28487" y="188.24519" style="fill: #ff9b71; stroke: #ff9b71"/>
     <use xlink:href="#m5182280995" x="379.882273" y="192.0741" style="fill: #ff9b71; stroke: #ff9b71"/>
    </g>
   </g>
   <g id="line2d_24">
    <g clip-path="url(#p0a702382f1)">
     <use xlink:href="#m5182280995" x="70.687468" y="16.003529" style="fill: #ff9b71; stroke: #ff9b71"/>
     <use xlink:href="#m5182280995" x="225.28487" y="33.471144" style="fill: #ff9b71; stroke: #ff9b71"/>
     <use xlink:href="#m5182280995" x="379.882273" y="40.717191" style="fill: #ff9b71; stroke: #ff9b71"/>
    </g>
   </g>
   <g id="line2d_25">
    <path d="M 55.227727 93.922453 
L 209.82513 110.858167 
L 364.422532 116.395645 
" clip-path="url(#p0a702382f1)" style="fill: none; stroke: #2d3047; stroke-width: 1.6; stroke-linecap: square"/>
    <defs>
     <path id="mdd93b3e93c" d="M 0 3 
C 0.795609 3 1.55874 2.683901 2.12132 2.12132 
C 2.683901 1.55874 3 0.795609 3 0 
C 3 -0.795609 2.683901 -1.55874 2.12132 -2.12132 
C 1.55874 -2.683901 0.795609 -3 0 -3 
C -0.795609 -3 -1.55874 -2.683901 -2.12132 -2.12132 
C -2.683901 -1.55874 -3 -0.795609 -3 0 
C -3 0.795609 -2.683901 1.55874 -2.12132 2.12132 
C -1.55874 2.683901 -0.795609 3 0 3 
z
" style="stroke: #2d3047"/>
    </defs>
    <g clip-path="url(#p0a702382f1)">
     <use xlink:href="#mdd93b3e93c" x="55.227727" y="93.922453" style="fill: #2d3047; stroke: #2d3047"/>
     <use xlink:href="#mdd93b3e93c" x="209.82513" y="110.858167" style="fill: #2d3047; stroke: #2d3047"/>
     <use xlink:href="#mdd93b3e93c" x="364.422532" y="116.395645" style="fill: #2d3047; stroke: #2d3047"/>
    </g>
   </g>
   <g id="line2d_26">
    <path d="M 62.957597 93.922453 
L 217.555 108.147965 
L 372.152403 116.395645 
" clip-path="url(#p0a702382f1)" style="fill: none; stroke: #d1345b; stroke-width: 1.6; stroke-linecap: square"/>
    <defs>
     <path id="m264fc488f1" d="M 0 3 
C 0.795609 3 1.55874 2.683901 2.12132 2.12132 
C 2.683901 1.55874 3 0.795609 3 0 
C 3 -0.795609 2.683901 -1.55874 2.12132 -2.12132 
C 1.55874 -2.683901 0.795609 -3 0 -3 
C -0.795609 -3 -1.55874 -2.683901 -2.12132 -2.12132 
C -2.683901 -1.55874 -3 -0.795609 -3 0 
C -3 0.795609 -2.683901 1.55874 -2.12132 2.12132 
C -1.55874 2.683901 -0.795609 3 0 3 
z
" style="stroke: #d1345b"/>
    </defs>
    <g clip-path="url(#p0a702382f1)">
     <use xlink:href="#m264fc488f1" x="62.957597" y="93.922453" style="fill: #d1345b; stroke: #d1345b"/>
     <use xlink:href="#m264fc488f1" x="217.555" y="108.147965" style="fill: #d1345b; stroke: #d1345b"/>
     <use xlink:href="#m264fc488f1" x="372.152403" y="116.395645" style="fill: #d1345b; stroke: #d1345b"/>
    </g>
   </g>
   <g id="line2d_27">
    <path d="M 70.687468 93.922453 
L 225.28487 110.858167 
L 379.882273 116.395645 
" clip-path="url(#p0a702382f1)" style="fill: none; stroke: #ff9b71; stroke-width: 1.6; stroke-linecap: square"/>
    <defs>
     <path id="m77e8f9bbca" d="M 0 3 
C 0.795609 3 1.55874 2.683901 2.12132 2.12132 
C 2.683901 1.55874 3 0.795609 3 0 
C 3 -0.795609 2.683901 -1.55874 2.12132 -2.12132 
C 1.55874 -2.683901 0.795609 -3 0 -3 
C -0.795609 -3 -1.55874 -2.683901 -2.12132 -2.12132 
C -2.683901 -1.55874 -3 -0.795609 -3 0 
C -3 0.795609 -2.683901 1.55874 -2.12132 2.12132 
C -1.55874 2.683901 -0.795609 3 0 3 
z
" style="stroke: #ff9b71"/>
    </defs>
    <g clip-path="url(#p0a702382f1)">
     <use xlink:href="#m77e8f9bbca" x="70.687468" y="93.922453" style="fill: #ff9b71; stroke: #ff9b71"/>
     <use xlink:href="#m77e8f9bbca" x="225.28487" y="110.858167" style="fill: #ff9b71; stroke: #ff9b71"/>
     <use xlink:href="#m77e8f9bbca" x="379.882273" y="116.395645" style="fill: #ff9b71; stroke: #ff9b71"/>
    </g>
   </g>
   <g id="patch_3">
    <path d="M 38.995 273.312 
L 38.995 7.2 
" style="fill: none; stroke: #000000; stroke-width: 0.8; stroke-linejoin: miter; stroke-linecap: square"/>
   </g>
   <g id="patch_4">
    <path d="M 396.115 273.312 
L 396.115 7.2 
" style="fill: none; stroke: #000000; stroke-width: 0.8; stroke-linejoin: miter; stroke-linecap: square"/>
   </g>
   <g id="patch_5">
    <path d="M 38.995 273.312 
L 396.115 273.312 
" style="fill: none; stroke: #000000; stroke-width: 0.8; stroke-linejoin: miter; stroke-linecap: square"/>
   </g>
   <g id="patch_6">
    <path d="M 38.995 7.2 
L 396.115 7.2 
" style="fill: none; stroke: #000000; stroke-width: 0.8; stroke-linejoin: miter; stroke-linecap: square"/>
   </g>
   <g id="legend_1">
    <g id="patch_7">
     <path d="M 45.995 268.312 
L 106.887188 268.312 
Q 108.887188 268.312 108.887188 266.312 
L 108.887188 224.538562 
Q 108.887188 222.538562 106.887188 222.538562 
L 45.995 222.538562 
Q 43.995 222.538562 43.995 224.538562 
L 43.995 266.312 
Q 43.995 268.312 45.995 268.312 
z
" style="fill: #ffffff; opacity: 0.8"/>
    </g>
    <g id="LineCollection_4">
     <path d="M 57.995 235.212 
L 57.995 225.212 
" style="fill: none; stroke: #2d3047"/>
    </g>
    <g id="line2d_28">
     <g>
      <use xlink:href="#mf1887fd826" x="57.995" y="235.212" style="fill: #2d3047; stroke: #2d3047"/>
     </g>
    </g>
    <g id="line2d_29">
     <g>
      <use xlink:href="#mf1887fd826" x="57.995" y="225.212" style="fill: #2d3047; stroke: #2d3047"/>
     </g>
    </g>
    <g id="line2d_30">
     <path d="M 47.995 230.212 
L 67.995 230.212 
" style="fill: none; stroke: #2d3047; stroke-width: 1.6; stroke-linecap: square"/>
    </g>
    <g id="line2d_31">
     <g>
      <use xlink:href="#mdd93b3e93c" x="57.995" y="230.212" style="fill: #2d3047; stroke: #2d3047"/>
     </g>
    </g>
    <g id="text_12">
     <text style="font-size: 10px; font-family: 'Helvetica', 'Arial', sans-serif; text-anchor: start" x="75.995" y="233.712" transform="rotate(-0 75.995 233.712)">OURS</text>
    </g>
    <g id="LineCollection_5">
     <path d="M 57.995 249.469812 
L 57.995 239.469812 
" style="fill: none; stroke: #d1345b"/>
    </g>
    <g id="line2d_32">
     <g>
      <use xlink:href="#m68f5924aa7" x="57.995" y="249.469812" style="fill: #d1345b; stroke: #d1345b"/>
     </g>
    </g>
    <g id="line2d_33">
     <g>
      <use xlink:href="#m68f5924aa7" x="57.995" y="239.469812" style="fill: #d1345b; stroke: #d1345b"/>
     </g>
    </g>
    <g id="line2d_34">
     <path d="M 47.995 244.469812 
L 67.995 244.469812 
" style="fill: none; stroke: #d1345b; stroke-width: 1.6; stroke-linecap: square"/>
    </g>
    <g id="line2d_35">
     <g>
      <use xlink:href="#m264fc488f1" x="57.995" y="244.469812" style="fill: #d1345b; stroke: #d1345b"/>
     </g>
    </g>
    <g id="text_13">
     <text style="font-size: 10px; font-family: 'Helvetica', 'Arial', sans-serif; text-anchor: start" x="75.995" y="247.969812" transform="rotate(-0 75.995 247.969812)">PFI</text>
    </g>
    <g id="LineCollection_6">
     <path d="M 57.995 263.727625 
L 57.995 253.727625 
" style="fill: none; stroke: #ff9b71"/>
    </g>
    <g id="line2d_36">
     <g>
      <use xlink:href="#m5182280995" x="57.995" y="263.727625" style="fill: #ff9b71; stroke: #ff9b71"/>
     </g>
    </g>
    <g id="line2d_37">
     <g>
      <use xlink:href="#m5182280995" x="57.995" y="253.727625" style="fill: #ff9b71; stroke: #ff9b71"/>
     </g>
    </g>
    <g id="line2d_38">
     <path d="M 47.995 258.727625 
L 67.995 258.727625 
" style="fill: none; stroke: #ff9b71; stroke-width: 1.6; stroke-linecap: square"/>
    </g>
    <g id="line2d_39">
     <g>
      <use xlink:href="#m77e8f9bbca" x="57.995" y="258.727625" style="fill: #ff9b71; stroke: #ff9b71"/>
     </g>
    </g>
    <g id="text_14">
     <text style="font-size: 10px; font-family: 'Helvetica', 'Arial', sans-serif; text-anchor: start" x="75.995" y="262.227625" transform="rotate(-0 75.995 262.227625)">SAGE</text>
    </g>
   </g>
  </g>
 </g>
 <defs>
  <clipPath id="p0a702382f1">
   <rect x="38.995" y="7.2" width="357.12" height="266.112"/>
  </clipPath>
 </defs>
</svg>
