<?xml version="1.0" encoding="utf-8" standalone="no"?>
<!DOCTYPE svg PUBLIC "-//W3C//DTD SVG 1.1//EN"
  "http://www.w3.org/Graphics/SVG/1.1/DTD/svg11.dtd">
<svg xmlns:xlink="http://www.w3.org/1999/xlink" width="403.28pt" height="310.295437pt" viewBox="0 0 403.28 310.295437" xmlns="http://www.w3.org/2000/svg" version="1.1">
 <metadata>
  <rdf:RDF xmlns:dc="http://purl.org/dc/elements/1.1/" xmlns:cc="http://creativecommons.org/ns#" xmlns:rdf="http://www.w3.org/1999/02/22-rdf-syntax-ns#">
   <cc:Work>
    <dc:type rdf:resource="http://purl.org/dc/dcmitype/StillImage"/>
    <dc:date>2026-04-20T00:47:33.471960</dc:date>
    <dc:format>image/svg+xml</dc:format>
    <dc:creator>
     <cc:Agent>
      <dc:title>Matplotlib v3.9.2, https://matplotlib.org/</dc:title>
     </cc:Agent>
    </dc:creator>
   </cc:Work>
  </rdf:RDF>
 </metadata>
 <defs>
  <style type="text/css">*{stroke-linejoin: round; stroke-linecap: butt}</style>
 </defs>
 <g id="figure_1">
  <g id="patch_1">
   <path d="M 0 310.295437 
L 403.28 310.295437 
L 403.28 0 
L 0 0 
z
" style="fill: #ffffff"/>
  </g>
  <g id="axes_1">
   <g id="patch_2">
    <path d="M 38.96 273.312 
L 396.08 273.312 
L 396.08 7.2 
L 38.96 7.2 
z
" style="fill: #ffffff"/>
   </g>
   <g id="matplotlib.axis_1">
    <g id="xtick_1">
     <g id="line2d_1">
      <path d="M 55.192727 273.312 
L 55.192727 7.2 
" clip-path="url(#p23609c030a)" style="fill: none; stroke: #e0e0e0; stroke-opacity: 0.7; stroke-width: 0.8; stroke-linecap: square"/>
     </g>
     <g id="line2d_2">
      <defs>
       <path id="m5b13e53c66" d="M 0 0 
L 0 -4 
" style="stroke: #000000; stroke-width: 0.8"/>
      </defs>
      <g>
       <use xlink:href="#m5b13e53c66" x="55.192727" y="273.312" style="stroke: #000000; stroke-width: 0.8"/>
      </g>
     </g>
     <g id="text_1">
      <text style="font: 10px 'Helvetica', 'Arial', sans-serif; text-anchor: middle" x="55.192727" y="283.969812" transform="rotate(-0 55.192727 283.969812)">1</text>
     </g>
    </g>
    <g id="xtick_2">
     <g id="line2d_3">
      <path d="M 217.52 273.312 
L 217.52 7.2 
" clip-path="url(#p23609c030a)" style="fill: none; stroke: #e0e0e0; stroke-opacity: 0.7; stroke-width: 0.8; stroke-linecap: square"/>
     </g>
     <g id="line2d_4">
      <g>
       <use xlink:href="#m5b13e53c66" x="217.52" y="273.312" style="stroke: #000000; stroke-width: 0.8"/>
      </g>
     </g>
     <g id="text_2">
      <text style="font: 10px 'Helvetica', 'Arial', sans-serif; text-anchor: middle" x="217.52" y="283.969812" transform="rotate(-0 217.52 283.969812)">2</text>
     </g>
    </g>
    <g id="xtick_3">
     <g id="line2d_5">
      <path d="M 379.847273 273.312 
L 379.847273 7.2 
" clip-path="url(#p23609c030a)" style="fill: none; stroke: #e0e0e0; stroke-opacity: 0.7; stroke-width: 0.8; stroke-linecap: square"/>
     </g>
     <g id="line2d_6">
      <g>
       <use xlink:href="#m5b13e53c66" x="379.847273" y="273.312" style="stroke: #000000; stroke-width: 0.8"/>
      </g>
     </g>
     <g id="text_3">
      <text style="font: 10px 'Helvetica', 'Arial', sans-serif; text-anchor: middle" x="379.847273" y="283.969812" transform="rotate(-0 379.847273 283.969812)">3</text>
     </g>
    </g>
    <g id="text_4">
     <text style="font: 14px 'Helvetica', 'Arial', sans-serif; text-anchor: middle" x="217.52" y="300.148875" transform="rotate(-0 217.52 300.148875)">Wavelength Count</text>
    </g>
   </g>
   <g id="matplotlib.axis_2">
    <g id="ytick_1">
     <g id="line2d_7">
      <path d="M 38.96 273.312 
L 396.08 273.312 
" clip-path="url(#p23609c030a)" style="fill: none; stroke: #e0e0e0; stroke-opacity: 0.7; stroke-width: 0.8; stroke-linecap: square"/>
     </g>
     <g id="line2d_8">
      <defs>
       <path id="m75f98a3fd5" d="M 0 0 
L 4 0 
" style="stroke: #000000; stroke-width: 0.8"/>
      </defs>
      <g>
       <use xlink:href="#m75f98a3fd5" x="38.96" y="273.312" style="stroke: #000000; stroke-width: 0.8"/>
      </g>
     </g>
     <g id="text_5">
      <text style="font: 10px 'Helvetica', 'Arial', sans-serif; text-anchor: end" x="35.46" y="276.890906" transform="rotate(-0 35.46 276.890906)">0</text>
     </g>
    </g>
    <g id="ytick_2">
     <g id="line2d_9">
      <path d="M 38.96 225.816006 
L 396.08 225.816006 
" clip-path="url(#p23609c030a)" style="fill: none; stroke: #e0e0e0; stroke-opacity: 0.7; stroke-width: 0.8; stroke-linecap: square"/>
     </g>
     <g id="line2d_10">
      <g>
       <use xlink:href="#m75f98a3fd5" x="38.96" y="225.816006" style="stroke: #000000; stroke-width: 0.8"/>
      </g>
     </g>
     <g id="text_6">
      <text style="font: 10px 'Helvetica', 'Arial', sans-serif; text-anchor: end" x="35.46" y="229.394912" transform="rotate(-0 35.46 229.394912)">2</text>
     </g>
    </g>
    <g id="ytick_3">
     <g id="line2d_11">
      <path d="M 38.96 178.320012 
L 396.08 178.320012 
" clip-path="url(#p23609c030a)" style="fill: none; stroke: #e0e0e0; stroke-opacity: 0.7; stroke-width: 0.8; stroke-linecap: square"/>
     </g>
     <g id="line2d_12">
      <g>
       <use xlink:href="#m75f98a3fd5" x="38.96" y="178.320012" style="stroke: #000000; stroke-width: 0.8"/>
      </g>
     </g>
     <g id="text_7">
      <text style="font: 10px 'Helvetica', 'Arial', sans-serif; text-anchor: end" x="35.46" y="181.898919" transform="rotate(-0 35.46 181.898919)">4</text>
     </g>
    </g>
    <g id="ytick_4">
     <g id="line2d_13">
      <path d="M 38.96 130.824018 
L 396.08 130.824018 
" clip-path="url(#p23609c030a)" style="fill: none; stroke: #e0e0e0; stroke-opacity: 0.7; stroke-width: 0.8; stroke-linecap: square"/>
     </g>
     <g id="line2d_14">
      <g>
       <use xlink:href="#m75f98a3fd5" x="38.96" y="130.824018" style="stroke: #000000; stroke-width: 0.8"/>
      </g>
     </g>
     <g id="text_8">
      <text style="font: 10px 'Helvetica', 'Arial', sans-serif; text-anchor: end" x="35.46" y="134.402925" transform="rotate(-0 35.46 134.402925)">6</text>
     </g>
    </g>
    <g id="ytick_5">
     <g id="line2d_15">
      <path d="M 38.96 83.328025 
L 396.08 83.328025 
" clip-path="url(#p23609c030a)" style="fill: none; stroke: #e0e0e0; stroke-opacity: 0.7; stroke-width: 0.8; stroke-linecap: square"/>
     </g>
     <g id="line2d_16">
      <g>
       <use xlink:href="#m75f98a3fd5" x="38.96" y="83.328025" style="stroke: #000000; stroke-width: 0.8"/>
      </g>
     </g>
     <g id="text_9">
      <text style="font: 10px 'Helvetica', 'Arial', sans-serif; text-anchor: end" x="35.46" y="86.906931" transform="rotate(-0 35.46 86.906931)">8</text>
     </g>
    </g>
    <g id="ytick_6">
     <g id="line2d_17">
      <path d="M 38.96 35.832031 
L 396.08 35.832031 
" clip-path="url(#p23609c030a)" style="fill: none; stroke: #e0e0e0; stroke-opacity: 0.7; stroke-width: 0.8; stroke-linecap: square"/>
     </g>
     <g id="line2d_18">
      <g>
       <use xlink:href="#m75f98a3fd5" x="38.96" y="35.832031" style="stroke: #000000; stroke-width: 0.8"/>
      </g>
     </g>
     <g id="text_10">
      <text style="font: 10px 'Helvetica', 'Arial', sans-serif; text-anchor: end" x="35.46" y="39.410937" transform="rotate(-0 35.46 39.410937)">10</text>
     </g>
    </g>
    <g id="text_11">
     <text style="font: 14px 'Helvetica', 'Arial', sans-serif; text-anchor: middle" x="17.391563" y="140.256" transform="rotate(-90 17.391563 140.256)">Test MAE (%Saturation)</text>
    </g>
   </g>
   <g id="LineCollection_1">
    <path d="M 55.192727 171.841376 
L 55.192727 16.003529 
" clip-path="url(#p23609c030a)" style="fill: none; stroke: #2d3047"/>
    <path d="M 217.52 188.24519 
L 217.52 33.471144 
" clip-path="url(#p23609c030a)" style="fill: none; stroke: #2d3047"/>
    <path d="M 379.847273 192.0741 
L 379.847273 40.717191 
" clip-path="url(#p23609c030a)" style="fill: none; stroke: #2d3047"/>
   </g>
   <g id="line2d_19">
    <defs>
     <path id="md3f91d42f4" d="M 3 0 
L -3 -0 
" style="stroke: #2d3047"/>
    </defs>
    <g clip-path="url(#p23609c030a)">
     <use xlink:href="#md3f91d42f4" x="55.192727" y="171.841376" style="fill: #2d3047; stroke: #2d3047"/>
     <use xlink:href="#md3f91d42f4" x="217.52" y="188.24519" style="fill: #2d3047; stroke: #2d3047"/>
     <use xlink:href="#md3f91d42f4" x="379.847273" y="192.0741" style="fill: #2d3047; stroke: #2d3047"/>
    </g>
   </g>
   <g id="line2d_20">
    <g clip-path="url(#p23609c030a)">
     <use xlink:href="#md3f91d42f4" x="55.192727" y="16.003529" style="fill: #2d3047; stroke: #2d3047"/>
     <use xlink:href="#md3f91d42f4" x="217.52" y="33.471144" style="fill: #2d3047; stroke: #2d3047"/>
     <use xlink:href="#md3f91d42f4" x="379.847273" y="40.717191" style="fill: #2d3047; stroke: #2d3047"/>
    </g>
   </g>
   <g id="LineCollection_2">
    <path d="M 55.192727 171.841376 
L 55.192727 16.003529 
" clip-path="url(#p23609c030a)" style="fill: none; stroke: #d1345b"/>
    <path d="M 217.52 182.834993 
L 217.52 33.460936 
" clip-path="url(#p23609c030a)" style="fill: none; stroke: #d1345b"/>
    <path d="M 379.847273 192.0741 
L 379.847273 40.717191 
" clip-path="url(#p23609c030a)" style="fill: none; stroke: #d1345b"/>
   </g>
   <g id="line2d_21">
    <defs>
     <path id="m9229dc2f4d" d="M 3 0 
L -3 -0 
" style="stroke: #d1345b"/>
    </defs>
    <g clip-path="url(#p23609c030a)">
     <use xlink:href="#m9229dc2f4d" x="55.192727" y="171.841376" style="fill: #d1345b; stroke: #d1345b"/>
     <use xlink:href="#m9229dc2f4d" x="217.52" y="182.834993" style="fill: #d1345b; stroke: #d1345b"/>
     <use xlink:href="#m9229dc2f4d" x="379.847273" y="192.0741" style="fill: #d1345b; stroke: #d1345b"/>
    </g>
   </g>
   <g id="line2d_22">
    <g clip-path="url(#p23609c030a)">
     <use xlink:href="#m9229dc2f4d" x="55.192727" y="16.003529" style="fill: #d1345b; stroke: #d1345b"/>
     <use xlink:href="#m9229dc2f4d" x="217.52" y="33.460936" style="fill: #d1345b; stroke: #d1345b"/>
     <use xlink:href="#m9229dc2f4d" x="379.847273" y="40.717191" style="fill: #d1345b; stroke: #d1345b"/>
    </g>
   </g>
   <g id="LineCollection_3">
    <path d="M 55.192727 171.841376 
L 55.192727 16.003529 
" clip-path="url(#p23609c030a)" style="fill: none; stroke: #ff9b71"/>
    <path d="M 217.52 188.24519 
L 217.52 33.471144 
" clip-path="url(#p23609c030a)" style="fill: none; stroke: #ff9b71"/>
    <path d="M 379.847273 192.0741 
L 379.847273 40.717191 
" clip-path="url(#p23609c030a)" style="fill: none; stroke: #ff9b71"/>
   </g>
   <g id="line2d_23">
    <defs>
     <path id="mb4dc6db1ee" d="M 3 0 
L -3 -0 
" style="stroke: #ff9b71"/>
    </defs>
    <g clip-path="url(#p23609c030a)">
     <use xlink:href="#mb4dc6db1ee" x="55.192727" y="171.841376" style="fill: #ff9b71; stroke: #ff9b71"/>
     <use xlink:href="#mb4dc6db1ee" x="217.52" y="188.24519" style="fill: #ff9b71; stroke: #ff9b71"/>
     <use xlink:href="#mb4dc6db1ee" x="379.847273" y="192.0741" style="fill: #ff9b71; stroke: #ff9b71"/>
    </g>
   </g>
   <g id="line2d_24">
    <g clip-path="url(#p23609c030a)">
     <use xlink:href="#mb4dc6db1ee" x="55.192727" y="16.003529" style="fill: #ff9b71; stroke: #ff9b71"/>
     <use xlink:href="#mb4dc6db1ee" x="217.52" y="33.471144" style="fill: #ff9b71; stroke: #ff9b71"/>
     <use xlink:href="#mb4dc6db1ee" x="379.847273" y="40.717191" style="fill: #ff9b71; stroke: #ff9b71"/>
    </g>
   </g>
   <g id="line2d_25">
    <path d="M 55.192727 93.922453 
L 217.52 110.858167 
L 379.847273 116.395645 
" clip-path="url(#p23609c030a)" style="fill: none; stroke: #2d3047; stroke-width: 1.6; stroke-linecap: square"/>
    <defs>
     <path id="m9c22d813cc" d="M 0 3 
C 0.795609 3 1.55874 2.683901 2.12132 2.12132 
C 2.683901 1.55874 3 0.795609 3 0 
C 3 -0.795609 2.683901 -1.55874 2.12132 -2.12132 
C 1.55874 -2.683901 0.795609 -3 0 -3 
C -0.795609 -3 -1.55874 -2.683901 -2.12132 -2.12132 
C -2.683901 -1.55874 -3 -0.795609 -3 0 
C -3 0.795609 -2.683901 1.55874 -2.12132 2.12132 
C -1.55874 2.683901 -0.795609 3 0 3 
z
" style="stroke: #2d3047"/>
    </defs>
    <g clip-path="url(#p23609c030a)">
     <use xlink:href="#m9c22d813cc" x="55.192727" y="93.922453" style="fill: #2d3047; stroke: #2d3047"/>
     <use xlink:href="#m9c22d813cc" x="217.52" y="110.858167" style="fill: #2d3047; stroke: #2d3047"/>
     <use xlink:href="#m9c22d813cc" x="379.847273" y="116.395645" style="fill: #2d3047; stroke: #2d3047"/>
    </g>
   </g>
   <g id="line2d_26">
    <path d="M 55.192727 93.922453 
L 217.52 108.147965 
L 379.847273 116.395645 
" clip-path="url(#p23609c030a)" style="fill: none; stroke: #d1345b; stroke-width: 1.6; stroke-linecap: square"/>
    <defs>
     <path id="mcd94b08561" d="M 0 3 
C 0.795609 3 1.55874 2.683901 2.12132 2.12132 
C 2.683901 1.55874 3 0.795609 3 0 
C 3 -0.795609 2.683901 -1.55874 2.12132 -2.12132 
C 1.55874 -2.683901 0.795609 -3 0 -3 
C -0.795609 -3 -1.55874 -2.683901 -2.12132 -2.12132 
C -2.683901 -1.55874 -3 -0.795609 -3 0 
C -3 0.795609 -2.683901 1.55874 -2.12132 2.12132 
C -1.55874 2.683901 -0.795609 3 0 3 
z
" style="stroke: #d1345b"/>
    </defs>
    <g clip-path="url(#p23609c030a)">
     <use xlink:href="#mcd94b08561" x="55.192727" y="93.922453" style="fill: #d1345b; stroke: #d1345b"/>
     <use xlink:href="#mcd94b08561" x="217.52" y="108.147965" style="fill: #d1345b; stroke: #d1345b"/>
     <use xlink:href="#mcd94b08561" x="379.847273" y="116.395645" style="fill: #d1345b; stroke: #d1345b"/>
    </g>
   </g>
   <g id="line2d_27">
    <path d="M 55.192727 93.922453 
L 217.52 110.858167 
L 379.847273 116.395645 
" clip-path="url(#p23609c030a)" style="fill: none; stroke: #ff9b71; stroke-width: 1.6; stroke-linecap: square"/>
    <defs>
     <path id="m2eedd3f7ff" d="M 0 3 
C 0.795609 3 1.55874 2.683901 2.12132 2.12132 
C 2.683901 1.55874 3 0.795609 3 0 
C 3 -0.795609 2.683901 -1.55874 2.12132 -2.12132 
C 1.55874 -2.683901 0.795609 -3 0 -3 
C -0.795609 -3 -1.55874 -2.683901 -2.12132 -2.12132 
C -2.683901 -1.55874 -3 -0.795609 -3 0 
C -3 0.795609 -2.683901 1.55874 -2.12132 2.12132 
C -1.55874 2.683901 -0.795609 3 0 3 
z
" style="stroke: #ff9b71"/>
    </defs>
    <g clip-path="url(#p23609c030a)">
     <use xlink:href="#m2eedd3f7ff" x="55.192727" y="93.922453" style="fill: #ff9b71; stroke: #ff9b71"/>
     <use xlink:href="#m2eedd3f7ff" x="217.52" y="110.858167" style="fill: #ff9b71; stroke: #ff9b71"/>
     <use xlink:href="#m2eedd3f7ff" x="379.847273" y="116.395645" style="fill: #ff9b71; stroke: #ff9b71"/>
    </g>
   </g>
   <g id="patch_3">
    <path d="M 38.96 273.312 
L 38.96 7.2 
" style="fill: none; stroke: #000000; stroke-width: 0.8; stroke-linejoin: miter; stroke-linecap: square"/>
   </g>
   <g id="patch_4">
    <path d="M 396.08 273.312 
L 396.08 7.2 
" style="fill: none; stroke: #000000; stroke-width: 0.8; stroke-linejoin: miter; stroke-linecap: square"/>
   </g>
   <g id="patch_5">
    <path d="M 38.96 273.312 
L 396.08 273.312 
" style="fill: none; stroke: #000000; stroke-width: 0.8; stroke-linejoin: miter; stroke-linecap: square"/>
   </g>
   <g id="patch_6">
    <path d="M 38.96 7.2 
L 396.08 7.2 
" style="fill: none; stroke: #000000; stroke-width: 0.8; stroke-linejoin: miter; stroke-linecap: square"/>
   </g>
   <g id="legend_1">
    <g id="patch_7">
     <path d="M 45.96 268.312 
L 106.852188 268.312 
Q 108.852188 268.312 108.852188 266.312 
L 108.852188 224.876062 
Q 108.852188 222.876062 106.852188 222.876062 
L 45.96 222.876062 
Q 43.96 222.876062 43.96 224.876062 
L 43.96 266.312 
Q 43.96 268.312 45.96 268.312 
z
" style="fill: #ffffff; opacity: 0.8"/>
    </g>
    <g id="LineCollection_4">
     <path d="M 57.96 235.533875 
L 57.96 225.533875 
" style="fill: none; stroke: #2d3047"/>
    </g>
    <g id="line2d_28">
     <g>
      <use xlink:href="#md3f91d42f4" x="57.96" y="235.533875" style="fill: #2d3047; stroke: #2d3047"/>
     </g>
    </g>
    <g id="line2d_29">
     <g>
      <use xlink:href="#md3f91d42f4" x="57.96" y="225.533875" style="fill: #2d3047; stroke: #2d3047"/>
     </g>
    </g>
    <g id="line2d_30">
     <path d="M 47.96 230.533875 
L 67.96 230.533875 
" style="fill: none; stroke: #2d3047; stroke-width: 1.6; stroke-linecap: square"/>
    </g>
    <g id="line2d_31">
     <g>
      <use xlink:href="#m9c22d813cc" x="57.96" y="230.533875" style="fill: #2d3047; stroke: #2d3047"/>
     </g>
    </g>
    <g id="text_12">
     <text style="font: 10px 'Helvetica', 'Arial', sans-serif; text-anchor: start" x="75.96" y="234.033875" transform="rotate(-0 75.96 234.033875)">OURS</text>
    </g>
    <g id="LineCollection_5">
     <path d="M 57.96 249.679187 
L 57.96 239.679187 
" style="fill: none; stroke: #d1345b"/>
    </g>
    <g id="line2d_32">
     <g>
      <use xlink:href="#m9229dc2f4d" x="57.96" y="249.679187" style="fill: #d1345b; stroke: #d1345b"/>
     </g>
    </g>
    <g id="line2d_33">
     <g>
      <use xlink:href="#m9229dc2f4d" x="57.96" y="239.679187" style="fill: #d1345b; stroke: #d1345b"/>
     </g>
    </g>
    <g id="line2d_34">
     <path d="M 47.96 244.679187 
L 67.96 244.679187 
" style="fill: none; stroke: #d1345b; stroke-width: 1.6; stroke-linecap: square"/>
    </g>
    <g id="line2d_35">
     <g>
      <use xlink:href="#mcd94b08561" x="57.96" y="244.679187" style="fill: #d1345b; stroke: #d1345b"/>
     </g>
    </g>
    <g id="text_13">
     <text style="font: 10px 'Helvetica', 'Arial', sans-serif; text-anchor: start" x="75.96" y="248.179187" transform="rotate(-0 75.96 248.179187)">PFI</text>
    </g>
    <g id="LineCollection_6">
     <path d="M 57.96 263.8245 
L 57.96 253.8245 
" style="fill: none; stroke: #ff9b71"/>
    </g>
    <g id="line2d_36">
     <g>
      <use xlink:href="#mb4dc6db1ee" x="57.96" y="263.8245" style="fill: #ff9b71; stroke: #ff9b71"/>
     </g>
    </g>
    <g id="line2d_37">
     <g>
      <use xlink:href="#mb4dc6db1ee" x="57.96" y="253.8245" style="fill: #ff9b71; stroke: #ff9b71"/>
     </g>
    </g>
    <g id="line2d_38">
     <path d="M 47.96 258.8245 
L 67.96 258.8245 
" style="fill: none; stroke: #ff9b71; stroke-width: 1.6; stroke-linecap: square"/>
    </g>
    <g id="line2d_39">
     <g>
      <use xlink:href="#m2eedd3f7ff" x="57.96" y="258.8245" style="fill: #ff9b71; stroke: #ff9b71"/>
     </g>
    </g>
    <g id="text_14">
     <text style="font: 10px 'Helvetica', 'Arial', sans-serif; text-anchor: start" x="75.96" y="262.3245" transform="rotate(-0 75.96 262.3245)">SAGE</text>
    </g>
   </g>
  </g>
 </g>
 <defs>
  <clipPath id="p23609c030a">
   <rect x="38.96" y="7.2" width="357.12" height="266.112"/>
  </clipPath>
 </defs>
</svg>
