<?xml version="1.0" encoding="utf-8" standalone="no"?>
<!DOCTYPE svg PUBLIC "-//W3C//DTD SVG 1.1//EN"
  "http://www.w3.org/Graphics/SVG/1.1/DTD/svg11.dtd">
<svg xmlns:xlink="http://www.w3.org/1999/xlink" width="397.719062pt" height="310.295437pt" viewBox="0 0 397.719062 310.295437" xmlns="http://www.w3.org/2000/svg" version="1.1">
 <metadata>
  <rdf:RDF xmlns:dc="http://purl.org/dc/elements/1.1/" xmlns:cc="http://creativecommons.org/ns#" xmlns:rdf="http://www.w3.org/1999/02/22-rdf-syntax-ns#">
   <cc:Work>
    <dc:type rdf:resource="http://purl.org/dc/dcmitype/StillImage"/>
    <dc:date>2026-04-16T13:45:22.571070</dc:date>
    <dc:format>image/svg+xml</dc:format>
    <dc:creator>
     <cc:Agent>
      <dc:title>Matplotlib v3.10.8, https://matplotlib.org/</dc:title>
     </cc:Agent>
    </dc:creator>
   </cc:Work>
  </rdf:RDF>
 </metadata>
 <defs>
  <style type="text/css">*{stroke-linejoin: round; stroke-linecap: butt}</style>
 </defs>
 <g id="figure_1">
  <g id="patch_1">
   <path d="M 0 310.295437 
L 397.719062 310.295437 
L 397.719062 0 
L 0 0 
z
" style="fill: #ffffff"/>
  </g>
  <g id="axes_1">
   <g id="patch_2">
    <path d="M 33.399063 273.312 
L 390.519063 273.312 
L 390.519063 7.2 
L 33.399063 7.2 
z
" style="fill: #ffffff"/>
   </g>
   <g id="matplotlib.axis_1">
    <g id="xtick_1">
     <g id="line2d_1">
      <path d="M 49.63179 273.312 
L 49.63179 7.2 
" clip-path="url(#pde90a26a31)" style="fill: none; stroke: #e0e0e0; stroke-opacity: 0.7; stroke-width: 0.8; stroke-linecap: square"/>
     </g>
     <g id="line2d_2">
      <defs>
       <path id="m20f8d1351a" d="M 0 0 
L 0 -4 
" style="stroke: #000000; stroke-width: 0.8"/>
      </defs>
      <g>
       <use xlink:href="#m20f8d1351a" x="49.63179" y="273.312" style="stroke: #000000; stroke-width: 0.8"/>
      </g>
     </g>
     <g id="text_1">
      <text style="font-size: 10px; font-family: 'Helvetica', 'Arial', sans-serif; text-anchor: middle" x="49.63179" y="283.969812" transform="rotate(-0 49.63179 283.969812)">1</text>
     </g>
    </g>
    <g id="xtick_2">
     <g id="line2d_3">
      <path d="M 199.93482 273.312 
L 199.93482 7.2 
" clip-path="url(#pde90a26a31)" style="fill: none; stroke: #e0e0e0; stroke-opacity: 0.7; stroke-width: 0.8; stroke-linecap: square"/>
     </g>
     <g id="line2d_4">
      <g>
       <use xlink:href="#m20f8d1351a" x="199.93482" y="273.312" style="stroke: #000000; stroke-width: 0.8"/>
      </g>
     </g>
     <g id="text_2">
      <text style="font-size: 10px; font-family: 'Helvetica', 'Arial', sans-serif; text-anchor: middle" x="199.93482" y="283.969812" transform="rotate(-0 199.93482 283.969812)">2</text>
     </g>
    </g>
    <g id="xtick_3">
     <g id="line2d_5">
      <path d="M 350.23785 273.312 
L 350.23785 7.2 
" clip-path="url(#pde90a26a31)" style="fill: none; stroke: #e0e0e0; stroke-opacity: 0.7; stroke-width: 0.8; stroke-linecap: square"/>
     </g>
     <g id="line2d_6">
      <g>
       <use xlink:href="#m20f8d1351a" x="350.23785" y="273.312" style="stroke: #000000; stroke-width: 0.8"/>
      </g>
     </g>
     <g id="text_3">
      <text style="font-size: 10px; font-family: 'Helvetica', 'Arial', sans-serif; text-anchor: middle" x="350.23785" y="283.969812" transform="rotate(-0 350.23785 283.969812)">3</text>
     </g>
    </g>
    <g id="text_4">
     <text style="font-size: 14px; font-family: 'Helvetica', 'Arial', sans-serif; text-anchor: middle" x="211.959063" y="300.148875" transform="rotate(-0 211.959063 300.148875)">Wavelength Count</text>
    </g>
   </g>
   <g id="matplotlib.axis_2">
    <g id="ytick_1">
     <g id="line2d_7">
      <path d="M 33.399063 273.312 
L 390.519063 273.312 
" clip-path="url(#pde90a26a31)" style="fill: none; stroke: #e0e0e0; stroke-opacity: 0.7; stroke-width: 0.8; stroke-linecap: square"/>
     </g>
     <g id="line2d_8">
      <defs>
       <path id="med68e164f9" d="M 0 0 
L 4 0 
" style="stroke: #000000; stroke-width: 0.8"/>
      </defs>
      <g>
       <use xlink:href="#med68e164f9" x="33.399063" y="273.312" style="stroke: #000000; stroke-width: 0.8"/>
      </g>
     </g>
     <g id="text_5">
      <text style="font-size: 10px; font-family: 'Helvetica', 'Arial', sans-serif; text-anchor: end" x="29.899063" y="276.890906" transform="rotate(-0 29.899063 276.890906)">0</text>
     </g>
    </g>
    <g id="ytick_2">
     <g id="line2d_9">
      <path d="M 33.399063 228.086402 
L 390.519063 228.086402 
" clip-path="url(#pde90a26a31)" style="fill: none; stroke: #e0e0e0; stroke-opacity: 0.7; stroke-width: 0.8; stroke-linecap: square"/>
     </g>
     <g id="line2d_10">
      <g>
       <use xlink:href="#med68e164f9" x="33.399063" y="228.086402" style="stroke: #000000; stroke-width: 0.8"/>
      </g>
     </g>
     <g id="text_6">
      <text style="font-size: 10px; font-family: 'Helvetica', 'Arial', sans-serif; text-anchor: end" x="29.899063" y="231.665308" transform="rotate(-0 29.899063 231.665308)">1</text>
     </g>
    </g>
    <g id="ytick_3">
     <g id="line2d_11">
      <path d="M 33.399063 182.860803 
L 390.519063 182.860803 
" clip-path="url(#pde90a26a31)" style="fill: none; stroke: #e0e0e0; stroke-opacity: 0.7; stroke-width: 0.8; stroke-linecap: square"/>
     </g>
     <g id="line2d_12">
      <g>
       <use xlink:href="#med68e164f9" x="33.399063" y="182.860803" style="stroke: #000000; stroke-width: 0.8"/>
      </g>
     </g>
     <g id="text_7">
      <text style="font-size: 10px; font-family: 'Helvetica', 'Arial', sans-serif; text-anchor: end" x="29.899063" y="186.439709" transform="rotate(-0 29.899063 186.439709)">2</text>
     </g>
    </g>
    <g id="ytick_4">
     <g id="line2d_13">
      <path d="M 33.399063 137.635205 
L 390.519063 137.635205 
" clip-path="url(#pde90a26a31)" style="fill: none; stroke: #e0e0e0; stroke-opacity: 0.7; stroke-width: 0.8; stroke-linecap: square"/>
     </g>
     <g id="line2d_14">
      <g>
       <use xlink:href="#med68e164f9" x="33.399063" y="137.635205" style="stroke: #000000; stroke-width: 0.8"/>
      </g>
     </g>
     <g id="text_8">
      <text style="font-size: 10px; font-family: 'Helvetica', 'Arial', sans-serif; text-anchor: end" x="29.899063" y="141.214111" transform="rotate(-0 29.899063 141.214111)">3</text>
     </g>
    </g>
    <g id="ytick_5">
     <g id="line2d_15">
      <path d="M 33.399063 92.409606 
L 390.519063 92.409606 
" clip-path="url(#pde90a26a31)" style="fill: none; stroke: #e0e0e0; stroke-opacity: 0.7; stroke-width: 0.8; stroke-linecap: square"/>
     </g>
     <g id="line2d_16">
      <g>
       <use xlink:href="#med68e164f9" x="33.399063" y="92.409606" style="stroke: #000000; stroke-width: 0.8"/>
      </g>
     </g>
     <g id="text_9">
      <text style="font-size: 10px; font-family: 'Helvetica', 'Arial', sans-serif; text-anchor: end" x="29.899063" y="95.988512" transform="rotate(-0 29.899063 95.988512)">4</text>
     </g>
    </g>
    <g id="ytick_6">
     <g id="line2d_17">
      <path d="M 33.399063 47.184008 
L 390.519063 47.184008 
" clip-path="url(#pde90a26a31)" style="fill: none; stroke: #e0e0e0; stroke-opacity: 0.7; stroke-width: 0.8; stroke-linecap: square"/>
     </g>
     <g id="line2d_18">
      <g>
       <use xlink:href="#med68e164f9" x="33.399063" y="47.184008" style="stroke: #000000; stroke-width: 0.8"/>
      </g>
     </g>
     <g id="text_10">
      <text style="font-size: 10px; font-family: 'Helvetica', 'Arial', sans-serif; text-anchor: end" x="29.899063" y="50.762914" transform="rotate(-0 29.899063 50.762914)">5</text>
     </g>
    </g>
    <g id="text_11">
     <text style="font-size: 14px; font-family: 'Helvetica', 'Arial', sans-serif; text-anchor: middle" x="17.391563" y="140.256" transform="rotate(-90 17.391563 140.256)">Test Error (MAE % Saturation)</text>
    </g>
   </g>
   <g id="LineCollection_1">
    <path d="M 49.63179 78.587476 
L 49.63179 10.609496 
" clip-path="url(#pde90a26a31)" style="fill: none; stroke: #2d3047"/>
    <path d="M 199.93482 78.566869 
L 199.93482 10.606544 
" clip-path="url(#pde90a26a31)" style="fill: none; stroke: #2d3047"/>
    <path d="M 350.23785 78.622688 
L 350.23785 10.602084 
" clip-path="url(#pde90a26a31)" style="fill: none; stroke: #2d3047"/>
   </g>
   <g id="line2d_19">
    <defs>
     <path id="mce2240b779" d="M 3 0 
L -3 -0 
" style="stroke: #2d3047"/>
    </defs>
    <g clip-path="url(#pde90a26a31)">
     <use xlink:href="#mce2240b779" x="49.63179" y="78.587476" style="fill: #2d3047; stroke: #2d3047"/>
     <use xlink:href="#mce2240b779" x="199.93482" y="78.566869" style="fill: #2d3047; stroke: #2d3047"/>
     <use xlink:href="#mce2240b779" x="350.23785" y="78.622688" style="fill: #2d3047; stroke: #2d3047"/>
    </g>
   </g>
   <g id="line2d_20">
    <g clip-path="url(#pde90a26a31)">
     <use xlink:href="#mce2240b779" x="49.63179" y="10.609496" style="fill: #2d3047; stroke: #2d3047"/>
     <use xlink:href="#mce2240b779" x="199.93482" y="10.606544" style="fill: #2d3047; stroke: #2d3047"/>
     <use xlink:href="#mce2240b779" x="350.23785" y="10.602084" style="fill: #2d3047; stroke: #2d3047"/>
    </g>
   </g>
   <g id="LineCollection_2">
    <path d="M 61.656032 78.587476 
L 61.656032 10.609496 
" clip-path="url(#pde90a26a31)" style="fill: none; stroke: #d1345b"/>
    <path d="M 211.959063 78.643772 
L 211.959063 10.605229 
" clip-path="url(#pde90a26a31)" style="fill: none; stroke: #d1345b"/>
    <path d="M 362.262093 78.622688 
L 362.262093 10.602084 
" clip-path="url(#pde90a26a31)" style="fill: none; stroke: #d1345b"/>
   </g>
   <g id="line2d_21">
    <defs>
     <path id="m1f32fe76d9" d="M 3 0 
L -3 -0 
" style="stroke: #d1345b"/>
    </defs>
    <g clip-path="url(#pde90a26a31)">
     <use xlink:href="#m1f32fe76d9" x="61.656032" y="78.587476" style="fill: #d1345b; stroke: #d1345b"/>
     <use xlink:href="#m1f32fe76d9" x="211.959063" y="78.643772" style="fill: #d1345b; stroke: #d1345b"/>
     <use xlink:href="#m1f32fe76d9" x="362.262093" y="78.622688" style="fill: #d1345b; stroke: #d1345b"/>
    </g>
   </g>
   <g id="line2d_22">
    <g clip-path="url(#pde90a26a31)">
     <use xlink:href="#m1f32fe76d9" x="61.656032" y="10.609496" style="fill: #d1345b; stroke: #d1345b"/>
     <use xlink:href="#m1f32fe76d9" x="211.959063" y="10.605229" style="fill: #d1345b; stroke: #d1345b"/>
     <use xlink:href="#m1f32fe76d9" x="362.262093" y="10.602084" style="fill: #d1345b; stroke: #d1345b"/>
    </g>
   </g>
   <g id="LineCollection_3">
    <path d="M 73.680275 78.587476 
L 73.680275 10.609496 
" clip-path="url(#pde90a26a31)" style="fill: none; stroke: #ff9b71"/>
    <path d="M 223.983305 78.566869 
L 223.983305 10.606544 
" clip-path="url(#pde90a26a31)" style="fill: none; stroke: #ff9b71"/>
    <path d="M 374.286335 78.622688 
L 374.286335 10.602084 
" clip-path="url(#pde90a26a31)" style="fill: none; stroke: #ff9b71"/>
   </g>
   <g id="line2d_23">
    <defs>
     <path id="m0d24a587c3" d="M 3 0 
L -3 -0 
" style="stroke: #ff9b71"/>
    </defs>
    <g clip-path="url(#pde90a26a31)">
     <use xlink:href="#m0d24a587c3" x="73.680275" y="78.587476" style="fill: #ff9b71; stroke: #ff9b71"/>
     <use xlink:href="#m0d24a587c3" x="223.983305" y="78.566869" style="fill: #ff9b71; stroke: #ff9b71"/>
     <use xlink:href="#m0d24a587c3" x="374.286335" y="78.622688" style="fill: #ff9b71; stroke: #ff9b71"/>
    </g>
   </g>
   <g id="line2d_24">
    <g clip-path="url(#pde90a26a31)">
     <use xlink:href="#m0d24a587c3" x="73.680275" y="10.609496" style="fill: #ff9b71; stroke: #ff9b71"/>
     <use xlink:href="#m0d24a587c3" x="223.983305" y="10.606544" style="fill: #ff9b71; stroke: #ff9b71"/>
     <use xlink:href="#m0d24a587c3" x="374.286335" y="10.602084" style="fill: #ff9b71; stroke: #ff9b71"/>
    </g>
   </g>
   <g id="line2d_25">
    <path d="M 49.63179 44.598486 
L 199.93482 44.586707 
L 350.23785 44.612386 
" clip-path="url(#pde90a26a31)" style="fill: none; stroke: #2d3047; stroke-width: 1.6; stroke-linecap: square"/>
    <defs>
     <path id="mec5e99de3a" d="M 0 3 
C 0.795609 3 1.55874 2.683901 2.12132 2.12132 
C 2.683901 1.55874 3 0.795609 3 0 
C 3 -0.795609 2.683901 -1.55874 2.12132 -2.12132 
C 1.55874 -2.683901 0.795609 -3 0 -3 
C -0.795609 -3 -1.55874 -2.683901 -2.12132 -2.12132 
C -2.683901 -1.55874 -3 -0.795609 -3 0 
C -3 0.795609 -2.683901 1.55874 -2.12132 2.12132 
C -1.55874 2.683901 -0.795609 3 0 3 
z
" style="stroke: #2d3047"/>
    </defs>
    <g clip-path="url(#pde90a26a31)">
     <use xlink:href="#mec5e99de3a" x="49.63179" y="44.598486" style="fill: #2d3047; stroke: #2d3047"/>
     <use xlink:href="#mec5e99de3a" x="199.93482" y="44.586707" style="fill: #2d3047; stroke: #2d3047"/>
     <use xlink:href="#mec5e99de3a" x="350.23785" y="44.612386" style="fill: #2d3047; stroke: #2d3047"/>
    </g>
   </g>
   <g id="line2d_26">
    <path d="M 61.656032 44.598486 
L 211.959063 44.6245 
L 362.262093 44.612386 
" clip-path="url(#pde90a26a31)" style="fill: none; stroke: #d1345b; stroke-width: 1.6; stroke-linecap: square"/>
    <defs>
     <path id="m436f449e59" d="M 0 3 
C 0.795609 3 1.55874 2.683901 2.12132 2.12132 
C 2.683901 1.55874 3 0.795609 3 0 
C 3 -0.795609 2.683901 -1.55874 2.12132 -2.12132 
C 1.55874 -2.683901 0.795609 -3 0 -3 
C -0.795609 -3 -1.55874 -2.683901 -2.12132 -2.12132 
C -2.683901 -1.55874 -3 -0.795609 -3 0 
C -3 0.795609 -2.683901 1.55874 -2.12132 2.12132 
C -1.55874 2.683901 -0.795609 3 0 3 
z
" style="stroke: #d1345b"/>
    </defs>
    <g clip-path="url(#pde90a26a31)">
     <use xlink:href="#m436f449e59" x="61.656032" y="44.598486" style="fill: #d1345b; stroke: #d1345b"/>
     <use xlink:href="#m436f449e59" x="211.959063" y="44.6245" style="fill: #d1345b; stroke: #d1345b"/>
     <use xlink:href="#m436f449e59" x="362.262093" y="44.612386" style="fill: #d1345b; stroke: #d1345b"/>
    </g>
   </g>
   <g id="line2d_27">
    <path d="M 73.680275 44.598486 
L 223.983305 44.586707 
L 374.286335 44.612386 
" clip-path="url(#pde90a26a31)" style="fill: none; stroke: #ff9b71; stroke-width: 1.6; stroke-linecap: square"/>
    <defs>
     <path id="mfefb811418" d="M 0 3 
C 0.795609 3 1.55874 2.683901 2.12132 2.12132 
C 2.683901 1.55874 3 0.795609 3 0 
C 3 -0.795609 2.683901 -1.55874 2.12132 -2.12132 
C 1.55874 -2.683901 0.795609 -3 0 -3 
C -0.795609 -3 -1.55874 -2.683901 -2.12132 -2.12132 
C -2.683901 -1.55874 -3 -0.795609 -3 0 
C -3 0.795609 -2.683901 1.55874 -2.12132 2.12132 
C -1.55874 2.683901 -0.795609 3 0 3 
z
" style="stroke: #ff9b71"/>
    </defs>
    <g clip-path="url(#pde90a26a31)">
     <use xlink:href="#mfefb811418" x="73.680275" y="44.598486" style="fill: #ff9b71; stroke: #ff9b71"/>
     <use xlink:href="#mfefb811418" x="223.983305" y="44.586707" style="fill: #ff9b71; stroke: #ff9b71"/>
     <use xlink:href="#mfefb811418" x="374.286335" y="44.612386" style="fill: #ff9b71; stroke: #ff9b71"/>
    </g>
   </g>
   <g id="patch_3">
    <path d="M 33.399063 273.312 
L 33.399063 7.2 
" style="fill: none; stroke: #000000; stroke-width: 0.8; stroke-linejoin: miter; stroke-linecap: square"/>
   </g>
   <g id="patch_4">
    <path d="M 390.519063 273.312 
L 390.519063 7.2 
" style="fill: none; stroke: #000000; stroke-width: 0.8; stroke-linejoin: miter; stroke-linecap: square"/>
   </g>
   <g id="patch_5">
    <path d="M 33.399063 273.312 
L 390.519063 273.312 
" style="fill: none; stroke: #000000; stroke-width: 0.8; stroke-linejoin: miter; stroke-linecap: square"/>
   </g>
   <g id="patch_6">
    <path d="M 33.399063 7.2 
L 390.519063 7.2 
" style="fill: none; stroke: #000000; stroke-width: 0.8; stroke-linejoin: miter; stroke-linecap: square"/>
   </g>
   <g id="legend_1">
    <g id="patch_7">
     <path d="M 40.399063 268.312 
L 101.29125 268.312 
Q 103.29125 268.312 103.29125 266.312 
L 103.29125 224.876062 
Q 103.29125 222.876062 101.29125 222.876062 
L 40.399063 222.876062 
Q 38.399063 222.876062 38.399063 224.876062 
L 38.399063 266.312 
Q 38.399063 268.312 40.399063 268.312 
z
" style="fill: #ffffff; opacity: 0.8"/>
    </g>
    <g id="LineCollection_4">
     <path d="M 52.399063 235.533875 
L 52.399063 225.533875 
" style="fill: none; stroke: #2d3047"/>
    </g>
    <g id="line2d_28">
     <g>
      <use xlink:href="#mce2240b779" x="52.399063" y="235.533875" style="fill: #2d3047; stroke: #2d3047"/>
     </g>
    </g>
    <g id="line2d_29">
     <g>
      <use xlink:href="#mce2240b779" x="52.399063" y="225.533875" style="fill: #2d3047; stroke: #2d3047"/>
     </g>
    </g>
    <g id="line2d_30">
     <path d="M 42.399063 230.533875 
L 62.399063 230.533875 
" style="fill: none; stroke: #2d3047; stroke-width: 1.6; stroke-linecap: square"/>
    </g>
    <g id="line2d_31">
     <g>
      <use xlink:href="#mec5e99de3a" x="52.399063" y="230.533875" style="fill: #2d3047; stroke: #2d3047"/>
     </g>
    </g>
    <g id="text_12">
     <text style="font-size: 10px; font-family: 'Helvetica', 'Arial', sans-serif; text-anchor: start" x="70.399063" y="234.033875" transform="rotate(-0 70.399063 234.033875)">OURS</text>
    </g>
    <g id="LineCollection_5">
     <path d="M 52.399063 249.679187 
L 52.399063 239.679187 
" style="fill: none; stroke: #d1345b"/>
    </g>
    <g id="line2d_32">
     <g>
      <use xlink:href="#m1f32fe76d9" x="52.399063" y="249.679187" style="fill: #d1345b; stroke: #d1345b"/>
     </g>
    </g>
    <g id="line2d_33">
     <g>
      <use xlink:href="#m1f32fe76d9" x="52.399063" y="239.679187" style="fill: #d1345b; stroke: #d1345b"/>
     </g>
    </g>
    <g id="line2d_34">
     <path d="M 42.399063 244.679187 
L 62.399063 244.679187 
" style="fill: none; stroke: #d1345b; stroke-width: 1.6; stroke-linecap: square"/>
    </g>
    <g id="line2d_35">
     <g>
      <use xlink:href="#m436f449e59" x="52.399063" y="244.679187" style="fill: #d1345b; stroke: #d1345b"/>
     </g>
    </g>
    <g id="text_13">
     <text style="font-size: 10px; font-family: 'Helvetica', 'Arial', sans-serif; text-anchor: start" x="70.399063" y="248.179187" transform="rotate(-0 70.399063 248.179187)">PFI</text>
    </g>
    <g id="LineCollection_6">
     <path d="M 52.399063 263.8245 
L 52.399063 253.8245 
" style="fill: none; stroke: #ff9b71"/>
    </g>
    <g id="line2d_36">
     <g>
      <use xlink:href="#m0d24a587c3" x="52.399063" y="263.8245" style="fill: #ff9b71; stroke: #ff9b71"/>
     </g>
    </g>
    <g id="line2d_37">
     <g>
      <use xlink:href="#m0d24a587c3" x="52.399063" y="253.8245" style="fill: #ff9b71; stroke: #ff9b71"/>
     </g>
    </g>
    <g id="line2d_38">
     <path d="M 42.399063 258.8245 
L 62.399063 258.8245 
" style="fill: none; stroke: #ff9b71; stroke-width: 1.6; stroke-linecap: square"/>
    </g>
    <g id="line2d_39">
     <g>
      <use xlink:href="#mfefb811418" x="52.399063" y="258.8245" style="fill: #ff9b71; stroke: #ff9b71"/>
     </g>
    </g>
    <g id="text_14">
     <text style="font-size: 10px; font-family: 'Helvetica', 'Arial', sans-serif; text-anchor: start" x="70.399063" y="262.3245" transform="rotate(-0 70.399063 262.3245)">SAGE</text>
    </g>
   </g>
  </g>
 </g>
 <defs>
  <clipPath id="pde90a26a31">
   <rect x="33.399063" y="7.2" width="357.12" height="266.112"/>
  </clipPath>
 </defs>
</svg>
