<?xml version="1.0" encoding="utf-8" standalone="no"?>
<!DOCTYPE svg PUBLIC "-//W3C//DTD SVG 1.1//EN"
  "http://www.w3.org/Graphics/SVG/1.1/DTD/svg11.dtd">
<svg xmlns:xlink="http://www.w3.org/1999/xlink" width="397.754062pt" height="310.683562pt" viewBox="0 0 397.754062 310.683562" xmlns="http://www.w3.org/2000/svg" version="1.1">
 <metadata>
  <rdf:RDF xmlns:dc="http://purl.org/dc/elements/1.1/" xmlns:cc="http://creativecommons.org/ns#" xmlns:rdf="http://www.w3.org/1999/02/22-rdf-syntax-ns#">
   <cc:Work>
    <dc:type rdf:resource="http://purl.org/dc/dcmitype/StillImage"/>
    <dc:date>2026-04-17T13:30:33.619483</dc:date>
    <dc:format>image/svg+xml</dc:format>
    <dc:creator>
     <cc:Agent>
      <dc:title>Matplotlib v3.10.8, https://matplotlib.org/</dc:title>
     </cc:Agent>
    </dc:creator>
   </cc:Work>
  </rdf:RDF>
 </metadata>
 <defs>
  <style type="text/css">*{stroke-linejoin: round; stroke-linecap: butt}</style>
 </defs>
 <g id="figure_1">
  <g id="patch_1">
   <path d="M 0 310.683562 
L 397.754062 310.683562 
L 397.754062 0 
L 0 0 
z
" style="fill: #ffffff"/>
  </g>
  <g id="axes_1">
   <g id="patch_2">
    <path d="M 33.434063 273.312 
L 390.554062 273.312 
L 390.554062 7.2 
L 33.434063 7.2 
z
" style="fill: #ffffff"/>
   </g>
   <g id="matplotlib.axis_1">
    <g id="xtick_1">
     <g id="line2d_1">
      <path d="M 49.66679 273.312 
L 49.66679 7.2 
" clip-path="url(#pc910e4d318)" style="fill: none; stroke: #e0e0e0; stroke-opacity: 0.7; stroke-width: 0.8; stroke-linecap: square"/>
     </g>
     <g id="line2d_2">
      <defs>
       <path id="m9c825c0946" d="M 0 0 
L 0 -4 
" style="stroke: #000000; stroke-width: 0.8"/>
      </defs>
      <g>
       <use xlink:href="#m9c825c0946" x="49.66679" y="273.312" style="stroke: #000000; stroke-width: 0.8"/>
      </g>
     </g>
     <g id="text_1">
      <text style="font-size: 10px; font-family: 'Helvetica', 'Arial', sans-serif; text-anchor: middle" x="49.66679" y="283.985437" transform="rotate(-0 49.66679 283.985437)">1</text>
     </g>
    </g>
    <g id="xtick_2">
     <g id="line2d_3">
      <path d="M 199.96982 273.312 
L 199.96982 7.2 
" clip-path="url(#pc910e4d318)" style="fill: none; stroke: #e0e0e0; stroke-opacity: 0.7; stroke-width: 0.8; stroke-linecap: square"/>
     </g>
     <g id="line2d_4">
      <g>
       <use xlink:href="#m9c825c0946" x="199.96982" y="273.312" style="stroke: #000000; stroke-width: 0.8"/>
      </g>
     </g>
     <g id="text_2">
      <text style="font-size: 10px; font-family: 'Helvetica', 'Arial', sans-serif; text-anchor: middle" x="199.96982" y="283.985437" transform="rotate(-0 199.96982 283.985437)">2</text>
     </g>
    </g>
    <g id="xtick_3">
     <g id="line2d_5">
      <path d="M 350.27285 273.312 
L 350.27285 7.2 
" clip-path="url(#pc910e4d318)" style="fill: none; stroke: #e0e0e0; stroke-opacity: 0.7; stroke-width: 0.8; stroke-linecap: square"/>
     </g>
     <g id="line2d_6">
      <g>
       <use xlink:href="#m9c825c0946" x="350.27285" y="273.312" style="stroke: #000000; stroke-width: 0.8"/>
      </g>
     </g>
     <g id="text_3">
      <text style="font-size: 10px; font-family: 'Helvetica', 'Arial', sans-serif; text-anchor: middle" x="350.27285" y="283.985437" transform="rotate(-0 350.27285 283.985437)">3</text>
     </g>
    </g>
    <g id="text_4">
     <text style="font-size: 14px; font-family: 'Helvetica', 'Arial', sans-serif; text-anchor: middle" x="211.994063" y="300.386062" transform="rotate(-0 211.994063 300.386062)">Wavelength Count</text>
    </g>
   </g>
   <g id="matplotlib.axis_2">
    <g id="ytick_1">
     <g id="line2d_7">
      <path d="M 33.434063 273.312 
L 390.554062 273.312 
" clip-path="url(#pc910e4d318)" style="fill: none; stroke: #e0e0e0; stroke-opacity: 0.7; stroke-width: 0.8; stroke-linecap: square"/>
     </g>
     <g id="line2d_8">
      <defs>
       <path id="m5aedd4eaf8" d="M 0 0 
L 4 0 
" style="stroke: #000000; stroke-width: 0.8"/>
      </defs>
      <g>
       <use xlink:href="#m5aedd4eaf8" x="33.434063" y="273.312" style="stroke: #000000; stroke-width: 0.8"/>
      </g>
     </g>
     <g id="text_5">
      <text style="font-size: 10px; font-family: 'Helvetica', 'Arial', sans-serif; text-anchor: end" x="29.934063" y="276.898719" transform="rotate(-0 29.934063 276.898719)">0</text>
     </g>
    </g>
    <g id="ytick_2">
     <g id="line2d_9">
      <path d="M 33.434063 218.864379 
L 390.554062 218.864379 
" clip-path="url(#pc910e4d318)" style="fill: none; stroke: #e0e0e0; stroke-opacity: 0.7; stroke-width: 0.8; stroke-linecap: square"/>
     </g>
     <g id="line2d_10">
      <g>
       <use xlink:href="#m5aedd4eaf8" x="33.434063" y="218.864379" style="stroke: #000000; stroke-width: 0.8"/>
      </g>
     </g>
     <g id="text_6">
      <text style="font-size: 10px; font-family: 'Helvetica', 'Arial', sans-serif; text-anchor: end" x="29.934063" y="222.451097" transform="rotate(-0 29.934063 222.451097)">2</text>
     </g>
    </g>
    <g id="ytick_3">
     <g id="line2d_11">
      <path d="M 33.434063 164.416757 
L 390.554062 164.416757 
" clip-path="url(#pc910e4d318)" style="fill: none; stroke: #e0e0e0; stroke-opacity: 0.7; stroke-width: 0.8; stroke-linecap: square"/>
     </g>
     <g id="line2d_12">
      <g>
       <use xlink:href="#m5aedd4eaf8" x="33.434063" y="164.416757" style="stroke: #000000; stroke-width: 0.8"/>
      </g>
     </g>
     <g id="text_7">
      <text style="font-size: 10px; font-family: 'Helvetica', 'Arial', sans-serif; text-anchor: end" x="29.934063" y="168.003476" transform="rotate(-0 29.934063 168.003476)">4</text>
     </g>
    </g>
    <g id="ytick_4">
     <g id="line2d_13">
      <path d="M 33.434063 109.969136 
L 390.554062 109.969136 
" clip-path="url(#pc910e4d318)" style="fill: none; stroke: #e0e0e0; stroke-opacity: 0.7; stroke-width: 0.8; stroke-linecap: square"/>
     </g>
     <g id="line2d_14">
      <g>
       <use xlink:href="#m5aedd4eaf8" x="33.434063" y="109.969136" style="stroke: #000000; stroke-width: 0.8"/>
      </g>
     </g>
     <g id="text_8">
      <text style="font-size: 10px; font-family: 'Helvetica', 'Arial', sans-serif; text-anchor: end" x="29.934063" y="113.555855" transform="rotate(-0 29.934063 113.555855)">6</text>
     </g>
    </g>
    <g id="ytick_5">
     <g id="line2d_15">
      <path d="M 33.434063 55.521515 
L 390.554062 55.521515 
" clip-path="url(#pc910e4d318)" style="fill: none; stroke: #e0e0e0; stroke-opacity: 0.7; stroke-width: 0.8; stroke-linecap: square"/>
     </g>
     <g id="line2d_16">
      <g>
       <use xlink:href="#m5aedd4eaf8" x="33.434063" y="55.521515" style="stroke: #000000; stroke-width: 0.8"/>
      </g>
     </g>
     <g id="text_9">
      <text style="font-size: 10px; font-family: 'Helvetica', 'Arial', sans-serif; text-anchor: end" x="29.934063" y="59.108234" transform="rotate(-0 29.934063 59.108234)">8</text>
     </g>
    </g>
    <g id="text_10">
     <text style="font-size: 14px; font-family: 'Helvetica', 'Arial', sans-serif; text-anchor: middle" x="17.455" y="140.256" transform="rotate(-90 17.455 140.256)">Test Error (MAE % Saturation)</text>
    </g>
   </g>
   <g id="LineCollection_1">
    <path d="M 49.66679 129.341227 
L 49.66679 13.108153 
" clip-path="url(#pc910e4d318)" style="fill: none; stroke: #2d3047"/>
    <path d="M 199.96982 129.326035 
L 199.96982 13.100531 
" clip-path="url(#pc910e4d318)" style="fill: none; stroke: #2d3047"/>
    <path d="M 350.27285 129.158339 
L 350.27285 13.016249 
" clip-path="url(#pc910e4d318)" style="fill: none; stroke: #2d3047"/>
   </g>
   <g id="line2d_17">
    <defs>
     <path id="m3844f670c0" d="M 3 0 
L -3 -0 
" style="stroke: #2d3047"/>
    </defs>
    <g clip-path="url(#pc910e4d318)">
     <use xlink:href="#m3844f670c0" x="49.66679" y="129.341227" style="fill: #2d3047; stroke: #2d3047"/>
     <use xlink:href="#m3844f670c0" x="199.96982" y="129.326035" style="fill: #2d3047; stroke: #2d3047"/>
     <use xlink:href="#m3844f670c0" x="350.27285" y="129.158339" style="fill: #2d3047; stroke: #2d3047"/>
    </g>
   </g>
   <g id="line2d_18">
    <g clip-path="url(#pc910e4d318)">
     <use xlink:href="#m3844f670c0" x="49.66679" y="13.108153" style="fill: #2d3047; stroke: #2d3047"/>
     <use xlink:href="#m3844f670c0" x="199.96982" y="13.100531" style="fill: #2d3047; stroke: #2d3047"/>
     <use xlink:href="#m3844f670c0" x="350.27285" y="13.016249" style="fill: #2d3047; stroke: #2d3047"/>
    </g>
   </g>
   <g id="LineCollection_2">
    <path d="M 61.691032 129.341227 
L 61.691032 13.108153 
" clip-path="url(#pc910e4d318)" style="fill: none; stroke: #d1345b"/>
    <path d="M 211.994063 129.173515 
L 211.994063 13.023887 
" clip-path="url(#pc910e4d318)" style="fill: none; stroke: #d1345b"/>
    <path d="M 362.297093 129.158339 
L 362.297093 13.016249 
" clip-path="url(#pc910e4d318)" style="fill: none; stroke: #d1345b"/>
   </g>
   <g id="line2d_19">
    <defs>
     <path id="mbaa61c5028" d="M 3 0 
L -3 -0 
" style="stroke: #d1345b"/>
    </defs>
    <g clip-path="url(#pc910e4d318)">
     <use xlink:href="#mbaa61c5028" x="61.691032" y="129.341227" style="fill: #d1345b; stroke: #d1345b"/>
     <use xlink:href="#mbaa61c5028" x="211.994063" y="129.173515" style="fill: #d1345b; stroke: #d1345b"/>
     <use xlink:href="#mbaa61c5028" x="362.297093" y="129.158339" style="fill: #d1345b; stroke: #d1345b"/>
    </g>
   </g>
   <g id="line2d_20">
    <g clip-path="url(#pc910e4d318)">
     <use xlink:href="#mbaa61c5028" x="61.691032" y="13.108153" style="fill: #d1345b; stroke: #d1345b"/>
     <use xlink:href="#mbaa61c5028" x="211.994063" y="13.023887" style="fill: #d1345b; stroke: #d1345b"/>
     <use xlink:href="#mbaa61c5028" x="362.297093" y="13.016249" style="fill: #d1345b; stroke: #d1345b"/>
    </g>
   </g>
   <g id="LineCollection_3">
    <path d="M 73.715275 129.341227 
L 73.715275 13.108153 
" clip-path="url(#pc910e4d318)" style="fill: none; stroke: #ff9b71"/>
    <path d="M 224.018305 129.326035 
L 224.018305 13.100531 
" clip-path="url(#pc910e4d318)" style="fill: none; stroke: #ff9b71"/>
    <path d="M 374.321335 129.158339 
L 374.321335 13.016249 
" clip-path="url(#pc910e4d318)" style="fill: none; stroke: #ff9b71"/>
   </g>
   <g id="line2d_21">
    <defs>
     <path id="md6b6d2b4df" d="M 3 0 
L -3 -0 
" style="stroke: #ff9b71"/>
    </defs>
    <g clip-path="url(#pc910e4d318)">
     <use xlink:href="#md6b6d2b4df" x="73.715275" y="129.341227" style="fill: #ff9b71; stroke: #ff9b71"/>
     <use xlink:href="#md6b6d2b4df" x="224.018305" y="129.326035" style="fill: #ff9b71; stroke: #ff9b71"/>
     <use xlink:href="#md6b6d2b4df" x="374.321335" y="129.158339" style="fill: #ff9b71; stroke: #ff9b71"/>
    </g>
   </g>
   <g id="line2d_22">
    <g clip-path="url(#pc910e4d318)">
     <use xlink:href="#md6b6d2b4df" x="73.715275" y="13.108153" style="fill: #ff9b71; stroke: #ff9b71"/>
     <use xlink:href="#md6b6d2b4df" x="224.018305" y="13.100531" style="fill: #ff9b71; stroke: #ff9b71"/>
     <use xlink:href="#md6b6d2b4df" x="374.321335" y="13.016249" style="fill: #ff9b71; stroke: #ff9b71"/>
    </g>
   </g>
   <g id="line2d_23">
    <path d="M 49.66679 71.22469 
L 199.96982 71.213283 
L 350.27285 71.087294 
" clip-path="url(#pc910e4d318)" style="fill: none; stroke: #2d3047; stroke-width: 1.6; stroke-linecap: square"/>
    <defs>
     <path id="mafe2503bb5" d="M 0 3 
C 0.795609 3 1.55874 2.683901 2.12132 2.12132 
C 2.683901 1.55874 3 0.795609 3 0 
C 3 -0.795609 2.683901 -1.55874 2.12132 -2.12132 
C 1.55874 -2.683901 0.795609 -3 0 -3 
C -0.795609 -3 -1.55874 -2.683901 -2.12132 -2.12132 
C -2.683901 -1.55874 -3 -0.795609 -3 0 
C -3 0.795609 -2.683901 1.55874 -2.12132 2.12132 
C -1.55874 2.683901 -0.795609 3 0 3 
z
" style="stroke: #2d3047"/>
    </defs>
    <g clip-path="url(#pc910e4d318)">
     <use xlink:href="#mafe2503bb5" x="49.66679" y="71.22469" style="fill: #2d3047; stroke: #2d3047"/>
     <use xlink:href="#mafe2503bb5" x="199.96982" y="71.213283" style="fill: #2d3047; stroke: #2d3047"/>
     <use xlink:href="#mafe2503bb5" x="350.27285" y="71.087294" style="fill: #2d3047; stroke: #2d3047"/>
    </g>
   </g>
   <g id="line2d_24">
    <path d="M 61.691032 71.22469 
L 211.994063 71.098701 
L 362.297093 71.087294 
" clip-path="url(#pc910e4d318)" style="fill: none; stroke: #d1345b; stroke-width: 1.6; stroke-linecap: square"/>
    <defs>
     <path id="m146422688f" d="M 0 3 
C 0.795609 3 1.55874 2.683901 2.12132 2.12132 
C 2.683901 1.55874 3 0.795609 3 0 
C 3 -0.795609 2.683901 -1.55874 2.12132 -2.12132 
C 1.55874 -2.683901 0.795609 -3 0 -3 
C -0.795609 -3 -1.55874 -2.683901 -2.12132 -2.12132 
C -2.683901 -1.55874 -3 -0.795609 -3 0 
C -3 0.795609 -2.683901 1.55874 -2.12132 2.12132 
C -1.55874 2.683901 -0.795609 3 0 3 
z
" style="stroke: #d1345b"/>
    </defs>
    <g clip-path="url(#pc910e4d318)">
     <use xlink:href="#m146422688f" x="61.691032" y="71.22469" style="fill: #d1345b; stroke: #d1345b"/>
     <use xlink:href="#m146422688f" x="211.994063" y="71.098701" style="fill: #d1345b; stroke: #d1345b"/>
     <use xlink:href="#m146422688f" x="362.297093" y="71.087294" style="fill: #d1345b; stroke: #d1345b"/>
    </g>
   </g>
   <g id="line2d_25">
    <path d="M 73.715275 71.22469 
L 224.018305 71.213283 
L 374.321335 71.087294 
" clip-path="url(#pc910e4d318)" style="fill: none; stroke: #ff9b71; stroke-width: 1.6; stroke-linecap: square"/>
    <defs>
     <path id="m283bc89562" d="M 0 3 
C 0.795609 3 1.55874 2.683901 2.12132 2.12132 
C 2.683901 1.55874 3 0.795609 3 0 
C 3 -0.795609 2.683901 -1.55874 2.12132 -2.12132 
C 1.55874 -2.683901 0.795609 -3 0 -3 
C -0.795609 -3 -1.55874 -2.683901 -2.12132 -2.12132 
C -2.683901 -1.55874 -3 -0.795609 -3 0 
C -3 0.795609 -2.683901 1.55874 -2.12132 2.12132 
C -1.55874 2.683901 -0.795609 3 0 3 
z
" style="stroke: #ff9b71"/>
    </defs>
    <g clip-path="url(#pc910e4d318)">
     <use xlink:href="#m283bc89562" x="73.715275" y="71.22469" style="fill: #ff9b71; stroke: #ff9b71"/>
     <use xlink:href="#m283bc89562" x="224.018305" y="71.213283" style="fill: #ff9b71; stroke: #ff9b71"/>
     <use xlink:href="#m283bc89562" x="374.321335" y="71.087294" style="fill: #ff9b71; stroke: #ff9b71"/>
    </g>
   </g>
   <g id="patch_3">
    <path d="M 33.434063 273.312 
L 33.434063 7.2 
" style="fill: none; stroke: #000000; stroke-width: 0.8; stroke-linejoin: miter; stroke-linecap: square"/>
   </g>
   <g id="patch_4">
    <path d="M 390.554062 273.312 
L 390.554062 7.2 
" style="fill: none; stroke: #000000; stroke-width: 0.8; stroke-linejoin: miter; stroke-linecap: square"/>
   </g>
   <g id="patch_5">
    <path d="M 33.434063 273.312 
L 390.554062 273.312 
" style="fill: none; stroke: #000000; stroke-width: 0.8; stroke-linejoin: miter; stroke-linecap: square"/>
   </g>
   <g id="patch_6">
    <path d="M 33.434063 7.2 
L 390.554062 7.2 
" style="fill: none; stroke: #000000; stroke-width: 0.8; stroke-linejoin: miter; stroke-linecap: square"/>
   </g>
   <g id="legend_1">
    <g id="patch_7">
     <path d="M 40.434063 268.312 
L 101.32625 268.312 
Q 103.32625 268.312 103.32625 266.312 
L 103.32625 224.538562 
Q 103.32625 222.538562 101.32625 222.538562 
L 40.434063 222.538562 
Q 38.434063 222.538562 38.434063 224.538562 
L 38.434063 266.312 
Q 38.434063 268.312 40.434063 268.312 
z
" style="fill: #ffffff; opacity: 0.8"/>
    </g>
    <g id="LineCollection_4">
     <path d="M 52.434063 235.212 
L 52.434063 225.212 
" style="fill: none; stroke: #2d3047"/>
    </g>
    <g id="line2d_26">
     <g>
      <use xlink:href="#m3844f670c0" x="52.434063" y="235.212" style="fill: #2d3047; stroke: #2d3047"/>
     </g>
    </g>
    <g id="line2d_27">
     <g>
      <use xlink:href="#m3844f670c0" x="52.434063" y="225.212" style="fill: #2d3047; stroke: #2d3047"/>
     </g>
    </g>
    <g id="line2d_28">
     <path d="M 42.434063 230.212 
L 62.434063 230.212 
" style="fill: none; stroke: #2d3047; stroke-width: 1.6; stroke-linecap: square"/>
    </g>
    <g id="line2d_29">
     <g>
      <use xlink:href="#mafe2503bb5" x="52.434063" y="230.212" style="fill: #2d3047; stroke: #2d3047"/>
     </g>
    </g>
    <g id="text_11">
     <text style="font-size: 10px; font-family: 'Helvetica', 'Arial', sans-serif; text-anchor: start" x="70.434063" y="233.712" transform="rotate(-0 70.434063 233.712)">OURS</text>
    </g>
    <g id="LineCollection_5">
     <path d="M 52.434063 249.469812 
L 52.434063 239.469812 
" style="fill: none; stroke: #d1345b"/>
    </g>
    <g id="line2d_30">
     <g>
      <use xlink:href="#mbaa61c5028" x="52.434063" y="249.469812" style="fill: #d1345b; stroke: #d1345b"/>
     </g>
    </g>
    <g id="line2d_31">
     <g>
      <use xlink:href="#mbaa61c5028" x="52.434063" y="239.469812" style="fill: #d1345b; stroke: #d1345b"/>
     </g>
    </g>
    <g id="line2d_32">
     <path d="M 42.434063 244.469812 
L 62.434063 244.469812 
" style="fill: none; stroke: #d1345b; stroke-width: 1.6; stroke-linecap: square"/>
    </g>
    <g id="line2d_33">
     <g>
      <use xlink:href="#m146422688f" x="52.434063" y="244.469812" style="fill: #d1345b; stroke: #d1345b"/>
     </g>
    </g>
    <g id="text_12">
     <text style="font-size: 10px; font-family: 'Helvetica', 'Arial', sans-serif; text-anchor: start" x="70.434063" y="247.969812" transform="rotate(-0 70.434063 247.969812)">PFI</text>
    </g>
    <g id="LineCollection_6">
     <path d="M 52.434063 263.727625 
L 52.434063 253.727625 
" style="fill: none; stroke: #ff9b71"/>
    </g>
    <g id="line2d_34">
     <g>
      <use xlink:href="#md6b6d2b4df" x="52.434063" y="263.727625" style="fill: #ff9b71; stroke: #ff9b71"/>
     </g>
    </g>
    <g id="line2d_35">
     <g>
      <use xlink:href="#md6b6d2b4df" x="52.434063" y="253.727625" style="fill: #ff9b71; stroke: #ff9b71"/>
     </g>
    </g>
    <g id="line2d_36">
     <path d="M 42.434063 258.727625 
L 62.434063 258.727625 
" style="fill: none; stroke: #ff9b71; stroke-width: 1.6; stroke-linecap: square"/>
    </g>
    <g id="line2d_37">
     <g>
      <use xlink:href="#m283bc89562" x="52.434063" y="258.727625" style="fill: #ff9b71; stroke: #ff9b71"/>
     </g>
    </g>
    <g id="text_13">
     <text style="font-size: 10px; font-family: 'Helvetica', 'Arial', sans-serif; text-anchor: start" x="70.434063" y="262.227625" transform="rotate(-0 70.434063 262.227625)">SAGE</text>
    </g>
   </g>
  </g>
 </g>
 <defs>
  <clipPath id="pc910e4d318">
   <rect x="33.434063" y="7.2" width="357.12" height="266.112"/>
  </clipPath>
 </defs>
</svg>
