<?xml version="1.0" encoding="utf-8" standalone="no"?>
<!DOCTYPE svg PUBLIC "-//W3C//DTD SVG 1.1//EN"
  "http://www.w3.org/Graphics/SVG/1.1/DTD/svg11.dtd">
<svg xmlns:xlink="http://www.w3.org/1999/xlink" width="397.754062pt" height="310.23075pt" viewBox="0 0 397.754062 310.23075" xmlns="http://www.w3.org/2000/svg" version="1.1">
 <metadata>
  <rdf:RDF xmlns:dc="http://purl.org/dc/elements/1.1/" xmlns:cc="http://creativecommons.org/ns#" xmlns:rdf="http://www.w3.org/1999/02/22-rdf-syntax-ns#">
   <cc:Work>
    <dc:type rdf:resource="http://purl.org/dc/dcmitype/StillImage"/>
    <dc:date>2026-04-21T14:23:09.632838</dc:date>
    <dc:format>image/svg+xml</dc:format>
    <dc:creator>
     <cc:Agent>
      <dc:title>Matplotlib v3.10.8, https://matplotlib.org/</dc:title>
     </cc:Agent>
    </dc:creator>
   </cc:Work>
  </rdf:RDF>
 </metadata>
 <defs>
  <style type="text/css">*{stroke-linejoin: round; stroke-linecap: butt}</style>
 </defs>
 <g id="figure_1">
  <g id="patch_1">
   <path d="M 0 310.23075 
L 397.754062 310.23075 
L 397.754062 0 
L 0 0 
z
" style="fill: #ffffff"/>
  </g>
  <g id="axes_1">
   <g id="patch_2">
    <path d="M 33.434063 273.312 
L 390.554062 273.312 
L 390.554062 7.2 
L 33.434063 7.2 
z
" style="fill: #ffffff"/>
   </g>
   <g id="matplotlib.axis_1">
    <g id="xtick_1">
     <g id="line2d_1">
      <path d="M 49.66679 273.312 
L 49.66679 7.2 
" clip-path="url(#p5f6a94386a)" style="fill: none; stroke: #e0e0e0; stroke-opacity: 0.7; stroke-width: 0.8; stroke-linecap: square"/>
     </g>
     <g id="line2d_2">
      <defs>
       <path id="mbd4b18fb68" d="M 0 0 
L 0 -4 
" style="stroke: #000000; stroke-width: 0.8"/>
      </defs>
      <g>
       <use xlink:href="#mbd4b18fb68" x="49.66679" y="273.312" style="stroke: #000000; stroke-width: 0.8"/>
      </g>
     </g>
     <g id="text_1">
      <text style="font-size: 10px; font-family: 'Helvetica', 'Arial', sans-serif; text-anchor: middle" x="49.66679" y="283.985437" transform="rotate(-0 49.66679 283.985437)">1</text>
     </g>
    </g>
    <g id="xtick_2">
     <g id="line2d_3">
      <path d="M 128.850825 273.312 
L 128.850825 7.2 
" clip-path="url(#p5f6a94386a)" style="fill: none; stroke: #e0e0e0; stroke-opacity: 0.7; stroke-width: 0.8; stroke-linecap: square"/>
     </g>
     <g id="line2d_4">
      <g>
       <use xlink:href="#mbd4b18fb68" x="128.850825" y="273.312" style="stroke: #000000; stroke-width: 0.8"/>
      </g>
     </g>
     <g id="text_2">
      <text style="font-size: 10px; font-family: 'Helvetica', 'Arial', sans-serif; text-anchor: middle" x="128.850825" y="283.985437" transform="rotate(-0 128.850825 283.985437)">2</text>
     </g>
    </g>
    <g id="xtick_3">
     <g id="line2d_5">
      <path d="M 208.034861 273.312 
L 208.034861 7.2 
" clip-path="url(#p5f6a94386a)" style="fill: none; stroke: #e0e0e0; stroke-opacity: 0.7; stroke-width: 0.8; stroke-linecap: square"/>
     </g>
     <g id="line2d_6">
      <g>
       <use xlink:href="#mbd4b18fb68" x="208.034861" y="273.312" style="stroke: #000000; stroke-width: 0.8"/>
      </g>
     </g>
     <g id="text_3">
      <text style="font-size: 10px; font-family: 'Helvetica', 'Arial', sans-serif; text-anchor: middle" x="208.034861" y="283.985437" transform="rotate(-0 208.034861 283.985437)">3</text>
     </g>
    </g>
    <g id="xtick_4">
     <g id="line2d_7">
      <path d="M 287.218896 273.312 
L 287.218896 7.2 
" clip-path="url(#p5f6a94386a)" style="fill: none; stroke: #e0e0e0; stroke-opacity: 0.7; stroke-width: 0.8; stroke-linecap: square"/>
     </g>
     <g id="line2d_8">
      <g>
       <use xlink:href="#mbd4b18fb68" x="287.218896" y="273.312" style="stroke: #000000; stroke-width: 0.8"/>
      </g>
     </g>
     <g id="text_4">
      <text style="font-size: 10px; font-family: 'Helvetica', 'Arial', sans-serif; text-anchor: middle" x="287.218896" y="283.985437" transform="rotate(-0 287.218896 283.985437)">4</text>
     </g>
    </g>
    <g id="xtick_5">
     <g id="line2d_9">
      <path d="M 366.402932 273.312 
L 366.402932 7.2 
" clip-path="url(#p5f6a94386a)" style="fill: none; stroke: #e0e0e0; stroke-opacity: 0.7; stroke-width: 0.8; stroke-linecap: square"/>
     </g>
     <g id="line2d_10">
      <g>
       <use xlink:href="#mbd4b18fb68" x="366.402932" y="273.312" style="stroke: #000000; stroke-width: 0.8"/>
      </g>
     </g>
     <g id="text_5">
      <text style="font-size: 10px; font-family: 'Helvetica', 'Arial', sans-serif; text-anchor: middle" x="366.402932" y="283.985437" transform="rotate(-0 366.402932 283.985437)">5</text>
     </g>
    </g>
    <g id="text_6">
     <text style="font-size: 14px; font-family: 'Helvetica', 'Arial', sans-serif; text-anchor: middle" x="211.994063" y="300.112625" transform="rotate(-0 211.994063 300.112625)">Detector Count</text>
    </g>
   </g>
   <g id="matplotlib.axis_2">
    <g id="ytick_1">
     <g id="line2d_11">
      <path d="M 33.434063 273.312 
L 390.554062 273.312 
" clip-path="url(#p5f6a94386a)" style="fill: none; stroke: #e0e0e0; stroke-opacity: 0.7; stroke-width: 0.8; stroke-linecap: square"/>
     </g>
     <g id="line2d_12">
      <defs>
       <path id="m7084dbe279" d="M 0 0 
L 4 0 
" style="stroke: #000000; stroke-width: 0.8"/>
      </defs>
      <g>
       <use xlink:href="#m7084dbe279" x="33.434063" y="273.312" style="stroke: #000000; stroke-width: 0.8"/>
      </g>
     </g>
     <g id="text_7">
      <text style="font-size: 10px; font-family: 'Helvetica', 'Arial', sans-serif; text-anchor: end" x="29.934063" y="276.898719" transform="rotate(-0 29.934063 276.898719)">0</text>
     </g>
    </g>
    <g id="ytick_2">
     <g id="line2d_13">
      <path d="M 33.434063 217.153139 
L 390.554062 217.153139 
" clip-path="url(#p5f6a94386a)" style="fill: none; stroke: #e0e0e0; stroke-opacity: 0.7; stroke-width: 0.8; stroke-linecap: square"/>
     </g>
     <g id="line2d_14">
      <g>
       <use xlink:href="#m7084dbe279" x="33.434063" y="217.153139" style="stroke: #000000; stroke-width: 0.8"/>
      </g>
     </g>
     <g id="text_8">
      <text style="font-size: 10px; font-family: 'Helvetica', 'Arial', sans-serif; text-anchor: end" x="29.934063" y="220.739858" transform="rotate(-0 29.934063 220.739858)">2</text>
     </g>
    </g>
    <g id="ytick_3">
     <g id="line2d_15">
      <path d="M 33.434063 160.994279 
L 390.554062 160.994279 
" clip-path="url(#p5f6a94386a)" style="fill: none; stroke: #e0e0e0; stroke-opacity: 0.7; stroke-width: 0.8; stroke-linecap: square"/>
     </g>
     <g id="line2d_16">
      <g>
       <use xlink:href="#m7084dbe279" x="33.434063" y="160.994279" style="stroke: #000000; stroke-width: 0.8"/>
      </g>
     </g>
     <g id="text_9">
      <text style="font-size: 10px; font-family: 'Helvetica', 'Arial', sans-serif; text-anchor: end" x="29.934063" y="164.580997" transform="rotate(-0 29.934063 164.580997)">4</text>
     </g>
    </g>
    <g id="ytick_4">
     <g id="line2d_17">
      <path d="M 33.434063 104.835418 
L 390.554062 104.835418 
" clip-path="url(#p5f6a94386a)" style="fill: none; stroke: #e0e0e0; stroke-opacity: 0.7; stroke-width: 0.8; stroke-linecap: square"/>
     </g>
     <g id="line2d_18">
      <g>
       <use xlink:href="#m7084dbe279" x="33.434063" y="104.835418" style="stroke: #000000; stroke-width: 0.8"/>
      </g>
     </g>
     <g id="text_10">
      <text style="font-size: 10px; font-family: 'Helvetica', 'Arial', sans-serif; text-anchor: end" x="29.934063" y="108.422137" transform="rotate(-0 29.934063 108.422137)">6</text>
     </g>
    </g>
    <g id="ytick_5">
     <g id="line2d_19">
      <path d="M 33.434063 48.676557 
L 390.554062 48.676557 
" clip-path="url(#p5f6a94386a)" style="fill: none; stroke: #e0e0e0; stroke-opacity: 0.7; stroke-width: 0.8; stroke-linecap: square"/>
     </g>
     <g id="line2d_20">
      <g>
       <use xlink:href="#m7084dbe279" x="33.434063" y="48.676557" style="stroke: #000000; stroke-width: 0.8"/>
      </g>
     </g>
     <g id="text_11">
      <text style="font-size: 10px; font-family: 'Helvetica', 'Arial', sans-serif; text-anchor: end" x="29.934063" y="52.263276" transform="rotate(-0 29.934063 52.263276)">8</text>
     </g>
    </g>
    <g id="text_12">
     <text style="font-size: 14px; font-family: 'Helvetica', 'Arial', sans-serif; text-anchor: middle" x="17.455" y="140.256" transform="rotate(-90 17.455 140.256)">Test MAE (%Saturation)</text>
    </g>
   </g>
   <g id="LineCollection_1">
    <path d="M 49.66679 96.699445 
L 49.66679 61.037745 
" clip-path="url(#p5f6a94386a)" style="fill: none; stroke: #2d3047"/>
    <path d="M 128.850825 155.431024 
L 128.850825 106.837389 
" clip-path="url(#p5f6a94386a)" style="fill: none; stroke: #2d3047"/>
    <path d="M 208.034861 174.333682 
L 208.034861 140.049232 
" clip-path="url(#p5f6a94386a)" style="fill: none; stroke: #2d3047"/>
    <path d="M 287.218896 180.107564 
L 287.218896 145.363216 
" clip-path="url(#p5f6a94386a)" style="fill: none; stroke: #2d3047"/>
    <path d="M 366.402932 170.256205 
L 366.402932 144.508048 
" clip-path="url(#p5f6a94386a)" style="fill: none; stroke: #2d3047"/>
   </g>
   <g id="line2d_21">
    <defs>
     <path id="m123a6d65f8" d="M 3 0 
L -3 -0 
" style="stroke: #2d3047"/>
    </defs>
    <g clip-path="url(#p5f6a94386a)">
     <use xlink:href="#m123a6d65f8" x="49.66679" y="96.699445" style="fill: #2d3047; stroke: #2d3047"/>
     <use xlink:href="#m123a6d65f8" x="128.850825" y="155.431024" style="fill: #2d3047; stroke: #2d3047"/>
     <use xlink:href="#m123a6d65f8" x="208.034861" y="174.333682" style="fill: #2d3047; stroke: #2d3047"/>
     <use xlink:href="#m123a6d65f8" x="287.218896" y="180.107564" style="fill: #2d3047; stroke: #2d3047"/>
     <use xlink:href="#m123a6d65f8" x="366.402932" y="170.256205" style="fill: #2d3047; stroke: #2d3047"/>
    </g>
   </g>
   <g id="line2d_22">
    <g clip-path="url(#p5f6a94386a)">
     <use xlink:href="#m123a6d65f8" x="49.66679" y="61.037745" style="fill: #2d3047; stroke: #2d3047"/>
     <use xlink:href="#m123a6d65f8" x="128.850825" y="106.837389" style="fill: #2d3047; stroke: #2d3047"/>
     <use xlink:href="#m123a6d65f8" x="208.034861" y="140.049232" style="fill: #2d3047; stroke: #2d3047"/>
     <use xlink:href="#m123a6d65f8" x="287.218896" y="145.363216" style="fill: #2d3047; stroke: #2d3047"/>
     <use xlink:href="#m123a6d65f8" x="366.402932" y="144.508048" style="fill: #2d3047; stroke: #2d3047"/>
    </g>
   </g>
   <g id="LineCollection_2">
    <path d="M 53.625992 96.699445 
L 53.625992 61.037745 
" clip-path="url(#p5f6a94386a)" style="fill: none; stroke: #d1345b"/>
    <path d="M 132.810027 155.431024 
L 132.810027 106.837389 
" clip-path="url(#p5f6a94386a)" style="fill: none; stroke: #d1345b"/>
    <path d="M 211.994062 174.333682 
L 211.994062 140.049232 
" clip-path="url(#p5f6a94386a)" style="fill: none; stroke: #d1345b"/>
    <path d="M 291.178098 180.126156 
L 291.178098 141.443329 
" clip-path="url(#p5f6a94386a)" style="fill: none; stroke: #d1345b"/>
    <path d="M 370.362133 170.256205 
L 370.362133 144.508048 
" clip-path="url(#p5f6a94386a)" style="fill: none; stroke: #d1345b"/>
   </g>
   <g id="line2d_23">
    <defs>
     <path id="m2875e32f15" d="M 3 0 
L -3 -0 
" style="stroke: #d1345b"/>
    </defs>
    <g clip-path="url(#p5f6a94386a)">
     <use xlink:href="#m2875e32f15" x="53.625992" y="96.699445" style="fill: #d1345b; stroke: #d1345b"/>
     <use xlink:href="#m2875e32f15" x="132.810027" y="155.431024" style="fill: #d1345b; stroke: #d1345b"/>
     <use xlink:href="#m2875e32f15" x="211.994062" y="174.333682" style="fill: #d1345b; stroke: #d1345b"/>
     <use xlink:href="#m2875e32f15" x="291.178098" y="180.126156" style="fill: #d1345b; stroke: #d1345b"/>
     <use xlink:href="#m2875e32f15" x="370.362133" y="170.256205" style="fill: #d1345b; stroke: #d1345b"/>
    </g>
   </g>
   <g id="line2d_24">
    <g clip-path="url(#p5f6a94386a)">
     <use xlink:href="#m2875e32f15" x="53.625992" y="61.037745" style="fill: #d1345b; stroke: #d1345b"/>
     <use xlink:href="#m2875e32f15" x="132.810027" y="106.837389" style="fill: #d1345b; stroke: #d1345b"/>
     <use xlink:href="#m2875e32f15" x="211.994062" y="140.049232" style="fill: #d1345b; stroke: #d1345b"/>
     <use xlink:href="#m2875e32f15" x="291.178098" y="141.443329" style="fill: #d1345b; stroke: #d1345b"/>
     <use xlink:href="#m2875e32f15" x="370.362133" y="144.508048" style="fill: #d1345b; stroke: #d1345b"/>
    </g>
   </g>
   <g id="LineCollection_3">
    <path d="M 57.585193 185.403027 
L 57.585193 24.132506 
" clip-path="url(#p5f6a94386a)" style="fill: none; stroke: #ff9b71"/>
    <path d="M 136.769229 169.742303 
L 136.769229 16.301216 
" clip-path="url(#p5f6a94386a)" style="fill: none; stroke: #ff9b71"/>
    <path d="M 215.953264 198.325541 
L 215.953264 26.023674 
" clip-path="url(#p5f6a94386a)" style="fill: none; stroke: #ff9b71"/>
    <path d="M 295.1373 180.126156 
L 295.1373 141.443329 
" clip-path="url(#p5f6a94386a)" style="fill: none; stroke: #ff9b71"/>
    <path d="M 374.321335 170.256205 
L 374.321335 144.508048 
" clip-path="url(#p5f6a94386a)" style="fill: none; stroke: #ff9b71"/>
   </g>
   <g id="line2d_25">
    <defs>
     <path id="mfcfad6292d" d="M 3 0 
L -3 -0 
" style="stroke: #ff9b71"/>
    </defs>
    <g clip-path="url(#p5f6a94386a)">
     <use xlink:href="#mfcfad6292d" x="57.585193" y="185.403027" style="fill: #ff9b71; stroke: #ff9b71"/>
     <use xlink:href="#mfcfad6292d" x="136.769229" y="169.742303" style="fill: #ff9b71; stroke: #ff9b71"/>
     <use xlink:href="#mfcfad6292d" x="215.953264" y="198.325541" style="fill: #ff9b71; stroke: #ff9b71"/>
     <use xlink:href="#mfcfad6292d" x="295.1373" y="180.126156" style="fill: #ff9b71; stroke: #ff9b71"/>
     <use xlink:href="#mfcfad6292d" x="374.321335" y="170.256205" style="fill: #ff9b71; stroke: #ff9b71"/>
    </g>
   </g>
   <g id="line2d_26">
    <g clip-path="url(#p5f6a94386a)">
     <use xlink:href="#mfcfad6292d" x="57.585193" y="24.132506" style="fill: #ff9b71; stroke: #ff9b71"/>
     <use xlink:href="#mfcfad6292d" x="136.769229" y="16.301216" style="fill: #ff9b71; stroke: #ff9b71"/>
     <use xlink:href="#mfcfad6292d" x="215.953264" y="26.023674" style="fill: #ff9b71; stroke: #ff9b71"/>
     <use xlink:href="#mfcfad6292d" x="295.1373" y="141.443329" style="fill: #ff9b71; stroke: #ff9b71"/>
     <use xlink:href="#mfcfad6292d" x="374.321335" y="144.508048" style="fill: #ff9b71; stroke: #ff9b71"/>
    </g>
   </g>
   <g id="line2d_27">
    <path d="M 49.66679 78.868595 
L 128.850825 131.134207 
L 208.034861 157.191457 
L 287.218896 162.73539 
L 366.402932 157.382126 
" clip-path="url(#p5f6a94386a)" style="fill: none; stroke: #2d3047; stroke-width: 1.6; stroke-linecap: square"/>
    <defs>
     <path id="m17f9440ab8" d="M 0 3 
C 0.795609 3 1.55874 2.683901 2.12132 2.12132 
C 2.683901 1.55874 3 0.795609 3 0 
C 3 -0.795609 2.683901 -1.55874 2.12132 -2.12132 
C 1.55874 -2.683901 0.795609 -3 0 -3 
C -0.795609 -3 -1.55874 -2.683901 -2.12132 -2.12132 
C -2.683901 -1.55874 -3 -0.795609 -3 0 
C -3 0.795609 -2.683901 1.55874 -2.12132 2.12132 
C -1.55874 2.683901 -0.795609 3 0 3 
z
" style="stroke: #2d3047"/>
    </defs>
    <g clip-path="url(#p5f6a94386a)">
     <use xlink:href="#m17f9440ab8" x="49.66679" y="78.868595" style="fill: #2d3047; stroke: #2d3047"/>
     <use xlink:href="#m17f9440ab8" x="128.850825" y="131.134207" style="fill: #2d3047; stroke: #2d3047"/>
     <use xlink:href="#m17f9440ab8" x="208.034861" y="157.191457" style="fill: #2d3047; stroke: #2d3047"/>
     <use xlink:href="#m17f9440ab8" x="287.218896" y="162.73539" style="fill: #2d3047; stroke: #2d3047"/>
     <use xlink:href="#m17f9440ab8" x="366.402932" y="157.382126" style="fill: #2d3047; stroke: #2d3047"/>
    </g>
   </g>
   <g id="line2d_28">
    <path d="M 53.625992 78.868595 
L 132.810027 131.134207 
L 211.994062 157.191457 
L 291.178098 160.784743 
L 370.362133 157.382126 
" clip-path="url(#p5f6a94386a)" style="fill: none; stroke: #d1345b; stroke-width: 1.6; stroke-linecap: square"/>
    <defs>
     <path id="mb17f04744e" d="M 0 3 
C 0.795609 3 1.55874 2.683901 2.12132 2.12132 
C 2.683901 1.55874 3 0.795609 3 0 
C 3 -0.795609 2.683901 -1.55874 2.12132 -2.12132 
C 1.55874 -2.683901 0.795609 -3 0 -3 
C -0.795609 -3 -1.55874 -2.683901 -2.12132 -2.12132 
C -2.683901 -1.55874 -3 -0.795609 -3 0 
C -3 0.795609 -2.683901 1.55874 -2.12132 2.12132 
C -1.55874 2.683901 -0.795609 3 0 3 
z
" style="stroke: #d1345b"/>
    </defs>
    <g clip-path="url(#p5f6a94386a)">
     <use xlink:href="#mb17f04744e" x="53.625992" y="78.868595" style="fill: #d1345b; stroke: #d1345b"/>
     <use xlink:href="#mb17f04744e" x="132.810027" y="131.134207" style="fill: #d1345b; stroke: #d1345b"/>
     <use xlink:href="#mb17f04744e" x="211.994062" y="157.191457" style="fill: #d1345b; stroke: #d1345b"/>
     <use xlink:href="#mb17f04744e" x="291.178098" y="160.784743" style="fill: #d1345b; stroke: #d1345b"/>
     <use xlink:href="#mb17f04744e" x="370.362133" y="157.382126" style="fill: #d1345b; stroke: #d1345b"/>
    </g>
   </g>
   <g id="line2d_29">
    <path d="M 57.585193 104.767767 
L 136.769229 93.02176 
L 215.953264 112.174608 
L 295.1373 160.784743 
L 374.321335 157.382126 
" clip-path="url(#p5f6a94386a)" style="fill: none; stroke: #ff9b71; stroke-width: 1.6; stroke-linecap: square"/>
    <defs>
     <path id="m526f14e7f3" d="M 0 3 
C 0.795609 3 1.55874 2.683901 2.12132 2.12132 
C 2.683901 1.55874 3 0.795609 3 0 
C 3 -0.795609 2.683901 -1.55874 2.12132 -2.12132 
C 1.55874 -2.683901 0.795609 -3 0 -3 
C -0.795609 -3 -1.55874 -2.683901 -2.12132 -2.12132 
C -2.683901 -1.55874 -3 -0.795609 -3 0 
C -3 0.795609 -2.683901 1.55874 -2.12132 2.12132 
C -1.55874 2.683901 -0.795609 3 0 3 
z
" style="stroke: #ff9b71"/>
    </defs>
    <g clip-path="url(#p5f6a94386a)">
     <use xlink:href="#m526f14e7f3" x="57.585193" y="104.767767" style="fill: #ff9b71; stroke: #ff9b71"/>
     <use xlink:href="#m526f14e7f3" x="136.769229" y="93.02176" style="fill: #ff9b71; stroke: #ff9b71"/>
     <use xlink:href="#m526f14e7f3" x="215.953264" y="112.174608" style="fill: #ff9b71; stroke: #ff9b71"/>
     <use xlink:href="#m526f14e7f3" x="295.1373" y="160.784743" style="fill: #ff9b71; stroke: #ff9b71"/>
     <use xlink:href="#m526f14e7f3" x="374.321335" y="157.382126" style="fill: #ff9b71; stroke: #ff9b71"/>
    </g>
   </g>
   <g id="patch_3">
    <path d="M 33.434063 273.312 
L 33.434063 7.2 
" style="fill: none; stroke: #000000; stroke-width: 0.8; stroke-linejoin: miter; stroke-linecap: square"/>
   </g>
   <g id="patch_4">
    <path d="M 390.554062 273.312 
L 390.554062 7.2 
" style="fill: none; stroke: #000000; stroke-width: 0.8; stroke-linejoin: miter; stroke-linecap: square"/>
   </g>
   <g id="patch_5">
    <path d="M 33.434063 273.312 
L 390.554062 273.312 
" style="fill: none; stroke: #000000; stroke-width: 0.8; stroke-linejoin: miter; stroke-linecap: square"/>
   </g>
   <g id="patch_6">
    <path d="M 33.434063 7.2 
L 390.554062 7.2 
" style="fill: none; stroke: #000000; stroke-width: 0.8; stroke-linejoin: miter; stroke-linecap: square"/>
   </g>
   <g id="legend_1">
    <g id="patch_7">
     <path d="M 322.661875 57.973437 
L 383.554062 57.973437 
Q 385.554062 57.973437 385.554062 55.973437 
L 385.554062 14.2 
Q 385.554062 12.2 383.554062 12.2 
L 322.661875 12.2 
Q 320.661875 12.2 320.661875 14.2 
L 320.661875 55.973437 
Q 320.661875 57.973437 322.661875 57.973437 
z
" style="fill: #ffffff; opacity: 0.8"/>
    </g>
    <g id="LineCollection_4">
     <path d="M 334.661875 24.873437 
L 334.661875 14.873437 
" style="fill: none; stroke: #2d3047"/>
    </g>
    <g id="line2d_30">
     <g>
      <use xlink:href="#m123a6d65f8" x="334.661875" y="24.873437" style="fill: #2d3047; stroke: #2d3047"/>
     </g>
    </g>
    <g id="line2d_31">
     <g>
      <use xlink:href="#m123a6d65f8" x="334.661875" y="14.873437" style="fill: #2d3047; stroke: #2d3047"/>
     </g>
    </g>
    <g id="line2d_32">
     <path d="M 324.661875 19.873437 
L 344.661875 19.873437 
" style="fill: none; stroke: #2d3047; stroke-width: 1.6; stroke-linecap: square"/>
    </g>
    <g id="line2d_33">
     <g>
      <use xlink:href="#m17f9440ab8" x="334.661875" y="19.873437" style="fill: #2d3047; stroke: #2d3047"/>
     </g>
    </g>
    <g id="text_13">
     <text style="font-size: 10px; font-family: 'Helvetica', 'Arial', sans-serif; text-anchor: start" x="352.661875" y="23.373437" transform="rotate(-0 352.661875 23.373437)">OURS</text>
    </g>
    <g id="LineCollection_5">
     <path d="M 334.661875 39.13125 
L 334.661875 29.13125 
" style="fill: none; stroke: #d1345b"/>
    </g>
    <g id="line2d_34">
     <g>
      <use xlink:href="#m2875e32f15" x="334.661875" y="39.13125" style="fill: #d1345b; stroke: #d1345b"/>
     </g>
    </g>
    <g id="line2d_35">
     <g>
      <use xlink:href="#m2875e32f15" x="334.661875" y="29.13125" style="fill: #d1345b; stroke: #d1345b"/>
     </g>
    </g>
    <g id="line2d_36">
     <path d="M 324.661875 34.13125 
L 344.661875 34.13125 
" style="fill: none; stroke: #d1345b; stroke-width: 1.6; stroke-linecap: square"/>
    </g>
    <g id="line2d_37">
     <g>
      <use xlink:href="#mb17f04744e" x="334.661875" y="34.13125" style="fill: #d1345b; stroke: #d1345b"/>
     </g>
    </g>
    <g id="text_14">
     <text style="font-size: 10px; font-family: 'Helvetica', 'Arial', sans-serif; text-anchor: start" x="352.661875" y="37.63125" transform="rotate(-0 352.661875 37.63125)">PFI</text>
    </g>
    <g id="LineCollection_6">
     <path d="M 334.661875 53.389062 
L 334.661875 43.389062 
" style="fill: none; stroke: #ff9b71"/>
    </g>
    <g id="line2d_38">
     <g>
      <use xlink:href="#mfcfad6292d" x="334.661875" y="53.389062" style="fill: #ff9b71; stroke: #ff9b71"/>
     </g>
    </g>
    <g id="line2d_39">
     <g>
      <use xlink:href="#mfcfad6292d" x="334.661875" y="43.389062" style="fill: #ff9b71; stroke: #ff9b71"/>
     </g>
    </g>
    <g id="line2d_40">
     <path d="M 324.661875 48.389062 
L 344.661875 48.389062 
" style="fill: none; stroke: #ff9b71; stroke-width: 1.6; stroke-linecap: square"/>
    </g>
    <g id="line2d_41">
     <g>
      <use xlink:href="#m526f14e7f3" x="334.661875" y="48.389062" style="fill: #ff9b71; stroke: #ff9b71"/>
     </g>
    </g>
    <g id="text_15">
     <text style="font-size: 10px; font-family: 'Helvetica', 'Arial', sans-serif; text-anchor: start" x="352.661875" y="51.889062" transform="rotate(-0 352.661875 51.889062)">SAGE</text>
    </g>
   </g>
  </g>
 </g>
 <defs>
  <clipPath id="p5f6a94386a">
   <rect x="33.434063" y="7.2" width="357.12" height="266.112"/>
  </clipPath>
 </defs>
</svg>
