<?xml version="1.0" encoding="utf-8" standalone="no"?>
<!DOCTYPE svg PUBLIC "-//W3C//DTD SVG 1.1//EN"
  "http://www.w3.org/Graphics/SVG/1.1/DTD/svg11.dtd">
<svg xmlns:xlink="http://www.w3.org/1999/xlink" width="408.840937pt" height="310.295437pt" viewBox="0 0 408.840937 310.295437" xmlns="http://www.w3.org/2000/svg" version="1.1">
 <metadata>
  <rdf:RDF xmlns:dc="http://purl.org/dc/elements/1.1/" xmlns:cc="http://creativecommons.org/ns#" xmlns:rdf="http://www.w3.org/1999/02/22-rdf-syntax-ns#">
   <cc:Work>
    <dc:type rdf:resource="http://purl.org/dc/dcmitype/StillImage"/>
    <dc:date>2026-04-15T12:05:27.384705</dc:date>
    <dc:format>image/svg+xml</dc:format>
    <dc:creator>
     <cc:Agent>
      <dc:title>Matplotlib v3.9.2, https://matplotlib.org/</dc:title>
     </cc:Agent>
    </dc:creator>
   </cc:Work>
  </rdf:RDF>
 </metadata>
 <defs>
  <style type="text/css">*{stroke-linejoin: round; stroke-linecap: butt}</style>
 </defs>
 <g id="figure_1">
  <g id="patch_1">
   <path d="M 0 310.295437 
L 408.840937 310.295437 
L 408.840937 0 
L 0 0 
z
" style="fill: #ffffff"/>
  </g>
  <g id="axes_1">
   <g id="patch_2">
    <path d="M 44.520938 273.312 
L 401.640938 273.312 
L 401.640938 7.2 
L 44.520938 7.2 
z
" style="fill: #ffffff"/>
   </g>
   <g id="matplotlib.axis_1">
    <g id="xtick_1">
     <g id="line2d_1">
      <path d="M 60.753665 273.312 
L 60.753665 7.2 
" clip-path="url(#p9b568b71a7)" style="fill: none; stroke: #e0e0e0; stroke-opacity: 0.7; stroke-width: 0.8; stroke-linecap: square"/>
     </g>
     <g id="line2d_2">
      <defs>
       <path id="ma998b2a403" d="M 0 0 
L 0 -4 
" style="stroke: #000000; stroke-width: 0.8"/>
      </defs>
      <g>
       <use xlink:href="#ma998b2a403" x="60.753665" y="273.312" style="stroke: #000000; stroke-width: 0.8"/>
      </g>
     </g>
     <g id="text_1">
      <text style="font: 10px 'Helvetica', 'Arial', sans-serif; text-anchor: middle" x="60.753665" y="283.969812" transform="rotate(-0 60.753665 283.969812)">1</text>
     </g>
    </g>
    <g id="xtick_2">
     <g id="line2d_3">
      <path d="M 138.795623 273.312 
L 138.795623 7.2 
" clip-path="url(#p9b568b71a7)" style="fill: none; stroke: #e0e0e0; stroke-opacity: 0.7; stroke-width: 0.8; stroke-linecap: square"/>
     </g>
     <g id="line2d_4">
      <g>
       <use xlink:href="#ma998b2a403" x="138.795623" y="273.312" style="stroke: #000000; stroke-width: 0.8"/>
      </g>
     </g>
     <g id="text_2">
      <text style="font: 10px 'Helvetica', 'Arial', sans-serif; text-anchor: middle" x="138.795623" y="283.969812" transform="rotate(-0 138.795623 283.969812)">2</text>
     </g>
    </g>
    <g id="xtick_3">
     <g id="line2d_5">
      <path d="M 216.837581 273.312 
L 216.837581 7.2 
" clip-path="url(#p9b568b71a7)" style="fill: none; stroke: #e0e0e0; stroke-opacity: 0.7; stroke-width: 0.8; stroke-linecap: square"/>
     </g>
     <g id="line2d_6">
      <g>
       <use xlink:href="#ma998b2a403" x="216.837581" y="273.312" style="stroke: #000000; stroke-width: 0.8"/>
      </g>
     </g>
     <g id="text_3">
      <text style="font: 10px 'Helvetica', 'Arial', sans-serif; text-anchor: middle" x="216.837581" y="283.969812" transform="rotate(-0 216.837581 283.969812)">3</text>
     </g>
    </g>
    <g id="xtick_4">
     <g id="line2d_7">
      <path d="M 294.879539 273.312 
L 294.879539 7.2 
" clip-path="url(#p9b568b71a7)" style="fill: none; stroke: #e0e0e0; stroke-opacity: 0.7; stroke-width: 0.8; stroke-linecap: square"/>
     </g>
     <g id="line2d_8">
      <g>
       <use xlink:href="#ma998b2a403" x="294.879539" y="273.312" style="stroke: #000000; stroke-width: 0.8"/>
      </g>
     </g>
     <g id="text_4">
      <text style="font: 10px 'Helvetica', 'Arial', sans-serif; text-anchor: middle" x="294.879539" y="283.969812" transform="rotate(-0 294.879539 283.969812)">4</text>
     </g>
    </g>
    <g id="xtick_5">
     <g id="line2d_9">
      <path d="M 372.921497 273.312 
L 372.921497 7.2 
" clip-path="url(#p9b568b71a7)" style="fill: none; stroke: #e0e0e0; stroke-opacity: 0.7; stroke-width: 0.8; stroke-linecap: square"/>
     </g>
     <g id="line2d_10">
      <g>
       <use xlink:href="#ma998b2a403" x="372.921497" y="273.312" style="stroke: #000000; stroke-width: 0.8"/>
      </g>
     </g>
     <g id="text_5">
      <text style="font: 10px 'Helvetica', 'Arial', sans-serif; text-anchor: middle" x="372.921497" y="283.969812" transform="rotate(-0 372.921497 283.969812)">5</text>
     </g>
    </g>
    <g id="text_6">
     <text style="font: 14px 'Helvetica', 'Arial', sans-serif; text-anchor: middle" x="223.080938" y="300.148875" transform="rotate(-0 223.080938 300.148875)">Wavelength Count</text>
    </g>
   </g>
   <g id="matplotlib.axis_2">
    <g id="ytick_1">
     <g id="line2d_11">
      <path d="M 44.520938 273.312 
L 401.640938 273.312 
" clip-path="url(#p9b568b71a7)" style="fill: none; stroke: #e0e0e0; stroke-opacity: 0.7; stroke-width: 0.8; stroke-linecap: square"/>
     </g>
     <g id="line2d_12">
      <defs>
       <path id="m24f8c1ac0b" d="M 0 0 
L 4 0 
" style="stroke: #000000; stroke-width: 0.8"/>
      </defs>
      <g>
       <use xlink:href="#m24f8c1ac0b" x="44.520938" y="273.312" style="stroke: #000000; stroke-width: 0.8"/>
      </g>
     </g>
     <g id="text_7">
      <text style="font: 10px 'Helvetica', 'Arial', sans-serif; text-anchor: end" x="41.020938" y="276.890906" transform="rotate(-0 41.020938 276.890906)">0</text>
     </g>
    </g>
    <g id="ytick_2">
     <g id="line2d_13">
      <path d="M 44.520938 230.610402 
L 401.640938 230.610402 
" clip-path="url(#p9b568b71a7)" style="fill: none; stroke: #e0e0e0; stroke-opacity: 0.7; stroke-width: 0.8; stroke-linecap: square"/>
     </g>
     <g id="line2d_14">
      <g>
       <use xlink:href="#m24f8c1ac0b" x="44.520938" y="230.610402" style="stroke: #000000; stroke-width: 0.8"/>
      </g>
     </g>
     <g id="text_8">
      <text style="font: 10px 'Helvetica', 'Arial', sans-serif; text-anchor: end" x="41.020938" y="234.189308" transform="rotate(-0 41.020938 234.189308)">20</text>
     </g>
    </g>
    <g id="ytick_3">
     <g id="line2d_15">
      <path d="M 44.520938 187.908804 
L 401.640938 187.908804 
" clip-path="url(#p9b568b71a7)" style="fill: none; stroke: #e0e0e0; stroke-opacity: 0.7; stroke-width: 0.8; stroke-linecap: square"/>
     </g>
     <g id="line2d_16">
      <g>
       <use xlink:href="#m24f8c1ac0b" x="44.520938" y="187.908804" style="stroke: #000000; stroke-width: 0.8"/>
      </g>
     </g>
     <g id="text_9">
      <text style="font: 10px 'Helvetica', 'Arial', sans-serif; text-anchor: end" x="41.020938" y="191.48771" transform="rotate(-0 41.020938 191.48771)">40</text>
     </g>
    </g>
    <g id="ytick_4">
     <g id="line2d_17">
      <path d="M 44.520938 145.207206 
L 401.640938 145.207206 
" clip-path="url(#p9b568b71a7)" style="fill: none; stroke: #e0e0e0; stroke-opacity: 0.7; stroke-width: 0.8; stroke-linecap: square"/>
     </g>
     <g id="line2d_18">
      <g>
       <use xlink:href="#m24f8c1ac0b" x="44.520938" y="145.207206" style="stroke: #000000; stroke-width: 0.8"/>
      </g>
     </g>
     <g id="text_10">
      <text style="font: 10px 'Helvetica', 'Arial', sans-serif; text-anchor: end" x="41.020938" y="148.786112" transform="rotate(-0 41.020938 148.786112)">60</text>
     </g>
    </g>
    <g id="ytick_5">
     <g id="line2d_19">
      <path d="M 44.520938 102.505608 
L 401.640938 102.505608 
" clip-path="url(#p9b568b71a7)" style="fill: none; stroke: #e0e0e0; stroke-opacity: 0.7; stroke-width: 0.8; stroke-linecap: square"/>
     </g>
     <g id="line2d_20">
      <g>
       <use xlink:href="#m24f8c1ac0b" x="44.520938" y="102.505608" style="stroke: #000000; stroke-width: 0.8"/>
      </g>
     </g>
     <g id="text_11">
      <text style="font: 10px 'Helvetica', 'Arial', sans-serif; text-anchor: end" x="41.020938" y="106.084514" transform="rotate(-0 41.020938 106.084514)">80</text>
     </g>
    </g>
    <g id="ytick_6">
     <g id="line2d_21">
      <path d="M 44.520938 59.80401 
L 401.640938 59.80401 
" clip-path="url(#p9b568b71a7)" style="fill: none; stroke: #e0e0e0; stroke-opacity: 0.7; stroke-width: 0.8; stroke-linecap: square"/>
     </g>
     <g id="line2d_22">
      <g>
       <use xlink:href="#m24f8c1ac0b" x="44.520938" y="59.80401" style="stroke: #000000; stroke-width: 0.8"/>
      </g>
     </g>
     <g id="text_12">
      <text style="font: 10px 'Helvetica', 'Arial', sans-serif; text-anchor: end" x="41.020938" y="63.382917" transform="rotate(-0 41.020938 63.382917)">100</text>
     </g>
    </g>
    <g id="ytick_7">
     <g id="line2d_23">
      <path d="M 44.520938 17.102412 
L 401.640938 17.102412 
" clip-path="url(#p9b568b71a7)" style="fill: none; stroke: #e0e0e0; stroke-opacity: 0.7; stroke-width: 0.8; stroke-linecap: square"/>
     </g>
     <g id="line2d_24">
      <g>
       <use xlink:href="#m24f8c1ac0b" x="44.520938" y="17.102412" style="stroke: #000000; stroke-width: 0.8"/>
      </g>
     </g>
     <g id="text_13">
      <text style="font: 10px 'Helvetica', 'Arial', sans-serif; text-anchor: end" x="41.020938" y="20.681319" transform="rotate(-0 41.020938 20.681319)">120</text>
     </g>
    </g>
    <g id="text_14">
     <text style="font: 14px 'Helvetica', 'Arial', sans-serif; text-anchor: middle" x="17.391563" y="140.256" transform="rotate(-90 17.391563 140.256)">Test Error (MAE % Saturation)</text>
    </g>
   </g>
   <g id="LineCollection_1">
    <path d="M 60.753665 155.853554 
L 60.753665 87.439734 
" clip-path="url(#p9b568b71a7)" style="fill: none; stroke: #2d3047"/>
    <path d="M 138.795623 209.277833 
L 138.795623 178.518227 
" clip-path="url(#p9b568b71a7)" style="fill: none; stroke: #2d3047"/>
    <path d="M 216.837581 162.659352 
L 216.837581 122.481513 
" clip-path="url(#p9b568b71a7)" style="fill: none; stroke: #2d3047"/>
    <path d="M 294.879539 216.390551 
L 294.879539 202.215335 
" clip-path="url(#p9b568b71a7)" style="fill: none; stroke: #2d3047"/>
    <path d="M 372.921497 264.398061 
L 372.921497 260.483404 
" clip-path="url(#p9b568b71a7)" style="fill: none; stroke: #2d3047"/>
   </g>
   <g id="line2d_25">
    <defs>
     <path id="m7ff6dd4b91" d="M 3 0 
L -3 -0 
" style="stroke: #2d3047"/>
    </defs>
    <g clip-path="url(#p9b568b71a7)">
     <use xlink:href="#m7ff6dd4b91" x="60.753665" y="155.853554" style="fill: #2d3047; stroke: #2d3047"/>
     <use xlink:href="#m7ff6dd4b91" x="138.795623" y="209.277833" style="fill: #2d3047; stroke: #2d3047"/>
     <use xlink:href="#m7ff6dd4b91" x="216.837581" y="162.659352" style="fill: #2d3047; stroke: #2d3047"/>
     <use xlink:href="#m7ff6dd4b91" x="294.879539" y="216.390551" style="fill: #2d3047; stroke: #2d3047"/>
     <use xlink:href="#m7ff6dd4b91" x="372.921497" y="264.398061" style="fill: #2d3047; stroke: #2d3047"/>
    </g>
   </g>
   <g id="line2d_26">
    <g clip-path="url(#p9b568b71a7)">
     <use xlink:href="#m7ff6dd4b91" x="60.753665" y="87.439734" style="fill: #2d3047; stroke: #2d3047"/>
     <use xlink:href="#m7ff6dd4b91" x="138.795623" y="178.518227" style="fill: #2d3047; stroke: #2d3047"/>
     <use xlink:href="#m7ff6dd4b91" x="216.837581" y="122.481513" style="fill: #2d3047; stroke: #2d3047"/>
     <use xlink:href="#m7ff6dd4b91" x="294.879539" y="202.215335" style="fill: #2d3047; stroke: #2d3047"/>
     <use xlink:href="#m7ff6dd4b91" x="372.921497" y="260.483404" style="fill: #2d3047; stroke: #2d3047"/>
    </g>
   </g>
   <g id="LineCollection_2">
    <path d="M 66.997021 155.853554 
L 66.997021 87.439734 
" clip-path="url(#p9b568b71a7)" style="fill: none; stroke: #d1345b"/>
    <path d="M 145.038979 104.858138 
L 145.038979 19.447527 
" clip-path="url(#p9b568b71a7)" style="fill: none; stroke: #d1345b"/>
    <path d="M 223.080938 162.659352 
L 223.080938 122.481513 
" clip-path="url(#p9b568b71a7)" style="fill: none; stroke: #d1345b"/>
    <path d="M 301.122896 216.390551 
L 301.122896 202.215335 
" clip-path="url(#p9b568b71a7)" style="fill: none; stroke: #d1345b"/>
    <path d="M 379.164854 264.398061 
L 379.164854 260.483404 
" clip-path="url(#p9b568b71a7)" style="fill: none; stroke: #d1345b"/>
   </g>
   <g id="line2d_27">
    <defs>
     <path id="m7fddca2888" d="M 3 0 
L -3 -0 
" style="stroke: #d1345b"/>
    </defs>
    <g clip-path="url(#p9b568b71a7)">
     <use xlink:href="#m7fddca2888" x="66.997021" y="155.853554" style="fill: #d1345b; stroke: #d1345b"/>
     <use xlink:href="#m7fddca2888" x="145.038979" y="104.858138" style="fill: #d1345b; stroke: #d1345b"/>
     <use xlink:href="#m7fddca2888" x="223.080938" y="162.659352" style="fill: #d1345b; stroke: #d1345b"/>
     <use xlink:href="#m7fddca2888" x="301.122896" y="216.390551" style="fill: #d1345b; stroke: #d1345b"/>
     <use xlink:href="#m7fddca2888" x="379.164854" y="264.398061" style="fill: #d1345b; stroke: #d1345b"/>
    </g>
   </g>
   <g id="line2d_28">
    <g clip-path="url(#p9b568b71a7)">
     <use xlink:href="#m7fddca2888" x="66.997021" y="87.439734" style="fill: #d1345b; stroke: #d1345b"/>
     <use xlink:href="#m7fddca2888" x="145.038979" y="19.447527" style="fill: #d1345b; stroke: #d1345b"/>
     <use xlink:href="#m7fddca2888" x="223.080938" y="122.481513" style="fill: #d1345b; stroke: #d1345b"/>
     <use xlink:href="#m7fddca2888" x="301.122896" y="202.215335" style="fill: #d1345b; stroke: #d1345b"/>
     <use xlink:href="#m7fddca2888" x="379.164854" y="260.483404" style="fill: #d1345b; stroke: #d1345b"/>
    </g>
   </g>
   <g id="LineCollection_3">
    <path d="M 73.240378 208.370123 
L 73.240378 201.849093 
" clip-path="url(#p9b568b71a7)" style="fill: none; stroke: #ff9b71"/>
    <path d="M 151.282336 178.792255 
L 151.282336 152.336343 
" clip-path="url(#p9b568b71a7)" style="fill: none; stroke: #ff9b71"/>
    <path d="M 229.324294 242.462104 
L 229.324294 229.56151 
" clip-path="url(#p9b568b71a7)" style="fill: none; stroke: #ff9b71"/>
    <path d="M 307.366252 216.390551 
L 307.366252 202.215335 
" clip-path="url(#p9b568b71a7)" style="fill: none; stroke: #ff9b71"/>
    <path d="M 385.40821 264.398061 
L 385.40821 260.483404 
" clip-path="url(#p9b568b71a7)" style="fill: none; stroke: #ff9b71"/>
   </g>
   <g id="line2d_29">
    <defs>
     <path id="m3148983d74" d="M 3 0 
L -3 -0 
" style="stroke: #ff9b71"/>
    </defs>
    <g clip-path="url(#p9b568b71a7)">
     <use xlink:href="#m3148983d74" x="73.240378" y="208.370123" style="fill: #ff9b71; stroke: #ff9b71"/>
     <use xlink:href="#m3148983d74" x="151.282336" y="178.792255" style="fill: #ff9b71; stroke: #ff9b71"/>
     <use xlink:href="#m3148983d74" x="229.324294" y="242.462104" style="fill: #ff9b71; stroke: #ff9b71"/>
     <use xlink:href="#m3148983d74" x="307.366252" y="216.390551" style="fill: #ff9b71; stroke: #ff9b71"/>
     <use xlink:href="#m3148983d74" x="385.40821" y="264.398061" style="fill: #ff9b71; stroke: #ff9b71"/>
    </g>
   </g>
   <g id="line2d_30">
    <g clip-path="url(#p9b568b71a7)">
     <use xlink:href="#m3148983d74" x="73.240378" y="201.849093" style="fill: #ff9b71; stroke: #ff9b71"/>
     <use xlink:href="#m3148983d74" x="151.282336" y="152.336343" style="fill: #ff9b71; stroke: #ff9b71"/>
     <use xlink:href="#m3148983d74" x="229.324294" y="229.56151" style="fill: #ff9b71; stroke: #ff9b71"/>
     <use xlink:href="#m3148983d74" x="307.366252" y="202.215335" style="fill: #ff9b71; stroke: #ff9b71"/>
     <use xlink:href="#m3148983d74" x="385.40821" y="260.483404" style="fill: #ff9b71; stroke: #ff9b71"/>
    </g>
   </g>
   <g id="line2d_31">
    <path d="M 60.753665 121.646644 
L 138.795623 193.89803 
L 216.837581 142.570433 
L 294.879539 209.302943 
L 372.921497 262.440732 
" clip-path="url(#p9b568b71a7)" style="fill: none; stroke: #2d3047; stroke-width: 1.6; stroke-linecap: square"/>
    <defs>
     <path id="md1b5d6a98c" d="M 0 3 
C 0.795609 3 1.55874 2.683901 2.12132 2.12132 
C 2.683901 1.55874 3 0.795609 3 0 
C 3 -0.795609 2.683901 -1.55874 2.12132 -2.12132 
C 1.55874 -2.683901 0.795609 -3 0 -3 
C -0.795609 -3 -1.55874 -2.683901 -2.12132 -2.12132 
C -2.683901 -1.55874 -3 -0.795609 -3 0 
C -3 0.795609 -2.683901 1.55874 -2.12132 2.12132 
C -1.55874 2.683901 -0.795609 3 0 3 
z
" style="stroke: #2d3047"/>
    </defs>
    <g clip-path="url(#p9b568b71a7)">
     <use xlink:href="#md1b5d6a98c" x="60.753665" y="121.646644" style="fill: #2d3047; stroke: #2d3047"/>
     <use xlink:href="#md1b5d6a98c" x="138.795623" y="193.89803" style="fill: #2d3047; stroke: #2d3047"/>
     <use xlink:href="#md1b5d6a98c" x="216.837581" y="142.570433" style="fill: #2d3047; stroke: #2d3047"/>
     <use xlink:href="#md1b5d6a98c" x="294.879539" y="209.302943" style="fill: #2d3047; stroke: #2d3047"/>
     <use xlink:href="#md1b5d6a98c" x="372.921497" y="262.440732" style="fill: #2d3047; stroke: #2d3047"/>
    </g>
   </g>
   <g id="line2d_32">
    <path d="M 66.997021 121.646644 
L 145.038979 62.152832 
L 223.080938 142.570433 
L 301.122896 209.302943 
L 379.164854 262.440732 
" clip-path="url(#p9b568b71a7)" style="fill: none; stroke: #d1345b; stroke-width: 1.6; stroke-linecap: square"/>
    <defs>
     <path id="m5b5794b9c3" d="M 0 3 
C 0.795609 3 1.55874 2.683901 2.12132 2.12132 
C 2.683901 1.55874 3 0.795609 3 0 
C 3 -0.795609 2.683901 -1.55874 2.12132 -2.12132 
C 1.55874 -2.683901 0.795609 -3 0 -3 
C -0.795609 -3 -1.55874 -2.683901 -2.12132 -2.12132 
C -2.683901 -1.55874 -3 -0.795609 -3 0 
C -3 0.795609 -2.683901 1.55874 -2.12132 2.12132 
C -1.55874 2.683901 -0.795609 3 0 3 
z
" style="stroke: #d1345b"/>
    </defs>
    <g clip-path="url(#p9b568b71a7)">
     <use xlink:href="#m5b5794b9c3" x="66.997021" y="121.646644" style="fill: #d1345b; stroke: #d1345b"/>
     <use xlink:href="#m5b5794b9c3" x="145.038979" y="62.152832" style="fill: #d1345b; stroke: #d1345b"/>
     <use xlink:href="#m5b5794b9c3" x="223.080938" y="142.570433" style="fill: #d1345b; stroke: #d1345b"/>
     <use xlink:href="#m5b5794b9c3" x="301.122896" y="209.302943" style="fill: #d1345b; stroke: #d1345b"/>
     <use xlink:href="#m5b5794b9c3" x="379.164854" y="262.440732" style="fill: #d1345b; stroke: #d1345b"/>
    </g>
   </g>
   <g id="line2d_33">
    <path d="M 73.240378 205.109608 
L 151.282336 165.564299 
L 229.324294 236.011807 
L 307.366252 209.302943 
L 385.40821 262.440732 
" clip-path="url(#p9b568b71a7)" style="fill: none; stroke: #ff9b71; stroke-width: 1.6; stroke-linecap: square"/>
    <defs>
     <path id="m3c26ac3eca" d="M 0 3 
C 0.795609 3 1.55874 2.683901 2.12132 2.12132 
C 2.683901 1.55874 3 0.795609 3 0 
C 3 -0.795609 2.683901 -1.55874 2.12132 -2.12132 
C 1.55874 -2.683901 0.795609 -3 0 -3 
C -0.795609 -3 -1.55874 -2.683901 -2.12132 -2.12132 
C -2.683901 -1.55874 -3 -0.795609 -3 0 
C -3 0.795609 -2.683901 1.55874 -2.12132 2.12132 
C -1.55874 2.683901 -0.795609 3 0 3 
z
" style="stroke: #ff9b71"/>
    </defs>
    <g clip-path="url(#p9b568b71a7)">
     <use xlink:href="#m3c26ac3eca" x="73.240378" y="205.109608" style="fill: #ff9b71; stroke: #ff9b71"/>
     <use xlink:href="#m3c26ac3eca" x="151.282336" y="165.564299" style="fill: #ff9b71; stroke: #ff9b71"/>
     <use xlink:href="#m3c26ac3eca" x="229.324294" y="236.011807" style="fill: #ff9b71; stroke: #ff9b71"/>
     <use xlink:href="#m3c26ac3eca" x="307.366252" y="209.302943" style="fill: #ff9b71; stroke: #ff9b71"/>
     <use xlink:href="#m3c26ac3eca" x="385.40821" y="262.440732" style="fill: #ff9b71; stroke: #ff9b71"/>
    </g>
   </g>
   <g id="patch_3">
    <path d="M 44.520938 273.312 
L 44.520938 7.2 
" style="fill: none; stroke: #000000; stroke-width: 0.8; stroke-linejoin: miter; stroke-linecap: square"/>
   </g>
   <g id="patch_4">
    <path d="M 401.640938 273.312 
L 401.640938 7.2 
" style="fill: none; stroke: #000000; stroke-width: 0.8; stroke-linejoin: miter; stroke-linecap: square"/>
   </g>
   <g id="patch_5">
    <path d="M 44.520938 273.312 
L 401.640938 273.312 
" style="fill: none; stroke: #000000; stroke-width: 0.8; stroke-linejoin: miter; stroke-linecap: square"/>
   </g>
   <g id="patch_6">
    <path d="M 44.520938 7.2 
L 401.640938 7.2 
" style="fill: none; stroke: #000000; stroke-width: 0.8; stroke-linejoin: miter; stroke-linecap: square"/>
   </g>
   <g id="legend_1">
    <g id="patch_7">
     <path d="M 333.74875 57.635937 
L 394.640938 57.635937 
Q 396.640938 57.635937 396.640938 55.635937 
L 396.640938 14.2 
Q 396.640938 12.2 394.640938 12.2 
L 333.74875 12.2 
Q 331.74875 12.2 331.74875 14.2 
L 331.74875 55.635937 
Q 331.74875 57.635937 333.74875 57.635937 
z
" style="fill: #ffffff; opacity: 0.8"/>
    </g>
    <g id="LineCollection_4">
     <path d="M 345.74875 24.857812 
L 345.74875 14.857812 
" style="fill: none; stroke: #2d3047"/>
    </g>
    <g id="line2d_34">
     <g>
      <use xlink:href="#m7ff6dd4b91" x="345.74875" y="24.857812" style="fill: #2d3047; stroke: #2d3047"/>
     </g>
    </g>
    <g id="line2d_35">
     <g>
      <use xlink:href="#m7ff6dd4b91" x="345.74875" y="14.857812" style="fill: #2d3047; stroke: #2d3047"/>
     </g>
    </g>
    <g id="line2d_36">
     <path d="M 335.74875 19.857812 
L 355.74875 19.857812 
" style="fill: none; stroke: #2d3047; stroke-width: 1.6; stroke-linecap: square"/>
    </g>
    <g id="line2d_37">
     <g>
      <use xlink:href="#md1b5d6a98c" x="345.74875" y="19.857812" style="fill: #2d3047; stroke: #2d3047"/>
     </g>
    </g>
    <g id="text_15">
     <text style="font: 10px 'Helvetica', 'Arial', sans-serif; text-anchor: start" x="363.74875" y="23.357812" transform="rotate(-0 363.74875 23.357812)">OURS</text>
    </g>
    <g id="LineCollection_5">
     <path d="M 345.74875 39.003125 
L 345.74875 29.003125 
" style="fill: none; stroke: #d1345b"/>
    </g>
    <g id="line2d_38">
     <g>
      <use xlink:href="#m7fddca2888" x="345.74875" y="39.003125" style="fill: #d1345b; stroke: #d1345b"/>
     </g>
    </g>
    <g id="line2d_39">
     <g>
      <use xlink:href="#m7fddca2888" x="345.74875" y="29.003125" style="fill: #d1345b; stroke: #d1345b"/>
     </g>
    </g>
    <g id="line2d_40">
     <path d="M 335.74875 34.003125 
L 355.74875 34.003125 
" style="fill: none; stroke: #d1345b; stroke-width: 1.6; stroke-linecap: square"/>
    </g>
    <g id="line2d_41">
     <g>
      <use xlink:href="#m5b5794b9c3" x="345.74875" y="34.003125" style="fill: #d1345b; stroke: #d1345b"/>
     </g>
    </g>
    <g id="text_16">
     <text style="font: 10px 'Helvetica', 'Arial', sans-serif; text-anchor: start" x="363.74875" y="37.503125" transform="rotate(-0 363.74875 37.503125)">PFI</text>
    </g>
    <g id="LineCollection_6">
     <path d="M 345.74875 53.148437 
L 345.74875 43.148437 
" style="fill: none; stroke: #ff9b71"/>
    </g>
    <g id="line2d_42">
     <g>
      <use xlink:href="#m3148983d74" x="345.74875" y="53.148437" style="fill: #ff9b71; stroke: #ff9b71"/>
     </g>
    </g>
    <g id="line2d_43">
     <g>
      <use xlink:href="#m3148983d74" x="345.74875" y="43.148437" style="fill: #ff9b71; stroke: #ff9b71"/>
     </g>
    </g>
    <g id="line2d_44">
     <path d="M 335.74875 48.148437 
L 355.74875 48.148437 
" style="fill: none; stroke: #ff9b71; stroke-width: 1.6; stroke-linecap: square"/>
    </g>
    <g id="line2d_45">
     <g>
      <use xlink:href="#m3c26ac3eca" x="345.74875" y="48.148437" style="fill: #ff9b71; stroke: #ff9b71"/>
     </g>
    </g>
    <g id="text_17">
     <text style="font: 10px 'Helvetica', 'Arial', sans-serif; text-anchor: start" x="363.74875" y="51.648437" transform="rotate(-0 363.74875 51.648437)">SAGE</text>
    </g>
   </g>
  </g>
 </g>
 <defs>
  <clipPath id="p9b568b71a7">
   <rect x="44.520938" y="7.2" width="357.12" height="266.112"/>
  </clipPath>
 </defs>
</svg>
