<?xml version="1.0" encoding="utf-8" standalone="no"?>
<!DOCTYPE svg PUBLIC "-//W3C//DTD SVG 1.1//EN"
  "http://www.w3.org/Graphics/SVG/1.1/DTD/svg11.dtd">
<svg xmlns:xlink="http://www.w3.org/1999/xlink" width="403.315pt" height="310.683562pt" viewBox="0 0 403.315 310.683562" xmlns="http://www.w3.org/2000/svg" version="1.1">
 <metadata>
  <rdf:RDF xmlns:dc="http://purl.org/dc/elements/1.1/" xmlns:cc="http://creativecommons.org/ns#" xmlns:rdf="http://www.w3.org/1999/02/22-rdf-syntax-ns#">
   <cc:Work>
    <dc:type rdf:resource="http://purl.org/dc/dcmitype/StillImage"/>
    <dc:date>2026-05-03T16:55:18.665401</dc:date>
    <dc:format>image/svg+xml</dc:format>
    <dc:creator>
     <cc:Agent>
      <dc:title>Matplotlib v3.10.8, https://matplotlib.org/</dc:title>
     </cc:Agent>
    </dc:creator>
   </cc:Work>
  </rdf:RDF>
 </metadata>
 <defs>
  <style type="text/css">*{stroke-linejoin: round; stroke-linecap: butt}</style>
 </defs>
 <g id="figure_1">
  <g id="patch_1">
   <path d="M 0 310.683562 
L 403.315 310.683562 
L 403.315 0 
L 0 0 
z
" style="fill: #ffffff"/>
  </g>
  <g id="axes_1">
   <g id="patch_2">
    <path d="M 38.995 273.312 
L 396.115 273.312 
L 396.115 7.2 
L 38.995 7.2 
z
" style="fill: #ffffff"/>
   </g>
   <g id="matplotlib.axis_1">
    <g id="xtick_1">
     <g id="line2d_1">
      <path d="M 55.227727 273.312 
L 55.227727 7.2 
" clip-path="url(#p4545480595)" style="fill: none; stroke: #e0e0e0; stroke-opacity: 0.7; stroke-width: 0.8; stroke-linecap: square"/>
     </g>
     <g id="line2d_2">
      <defs>
       <path id="m01ec925314" d="M 0 0 
L 0 -4 
" style="stroke: #000000; stroke-width: 0.8"/>
      </defs>
      <g>
       <use xlink:href="#m01ec925314" x="55.227727" y="273.312" style="stroke: #000000; stroke-width: 0.8"/>
      </g>
     </g>
     <g id="text_1">
      <text style="font-size: 10px; font-family: 'Helvetica', 'Arial', sans-serif; text-anchor: middle" x="55.227727" y="283.985437" transform="rotate(-0 55.227727 283.985437)">1</text>
     </g>
    </g>
    <g id="xtick_2">
     <g id="line2d_3">
      <path d="M 209.82513 273.312 
L 209.82513 7.2 
" clip-path="url(#p4545480595)" style="fill: none; stroke: #e0e0e0; stroke-opacity: 0.7; stroke-width: 0.8; stroke-linecap: square"/>
     </g>
     <g id="line2d_4">
      <g>
       <use xlink:href="#m01ec925314" x="209.82513" y="273.312" style="stroke: #000000; stroke-width: 0.8"/>
      </g>
     </g>
     <g id="text_2">
      <text style="font-size: 10px; font-family: 'Helvetica', 'Arial', sans-serif; text-anchor: middle" x="209.82513" y="283.985437" transform="rotate(-0 209.82513 283.985437)">2</text>
     </g>
    </g>
    <g id="xtick_3">
     <g id="line2d_5">
      <path d="M 364.422532 273.312 
L 364.422532 7.2 
" clip-path="url(#p4545480595)" style="fill: none; stroke: #e0e0e0; stroke-opacity: 0.7; stroke-width: 0.8; stroke-linecap: square"/>
     </g>
     <g id="line2d_6">
      <g>
       <use xlink:href="#m01ec925314" x="364.422532" y="273.312" style="stroke: #000000; stroke-width: 0.8"/>
      </g>
     </g>
     <g id="text_3">
      <text style="font-size: 10px; font-family: 'Helvetica', 'Arial', sans-serif; text-anchor: middle" x="364.422532" y="283.985437" transform="rotate(-0 364.422532 283.985437)">3</text>
     </g>
    </g>
    <g id="text_4">
     <text style="font-size: 14px; font-family: 'Helvetica', 'Arial', sans-serif; text-anchor: middle" x="217.555" y="300.386062" transform="rotate(-0 217.555 300.386062)">Wavelength Count</text>
    </g>
   </g>
   <g id="matplotlib.axis_2">
    <g id="ytick_1">
     <g id="line2d_7">
      <path d="M 38.995 242.317959 
L 396.115 242.317959 
" clip-path="url(#p4545480595)" style="fill: none; stroke: #e0e0e0; stroke-opacity: 0.7; stroke-width: 0.8; stroke-linecap: square"/>
     </g>
     <g id="line2d_8">
      <defs>
       <path id="mbf090b39a5" d="M 0 0 
L 4 0 
" style="stroke: #000000; stroke-width: 0.8"/>
      </defs>
      <g>
       <use xlink:href="#mbf090b39a5" x="38.995" y="242.317959" style="stroke: #000000; stroke-width: 0.8"/>
      </g>
     </g>
     <g id="text_5">
      <text style="font-size: 10px; font-family: 'Helvetica', 'Arial', sans-serif; text-anchor: end" x="35.495" y="245.904678" transform="rotate(-0 35.495 245.904678)">4</text>
     </g>
    </g>
    <g id="ytick_2">
     <g id="line2d_9">
      <path d="M 38.995 209.688341 
L 396.115 209.688341 
" clip-path="url(#p4545480595)" style="fill: none; stroke: #e0e0e0; stroke-opacity: 0.7; stroke-width: 0.8; stroke-linecap: square"/>
     </g>
     <g id="line2d_10">
      <g>
       <use xlink:href="#mbf090b39a5" x="38.995" y="209.688341" style="stroke: #000000; stroke-width: 0.8"/>
      </g>
     </g>
     <g id="text_6">
      <text style="font-size: 10px; font-family: 'Helvetica', 'Arial', sans-serif; text-anchor: end" x="35.495" y="213.27506" transform="rotate(-0 35.495 213.27506)">5</text>
     </g>
    </g>
    <g id="ytick_3">
     <g id="line2d_11">
      <path d="M 38.995 177.058724 
L 396.115 177.058724 
" clip-path="url(#p4545480595)" style="fill: none; stroke: #e0e0e0; stroke-opacity: 0.7; stroke-width: 0.8; stroke-linecap: square"/>
     </g>
     <g id="line2d_12">
      <g>
       <use xlink:href="#mbf090b39a5" x="38.995" y="177.058724" style="stroke: #000000; stroke-width: 0.8"/>
      </g>
     </g>
     <g id="text_7">
      <text style="font-size: 10px; font-family: 'Helvetica', 'Arial', sans-serif; text-anchor: end" x="35.495" y="180.645442" transform="rotate(-0 35.495 180.645442)">6</text>
     </g>
    </g>
    <g id="ytick_4">
     <g id="line2d_13">
      <path d="M 38.995 144.429106 
L 396.115 144.429106 
" clip-path="url(#p4545480595)" style="fill: none; stroke: #e0e0e0; stroke-opacity: 0.7; stroke-width: 0.8; stroke-linecap: square"/>
     </g>
     <g id="line2d_14">
      <g>
       <use xlink:href="#mbf090b39a5" x="38.995" y="144.429106" style="stroke: #000000; stroke-width: 0.8"/>
      </g>
     </g>
     <g id="text_8">
      <text style="font-size: 10px; font-family: 'Helvetica', 'Arial', sans-serif; text-anchor: end" x="35.495" y="148.015825" transform="rotate(-0 35.495 148.015825)">7</text>
     </g>
    </g>
    <g id="ytick_5">
     <g id="line2d_15">
      <path d="M 38.995 111.799488 
L 396.115 111.799488 
" clip-path="url(#p4545480595)" style="fill: none; stroke: #e0e0e0; stroke-opacity: 0.7; stroke-width: 0.8; stroke-linecap: square"/>
     </g>
     <g id="line2d_16">
      <g>
       <use xlink:href="#mbf090b39a5" x="38.995" y="111.799488" style="stroke: #000000; stroke-width: 0.8"/>
      </g>
     </g>
     <g id="text_9">
      <text style="font-size: 10px; font-family: 'Helvetica', 'Arial', sans-serif; text-anchor: end" x="35.495" y="115.386207" transform="rotate(-0 35.495 115.386207)">8</text>
     </g>
    </g>
    <g id="ytick_6">
     <g id="line2d_17">
      <path d="M 38.995 79.169871 
L 396.115 79.169871 
" clip-path="url(#p4545480595)" style="fill: none; stroke: #e0e0e0; stroke-opacity: 0.7; stroke-width: 0.8; stroke-linecap: square"/>
     </g>
     <g id="line2d_18">
      <g>
       <use xlink:href="#mbf090b39a5" x="38.995" y="79.169871" style="stroke: #000000; stroke-width: 0.8"/>
      </g>
     </g>
     <g id="text_10">
      <text style="font-size: 10px; font-family: 'Helvetica', 'Arial', sans-serif; text-anchor: end" x="35.495" y="82.75659" transform="rotate(-0 35.495 82.75659)">9</text>
     </g>
    </g>
    <g id="ytick_7">
     <g id="line2d_19">
      <path d="M 38.995 46.540253 
L 396.115 46.540253 
" clip-path="url(#p4545480595)" style="fill: none; stroke: #e0e0e0; stroke-opacity: 0.7; stroke-width: 0.8; stroke-linecap: square"/>
     </g>
     <g id="line2d_20">
      <g>
       <use xlink:href="#mbf090b39a5" x="38.995" y="46.540253" style="stroke: #000000; stroke-width: 0.8"/>
      </g>
     </g>
     <g id="text_11">
      <text style="font-size: 10px; font-family: 'Helvetica', 'Arial', sans-serif; text-anchor: end" x="35.495" y="50.126972" transform="rotate(-0 35.495 50.126972)">10</text>
     </g>
    </g>
    <g id="ytick_8">
     <g id="line2d_21">
      <path d="M 38.995 13.910636 
L 396.115 13.910636 
" clip-path="url(#p4545480595)" style="fill: none; stroke: #e0e0e0; stroke-opacity: 0.7; stroke-width: 0.8; stroke-linecap: square"/>
     </g>
     <g id="line2d_22">
      <g>
       <use xlink:href="#mbf090b39a5" x="38.995" y="13.910636" style="stroke: #000000; stroke-width: 0.8"/>
      </g>
     </g>
     <g id="text_12">
      <text style="font-size: 10px; font-family: 'Helvetica', 'Arial', sans-serif; text-anchor: end" x="35.495" y="17.497354" transform="rotate(-0 35.495 17.497354)">11</text>
     </g>
    </g>
    <g id="text_13">
     <text style="font-size: 14px; font-family: 'Helvetica', 'Arial', sans-serif; text-anchor: middle" x="17.455" y="140.256" transform="rotate(-90 17.455 140.256)">Test MAE (%Saturation)</text>
    </g>
   </g>
   <g id="LineCollection_1">
    <path d="M 55.227727 233.416349 
L 55.227727 19.296 
" clip-path="url(#p4545480595)" style="fill: none; stroke: #2d3047"/>
    <path d="M 209.82513 255.955099 
L 209.82513 43.296407 
" clip-path="url(#p4545480595)" style="fill: none; stroke: #2d3047"/>
    <path d="M 364.422532 261.216 
L 364.422532 53.252436 
" clip-path="url(#p4545480595)" style="fill: none; stroke: #2d3047"/>
   </g>
   <g id="line2d_23">
    <defs>
     <path id="m3b4d1390d9" d="M 3 0 
L -3 -0 
" style="stroke: #2d3047"/>
    </defs>
    <g clip-path="url(#p4545480595)">
     <use xlink:href="#m3b4d1390d9" x="55.227727" y="233.416349" style="fill: #2d3047; stroke: #2d3047"/>
     <use xlink:href="#m3b4d1390d9" x="209.82513" y="255.955099" style="fill: #2d3047; stroke: #2d3047"/>
     <use xlink:href="#m3b4d1390d9" x="364.422532" y="261.216" style="fill: #2d3047; stroke: #2d3047"/>
    </g>
   </g>
   <g id="line2d_24">
    <g clip-path="url(#p4545480595)">
     <use xlink:href="#m3b4d1390d9" x="55.227727" y="19.296" style="fill: #2d3047; stroke: #2d3047"/>
     <use xlink:href="#m3b4d1390d9" x="209.82513" y="43.296407" style="fill: #2d3047; stroke: #2d3047"/>
     <use xlink:href="#m3b4d1390d9" x="364.422532" y="53.252436" style="fill: #2d3047; stroke: #2d3047"/>
    </g>
   </g>
   <g id="LineCollection_2">
    <path d="M 62.957597 233.416349 
L 62.957597 19.296 
" clip-path="url(#p4545480595)" style="fill: none; stroke: #d1345b"/>
    <path d="M 217.555 248.521518 
L 217.555 43.282382 
" clip-path="url(#p4545480595)" style="fill: none; stroke: #d1345b"/>
    <path d="M 372.152403 261.216 
L 372.152403 53.252436 
" clip-path="url(#p4545480595)" style="fill: none; stroke: #d1345b"/>
   </g>
   <g id="line2d_25">
    <defs>
     <path id="m24a01ab074" d="M 3 0 
L -3 -0 
" style="stroke: #d1345b"/>
    </defs>
    <g clip-path="url(#p4545480595)">
     <use xlink:href="#m24a01ab074" x="62.957597" y="233.416349" style="fill: #d1345b; stroke: #d1345b"/>
     <use xlink:href="#m24a01ab074" x="217.555" y="248.521518" style="fill: #d1345b; stroke: #d1345b"/>
     <use xlink:href="#m24a01ab074" x="372.152403" y="261.216" style="fill: #d1345b; stroke: #d1345b"/>
    </g>
   </g>
   <g id="line2d_26">
    <g clip-path="url(#p4545480595)">
     <use xlink:href="#m24a01ab074" x="62.957597" y="19.296" style="fill: #d1345b; stroke: #d1345b"/>
     <use xlink:href="#m24a01ab074" x="217.555" y="43.282382" style="fill: #d1345b; stroke: #d1345b"/>
     <use xlink:href="#m24a01ab074" x="372.152403" y="53.252436" style="fill: #d1345b; stroke: #d1345b"/>
    </g>
   </g>
   <g id="LineCollection_3">
    <path d="M 70.687468 233.416349 
L 70.687468 19.296 
" clip-path="url(#p4545480595)" style="fill: none; stroke: #ff9b71"/>
    <path d="M 225.28487 255.955099 
L 225.28487 43.296407 
" clip-path="url(#p4545480595)" style="fill: none; stroke: #ff9b71"/>
    <path d="M 379.882273 261.216 
L 379.882273 53.252436 
" clip-path="url(#p4545480595)" style="fill: none; stroke: #ff9b71"/>
   </g>
   <g id="line2d_27">
    <defs>
     <path id="m94c761682d" d="M 3 0 
L -3 -0 
" style="stroke: #ff9b71"/>
    </defs>
    <g clip-path="url(#p4545480595)">
     <use xlink:href="#m94c761682d" x="70.687468" y="233.416349" style="fill: #ff9b71; stroke: #ff9b71"/>
     <use xlink:href="#m94c761682d" x="225.28487" y="255.955099" style="fill: #ff9b71; stroke: #ff9b71"/>
     <use xlink:href="#m94c761682d" x="379.882273" y="261.216" style="fill: #ff9b71; stroke: #ff9b71"/>
    </g>
   </g>
   <g id="line2d_28">
    <g clip-path="url(#p4545480595)">
     <use xlink:href="#m94c761682d" x="70.687468" y="19.296" style="fill: #ff9b71; stroke: #ff9b71"/>
     <use xlink:href="#m94c761682d" x="225.28487" y="43.296407" style="fill: #ff9b71; stroke: #ff9b71"/>
     <use xlink:href="#m94c761682d" x="379.882273" y="53.252436" style="fill: #ff9b71; stroke: #ff9b71"/>
    </g>
   </g>
   <g id="line2d_29">
    <path d="M 55.227727 126.356174 
L 209.82513 149.625753 
L 364.422532 157.234218 
" clip-path="url(#p4545480595)" style="fill: none; stroke: #2d3047; stroke-width: 1.6; stroke-linecap: square"/>
    <defs>
     <path id="m30386c271e" d="M 0 3 
C 0.795609 3 1.55874 2.683901 2.12132 2.12132 
C 2.683901 1.55874 3 0.795609 3 0 
C 3 -0.795609 2.683901 -1.55874 2.12132 -2.12132 
C 1.55874 -2.683901 0.795609 -3 0 -3 
C -0.795609 -3 -1.55874 -2.683901 -2.12132 -2.12132 
C -2.683901 -1.55874 -3 -0.795609 -3 0 
C -3 0.795609 -2.683901 1.55874 -2.12132 2.12132 
C -1.55874 2.683901 -0.795609 3 0 3 
z
" style="stroke: #2d3047"/>
    </defs>
    <g clip-path="url(#p4545480595)">
     <use xlink:href="#m30386c271e" x="55.227727" y="126.356174" style="fill: #2d3047; stroke: #2d3047"/>
     <use xlink:href="#m30386c271e" x="209.82513" y="149.625753" style="fill: #2d3047; stroke: #2d3047"/>
     <use xlink:href="#m30386c271e" x="364.422532" y="157.234218" style="fill: #2d3047; stroke: #2d3047"/>
    </g>
   </g>
   <g id="line2d_30">
    <path d="M 62.957597 126.356174 
L 217.555 145.90195 
L 372.152403 157.234218 
" clip-path="url(#p4545480595)" style="fill: none; stroke: #d1345b; stroke-width: 1.6; stroke-linecap: square"/>
    <defs>
     <path id="m720995dc7d" d="M 0 3 
C 0.795609 3 1.55874 2.683901 2.12132 2.12132 
C 2.683901 1.55874 3 0.795609 3 0 
C 3 -0.795609 2.683901 -1.55874 2.12132 -2.12132 
C 1.55874 -2.683901 0.795609 -3 0 -3 
C -0.795609 -3 -1.55874 -2.683901 -2.12132 -2.12132 
C -2.683901 -1.55874 -3 -0.795609 -3 0 
C -3 0.795609 -2.683901 1.55874 -2.12132 2.12132 
C -1.55874 2.683901 -0.795609 3 0 3 
z
" style="stroke: #d1345b"/>
    </defs>
    <g clip-path="url(#p4545480595)">
     <use xlink:href="#m720995dc7d" x="62.957597" y="126.356174" style="fill: #d1345b; stroke: #d1345b"/>
     <use xlink:href="#m720995dc7d" x="217.555" y="145.90195" style="fill: #d1345b; stroke: #d1345b"/>
     <use xlink:href="#m720995dc7d" x="372.152403" y="157.234218" style="fill: #d1345b; stroke: #d1345b"/>
    </g>
   </g>
   <g id="line2d_31">
    <path d="M 70.687468 126.356174 
L 225.28487 149.625753 
L 379.882273 157.234218 
" clip-path="url(#p4545480595)" style="fill: none; stroke: #ff9b71; stroke-width: 1.6; stroke-linecap: square"/>
    <defs>
     <path id="m2f09237138" d="M 0 3 
C 0.795609 3 1.55874 2.683901 2.12132 2.12132 
C 2.683901 1.55874 3 0.795609 3 0 
C 3 -0.795609 2.683901 -1.55874 2.12132 -2.12132 
C 1.55874 -2.683901 0.795609 -3 0 -3 
C -0.795609 -3 -1.55874 -2.683901 -2.12132 -2.12132 
C -2.683901 -1.55874 -3 -0.795609 -3 0 
C -3 0.795609 -2.683901 1.55874 -2.12132 2.12132 
C -1.55874 2.683901 -0.795609 3 0 3 
z
" style="stroke: #ff9b71"/>
    </defs>
    <g clip-path="url(#p4545480595)">
     <use xlink:href="#m2f09237138" x="70.687468" y="126.356174" style="fill: #ff9b71; stroke: #ff9b71"/>
     <use xlink:href="#m2f09237138" x="225.28487" y="149.625753" style="fill: #ff9b71; stroke: #ff9b71"/>
     <use xlink:href="#m2f09237138" x="379.882273" y="157.234218" style="fill: #ff9b71; stroke: #ff9b71"/>
    </g>
   </g>
   <g id="patch_3">
    <path d="M 38.995 273.312 
L 38.995 7.2 
" style="fill: none; stroke: #000000; stroke-width: 0.8; stroke-linejoin: miter; stroke-linecap: square"/>
   </g>
   <g id="patch_4">
    <path d="M 396.115 273.312 
L 396.115 7.2 
" style="fill: none; stroke: #000000; stroke-width: 0.8; stroke-linejoin: miter; stroke-linecap: square"/>
   </g>
   <g id="patch_5">
    <path d="M 38.995 273.312 
L 396.115 273.312 
" style="fill: none; stroke: #000000; stroke-width: 0.8; stroke-linejoin: miter; stroke-linecap: square"/>
   </g>
   <g id="patch_6">
    <path d="M 38.995 7.2 
L 396.115 7.2 
" style="fill: none; stroke: #000000; stroke-width: 0.8; stroke-linejoin: miter; stroke-linecap: square"/>
   </g>
   <g id="legend_1">
    <g id="patch_7">
     <path d="M 326.005625 57.973437 
L 389.115 57.973437 
Q 391.115 57.973437 391.115 55.973437 
L 391.115 14.2 
Q 391.115 12.2 389.115 12.2 
L 326.005625 12.2 
Q 324.005625 12.2 324.005625 14.2 
L 324.005625 55.973437 
Q 324.005625 57.973437 326.005625 57.973437 
z
" style="fill: #ffffff; opacity: 0.8"/>
    </g>
    <g id="LineCollection_4">
     <path d="M 338.005625 24.873437 
L 338.005625 14.873437 
" style="fill: none; stroke: #2d3047"/>
    </g>
    <g id="line2d_32">
     <g>
      <use xlink:href="#m3b4d1390d9" x="338.005625" y="24.873437" style="fill: #2d3047; stroke: #2d3047"/>
     </g>
    </g>
    <g id="line2d_33">
     <g>
      <use xlink:href="#m3b4d1390d9" x="338.005625" y="14.873437" style="fill: #2d3047; stroke: #2d3047"/>
     </g>
    </g>
    <g id="line2d_34">
     <path d="M 328.005625 19.873437 
L 348.005625 19.873437 
" style="fill: none; stroke: #2d3047; stroke-width: 1.6; stroke-linecap: square"/>
    </g>
    <g id="line2d_35">
     <g>
      <use xlink:href="#m30386c271e" x="338.005625" y="19.873437" style="fill: #2d3047; stroke: #2d3047"/>
     </g>
    </g>
    <g id="text_14">
     <text style="font-size: 10px; font-family: 'Helvetica', 'Arial', sans-serif; text-anchor: start" x="356.005625" y="23.373437" transform="rotate(-0 356.005625 23.373437)">ROWS</text>
    </g>
    <g id="LineCollection_5">
     <path d="M 338.005625 39.13125 
L 338.005625 29.13125 
" style="fill: none; stroke: #d1345b"/>
    </g>
    <g id="line2d_36">
     <g>
      <use xlink:href="#m24a01ab074" x="338.005625" y="39.13125" style="fill: #d1345b; stroke: #d1345b"/>
     </g>
    </g>
    <g id="line2d_37">
     <g>
      <use xlink:href="#m24a01ab074" x="338.005625" y="29.13125" style="fill: #d1345b; stroke: #d1345b"/>
     </g>
    </g>
    <g id="line2d_38">
     <path d="M 328.005625 34.13125 
L 348.005625 34.13125 
" style="fill: none; stroke: #d1345b; stroke-width: 1.6; stroke-linecap: square"/>
    </g>
    <g id="line2d_39">
     <g>
      <use xlink:href="#m720995dc7d" x="338.005625" y="34.13125" style="fill: #d1345b; stroke: #d1345b"/>
     </g>
    </g>
    <g id="text_15">
     <text style="font-size: 10px; font-family: 'Helvetica', 'Arial', sans-serif; text-anchor: start" x="356.005625" y="37.63125" transform="rotate(-0 356.005625 37.63125)">PFI</text>
    </g>
    <g id="LineCollection_6">
     <path d="M 338.005625 53.389062 
L 338.005625 43.389062 
" style="fill: none; stroke: #ff9b71"/>
    </g>
    <g id="line2d_40">
     <g>
      <use xlink:href="#m94c761682d" x="338.005625" y="53.389062" style="fill: #ff9b71; stroke: #ff9b71"/>
     </g>
    </g>
    <g id="line2d_41">
     <g>
      <use xlink:href="#m94c761682d" x="338.005625" y="43.389062" style="fill: #ff9b71; stroke: #ff9b71"/>
     </g>
    </g>
    <g id="line2d_42">
     <path d="M 328.005625 48.389062 
L 348.005625 48.389062 
" style="fill: none; stroke: #ff9b71; stroke-width: 1.6; stroke-linecap: square"/>
    </g>
    <g id="line2d_43">
     <g>
      <use xlink:href="#m2f09237138" x="338.005625" y="48.389062" style="fill: #ff9b71; stroke: #ff9b71"/>
     </g>
    </g>
    <g id="text_16">
     <text style="font-size: 10px; font-family: 'Helvetica', 'Arial', sans-serif; text-anchor: start" x="356.005625" y="51.889062" transform="rotate(-0 356.005625 51.889062)">SAGE</text>
    </g>
   </g>
  </g>
 </g>
 <defs>
  <clipPath id="p4545480595">
   <rect x="38.995" y="7.2" width="357.12" height="266.112"/>
  </clipPath>
 </defs>
</svg>
