<?xml version="1.0" encoding="utf-8" standalone="no"?>
<!DOCTYPE svg PUBLIC "-//W3C//DTD SVG 1.1//EN"
  "http://www.w3.org/Graphics/SVG/1.1/DTD/svg11.dtd">
<svg xmlns:xlink="http://www.w3.org/1999/xlink" width="403.28pt" height="309.96075pt" viewBox="0 0 403.28 309.96075" xmlns="http://www.w3.org/2000/svg" version="1.1">
 <metadata>
  <rdf:RDF xmlns:dc="http://purl.org/dc/elements/1.1/" xmlns:cc="http://creativecommons.org/ns#" xmlns:rdf="http://www.w3.org/1999/02/22-rdf-syntax-ns#">
   <cc:Work>
    <dc:type rdf:resource="http://purl.org/dc/dcmitype/StillImage"/>
    <dc:date>2026-04-20T00:47:33.059018</dc:date>
    <dc:format>image/svg+xml</dc:format>
    <dc:creator>
     <cc:Agent>
      <dc:title>Matplotlib v3.9.2, https://matplotlib.org/</dc:title>
     </cc:Agent>
    </dc:creator>
   </cc:Work>
  </rdf:RDF>
 </metadata>
 <defs>
  <style type="text/css">*{stroke-linejoin: round; stroke-linecap: butt}</style>
 </defs>
 <g id="figure_1">
  <g id="patch_1">
   <path d="M 0 309.96075 
L 403.28 309.96075 
L 403.28 0 
L 0 0 
z
" style="fill: #ffffff"/>
  </g>
  <g id="axes_1">
   <g id="patch_2">
    <path d="M 38.96 273.312 
L 396.08 273.312 
L 396.08 7.2 
L 38.96 7.2 
z
" style="fill: #ffffff"/>
   </g>
   <g id="matplotlib.axis_1">
    <g id="xtick_1">
     <g id="line2d_1">
      <path d="M 55.192727 273.312 
L 55.192727 7.2 
" clip-path="url(#p4de00fce0f)" style="fill: none; stroke: #e0e0e0; stroke-opacity: 0.7; stroke-width: 0.8; stroke-linecap: square"/>
     </g>
     <g id="line2d_2">
      <defs>
       <path id="m2246e5e0fa" d="M 0 0 
L 0 -4 
" style="stroke: #000000; stroke-width: 0.8"/>
      </defs>
      <g>
       <use xlink:href="#m2246e5e0fa" x="55.192727" y="273.312" style="stroke: #000000; stroke-width: 0.8"/>
      </g>
     </g>
     <g id="text_1">
      <text style="font: 10px 'Helvetica', 'Arial', sans-serif; text-anchor: middle" x="55.192727" y="283.969812" transform="rotate(-0 55.192727 283.969812)">1</text>
     </g>
    </g>
    <g id="xtick_2">
     <g id="line2d_3">
      <path d="M 136.356364 273.312 
L 136.356364 7.2 
" clip-path="url(#p4de00fce0f)" style="fill: none; stroke: #e0e0e0; stroke-opacity: 0.7; stroke-width: 0.8; stroke-linecap: square"/>
     </g>
     <g id="line2d_4">
      <g>
       <use xlink:href="#m2246e5e0fa" x="136.356364" y="273.312" style="stroke: #000000; stroke-width: 0.8"/>
      </g>
     </g>
     <g id="text_2">
      <text style="font: 10px 'Helvetica', 'Arial', sans-serif; text-anchor: middle" x="136.356364" y="283.969812" transform="rotate(-0 136.356364 283.969812)">2</text>
     </g>
    </g>
    <g id="xtick_3">
     <g id="line2d_5">
      <path d="M 217.52 273.312 
L 217.52 7.2 
" clip-path="url(#p4de00fce0f)" style="fill: none; stroke: #e0e0e0; stroke-opacity: 0.7; stroke-width: 0.8; stroke-linecap: square"/>
     </g>
     <g id="line2d_6">
      <g>
       <use xlink:href="#m2246e5e0fa" x="217.52" y="273.312" style="stroke: #000000; stroke-width: 0.8"/>
      </g>
     </g>
     <g id="text_3">
      <text style="font: 10px 'Helvetica', 'Arial', sans-serif; text-anchor: middle" x="217.52" y="283.969812" transform="rotate(-0 217.52 283.969812)">3</text>
     </g>
    </g>
    <g id="xtick_4">
     <g id="line2d_7">
      <path d="M 298.683636 273.312 
L 298.683636 7.2 
" clip-path="url(#p4de00fce0f)" style="fill: none; stroke: #e0e0e0; stroke-opacity: 0.7; stroke-width: 0.8; stroke-linecap: square"/>
     </g>
     <g id="line2d_8">
      <g>
       <use xlink:href="#m2246e5e0fa" x="298.683636" y="273.312" style="stroke: #000000; stroke-width: 0.8"/>
      </g>
     </g>
     <g id="text_4">
      <text style="font: 10px 'Helvetica', 'Arial', sans-serif; text-anchor: middle" x="298.683636" y="283.969812" transform="rotate(-0 298.683636 283.969812)">4</text>
     </g>
    </g>
    <g id="xtick_5">
     <g id="line2d_9">
      <path d="M 379.847273 273.312 
L 379.847273 7.2 
" clip-path="url(#p4de00fce0f)" style="fill: none; stroke: #e0e0e0; stroke-opacity: 0.7; stroke-width: 0.8; stroke-linecap: square"/>
     </g>
     <g id="line2d_10">
      <g>
       <use xlink:href="#m2246e5e0fa" x="379.847273" y="273.312" style="stroke: #000000; stroke-width: 0.8"/>
      </g>
     </g>
     <g id="text_5">
      <text style="font: 10px 'Helvetica', 'Arial', sans-serif; text-anchor: middle" x="379.847273" y="283.969812" transform="rotate(-0 379.847273 283.969812)">5</text>
     </g>
    </g>
    <g id="text_6">
     <text style="font: 14px 'Helvetica', 'Arial', sans-serif; text-anchor: middle" x="217.52" y="299.97825" transform="rotate(-0 217.52 299.97825)">Detector Count</text>
    </g>
   </g>
   <g id="matplotlib.axis_2">
    <g id="ytick_1">
     <g id="line2d_11">
      <path d="M 38.96 273.312 
L 396.08 273.312 
" clip-path="url(#p4de00fce0f)" style="fill: none; stroke: #e0e0e0; stroke-opacity: 0.7; stroke-width: 0.8; stroke-linecap: square"/>
     </g>
     <g id="line2d_12">
      <defs>
       <path id="m65e5109463" d="M 0 0 
L 4 0 
" style="stroke: #000000; stroke-width: 0.8"/>
      </defs>
      <g>
       <use xlink:href="#m65e5109463" x="38.96" y="273.312" style="stroke: #000000; stroke-width: 0.8"/>
      </g>
     </g>
     <g id="text_7">
      <text style="font: 10px 'Helvetica', 'Arial', sans-serif; text-anchor: end" x="35.46" y="276.890906" transform="rotate(-0 35.46 276.890906)">0</text>
     </g>
    </g>
    <g id="ytick_2">
     <g id="line2d_13">
      <path d="M 38.96 227.5481 
L 396.08 227.5481 
" clip-path="url(#p4de00fce0f)" style="fill: none; stroke: #e0e0e0; stroke-opacity: 0.7; stroke-width: 0.8; stroke-linecap: square"/>
     </g>
     <g id="line2d_14">
      <g>
       <use xlink:href="#m65e5109463" x="38.96" y="227.5481" style="stroke: #000000; stroke-width: 0.8"/>
      </g>
     </g>
     <g id="text_8">
      <text style="font: 10px 'Helvetica', 'Arial', sans-serif; text-anchor: end" x="35.46" y="231.127006" transform="rotate(-0 35.46 231.127006)">2</text>
     </g>
    </g>
    <g id="ytick_3">
     <g id="line2d_15">
      <path d="M 38.96 181.784199 
L 396.08 181.784199 
" clip-path="url(#p4de00fce0f)" style="fill: none; stroke: #e0e0e0; stroke-opacity: 0.7; stroke-width: 0.8; stroke-linecap: square"/>
     </g>
     <g id="line2d_16">
      <g>
       <use xlink:href="#m65e5109463" x="38.96" y="181.784199" style="stroke: #000000; stroke-width: 0.8"/>
      </g>
     </g>
     <g id="text_9">
      <text style="font: 10px 'Helvetica', 'Arial', sans-serif; text-anchor: end" x="35.46" y="185.363106" transform="rotate(-0 35.46 185.363106)">4</text>
     </g>
    </g>
    <g id="ytick_4">
     <g id="line2d_17">
      <path d="M 38.96 136.020299 
L 396.08 136.020299 
" clip-path="url(#p4de00fce0f)" style="fill: none; stroke: #e0e0e0; stroke-opacity: 0.7; stroke-width: 0.8; stroke-linecap: square"/>
     </g>
     <g id="line2d_18">
      <g>
       <use xlink:href="#m65e5109463" x="38.96" y="136.020299" style="stroke: #000000; stroke-width: 0.8"/>
      </g>
     </g>
     <g id="text_10">
      <text style="font: 10px 'Helvetica', 'Arial', sans-serif; text-anchor: end" x="35.46" y="139.599205" transform="rotate(-0 35.46 139.599205)">6</text>
     </g>
    </g>
    <g id="ytick_5">
     <g id="line2d_19">
      <path d="M 38.96 90.256399 
L 396.08 90.256399 
" clip-path="url(#p4de00fce0f)" style="fill: none; stroke: #e0e0e0; stroke-opacity: 0.7; stroke-width: 0.8; stroke-linecap: square"/>
     </g>
     <g id="line2d_20">
      <g>
       <use xlink:href="#m65e5109463" x="38.96" y="90.256399" style="stroke: #000000; stroke-width: 0.8"/>
      </g>
     </g>
     <g id="text_11">
      <text style="font: 10px 'Helvetica', 'Arial', sans-serif; text-anchor: end" x="35.46" y="93.835305" transform="rotate(-0 35.46 93.835305)">8</text>
     </g>
    </g>
    <g id="ytick_6">
     <g id="line2d_21">
      <path d="M 38.96 44.492498 
L 396.08 44.492498 
" clip-path="url(#p4de00fce0f)" style="fill: none; stroke: #e0e0e0; stroke-opacity: 0.7; stroke-width: 0.8; stroke-linecap: square"/>
     </g>
     <g id="line2d_22">
      <g>
       <use xlink:href="#m65e5109463" x="38.96" y="44.492498" style="stroke: #000000; stroke-width: 0.8"/>
      </g>
     </g>
     <g id="text_12">
      <text style="font: 10px 'Helvetica', 'Arial', sans-serif; text-anchor: end" x="35.46" y="48.071405" transform="rotate(-0 35.46 48.071405)">10</text>
     </g>
    </g>
    <g id="text_13">
     <text style="font: 14px 'Helvetica', 'Arial', sans-serif; text-anchor: middle" x="17.391563" y="140.256" transform="rotate(-90 17.391563 140.256)">Test MAE (%Saturation)</text>
    </g>
   </g>
   <g id="LineCollection_1">
    <path d="M 55.192727 129.390288 
L 55.192727 100.32954 
" clip-path="url(#p4de00fce0f)" style="fill: none; stroke: #2d3047"/>
    <path d="M 136.356364 177.250699 
L 136.356364 137.651707 
" clip-path="url(#p4de00fce0f)" style="fill: none; stroke: #2d3047"/>
    <path d="M 217.52 192.65449 
L 217.52 164.716064 
" clip-path="url(#p4de00fce0f)" style="fill: none; stroke: #2d3047"/>
    <path d="M 298.683636 197.359631 
L 298.683636 169.046434 
" clip-path="url(#p4de00fce0f)" style="fill: none; stroke: #2d3047"/>
    <path d="M 379.847273 189.33175 
L 379.847273 168.349557 
" clip-path="url(#p4de00fce0f)" style="fill: none; stroke: #2d3047"/>
   </g>
   <g id="line2d_23">
    <defs>
     <path id="mf8724d140b" d="M 3 0 
L -3 -0 
" style="stroke: #2d3047"/>
    </defs>
    <g clip-path="url(#p4de00fce0f)">
     <use xlink:href="#mf8724d140b" x="55.192727" y="129.390288" style="fill: #2d3047; stroke: #2d3047"/>
     <use xlink:href="#mf8724d140b" x="136.356364" y="177.250699" style="fill: #2d3047; stroke: #2d3047"/>
     <use xlink:href="#mf8724d140b" x="217.52" y="192.65449" style="fill: #2d3047; stroke: #2d3047"/>
     <use xlink:href="#mf8724d140b" x="298.683636" y="197.359631" style="fill: #2d3047; stroke: #2d3047"/>
     <use xlink:href="#mf8724d140b" x="379.847273" y="189.33175" style="fill: #2d3047; stroke: #2d3047"/>
    </g>
   </g>
   <g id="line2d_24">
    <g clip-path="url(#p4de00fce0f)">
     <use xlink:href="#mf8724d140b" x="55.192727" y="100.32954" style="fill: #2d3047; stroke: #2d3047"/>
     <use xlink:href="#mf8724d140b" x="136.356364" y="137.651707" style="fill: #2d3047; stroke: #2d3047"/>
     <use xlink:href="#mf8724d140b" x="217.52" y="164.716064" style="fill: #2d3047; stroke: #2d3047"/>
     <use xlink:href="#mf8724d140b" x="298.683636" y="169.046434" style="fill: #2d3047; stroke: #2d3047"/>
     <use xlink:href="#mf8724d140b" x="379.847273" y="168.349557" style="fill: #2d3047; stroke: #2d3047"/>
    </g>
   </g>
   <g id="LineCollection_2">
    <path d="M 55.192727 129.390288 
L 55.192727 100.32954 
" clip-path="url(#p4de00fce0f)" style="fill: none; stroke: #d1345b"/>
    <path d="M 136.356364 177.250699 
L 136.356364 137.651707 
" clip-path="url(#p4de00fce0f)" style="fill: none; stroke: #d1345b"/>
    <path d="M 217.52 192.65449 
L 217.52 164.716064 
" clip-path="url(#p4de00fce0f)" style="fill: none; stroke: #d1345b"/>
    <path d="M 298.683636 197.374781 
L 298.683636 165.852115 
" clip-path="url(#p4de00fce0f)" style="fill: none; stroke: #d1345b"/>
    <path d="M 379.847273 189.33175 
L 379.847273 168.349557 
" clip-path="url(#p4de00fce0f)" style="fill: none; stroke: #d1345b"/>
   </g>
   <g id="line2d_25">
    <defs>
     <path id="m1869a82d00" d="M 3 0 
L -3 -0 
" style="stroke: #d1345b"/>
    </defs>
    <g clip-path="url(#p4de00fce0f)">
     <use xlink:href="#m1869a82d00" x="55.192727" y="129.390288" style="fill: #d1345b; stroke: #d1345b"/>
     <use xlink:href="#m1869a82d00" x="136.356364" y="177.250699" style="fill: #d1345b; stroke: #d1345b"/>
     <use xlink:href="#m1869a82d00" x="217.52" y="192.65449" style="fill: #d1345b; stroke: #d1345b"/>
     <use xlink:href="#m1869a82d00" x="298.683636" y="197.374781" style="fill: #d1345b; stroke: #d1345b"/>
     <use xlink:href="#m1869a82d00" x="379.847273" y="189.33175" style="fill: #d1345b; stroke: #d1345b"/>
    </g>
   </g>
   <g id="line2d_26">
    <g clip-path="url(#p4de00fce0f)">
     <use xlink:href="#m1869a82d00" x="55.192727" y="100.32954" style="fill: #d1345b; stroke: #d1345b"/>
     <use xlink:href="#m1869a82d00" x="136.356364" y="137.651707" style="fill: #d1345b; stroke: #d1345b"/>
     <use xlink:href="#m1869a82d00" x="217.52" y="164.716064" style="fill: #d1345b; stroke: #d1345b"/>
     <use xlink:href="#m1869a82d00" x="298.683636" y="165.852115" style="fill: #d1345b; stroke: #d1345b"/>
     <use xlink:href="#m1869a82d00" x="379.847273" y="168.349557" style="fill: #d1345b; stroke: #d1345b"/>
    </g>
   </g>
   <g id="LineCollection_3">
    <path d="M 55.192727 19.140647 
L 55.192727 17.017449 
" clip-path="url(#p4de00fce0f)" style="fill: none; stroke: #ff9b71"/>
    <path d="M 136.356364 172.684066 
L 136.356364 123.794782 
" clip-path="url(#p4de00fce0f)" style="fill: none; stroke: #ff9b71"/>
    <path d="M 217.52 213.366425 
L 217.52 108.077438 
" clip-path="url(#p4de00fce0f)" style="fill: none; stroke: #ff9b71"/>
    <path d="M 298.683636 191.904009 
L 298.683636 146.873229 
" clip-path="url(#p4de00fce0f)" style="fill: none; stroke: #ff9b71"/>
    <path d="M 379.847273 189.33175 
L 379.847273 168.349557 
" clip-path="url(#p4de00fce0f)" style="fill: none; stroke: #ff9b71"/>
   </g>
   <g id="line2d_27">
    <defs>
     <path id="m26af11e2c4" d="M 3 0 
L -3 -0 
" style="stroke: #ff9b71"/>
    </defs>
    <g clip-path="url(#p4de00fce0f)">
     <use xlink:href="#m26af11e2c4" x="55.192727" y="19.140647" style="fill: #ff9b71; stroke: #ff9b71"/>
     <use xlink:href="#m26af11e2c4" x="136.356364" y="172.684066" style="fill: #ff9b71; stroke: #ff9b71"/>
     <use xlink:href="#m26af11e2c4" x="217.52" y="213.366425" style="fill: #ff9b71; stroke: #ff9b71"/>
     <use xlink:href="#m26af11e2c4" x="298.683636" y="191.904009" style="fill: #ff9b71; stroke: #ff9b71"/>
     <use xlink:href="#m26af11e2c4" x="379.847273" y="189.33175" style="fill: #ff9b71; stroke: #ff9b71"/>
    </g>
   </g>
   <g id="line2d_28">
    <g clip-path="url(#p4de00fce0f)">
     <use xlink:href="#m26af11e2c4" x="55.192727" y="17.017449" style="fill: #ff9b71; stroke: #ff9b71"/>
     <use xlink:href="#m26af11e2c4" x="136.356364" y="123.794782" style="fill: #ff9b71; stroke: #ff9b71"/>
     <use xlink:href="#m26af11e2c4" x="217.52" y="108.077438" style="fill: #ff9b71; stroke: #ff9b71"/>
     <use xlink:href="#m26af11e2c4" x="298.683636" y="146.873229" style="fill: #ff9b71; stroke: #ff9b71"/>
     <use xlink:href="#m26af11e2c4" x="379.847273" y="168.349557" style="fill: #ff9b71; stroke: #ff9b71"/>
    </g>
   </g>
   <g id="line2d_29">
    <path d="M 55.192727 114.859914 
L 136.356364 157.451203 
L 217.52 178.685277 
L 298.683636 183.203032 
L 379.847273 178.840654 
" clip-path="url(#p4de00fce0f)" style="fill: none; stroke: #2d3047; stroke-width: 1.6; stroke-linecap: square"/>
    <defs>
     <path id="m75790084b6" d="M 0 3 
C 0.795609 3 1.55874 2.683901 2.12132 2.12132 
C 2.683901 1.55874 3 0.795609 3 0 
C 3 -0.795609 2.683901 -1.55874 2.12132 -2.12132 
C 1.55874 -2.683901 0.795609 -3 0 -3 
C -0.795609 -3 -1.55874 -2.683901 -2.12132 -2.12132 
C -2.683901 -1.55874 -3 -0.795609 -3 0 
C -3 0.795609 -2.683901 1.55874 -2.12132 2.12132 
C -1.55874 2.683901 -0.795609 3 0 3 
z
" style="stroke: #2d3047"/>
    </defs>
    <g clip-path="url(#p4de00fce0f)">
     <use xlink:href="#m75790084b6" x="55.192727" y="114.859914" style="fill: #2d3047; stroke: #2d3047"/>
     <use xlink:href="#m75790084b6" x="136.356364" y="157.451203" style="fill: #2d3047; stroke: #2d3047"/>
     <use xlink:href="#m75790084b6" x="217.52" y="178.685277" style="fill: #2d3047; stroke: #2d3047"/>
     <use xlink:href="#m75790084b6" x="298.683636" y="183.203032" style="fill: #2d3047; stroke: #2d3047"/>
     <use xlink:href="#m75790084b6" x="379.847273" y="178.840654" style="fill: #2d3047; stroke: #2d3047"/>
    </g>
   </g>
   <g id="line2d_30">
    <path d="M 55.192727 114.859914 
L 136.356364 157.451203 
L 217.52 178.685277 
L 298.683636 181.613448 
L 379.847273 178.840654 
" clip-path="url(#p4de00fce0f)" style="fill: none; stroke: #d1345b; stroke-width: 1.6; stroke-linecap: square"/>
    <defs>
     <path id="m1d1cf9bd34" d="M 0 3 
C 0.795609 3 1.55874 2.683901 2.12132 2.12132 
C 2.683901 1.55874 3 0.795609 3 0 
C 3 -0.795609 2.683901 -1.55874 2.12132 -2.12132 
C 1.55874 -2.683901 0.795609 -3 0 -3 
C -0.795609 -3 -1.55874 -2.683901 -2.12132 -2.12132 
C -2.683901 -1.55874 -3 -0.795609 -3 0 
C -3 0.795609 -2.683901 1.55874 -2.12132 2.12132 
C -1.55874 2.683901 -0.795609 3 0 3 
z
" style="stroke: #d1345b"/>
    </defs>
    <g clip-path="url(#p4de00fce0f)">
     <use xlink:href="#m1d1cf9bd34" x="55.192727" y="114.859914" style="fill: #d1345b; stroke: #d1345b"/>
     <use xlink:href="#m1d1cf9bd34" x="136.356364" y="157.451203" style="fill: #d1345b; stroke: #d1345b"/>
     <use xlink:href="#m1d1cf9bd34" x="217.52" y="178.685277" style="fill: #d1345b; stroke: #d1345b"/>
     <use xlink:href="#m1d1cf9bd34" x="298.683636" y="181.613448" style="fill: #d1345b; stroke: #d1345b"/>
     <use xlink:href="#m1d1cf9bd34" x="379.847273" y="178.840654" style="fill: #d1345b; stroke: #d1345b"/>
    </g>
   </g>
   <g id="line2d_31">
    <path d="M 55.192727 18.079048 
L 136.356364 148.239424 
L 217.52 160.721932 
L 298.683636 169.388619 
L 379.847273 178.840654 
" clip-path="url(#p4de00fce0f)" style="fill: none; stroke: #ff9b71; stroke-width: 1.6; stroke-linecap: square"/>
    <defs>
     <path id="m809391c317" d="M 0 3 
C 0.795609 3 1.55874 2.683901 2.12132 2.12132 
C 2.683901 1.55874 3 0.795609 3 0 
C 3 -0.795609 2.683901 -1.55874 2.12132 -2.12132 
C 1.55874 -2.683901 0.795609 -3 0 -3 
C -0.795609 -3 -1.55874 -2.683901 -2.12132 -2.12132 
C -2.683901 -1.55874 -3 -0.795609 -3 0 
C -3 0.795609 -2.683901 1.55874 -2.12132 2.12132 
C -1.55874 2.683901 -0.795609 3 0 3 
z
" style="stroke: #ff9b71"/>
    </defs>
    <g clip-path="url(#p4de00fce0f)">
     <use xlink:href="#m809391c317" x="55.192727" y="18.079048" style="fill: #ff9b71; stroke: #ff9b71"/>
     <use xlink:href="#m809391c317" x="136.356364" y="148.239424" style="fill: #ff9b71; stroke: #ff9b71"/>
     <use xlink:href="#m809391c317" x="217.52" y="160.721932" style="fill: #ff9b71; stroke: #ff9b71"/>
     <use xlink:href="#m809391c317" x="298.683636" y="169.388619" style="fill: #ff9b71; stroke: #ff9b71"/>
     <use xlink:href="#m809391c317" x="379.847273" y="178.840654" style="fill: #ff9b71; stroke: #ff9b71"/>
    </g>
   </g>
   <g id="patch_3">
    <path d="M 38.96 273.312 
L 38.96 7.2 
" style="fill: none; stroke: #000000; stroke-width: 0.8; stroke-linejoin: miter; stroke-linecap: square"/>
   </g>
   <g id="patch_4">
    <path d="M 396.08 273.312 
L 396.08 7.2 
" style="fill: none; stroke: #000000; stroke-width: 0.8; stroke-linejoin: miter; stroke-linecap: square"/>
   </g>
   <g id="patch_5">
    <path d="M 38.96 273.312 
L 396.08 273.312 
" style="fill: none; stroke: #000000; stroke-width: 0.8; stroke-linejoin: miter; stroke-linecap: square"/>
   </g>
   <g id="patch_6">
    <path d="M 38.96 7.2 
L 396.08 7.2 
" style="fill: none; stroke: #000000; stroke-width: 0.8; stroke-linejoin: miter; stroke-linecap: square"/>
   </g>
   <g id="legend_1">
    <g id="patch_7">
     <path d="M 328.187813 57.635938 
L 389.08 57.635938 
Q 391.08 57.635938 391.08 55.635938 
L 391.08 14.2 
Q 391.08 12.2 389.08 12.2 
L 328.187813 12.2 
Q 326.187813 12.2 326.187813 14.2 
L 326.187813 55.635938 
Q 326.187813 57.635938 328.187813 57.635938 
z
" style="fill: #ffffff; opacity: 0.8"/>
    </g>
    <g id="LineCollection_4">
     <path d="M 340.187813 24.857813 
L 340.187813 14.857813 
" style="fill: none; stroke: #2d3047"/>
    </g>
    <g id="line2d_32">
     <g>
      <use xlink:href="#mf8724d140b" x="340.187813" y="24.857813" style="fill: #2d3047; stroke: #2d3047"/>
     </g>
    </g>
    <g id="line2d_33">
     <g>
      <use xlink:href="#mf8724d140b" x="340.187813" y="14.857813" style="fill: #2d3047; stroke: #2d3047"/>
     </g>
    </g>
    <g id="line2d_34">
     <path d="M 330.187813 19.857813 
L 350.187813 19.857813 
" style="fill: none; stroke: #2d3047; stroke-width: 1.6; stroke-linecap: square"/>
    </g>
    <g id="line2d_35">
     <g>
      <use xlink:href="#m75790084b6" x="340.187813" y="19.857813" style="fill: #2d3047; stroke: #2d3047"/>
     </g>
    </g>
    <g id="text_14">
     <text style="font: 10px 'Helvetica', 'Arial', sans-serif; text-anchor: start" x="358.187813" y="23.357813" transform="rotate(-0 358.187813 23.357813)">OURS</text>
    </g>
    <g id="LineCollection_5">
     <path d="M 340.187813 39.003125 
L 340.187813 29.003125 
" style="fill: none; stroke: #d1345b"/>
    </g>
    <g id="line2d_36">
     <g>
      <use xlink:href="#m1869a82d00" x="340.187813" y="39.003125" style="fill: #d1345b; stroke: #d1345b"/>
     </g>
    </g>
    <g id="line2d_37">
     <g>
      <use xlink:href="#m1869a82d00" x="340.187813" y="29.003125" style="fill: #d1345b; stroke: #d1345b"/>
     </g>
    </g>
    <g id="line2d_38">
     <path d="M 330.187813 34.003125 
L 350.187813 34.003125 
" style="fill: none; stroke: #d1345b; stroke-width: 1.6; stroke-linecap: square"/>
    </g>
    <g id="line2d_39">
     <g>
      <use xlink:href="#m1d1cf9bd34" x="340.187813" y="34.003125" style="fill: #d1345b; stroke: #d1345b"/>
     </g>
    </g>
    <g id="text_15">
     <text style="font: 10px 'Helvetica', 'Arial', sans-serif; text-anchor: start" x="358.187813" y="37.503125" transform="rotate(-0 358.187813 37.503125)">PFI</text>
    </g>
    <g id="LineCollection_6">
     <path d="M 340.187813 53.148438 
L 340.187813 43.148438 
" style="fill: none; stroke: #ff9b71"/>
    </g>
    <g id="line2d_40">
     <g>
      <use xlink:href="#m26af11e2c4" x="340.187813" y="53.148438" style="fill: #ff9b71; stroke: #ff9b71"/>
     </g>
    </g>
    <g id="line2d_41">
     <g>
      <use xlink:href="#m26af11e2c4" x="340.187813" y="43.148438" style="fill: #ff9b71; stroke: #ff9b71"/>
     </g>
    </g>
    <g id="line2d_42">
     <path d="M 330.187813 48.148438 
L 350.187813 48.148438 
" style="fill: none; stroke: #ff9b71; stroke-width: 1.6; stroke-linecap: square"/>
    </g>
    <g id="line2d_43">
     <g>
      <use xlink:href="#m809391c317" x="340.187813" y="48.148438" style="fill: #ff9b71; stroke: #ff9b71"/>
     </g>
    </g>
    <g id="text_16">
     <text style="font: 10px 'Helvetica', 'Arial', sans-serif; text-anchor: start" x="358.187813" y="51.648438" transform="rotate(-0 358.187813 51.648438)">SAGE</text>
    </g>
   </g>
  </g>
 </g>
 <defs>
  <clipPath id="p4de00fce0f">
   <rect x="38.96" y="7.2" width="357.12" height="266.112"/>
  </clipPath>
 </defs>
</svg>
