<?xml version="1.0" encoding="utf-8" standalone="no"?>
<!DOCTYPE svg PUBLIC "-//W3C//DTD SVG 1.1//EN"
  "http://www.w3.org/Graphics/SVG/1.1/DTD/svg11.dtd">
<svg xmlns:xlink="http://www.w3.org/1999/xlink" width="403.315pt" height="310.683562pt" viewBox="0 0 403.315 310.683562" xmlns="http://www.w3.org/2000/svg" version="1.1">
 <metadata>
  <rdf:RDF xmlns:dc="http://purl.org/dc/elements/1.1/" xmlns:cc="http://creativecommons.org/ns#" xmlns:rdf="http://www.w3.org/1999/02/22-rdf-syntax-ns#">
   <cc:Work>
    <dc:type rdf:resource="http://purl.org/dc/dcmitype/StillImage"/>
    <dc:date>2026-04-23T16:42:12.796674</dc:date>
    <dc:format>image/svg+xml</dc:format>
    <dc:creator>
     <cc:Agent>
      <dc:title>Matplotlib v3.10.8, https://matplotlib.org/</dc:title>
     </cc:Agent>
    </dc:creator>
   </cc:Work>
  </rdf:RDF>
 </metadata>
 <defs>
  <style type="text/css">*{stroke-linejoin: round; stroke-linecap: butt}</style>
 </defs>
 <g id="figure_1">
  <g id="patch_1">
   <path d="M 0 310.683562 
L 403.315 310.683562 
L 403.315 0 
L 0 0 
z
" style="fill: #ffffff"/>
  </g>
  <g id="axes_1">
   <g id="patch_2">
    <path d="M 38.995 273.312 
L 396.115 273.312 
L 396.115 7.2 
L 38.995 7.2 
z
" style="fill: #ffffff"/>
   </g>
   <g id="matplotlib.axis_1">
    <g id="xtick_1">
     <g id="line2d_1">
      <path d="M 55.227727 273.312 
L 55.227727 7.2 
" clip-path="url(#p31837faec2)" style="fill: none; stroke: #e0e0e0; stroke-opacity: 0.7; stroke-width: 0.8; stroke-linecap: square"/>
     </g>
     <g id="line2d_2">
      <defs>
       <path id="mc4f879bb40" d="M 0 0 
L 0 -4 
" style="stroke: #000000; stroke-width: 0.8"/>
      </defs>
      <g>
       <use xlink:href="#mc4f879bb40" x="55.227727" y="273.312" style="stroke: #000000; stroke-width: 0.8"/>
      </g>
     </g>
     <g id="text_1">
      <text style="font-size: 10px; font-family: 'Helvetica', 'Arial', sans-serif; text-anchor: middle" x="55.227727" y="283.985437" transform="rotate(-0 55.227727 283.985437)">1</text>
     </g>
    </g>
    <g id="xtick_2">
     <g id="line2d_3">
      <path d="M 134.411763 273.312 
L 134.411763 7.2 
" clip-path="url(#p31837faec2)" style="fill: none; stroke: #e0e0e0; stroke-opacity: 0.7; stroke-width: 0.8; stroke-linecap: square"/>
     </g>
     <g id="line2d_4">
      <g>
       <use xlink:href="#mc4f879bb40" x="134.411763" y="273.312" style="stroke: #000000; stroke-width: 0.8"/>
      </g>
     </g>
     <g id="text_2">
      <text style="font-size: 10px; font-family: 'Helvetica', 'Arial', sans-serif; text-anchor: middle" x="134.411763" y="283.985437" transform="rotate(-0 134.411763 283.985437)">2</text>
     </g>
    </g>
    <g id="xtick_3">
     <g id="line2d_5">
      <path d="M 213.595798 273.312 
L 213.595798 7.2 
" clip-path="url(#p31837faec2)" style="fill: none; stroke: #e0e0e0; stroke-opacity: 0.7; stroke-width: 0.8; stroke-linecap: square"/>
     </g>
     <g id="line2d_6">
      <g>
       <use xlink:href="#mc4f879bb40" x="213.595798" y="273.312" style="stroke: #000000; stroke-width: 0.8"/>
      </g>
     </g>
     <g id="text_3">
      <text style="font-size: 10px; font-family: 'Helvetica', 'Arial', sans-serif; text-anchor: middle" x="213.595798" y="283.985437" transform="rotate(-0 213.595798 283.985437)">3</text>
     </g>
    </g>
    <g id="xtick_4">
     <g id="line2d_7">
      <path d="M 292.779834 273.312 
L 292.779834 7.2 
" clip-path="url(#p31837faec2)" style="fill: none; stroke: #e0e0e0; stroke-opacity: 0.7; stroke-width: 0.8; stroke-linecap: square"/>
     </g>
     <g id="line2d_8">
      <g>
       <use xlink:href="#mc4f879bb40" x="292.779834" y="273.312" style="stroke: #000000; stroke-width: 0.8"/>
      </g>
     </g>
     <g id="text_4">
      <text style="font-size: 10px; font-family: 'Helvetica', 'Arial', sans-serif; text-anchor: middle" x="292.779834" y="283.985437" transform="rotate(-0 292.779834 283.985437)">4</text>
     </g>
    </g>
    <g id="xtick_5">
     <g id="line2d_9">
      <path d="M 371.963869 273.312 
L 371.963869 7.2 
" clip-path="url(#p31837faec2)" style="fill: none; stroke: #e0e0e0; stroke-opacity: 0.7; stroke-width: 0.8; stroke-linecap: square"/>
     </g>
     <g id="line2d_10">
      <g>
       <use xlink:href="#mc4f879bb40" x="371.963869" y="273.312" style="stroke: #000000; stroke-width: 0.8"/>
      </g>
     </g>
     <g id="text_5">
      <text style="font-size: 10px; font-family: 'Helvetica', 'Arial', sans-serif; text-anchor: middle" x="371.963869" y="283.985437" transform="rotate(-0 371.963869 283.985437)">5</text>
     </g>
    </g>
    <g id="text_6">
     <text style="font-size: 14px; font-family: 'Helvetica', 'Arial', sans-serif; text-anchor: middle" x="217.555" y="300.386062" transform="rotate(-0 217.555 300.386062)">Wavelength Count</text>
    </g>
   </g>
   <g id="matplotlib.axis_2">
    <g id="ytick_1">
     <g id="line2d_11">
      <path d="M 38.995 247.889002 
L 396.115 247.889002 
" clip-path="url(#p31837faec2)" style="fill: none; stroke: #e0e0e0; stroke-opacity: 0.7; stroke-width: 0.8; stroke-linecap: square"/>
     </g>
     <g id="line2d_12">
      <defs>
       <path id="mb06718df93" d="M 0 0 
L 4 0 
" style="stroke: #000000; stroke-width: 0.8"/>
      </defs>
      <g>
       <use xlink:href="#mb06718df93" x="38.995" y="247.889002" style="stroke: #000000; stroke-width: 0.8"/>
      </g>
     </g>
     <g id="text_7">
      <text style="font-size: 10px; font-family: 'Helvetica', 'Arial', sans-serif; text-anchor: end" x="35.495" y="251.47572" transform="rotate(-0 35.495 251.47572)">4</text>
     </g>
    </g>
    <g id="ytick_2">
     <g id="line2d_13">
      <path d="M 38.995 214.668286 
L 396.115 214.668286 
" clip-path="url(#p31837faec2)" style="fill: none; stroke: #e0e0e0; stroke-opacity: 0.7; stroke-width: 0.8; stroke-linecap: square"/>
     </g>
     <g id="line2d_14">
      <g>
       <use xlink:href="#mb06718df93" x="38.995" y="214.668286" style="stroke: #000000; stroke-width: 0.8"/>
      </g>
     </g>
     <g id="text_8">
      <text style="font-size: 10px; font-family: 'Helvetica', 'Arial', sans-serif; text-anchor: end" x="35.495" y="218.255005" transform="rotate(-0 35.495 218.255005)">5</text>
     </g>
    </g>
    <g id="ytick_3">
     <g id="line2d_15">
      <path d="M 38.995 181.447571 
L 396.115 181.447571 
" clip-path="url(#p31837faec2)" style="fill: none; stroke: #e0e0e0; stroke-opacity: 0.7; stroke-width: 0.8; stroke-linecap: square"/>
     </g>
     <g id="line2d_16">
      <g>
       <use xlink:href="#mb06718df93" x="38.995" y="181.447571" style="stroke: #000000; stroke-width: 0.8"/>
      </g>
     </g>
     <g id="text_9">
      <text style="font-size: 10px; font-family: 'Helvetica', 'Arial', sans-serif; text-anchor: end" x="35.495" y="185.03429" transform="rotate(-0 35.495 185.03429)">6</text>
     </g>
    </g>
    <g id="ytick_4">
     <g id="line2d_17">
      <path d="M 38.995 148.226856 
L 396.115 148.226856 
" clip-path="url(#p31837faec2)" style="fill: none; stroke: #e0e0e0; stroke-opacity: 0.7; stroke-width: 0.8; stroke-linecap: square"/>
     </g>
     <g id="line2d_18">
      <g>
       <use xlink:href="#mb06718df93" x="38.995" y="148.226856" style="stroke: #000000; stroke-width: 0.8"/>
      </g>
     </g>
     <g id="text_10">
      <text style="font-size: 10px; font-family: 'Helvetica', 'Arial', sans-serif; text-anchor: end" x="35.495" y="151.813575" transform="rotate(-0 35.495 151.813575)">7</text>
     </g>
    </g>
    <g id="ytick_5">
     <g id="line2d_19">
      <path d="M 38.995 115.006141 
L 396.115 115.006141 
" clip-path="url(#p31837faec2)" style="fill: none; stroke: #e0e0e0; stroke-opacity: 0.7; stroke-width: 0.8; stroke-linecap: square"/>
     </g>
     <g id="line2d_20">
      <g>
       <use xlink:href="#mb06718df93" x="38.995" y="115.006141" style="stroke: #000000; stroke-width: 0.8"/>
      </g>
     </g>
     <g id="text_11">
      <text style="font-size: 10px; font-family: 'Helvetica', 'Arial', sans-serif; text-anchor: end" x="35.495" y="118.59286" transform="rotate(-0 35.495 118.59286)">8</text>
     </g>
    </g>
    <g id="ytick_6">
     <g id="line2d_21">
      <path d="M 38.995 81.785426 
L 396.115 81.785426 
" clip-path="url(#p31837faec2)" style="fill: none; stroke: #e0e0e0; stroke-opacity: 0.7; stroke-width: 0.8; stroke-linecap: square"/>
     </g>
     <g id="line2d_22">
      <g>
       <use xlink:href="#mb06718df93" x="38.995" y="81.785426" style="stroke: #000000; stroke-width: 0.8"/>
      </g>
     </g>
     <g id="text_12">
      <text style="font-size: 10px; font-family: 'Helvetica', 'Arial', sans-serif; text-anchor: end" x="35.495" y="85.372145" transform="rotate(-0 35.495 85.372145)">9</text>
     </g>
    </g>
    <g id="ytick_7">
     <g id="line2d_23">
      <path d="M 38.995 48.564711 
L 396.115 48.564711 
" clip-path="url(#p31837faec2)" style="fill: none; stroke: #e0e0e0; stroke-opacity: 0.7; stroke-width: 0.8; stroke-linecap: square"/>
     </g>
     <g id="line2d_24">
      <g>
       <use xlink:href="#mb06718df93" x="38.995" y="48.564711" style="stroke: #000000; stroke-width: 0.8"/>
      </g>
     </g>
     <g id="text_13">
      <text style="font-size: 10px; font-family: 'Helvetica', 'Arial', sans-serif; text-anchor: end" x="35.495" y="52.15143" transform="rotate(-0 35.495 52.15143)">10</text>
     </g>
    </g>
    <g id="ytick_8">
     <g id="line2d_25">
      <path d="M 38.995 15.343996 
L 396.115 15.343996 
" clip-path="url(#p31837faec2)" style="fill: none; stroke: #e0e0e0; stroke-opacity: 0.7; stroke-width: 0.8; stroke-linecap: square"/>
     </g>
     <g id="line2d_26">
      <g>
       <use xlink:href="#mb06718df93" x="38.995" y="15.343996" style="stroke: #000000; stroke-width: 0.8"/>
      </g>
     </g>
     <g id="text_14">
      <text style="font-size: 10px; font-family: 'Helvetica', 'Arial', sans-serif; text-anchor: end" x="35.495" y="18.930715" transform="rotate(-0 35.495 18.930715)">11</text>
     </g>
    </g>
    <g id="text_15">
     <text style="font-size: 14px; font-family: 'Helvetica', 'Arial', sans-serif; text-anchor: middle" x="17.455" y="140.256" transform="rotate(-90 17.455 140.256)">Test MAE (%Saturation)</text>
    </g>
   </g>
   <g id="LineCollection_1">
    <path d="M 55.227727 176.636776 
L 55.227727 127.176817 
" clip-path="url(#p31837faec2)" style="fill: none; stroke: #2d3047"/>
    <path d="M 134.411763 223.498393 
L 134.411763 69.340823 
" clip-path="url(#p31837faec2)" style="fill: none; stroke: #2d3047"/>
    <path d="M 213.595798 247.090128 
L 213.595798 65.411192 
" clip-path="url(#p31837faec2)" style="fill: none; stroke: #2d3047"/>
    <path d="M 292.779834 239.902569 
L 292.779834 216.19355 
" clip-path="url(#p31837faec2)" style="fill: none; stroke: #2d3047"/>
    <path d="M 371.963869 261.216 
L 371.963869 230.544584 
" clip-path="url(#p31837faec2)" style="fill: none; stroke: #2d3047"/>
   </g>
   <g id="line2d_27">
    <defs>
     <path id="mf16264086b" d="M 3 0 
L -3 -0 
" style="stroke: #2d3047"/>
    </defs>
    <g clip-path="url(#p31837faec2)">
     <use xlink:href="#mf16264086b" x="55.227727" y="176.636776" style="fill: #2d3047; stroke: #2d3047"/>
     <use xlink:href="#mf16264086b" x="134.411763" y="223.498393" style="fill: #2d3047; stroke: #2d3047"/>
     <use xlink:href="#mf16264086b" x="213.595798" y="247.090128" style="fill: #2d3047; stroke: #2d3047"/>
     <use xlink:href="#mf16264086b" x="292.779834" y="239.902569" style="fill: #2d3047; stroke: #2d3047"/>
     <use xlink:href="#mf16264086b" x="371.963869" y="261.216" style="fill: #2d3047; stroke: #2d3047"/>
    </g>
   </g>
   <g id="line2d_28">
    <g clip-path="url(#p31837faec2)">
     <use xlink:href="#mf16264086b" x="55.227727" y="127.176817" style="fill: #2d3047; stroke: #2d3047"/>
     <use xlink:href="#mf16264086b" x="134.411763" y="69.340823" style="fill: #2d3047; stroke: #2d3047"/>
     <use xlink:href="#mf16264086b" x="213.595798" y="65.411192" style="fill: #2d3047; stroke: #2d3047"/>
     <use xlink:href="#mf16264086b" x="292.779834" y="216.19355" style="fill: #2d3047; stroke: #2d3047"/>
     <use xlink:href="#mf16264086b" x="371.963869" y="230.544584" style="fill: #2d3047; stroke: #2d3047"/>
    </g>
   </g>
   <g id="LineCollection_2">
    <path d="M 59.186929 176.636776 
L 59.186929 127.176817 
" clip-path="url(#p31837faec2)" style="fill: none; stroke: #d1345b"/>
    <path d="M 138.370965 223.498393 
L 138.370965 69.340823 
" clip-path="url(#p31837faec2)" style="fill: none; stroke: #d1345b"/>
    <path d="M 217.555 235.544228 
L 217.555 19.296 
" clip-path="url(#p31837faec2)" style="fill: none; stroke: #d1345b"/>
    <path d="M 296.739035 239.902569 
L 296.739035 216.19355 
" clip-path="url(#p31837faec2)" style="fill: none; stroke: #d1345b"/>
    <path d="M 375.923071 261.216 
L 375.923071 230.544584 
" clip-path="url(#p31837faec2)" style="fill: none; stroke: #d1345b"/>
   </g>
   <g id="line2d_29">
    <defs>
     <path id="m8b74b6b28a" d="M 3 0 
L -3 -0 
" style="stroke: #d1345b"/>
    </defs>
    <g clip-path="url(#p31837faec2)">
     <use xlink:href="#m8b74b6b28a" x="59.186929" y="176.636776" style="fill: #d1345b; stroke: #d1345b"/>
     <use xlink:href="#m8b74b6b28a" x="138.370965" y="223.498393" style="fill: #d1345b; stroke: #d1345b"/>
     <use xlink:href="#m8b74b6b28a" x="217.555" y="235.544228" style="fill: #d1345b; stroke: #d1345b"/>
     <use xlink:href="#m8b74b6b28a" x="296.739035" y="239.902569" style="fill: #d1345b; stroke: #d1345b"/>
     <use xlink:href="#m8b74b6b28a" x="375.923071" y="261.216" style="fill: #d1345b; stroke: #d1345b"/>
    </g>
   </g>
   <g id="line2d_30">
    <g clip-path="url(#p31837faec2)">
     <use xlink:href="#m8b74b6b28a" x="59.186929" y="127.176817" style="fill: #d1345b; stroke: #d1345b"/>
     <use xlink:href="#m8b74b6b28a" x="138.370965" y="69.340823" style="fill: #d1345b; stroke: #d1345b"/>
     <use xlink:href="#m8b74b6b28a" x="217.555" y="19.296" style="fill: #d1345b; stroke: #d1345b"/>
     <use xlink:href="#m8b74b6b28a" x="296.739035" y="216.19355" style="fill: #d1345b; stroke: #d1345b"/>
     <use xlink:href="#m8b74b6b28a" x="375.923071" y="230.544584" style="fill: #d1345b; stroke: #d1345b"/>
    </g>
   </g>
   <g id="LineCollection_3">
    <path d="M 63.146131 74.908697 
L 63.146131 28.654357 
" clip-path="url(#p31837faec2)" style="fill: none; stroke: #ff9b71"/>
    <path d="M 142.330166 223.498393 
L 142.330166 69.340823 
" clip-path="url(#p31837faec2)" style="fill: none; stroke: #ff9b71"/>
    <path d="M 221.514202 247.090128 
L 221.514202 65.411192 
" clip-path="url(#p31837faec2)" style="fill: none; stroke: #ff9b71"/>
    <path d="M 300.698237 239.902569 
L 300.698237 216.19355 
" clip-path="url(#p31837faec2)" style="fill: none; stroke: #ff9b71"/>
    <path d="M 379.882273 261.216 
L 379.882273 230.544584 
" clip-path="url(#p31837faec2)" style="fill: none; stroke: #ff9b71"/>
   </g>
   <g id="line2d_31">
    <defs>
     <path id="m051bbc0928" d="M 3 0 
L -3 -0 
" style="stroke: #ff9b71"/>
    </defs>
    <g clip-path="url(#p31837faec2)">
     <use xlink:href="#m051bbc0928" x="63.146131" y="74.908697" style="fill: #ff9b71; stroke: #ff9b71"/>
     <use xlink:href="#m051bbc0928" x="142.330166" y="223.498393" style="fill: #ff9b71; stroke: #ff9b71"/>
     <use xlink:href="#m051bbc0928" x="221.514202" y="247.090128" style="fill: #ff9b71; stroke: #ff9b71"/>
     <use xlink:href="#m051bbc0928" x="300.698237" y="239.902569" style="fill: #ff9b71; stroke: #ff9b71"/>
     <use xlink:href="#m051bbc0928" x="379.882273" y="261.216" style="fill: #ff9b71; stroke: #ff9b71"/>
    </g>
   </g>
   <g id="line2d_32">
    <g clip-path="url(#p31837faec2)">
     <use xlink:href="#m051bbc0928" x="63.146131" y="28.654357" style="fill: #ff9b71; stroke: #ff9b71"/>
     <use xlink:href="#m051bbc0928" x="142.330166" y="69.340823" style="fill: #ff9b71; stroke: #ff9b71"/>
     <use xlink:href="#m051bbc0928" x="221.514202" y="65.411192" style="fill: #ff9b71; stroke: #ff9b71"/>
     <use xlink:href="#m051bbc0928" x="300.698237" y="216.19355" style="fill: #ff9b71; stroke: #ff9b71"/>
     <use xlink:href="#m051bbc0928" x="379.882273" y="230.544584" style="fill: #ff9b71; stroke: #ff9b71"/>
    </g>
   </g>
   <g id="line2d_33">
    <path d="M 55.227727 151.906796 
L 134.411763 146.419608 
L 213.595798 156.25066 
L 292.779834 228.048059 
L 371.963869 245.880292 
" clip-path="url(#p31837faec2)" style="fill: none; stroke: #2d3047; stroke-width: 1.6; stroke-linecap: square"/>
    <defs>
     <path id="mfe8b133f01" d="M 0 3 
C 0.795609 3 1.55874 2.683901 2.12132 2.12132 
C 2.683901 1.55874 3 0.795609 3 0 
C 3 -0.795609 2.683901 -1.55874 2.12132 -2.12132 
C 1.55874 -2.683901 0.795609 -3 0 -3 
C -0.795609 -3 -1.55874 -2.683901 -2.12132 -2.12132 
C -2.683901 -1.55874 -3 -0.795609 -3 0 
C -3 0.795609 -2.683901 1.55874 -2.12132 2.12132 
C -1.55874 2.683901 -0.795609 3 0 3 
z
" style="stroke: #2d3047"/>
    </defs>
    <g clip-path="url(#p31837faec2)">
     <use xlink:href="#mfe8b133f01" x="55.227727" y="151.906796" style="fill: #2d3047; stroke: #2d3047"/>
     <use xlink:href="#mfe8b133f01" x="134.411763" y="146.419608" style="fill: #2d3047; stroke: #2d3047"/>
     <use xlink:href="#mfe8b133f01" x="213.595798" y="156.25066" style="fill: #2d3047; stroke: #2d3047"/>
     <use xlink:href="#mfe8b133f01" x="292.779834" y="228.048059" style="fill: #2d3047; stroke: #2d3047"/>
     <use xlink:href="#mfe8b133f01" x="371.963869" y="245.880292" style="fill: #2d3047; stroke: #2d3047"/>
    </g>
   </g>
   <g id="line2d_34">
    <path d="M 59.186929 151.906796 
L 138.370965 146.419608 
L 217.555 127.420114 
L 296.739035 228.048059 
L 375.923071 245.880292 
" clip-path="url(#p31837faec2)" style="fill: none; stroke: #d1345b; stroke-width: 1.6; stroke-linecap: square"/>
    <defs>
     <path id="mb1055db1c2" d="M 0 3 
C 0.795609 3 1.55874 2.683901 2.12132 2.12132 
C 2.683901 1.55874 3 0.795609 3 0 
C 3 -0.795609 2.683901 -1.55874 2.12132 -2.12132 
C 1.55874 -2.683901 0.795609 -3 0 -3 
C -0.795609 -3 -1.55874 -2.683901 -2.12132 -2.12132 
C -2.683901 -1.55874 -3 -0.795609 -3 0 
C -3 0.795609 -2.683901 1.55874 -2.12132 2.12132 
C -1.55874 2.683901 -0.795609 3 0 3 
z
" style="stroke: #d1345b"/>
    </defs>
    <g clip-path="url(#p31837faec2)">
     <use xlink:href="#mb1055db1c2" x="59.186929" y="151.906796" style="fill: #d1345b; stroke: #d1345b"/>
     <use xlink:href="#mb1055db1c2" x="138.370965" y="146.419608" style="fill: #d1345b; stroke: #d1345b"/>
     <use xlink:href="#mb1055db1c2" x="217.555" y="127.420114" style="fill: #d1345b; stroke: #d1345b"/>
     <use xlink:href="#mb1055db1c2" x="296.739035" y="228.048059" style="fill: #d1345b; stroke: #d1345b"/>
     <use xlink:href="#mb1055db1c2" x="375.923071" y="245.880292" style="fill: #d1345b; stroke: #d1345b"/>
    </g>
   </g>
   <g id="line2d_35">
    <path d="M 63.146131 51.781527 
L 142.330166 146.419608 
L 221.514202 156.25066 
L 300.698237 228.048059 
L 379.882273 245.880292 
" clip-path="url(#p31837faec2)" style="fill: none; stroke: #ff9b71; stroke-width: 1.6; stroke-linecap: square"/>
    <defs>
     <path id="m08444b97e4" d="M 0 3 
C 0.795609 3 1.55874 2.683901 2.12132 2.12132 
C 2.683901 1.55874 3 0.795609 3 0 
C 3 -0.795609 2.683901 -1.55874 2.12132 -2.12132 
C 1.55874 -2.683901 0.795609 -3 0 -3 
C -0.795609 -3 -1.55874 -2.683901 -2.12132 -2.12132 
C -2.683901 -1.55874 -3 -0.795609 -3 0 
C -3 0.795609 -2.683901 1.55874 -2.12132 2.12132 
C -1.55874 2.683901 -0.795609 3 0 3 
z
" style="stroke: #ff9b71"/>
    </defs>
    <g clip-path="url(#p31837faec2)">
     <use xlink:href="#m08444b97e4" x="63.146131" y="51.781527" style="fill: #ff9b71; stroke: #ff9b71"/>
     <use xlink:href="#m08444b97e4" x="142.330166" y="146.419608" style="fill: #ff9b71; stroke: #ff9b71"/>
     <use xlink:href="#m08444b97e4" x="221.514202" y="156.25066" style="fill: #ff9b71; stroke: #ff9b71"/>
     <use xlink:href="#m08444b97e4" x="300.698237" y="228.048059" style="fill: #ff9b71; stroke: #ff9b71"/>
     <use xlink:href="#m08444b97e4" x="379.882273" y="245.880292" style="fill: #ff9b71; stroke: #ff9b71"/>
    </g>
   </g>
   <g id="patch_3">
    <path d="M 38.995 273.312 
L 38.995 7.2 
" style="fill: none; stroke: #000000; stroke-width: 0.8; stroke-linejoin: miter; stroke-linecap: square"/>
   </g>
   <g id="patch_4">
    <path d="M 396.115 273.312 
L 396.115 7.2 
" style="fill: none; stroke: #000000; stroke-width: 0.8; stroke-linejoin: miter; stroke-linecap: square"/>
   </g>
   <g id="patch_5">
    <path d="M 38.995 273.312 
L 396.115 273.312 
" style="fill: none; stroke: #000000; stroke-width: 0.8; stroke-linejoin: miter; stroke-linecap: square"/>
   </g>
   <g id="patch_6">
    <path d="M 38.995 7.2 
L 396.115 7.2 
" style="fill: none; stroke: #000000; stroke-width: 0.8; stroke-linejoin: miter; stroke-linecap: square"/>
   </g>
   <g id="legend_1">
    <g id="patch_7">
     <path d="M 328.222813 57.973437 
L 389.115 57.973437 
Q 391.115 57.973437 391.115 55.973437 
L 391.115 14.2 
Q 391.115 12.2 389.115 12.2 
L 328.222813 12.2 
Q 326.222813 12.2 326.222813 14.2 
L 326.222813 55.973437 
Q 326.222813 57.973437 328.222813 57.973437 
z
" style="fill: #ffffff; opacity: 0.8"/>
    </g>
    <g id="LineCollection_4">
     <path d="M 340.222813 24.873437 
L 340.222813 14.873437 
" style="fill: none; stroke: #2d3047"/>
    </g>
    <g id="line2d_36">
     <g>
      <use xlink:href="#mf16264086b" x="340.222813" y="24.873437" style="fill: #2d3047; stroke: #2d3047"/>
     </g>
    </g>
    <g id="line2d_37">
     <g>
      <use xlink:href="#mf16264086b" x="340.222813" y="14.873437" style="fill: #2d3047; stroke: #2d3047"/>
     </g>
    </g>
    <g id="line2d_38">
     <path d="M 330.222813 19.873437 
L 350.222813 19.873437 
" style="fill: none; stroke: #2d3047; stroke-width: 1.6; stroke-linecap: square"/>
    </g>
    <g id="line2d_39">
     <g>
      <use xlink:href="#mfe8b133f01" x="340.222813" y="19.873437" style="fill: #2d3047; stroke: #2d3047"/>
     </g>
    </g>
    <g id="text_16">
     <text style="font-size: 10px; font-family: 'Helvetica', 'Arial', sans-serif; text-anchor: start" x="358.222813" y="23.373437" transform="rotate(-0 358.222813 23.373437)">OURS</text>
    </g>
    <g id="LineCollection_5">
     <path d="M 340.222813 39.13125 
L 340.222813 29.13125 
" style="fill: none; stroke: #d1345b"/>
    </g>
    <g id="line2d_40">
     <g>
      <use xlink:href="#m8b74b6b28a" x="340.222813" y="39.13125" style="fill: #d1345b; stroke: #d1345b"/>
     </g>
    </g>
    <g id="line2d_41">
     <g>
      <use xlink:href="#m8b74b6b28a" x="340.222813" y="29.13125" style="fill: #d1345b; stroke: #d1345b"/>
     </g>
    </g>
    <g id="line2d_42">
     <path d="M 330.222813 34.13125 
L 350.222813 34.13125 
" style="fill: none; stroke: #d1345b; stroke-width: 1.6; stroke-linecap: square"/>
    </g>
    <g id="line2d_43">
     <g>
      <use xlink:href="#mb1055db1c2" x="340.222813" y="34.13125" style="fill: #d1345b; stroke: #d1345b"/>
     </g>
    </g>
    <g id="text_17">
     <text style="font-size: 10px; font-family: 'Helvetica', 'Arial', sans-serif; text-anchor: start" x="358.222813" y="37.63125" transform="rotate(-0 358.222813 37.63125)">PFI</text>
    </g>
    <g id="LineCollection_6">
     <path d="M 340.222813 53.389062 
L 340.222813 43.389062 
" style="fill: none; stroke: #ff9b71"/>
    </g>
    <g id="line2d_44">
     <g>
      <use xlink:href="#m051bbc0928" x="340.222813" y="53.389062" style="fill: #ff9b71; stroke: #ff9b71"/>
     </g>
    </g>
    <g id="line2d_45">
     <g>
      <use xlink:href="#m051bbc0928" x="340.222813" y="43.389062" style="fill: #ff9b71; stroke: #ff9b71"/>
     </g>
    </g>
    <g id="line2d_46">
     <path d="M 330.222813 48.389062 
L 350.222813 48.389062 
" style="fill: none; stroke: #ff9b71; stroke-width: 1.6; stroke-linecap: square"/>
    </g>
    <g id="line2d_47">
     <g>
      <use xlink:href="#m08444b97e4" x="340.222813" y="48.389062" style="fill: #ff9b71; stroke: #ff9b71"/>
     </g>
    </g>
    <g id="text_18">
     <text style="font-size: 10px; font-family: 'Helvetica', 'Arial', sans-serif; text-anchor: start" x="358.222813" y="51.889062" transform="rotate(-0 358.222813 51.889062)">SAGE</text>
    </g>
   </g>
  </g>
 </g>
 <defs>
  <clipPath id="p31837faec2">
   <rect x="38.995" y="7.2" width="357.12" height="266.112"/>
  </clipPath>
 </defs>
</svg>
