<?xml version="1.0" encoding="utf-8" standalone="no"?>
<!DOCTYPE svg PUBLIC "-//W3C//DTD SVG 1.1//EN"
  "http://www.w3.org/Graphics/SVG/1.1/DTD/svg11.dtd">
<svg xmlns:xlink="http://www.w3.org/1999/xlink" width="420.366875pt" height="276.352656pt" viewBox="0 0 420.366875 276.352656" xmlns="http://www.w3.org/2000/svg" version="1.1">
 <metadata>
  <rdf:RDF xmlns:dc="http://purl.org/dc/elements/1.1/" xmlns:cc="http://creativecommons.org/ns#" xmlns:rdf="http://www.w3.org/1999/02/22-rdf-syntax-ns#">
   <cc:Work>
    <dc:type rdf:resource="http://purl.org/dc/dcmitype/StillImage"/>
    <dc:date>2026-05-03T16:55:22.310802</dc:date>
    <dc:format>image/svg+xml</dc:format>
    <dc:creator>
     <cc:Agent>
      <dc:title>Matplotlib v3.10.8, https://matplotlib.org/</dc:title>
     </cc:Agent>
    </dc:creator>
   </cc:Work>
  </rdf:RDF>
 </metadata>
 <defs>
  <style type="text/css">*{stroke-linejoin: round; stroke-linecap: butt}</style>
 </defs>
 <g id="figure_1">
  <g id="patch_1">
   <path d="M 0 276.352656 
L 420.366875 276.352656 
L 420.366875 0 
L 0 0 
z
" style="fill: #ffffff"/>
  </g>
  <g id="axes_1">
   <g id="patch_2">
    <path d="M 47.121875 239.160469 
L 413.166875 239.160469 
L 413.166875 7.2 
L 47.121875 7.2 
z
" style="fill: #ffffff"/>
   </g>
   <g id="FillBetweenPolyCollection_1">
    <defs>
     <path id="mea09ced27f" d="M 63.760284 -59.141795 
L 63.760284 -47.735845 
L 230.144375 -169.583432 
L 396.528466 -241.709012 
L 396.528466 -254.323475 
L 396.528466 -254.323475 
L 230.144375 -175.689022 
L 63.760284 -59.141795 
z
" style="stroke: #2d3047; stroke-opacity: 0.2"/>
    </defs>
    <g clip-path="url(#pfe0197d6a2)">
     <use xlink:href="#mea09ced27f" x="0" y="276.352656" style="fill: #2d3047; fill-opacity: 0.2; stroke: #2d3047; stroke-opacity: 0.2"/>
    </g>
   </g>
   <g id="FillBetweenPolyCollection_2">
    <defs>
     <path id="m65df5c824c" d="M 63.760284 -63.182179 
L 63.760284 -50.0557 
L 230.144375 -153.879571 
L 396.528466 -244.031183 
L 396.528466 -251.600089 
L 396.528466 -251.600089 
L 230.144375 -164.073875 
L 63.760284 -63.182179 
z
" style="stroke: #d1345b; stroke-opacity: 0.2"/>
    </defs>
    <g clip-path="url(#pfe0197d6a2)">
     <use xlink:href="#m65df5c824c" x="0" y="276.352656" style="fill: #d1345b; fill-opacity: 0.2; stroke: #d1345b; stroke-opacity: 0.2"/>
    </g>
   </g>
   <g id="FillBetweenPolyCollection_3">
    <defs>
     <path id="mc296b5776f" d="M 63.760284 -62.649191 
L 63.760284 -50.544852 
L 230.144375 -169.490808 
L 396.528466 -242.654465 
L 396.528466 -258.608999 
L 396.528466 -258.608999 
L 230.144375 -180.299276 
L 63.760284 -62.649191 
z
" style="stroke: #ff9b71; stroke-opacity: 0.2"/>
    </defs>
    <g clip-path="url(#pfe0197d6a2)">
     <use xlink:href="#mc296b5776f" x="0" y="276.352656" style="fill: #ff9b71; fill-opacity: 0.2; stroke: #ff9b71; stroke-opacity: 0.2"/>
    </g>
   </g>
   <g id="matplotlib.axis_1">
    <g id="xtick_1">
     <g id="line2d_1">
      <defs>
       <path id="m0a64b368a1" d="M 0 0 
L 0 -4 
" style="stroke: #000000; stroke-width: 0.8"/>
      </defs>
      <g>
       <use xlink:href="#m0a64b368a1" x="63.760284" y="239.160469" style="stroke: #000000; stroke-width: 0.8"/>
      </g>
     </g>
     <g id="text_1">
      <text style="font-size: 10px; font-family: 'Helvetica', 'Arial', sans-serif; text-anchor: middle" x="63.760284" y="249.833906" transform="rotate(-0 63.760284 249.833906)">1</text>
     </g>
    </g>
    <g id="xtick_2">
     <g id="line2d_2">
      <g>
       <use xlink:href="#m0a64b368a1" x="230.144375" y="239.160469" style="stroke: #000000; stroke-width: 0.8"/>
      </g>
     </g>
     <g id="text_2">
      <text style="font-size: 10px; font-family: 'Helvetica', 'Arial', sans-serif; text-anchor: middle" x="230.144375" y="249.833906" transform="rotate(-0 230.144375 249.833906)">2</text>
     </g>
    </g>
    <g id="xtick_3">
     <g id="line2d_3">
      <g>
       <use xlink:href="#m0a64b368a1" x="396.528466" y="239.160469" style="stroke: #000000; stroke-width: 0.8"/>
      </g>
     </g>
     <g id="text_3">
      <text style="font-size: 10px; font-family: 'Helvetica', 'Arial', sans-serif; text-anchor: middle" x="396.528466" y="249.833906" transform="rotate(-0 396.528466 249.833906)">3</text>
     </g>
    </g>
    <g id="text_4">
     <text style="font-size: 14px; font-family: 'Helvetica', 'Arial', sans-serif; text-anchor: middle" x="230.144375" y="266.234531" transform="rotate(-0 230.144375 266.234531)">Sensor Groups Count</text>
    </g>
   </g>
   <g id="matplotlib.axis_2">
    <g id="ytick_1">
     <g id="line2d_4">
      <defs>
       <path id="ma0b020ef5e" d="M 0 0 
L 4 0 
" style="stroke: #000000; stroke-width: 0.8"/>
      </defs>
      <g>
       <use xlink:href="#ma0b020ef5e" x="47.121875" y="227.732864" style="stroke: #000000; stroke-width: 0.8"/>
      </g>
     </g>
     <g id="text_5">
      <text style="font-size: 10px; font-family: 'Helvetica', 'Arial', sans-serif; text-anchor: end" x="43.621875" y="231.319582" transform="rotate(-0 43.621875 231.319582)">0.30</text>
     </g>
    </g>
    <g id="ytick_2">
     <g id="line2d_5">
      <g>
       <use xlink:href="#ma0b020ef5e" x="47.121875" y="184.938213" style="stroke: #000000; stroke-width: 0.8"/>
      </g>
     </g>
     <g id="text_6">
      <text style="font-size: 10px; font-family: 'Helvetica', 'Arial', sans-serif; text-anchor: end" x="43.621875" y="188.524932" transform="rotate(-0 43.621875 188.524932)">0.35</text>
     </g>
    </g>
    <g id="ytick_3">
     <g id="line2d_6">
      <g>
       <use xlink:href="#ma0b020ef5e" x="47.121875" y="142.143563" style="stroke: #000000; stroke-width: 0.8"/>
      </g>
     </g>
     <g id="text_7">
      <text style="font-size: 10px; font-family: 'Helvetica', 'Arial', sans-serif; text-anchor: end" x="43.621875" y="145.730282" transform="rotate(-0 43.621875 145.730282)">0.40</text>
     </g>
    </g>
    <g id="ytick_4">
     <g id="line2d_7">
      <g>
       <use xlink:href="#ma0b020ef5e" x="47.121875" y="99.348913" style="stroke: #000000; stroke-width: 0.8"/>
      </g>
     </g>
     <g id="text_8">
      <text style="font-size: 10px; font-family: 'Helvetica', 'Arial', sans-serif; text-anchor: end" x="43.621875" y="102.935632" transform="rotate(-0 43.621875 102.935632)">0.45</text>
     </g>
    </g>
    <g id="ytick_5">
     <g id="line2d_8">
      <g>
       <use xlink:href="#ma0b020ef5e" x="47.121875" y="56.554263" style="stroke: #000000; stroke-width: 0.8"/>
      </g>
     </g>
     <g id="text_9">
      <text style="font-size: 10px; font-family: 'Helvetica', 'Arial', sans-serif; text-anchor: end" x="43.621875" y="60.140981" transform="rotate(-0 43.621875 60.140981)">0.50</text>
     </g>
    </g>
    <g id="ytick_6">
     <g id="line2d_9">
      <g>
       <use xlink:href="#ma0b020ef5e" x="47.121875" y="13.759613" style="stroke: #000000; stroke-width: 0.8"/>
      </g>
     </g>
     <g id="text_10">
      <text style="font-size: 10px; font-family: 'Helvetica', 'Arial', sans-serif; text-anchor: end" x="43.621875" y="17.346331" transform="rotate(-0 43.621875 17.346331)">0.55</text>
     </g>
    </g>
    <g id="text_11">
     <text style="font-size: 14px; font-family: 'Helvetica', 'Arial', sans-serif; text-anchor: middle" x="17.242813" y="123.180234" transform="rotate(-90 17.242813 123.180234)">Mutual Information</text>
    </g>
   </g>
   <g id="line2d_10">
    <path d="M 63.760284 220.516388 
L 230.144375 102.752584 
L 396.528466 28.660634 
" clip-path="url(#pfe0197d6a2)" style="fill: none; stroke: #2d3047; stroke-width: 1.6; stroke-linecap: square"/>
    <defs>
     <path id="ma23f0e71e0" d="M 0 3 
C 0.795609 3 1.55874 2.683901 2.12132 2.12132 
C 2.683901 1.55874 3 0.795609 3 0 
C 3 -0.795609 2.683901 -1.55874 2.12132 -2.12132 
C 1.55874 -2.683901 0.795609 -3 0 -3 
C -0.795609 -3 -1.55874 -2.683901 -2.12132 -2.12132 
C -2.683901 -1.55874 -3 -0.795609 -3 0 
C -3 0.795609 -2.683901 1.55874 -2.12132 2.12132 
C -1.55874 2.683901 -0.795609 3 0 3 
z
" style="stroke: #2d3047"/>
    </defs>
    <g clip-path="url(#pfe0197d6a2)">
     <use xlink:href="#ma23f0e71e0" x="63.760284" y="220.516388" style="fill: #2d3047; stroke: #2d3047"/>
     <use xlink:href="#ma23f0e71e0" x="230.144375" y="102.752584" style="fill: #2d3047; stroke: #2d3047"/>
     <use xlink:href="#ma23f0e71e0" x="396.528466" y="28.660634" style="fill: #2d3047; stroke: #2d3047"/>
    </g>
   </g>
   <g id="line2d_11">
    <path d="M 63.760284 220.259932 
L 230.144375 117.841734 
L 396.528466 29.095432 
" clip-path="url(#pfe0197d6a2)" style="fill: none; stroke-dasharray: 5.92,2.56; stroke-dashoffset: 0; stroke: #d1345b; stroke-width: 1.6"/>
    <defs>
     <path id="m998d6b8d90" d="M 0 3 
C 0.795609 3 1.55874 2.683901 2.12132 2.12132 
C 2.683901 1.55874 3 0.795609 3 0 
C 3 -0.795609 2.683901 -1.55874 2.12132 -2.12132 
C 1.55874 -2.683901 0.795609 -3 0 -3 
C -0.795609 -3 -1.55874 -2.683901 -2.12132 -2.12132 
C -2.683901 -1.55874 -3 -0.795609 -3 0 
C -3 0.795609 -2.683901 1.55874 -2.12132 2.12132 
C -1.55874 2.683901 -0.795609 3 0 3 
z
" style="stroke: #d1345b"/>
    </defs>
    <g clip-path="url(#pfe0197d6a2)">
     <use xlink:href="#m998d6b8d90" x="63.760284" y="220.259932" style="fill: #d1345b; stroke: #d1345b"/>
     <use xlink:href="#m998d6b8d90" x="230.144375" y="117.841734" style="fill: #d1345b; stroke: #d1345b"/>
     <use xlink:href="#m998d6b8d90" x="396.528466" y="29.095432" style="fill: #d1345b; stroke: #d1345b"/>
    </g>
   </g>
   <g id="line2d_12">
    <path d="M 63.760284 220.489063 
L 230.144375 102.575722 
L 396.528466 28.843764 
" clip-path="url(#pfe0197d6a2)" style="fill: none; stroke-dasharray: 1.6,2.64; stroke-dashoffset: 0; stroke: #ff9b71; stroke-width: 1.6"/>
    <defs>
     <path id="mdc1c25d425" d="M 0 3 
C 0.795609 3 1.55874 2.683901 2.12132 2.12132 
C 2.683901 1.55874 3 0.795609 3 0 
C 3 -0.795609 2.683901 -1.55874 2.12132 -2.12132 
C 1.55874 -2.683901 0.795609 -3 0 -3 
C -0.795609 -3 -1.55874 -2.683901 -2.12132 -2.12132 
C -2.683901 -1.55874 -3 -0.795609 -3 0 
C -3 0.795609 -2.683901 1.55874 -2.12132 2.12132 
C -1.55874 2.683901 -0.795609 3 0 3 
z
" style="stroke: #ff9b71"/>
    </defs>
    <g clip-path="url(#pfe0197d6a2)">
     <use xlink:href="#mdc1c25d425" x="63.760284" y="220.489063" style="fill: #ff9b71; stroke: #ff9b71"/>
     <use xlink:href="#mdc1c25d425" x="230.144375" y="102.575722" style="fill: #ff9b71; stroke: #ff9b71"/>
     <use xlink:href="#mdc1c25d425" x="396.528466" y="28.843764" style="fill: #ff9b71; stroke: #ff9b71"/>
    </g>
   </g>
   <g id="patch_3">
    <path d="M 47.121875 239.160469 
L 47.121875 7.2 
" style="fill: none; stroke: #000000; stroke-width: 0.8; stroke-linejoin: miter; stroke-linecap: square"/>
   </g>
   <g id="patch_4">
    <path d="M 413.166875 239.160469 
L 413.166875 7.2 
" style="fill: none; stroke: #000000; stroke-width: 0.8; stroke-linejoin: miter; stroke-linecap: square"/>
   </g>
   <g id="patch_5">
    <path d="M 47.121875 239.160469 
L 413.166875 239.160469 
" style="fill: none; stroke: #000000; stroke-width: 0.8; stroke-linejoin: miter; stroke-linecap: square"/>
   </g>
   <g id="patch_6">
    <path d="M 47.121875 7.2 
L 413.166875 7.2 
" style="fill: none; stroke: #000000; stroke-width: 0.8; stroke-linejoin: miter; stroke-linecap: square"/>
   </g>
   <g id="legend_1">
    <g id="patch_7">
     <path d="M 54.121875 57.973438 
L 117.23125 57.973438 
Q 119.23125 57.973438 119.23125 55.973438 
L 119.23125 14.2 
Q 119.23125 12.2 117.23125 12.2 
L 54.121875 12.2 
Q 52.121875 12.2 52.121875 14.2 
L 52.121875 55.973438 
Q 52.121875 57.973438 54.121875 57.973438 
z
" style="fill: #ffffff; opacity: 0.8"/>
    </g>
    <g id="line2d_13">
     <path d="M 56.121875 19.873438 
L 66.121875 19.873438 
L 76.121875 19.873438 
" style="fill: none; stroke: #2d3047; stroke-width: 1.6; stroke-linecap: square"/>
     <g>
      <use xlink:href="#ma23f0e71e0" x="66.121875" y="19.873438" style="fill: #2d3047; stroke: #2d3047"/>
     </g>
    </g>
    <g id="text_12">
     <text style="font-size: 10px; font-family: 'Helvetica', 'Arial', sans-serif; text-anchor: start" x="84.121875" y="23.373438" transform="rotate(-0 84.121875 23.373438)">SAGE</text>
    </g>
    <g id="line2d_14">
     <path d="M 56.121875 34.13125 
L 66.121875 34.13125 
L 76.121875 34.13125 
" style="fill: none; stroke-dasharray: 5.92,2.56; stroke-dashoffset: 0; stroke: #d1345b; stroke-width: 1.6"/>
     <g>
      <use xlink:href="#m998d6b8d90" x="66.121875" y="34.13125" style="fill: #d1345b; stroke: #d1345b"/>
     </g>
    </g>
    <g id="text_13">
     <text style="font-size: 10px; font-family: 'Helvetica', 'Arial', sans-serif; text-anchor: start" x="84.121875" y="37.63125" transform="rotate(-0 84.121875 37.63125)">PFI</text>
    </g>
    <g id="line2d_15">
     <path d="M 56.121875 48.389063 
L 66.121875 48.389063 
L 76.121875 48.389063 
" style="fill: none; stroke-dasharray: 1.6,2.64; stroke-dashoffset: 0; stroke: #ff9b71; stroke-width: 1.6"/>
     <g>
      <use xlink:href="#mdc1c25d425" x="66.121875" y="48.389063" style="fill: #ff9b71; stroke: #ff9b71"/>
     </g>
    </g>
    <g id="text_14">
     <text style="font-size: 10px; font-family: 'Helvetica', 'Arial', sans-serif; text-anchor: start" x="84.121875" y="51.889063" transform="rotate(-0 84.121875 51.889063)">ROWS</text>
    </g>
   </g>
  </g>
 </g>
 <defs>
  <clipPath id="pfe0197d6a2">
   <rect x="47.121875" y="7.2" width="366.045" height="231.960469"/>
  </clipPath>
 </defs>
</svg>
