<?xml version="1.0" encoding="utf-8" standalone="no"?>
<!DOCTYPE svg PUBLIC "-//W3C//DTD SVG 1.1//EN"
  "http://www.w3.org/Graphics/SVG/1.1/DTD/svg11.dtd">
<svg xmlns:xlink="http://www.w3.org/1999/xlink" width="420.366875pt" height="276.352656pt" viewBox="0 0 420.366875 276.352656" xmlns="http://www.w3.org/2000/svg" version="1.1">
 <metadata>
  <rdf:RDF xmlns:dc="http://purl.org/dc/elements/1.1/" xmlns:cc="http://creativecommons.org/ns#" xmlns:rdf="http://www.w3.org/1999/02/22-rdf-syntax-ns#">
   <cc:Work>
    <dc:type rdf:resource="http://purl.org/dc/dcmitype/StillImage"/>
    <dc:date>2026-05-03T16:55:22.405750</dc:date>
    <dc:format>image/svg+xml</dc:format>
    <dc:creator>
     <cc:Agent>
      <dc:title>Matplotlib v3.10.8, https://matplotlib.org/</dc:title>
     </cc:Agent>
    </dc:creator>
   </cc:Work>
  </rdf:RDF>
 </metadata>
 <defs>
  <style type="text/css">*{stroke-linejoin: round; stroke-linecap: butt}</style>
 </defs>
 <g id="figure_1">
  <g id="patch_1">
   <path d="M 0 276.352656 
L 420.366875 276.352656 
L 420.366875 0 
L 0 0 
z
" style="fill: #ffffff"/>
  </g>
  <g id="axes_1">
   <g id="patch_2">
    <path d="M 47.121875 239.160469 
L 413.166875 239.160469 
L 413.166875 7.2 
L 47.121875 7.2 
z
" style="fill: #ffffff"/>
   </g>
   <g id="FillBetweenPolyCollection_1">
    <defs>
     <path id="m5e64865698" d="M 63.760284 -66.167065 
L 63.760284 -47.909221 
L 146.95233 -219.695255 
L 230.144375 -220.535253 
L 313.33642 -230.119787 
L 396.528466 -235.571462 
L 396.528466 -253.760076 
L 396.528466 -253.760076 
L 313.33642 -245.888306 
L 230.144375 -242.370442 
L 146.95233 -236.671626 
L 63.760284 -66.167065 
z
" style="stroke: #2d3047; stroke-opacity: 0.2"/>
    </defs>
    <g clip-path="url(#p3d2f190f06)">
     <use xlink:href="#m5e64865698" x="0" y="276.352656" style="fill: #2d3047; fill-opacity: 0.2; stroke: #2d3047; stroke-opacity: 0.2"/>
    </g>
   </g>
   <g id="FillBetweenPolyCollection_2">
    <defs>
     <path id="m85839bd50a" d="M 63.760284 -70.213967 
L 63.760284 -47.735845 
L 146.95233 -232.55939 
L 230.144375 -236.765227 
L 313.33642 -231.469965 
L 396.528466 -233.640223 
L 396.528466 -250.043476 
L 396.528466 -250.043476 
L 313.33642 -253.344905 
L 230.144375 -252.388952 
L 146.95233 -248.673191 
L 63.760284 -70.213967 
z
" style="stroke: #d1345b; stroke-opacity: 0.2"/>
    </defs>
    <g clip-path="url(#p3d2f190f06)">
     <use xlink:href="#m85839bd50a" x="0" y="276.352656" style="fill: #d1345b; fill-opacity: 0.2; stroke: #d1345b; stroke-opacity: 0.2"/>
    </g>
   </g>
   <g id="FillBetweenPolyCollection_3">
    <defs>
     <path id="m749870288b" d="M 63.760284 -65.168529 
L 63.760284 -49.696426 
L 146.95233 -110.069008 
L 230.144375 -105.507187 
L 313.33642 -230.048108 
L 396.528466 -234.298796 
L 396.528466 -258.608999 
L 396.528466 -258.608999 
L 313.33642 -254.996584 
L 230.144375 -125.9579 
L 146.95233 -126.49269 
L 63.760284 -65.168529 
z
" style="stroke: #ff9b71; stroke-opacity: 0.2"/>
    </defs>
    <g clip-path="url(#p3d2f190f06)">
     <use xlink:href="#m749870288b" x="0" y="276.352656" style="fill: #ff9b71; fill-opacity: 0.2; stroke: #ff9b71; stroke-opacity: 0.2"/>
    </g>
   </g>
   <g id="matplotlib.axis_1">
    <g id="xtick_1">
     <g id="line2d_1">
      <defs>
       <path id="mc4698a70a9" d="M 0 0 
L 0 -4 
" style="stroke: #000000; stroke-width: 0.8"/>
      </defs>
      <g>
       <use xlink:href="#mc4698a70a9" x="63.760284" y="239.160469" style="stroke: #000000; stroke-width: 0.8"/>
      </g>
     </g>
     <g id="text_1">
      <text style="font-size: 10px; font-family: 'Helvetica', 'Arial', sans-serif; text-anchor: middle" x="63.760284" y="249.833906" transform="rotate(-0 63.760284 249.833906)">1</text>
     </g>
    </g>
    <g id="xtick_2">
     <g id="line2d_2">
      <g>
       <use xlink:href="#mc4698a70a9" x="146.95233" y="239.160469" style="stroke: #000000; stroke-width: 0.8"/>
      </g>
     </g>
     <g id="text_2">
      <text style="font-size: 10px; font-family: 'Helvetica', 'Arial', sans-serif; text-anchor: middle" x="146.95233" y="249.833906" transform="rotate(-0 146.95233 249.833906)">2</text>
     </g>
    </g>
    <g id="xtick_3">
     <g id="line2d_3">
      <g>
       <use xlink:href="#mc4698a70a9" x="230.144375" y="239.160469" style="stroke: #000000; stroke-width: 0.8"/>
      </g>
     </g>
     <g id="text_3">
      <text style="font-size: 10px; font-family: 'Helvetica', 'Arial', sans-serif; text-anchor: middle" x="230.144375" y="249.833906" transform="rotate(-0 230.144375 249.833906)">3</text>
     </g>
    </g>
    <g id="xtick_4">
     <g id="line2d_4">
      <g>
       <use xlink:href="#mc4698a70a9" x="313.33642" y="239.160469" style="stroke: #000000; stroke-width: 0.8"/>
      </g>
     </g>
     <g id="text_4">
      <text style="font-size: 10px; font-family: 'Helvetica', 'Arial', sans-serif; text-anchor: middle" x="313.33642" y="249.833906" transform="rotate(-0 313.33642 249.833906)">4</text>
     </g>
    </g>
    <g id="xtick_5">
     <g id="line2d_5">
      <g>
       <use xlink:href="#mc4698a70a9" x="396.528466" y="239.160469" style="stroke: #000000; stroke-width: 0.8"/>
      </g>
     </g>
     <g id="text_5">
      <text style="font-size: 10px; font-family: 'Helvetica', 'Arial', sans-serif; text-anchor: middle" x="396.528466" y="249.833906" transform="rotate(-0 396.528466 249.833906)">5</text>
     </g>
    </g>
    <g id="text_6">
     <text style="font-size: 14px; font-family: 'Helvetica', 'Arial', sans-serif; text-anchor: middle" x="230.144375" y="266.234531" transform="rotate(-0 230.144375 266.234531)">Sensor Groups Count</text>
    </g>
   </g>
   <g id="matplotlib.axis_2">
    <g id="ytick_1">
     <g id="line2d_6">
      <defs>
       <path id="mc018f63376" d="M 0 0 
L 4 0 
" style="stroke: #000000; stroke-width: 0.8"/>
      </defs>
      <g>
       <use xlink:href="#mc018f63376" x="47.121875" y="222.423452" style="stroke: #000000; stroke-width: 0.8"/>
      </g>
     </g>
     <g id="text_7">
      <text style="font-size: 10px; font-family: 'Helvetica', 'Arial', sans-serif; text-anchor: end" x="43.621875" y="226.010171" transform="rotate(-0 43.621875 226.010171)">0.40</text>
     </g>
    </g>
    <g id="ytick_2">
     <g id="line2d_7">
      <g>
       <use xlink:href="#mc018f63376" x="47.121875" y="193.725566" style="stroke: #000000; stroke-width: 0.8"/>
      </g>
     </g>
     <g id="text_8">
      <text style="font-size: 10px; font-family: 'Helvetica', 'Arial', sans-serif; text-anchor: end" x="43.621875" y="197.312285" transform="rotate(-0 43.621875 197.312285)">0.42</text>
     </g>
    </g>
    <g id="ytick_3">
     <g id="line2d_8">
      <g>
       <use xlink:href="#mc018f63376" x="47.121875" y="165.02768" style="stroke: #000000; stroke-width: 0.8"/>
      </g>
     </g>
     <g id="text_9">
      <text style="font-size: 10px; font-family: 'Helvetica', 'Arial', sans-serif; text-anchor: end" x="43.621875" y="168.614399" transform="rotate(-0 43.621875 168.614399)">0.44</text>
     </g>
    </g>
    <g id="ytick_4">
     <g id="line2d_9">
      <g>
       <use xlink:href="#mc018f63376" x="47.121875" y="136.329795" style="stroke: #000000; stroke-width: 0.8"/>
      </g>
     </g>
     <g id="text_10">
      <text style="font-size: 10px; font-family: 'Helvetica', 'Arial', sans-serif; text-anchor: end" x="43.621875" y="139.916513" transform="rotate(-0 43.621875 139.916513)">0.46</text>
     </g>
    </g>
    <g id="ytick_5">
     <g id="line2d_10">
      <g>
       <use xlink:href="#mc018f63376" x="47.121875" y="107.631909" style="stroke: #000000; stroke-width: 0.8"/>
      </g>
     </g>
     <g id="text_11">
      <text style="font-size: 10px; font-family: 'Helvetica', 'Arial', sans-serif; text-anchor: end" x="43.621875" y="111.218627" transform="rotate(-0 43.621875 111.218627)">0.48</text>
     </g>
    </g>
    <g id="ytick_6">
     <g id="line2d_11">
      <g>
       <use xlink:href="#mc018f63376" x="47.121875" y="78.934023" style="stroke: #000000; stroke-width: 0.8"/>
      </g>
     </g>
     <g id="text_12">
      <text style="font-size: 10px; font-family: 'Helvetica', 'Arial', sans-serif; text-anchor: end" x="43.621875" y="82.520741" transform="rotate(-0 43.621875 82.520741)">0.50</text>
     </g>
    </g>
    <g id="ytick_7">
     <g id="line2d_12">
      <g>
       <use xlink:href="#mc018f63376" x="47.121875" y="50.236137" style="stroke: #000000; stroke-width: 0.8"/>
      </g>
     </g>
     <g id="text_13">
      <text style="font-size: 10px; font-family: 'Helvetica', 'Arial', sans-serif; text-anchor: end" x="43.621875" y="53.822856" transform="rotate(-0 43.621875 53.822856)">0.52</text>
     </g>
    </g>
    <g id="ytick_8">
     <g id="line2d_13">
      <g>
       <use xlink:href="#mc018f63376" x="47.121875" y="21.538251" style="stroke: #000000; stroke-width: 0.8"/>
      </g>
     </g>
     <g id="text_14">
      <text style="font-size: 10px; font-family: 'Helvetica', 'Arial', sans-serif; text-anchor: end" x="43.621875" y="25.12497" transform="rotate(-0 43.621875 25.12497)">0.54</text>
     </g>
    </g>
    <g id="text_15">
     <text style="font-size: 14px; font-family: 'Helvetica', 'Arial', sans-serif; text-anchor: middle" x="17.242813" y="123.180234" transform="rotate(-90 17.242813 123.180234)">Mutual Information</text>
    </g>
   </g>
   <g id="line2d_14">
    <path d="M 63.760284 220.554908 
L 146.95233 48.796276 
L 230.144375 45.531168 
L 313.33642 33.959977 
L 396.528466 32.599429 
" clip-path="url(#p3d2f190f06)" style="fill: none; stroke: #2d3047; stroke-width: 1.6; stroke-linecap: square"/>
    <defs>
     <path id="m3451f4f158" d="M 0 3 
C 0.795609 3 1.55874 2.683901 2.12132 2.12132 
C 2.683901 1.55874 3 0.795609 3 0 
C 3 -0.795609 2.683901 -1.55874 2.12132 -2.12132 
C 1.55874 -2.683901 0.795609 -3 0 -3 
C -0.795609 -3 -1.55874 -2.683901 -2.12132 -2.12132 
C -2.683901 -1.55874 -3 -0.795609 -3 0 
C -3 0.795609 -2.683901 1.55874 -2.12132 2.12132 
C -1.55874 2.683901 -0.795609 3 0 3 
z
" style="stroke: #2d3047"/>
    </defs>
    <g clip-path="url(#p3d2f190f06)">
     <use xlink:href="#m3451f4f158" x="63.760284" y="220.554908" style="fill: #2d3047; stroke: #2d3047"/>
     <use xlink:href="#m3451f4f158" x="146.95233" y="48.796276" style="fill: #2d3047; stroke: #2d3047"/>
     <use xlink:href="#m3451f4f158" x="230.144375" y="45.531168" style="fill: #2d3047; stroke: #2d3047"/>
     <use xlink:href="#m3451f4f158" x="313.33642" y="33.959977" style="fill: #2d3047; stroke: #2d3047"/>
     <use xlink:href="#m3451f4f158" x="396.528466" y="32.599429" style="fill: #2d3047; stroke: #2d3047"/>
    </g>
   </g>
   <g id="line2d_15">
    <path d="M 63.760284 219.675208 
L 146.95233 35.395331 
L 230.144375 30.731846 
L 313.33642 34.011302 
L 396.528466 32.552081 
" clip-path="url(#p3d2f190f06)" style="fill: none; stroke-dasharray: 5.92,2.56; stroke-dashoffset: 0; stroke: #d1345b; stroke-width: 1.6"/>
    <defs>
     <path id="mc47d304bd5" d="M 0 3 
C 0.795609 3 1.55874 2.683901 2.12132 2.12132 
C 2.683901 1.55874 3 0.795609 3 0 
C 3 -0.795609 2.683901 -1.55874 2.12132 -2.12132 
C 1.55874 -2.683901 0.795609 -3 0 -3 
C -0.795609 -3 -1.55874 -2.683901 -2.12132 -2.12132 
C -2.683901 -1.55874 -3 -0.795609 -3 0 
C -3 0.795609 -2.683901 1.55874 -2.12132 2.12132 
C -1.55874 2.683901 -0.795609 3 0 3 
z
" style="stroke: #d1345b"/>
    </defs>
    <g clip-path="url(#p3d2f190f06)">
     <use xlink:href="#mc47d304bd5" x="63.760284" y="219.675208" style="fill: #d1345b; stroke: #d1345b"/>
     <use xlink:href="#mc47d304bd5" x="146.95233" y="35.395331" style="fill: #d1345b; stroke: #d1345b"/>
     <use xlink:href="#mc47d304bd5" x="230.144375" y="30.731846" style="fill: #d1345b; stroke: #d1345b"/>
     <use xlink:href="#mc47d304bd5" x="313.33642" y="34.011302" style="fill: #d1345b; stroke: #d1345b"/>
     <use xlink:href="#mc47d304bd5" x="396.528466" y="32.552081" style="fill: #d1345b; stroke: #d1345b"/>
    </g>
   </g>
   <g id="line2d_16">
    <path d="M 63.760284 218.815555 
L 146.95233 156.881439 
L 230.144375 160.264133 
L 313.33642 33.894426 
L 396.528466 32.717664 
" clip-path="url(#p3d2f190f06)" style="fill: none; stroke-dasharray: 1.6,2.64; stroke-dashoffset: 0; stroke: #ff9b71; stroke-width: 1.6"/>
    <defs>
     <path id="mbdb68ed053" d="M 0 3 
C 0.795609 3 1.55874 2.683901 2.12132 2.12132 
C 2.683901 1.55874 3 0.795609 3 0 
C 3 -0.795609 2.683901 -1.55874 2.12132 -2.12132 
C 1.55874 -2.683901 0.795609 -3 0 -3 
C -0.795609 -3 -1.55874 -2.683901 -2.12132 -2.12132 
C -2.683901 -1.55874 -3 -0.795609 -3 0 
C -3 0.795609 -2.683901 1.55874 -2.12132 2.12132 
C -1.55874 2.683901 -0.795609 3 0 3 
z
" style="stroke: #ff9b71"/>
    </defs>
    <g clip-path="url(#p3d2f190f06)">
     <use xlink:href="#mbdb68ed053" x="63.760284" y="218.815555" style="fill: #ff9b71; stroke: #ff9b71"/>
     <use xlink:href="#mbdb68ed053" x="146.95233" y="156.881439" style="fill: #ff9b71; stroke: #ff9b71"/>
     <use xlink:href="#mbdb68ed053" x="230.144375" y="160.264133" style="fill: #ff9b71; stroke: #ff9b71"/>
     <use xlink:href="#mbdb68ed053" x="313.33642" y="33.894426" style="fill: #ff9b71; stroke: #ff9b71"/>
     <use xlink:href="#mbdb68ed053" x="396.528466" y="32.717664" style="fill: #ff9b71; stroke: #ff9b71"/>
    </g>
   </g>
   <g id="patch_3">
    <path d="M 47.121875 239.160469 
L 47.121875 7.2 
" style="fill: none; stroke: #000000; stroke-width: 0.8; stroke-linejoin: miter; stroke-linecap: square"/>
   </g>
   <g id="patch_4">
    <path d="M 413.166875 239.160469 
L 413.166875 7.2 
" style="fill: none; stroke: #000000; stroke-width: 0.8; stroke-linejoin: miter; stroke-linecap: square"/>
   </g>
   <g id="patch_5">
    <path d="M 47.121875 239.160469 
L 413.166875 239.160469 
" style="fill: none; stroke: #000000; stroke-width: 0.8; stroke-linejoin: miter; stroke-linecap: square"/>
   </g>
   <g id="patch_6">
    <path d="M 47.121875 7.2 
L 413.166875 7.2 
" style="fill: none; stroke: #000000; stroke-width: 0.8; stroke-linejoin: miter; stroke-linecap: square"/>
   </g>
   <g id="legend_1">
    <g id="patch_7">
     <path d="M 54.121875 57.973437 
L 117.23125 57.973437 
Q 119.23125 57.973437 119.23125 55.973437 
L 119.23125 14.2 
Q 119.23125 12.2 117.23125 12.2 
L 54.121875 12.2 
Q 52.121875 12.2 52.121875 14.2 
L 52.121875 55.973437 
Q 52.121875 57.973437 54.121875 57.973437 
z
" style="fill: #ffffff; opacity: 0.8"/>
    </g>
    <g id="line2d_17">
     <path d="M 56.121875 19.873437 
L 66.121875 19.873437 
L 76.121875 19.873437 
" style="fill: none; stroke: #2d3047; stroke-width: 1.6; stroke-linecap: square"/>
     <g>
      <use xlink:href="#m3451f4f158" x="66.121875" y="19.873437" style="fill: #2d3047; stroke: #2d3047"/>
     </g>
    </g>
    <g id="text_16">
     <text style="font-size: 10px; font-family: 'Helvetica', 'Arial', sans-serif; text-anchor: start" x="84.121875" y="23.373437" transform="rotate(-0 84.121875 23.373437)">SAGE</text>
    </g>
    <g id="line2d_18">
     <path d="M 56.121875 34.13125 
L 66.121875 34.13125 
L 76.121875 34.13125 
" style="fill: none; stroke-dasharray: 5.92,2.56; stroke-dashoffset: 0; stroke: #d1345b; stroke-width: 1.6"/>
     <g>
      <use xlink:href="#mc47d304bd5" x="66.121875" y="34.13125" style="fill: #d1345b; stroke: #d1345b"/>
     </g>
    </g>
    <g id="text_17">
     <text style="font-size: 10px; font-family: 'Helvetica', 'Arial', sans-serif; text-anchor: start" x="84.121875" y="37.63125" transform="rotate(-0 84.121875 37.63125)">PFI</text>
    </g>
    <g id="line2d_19">
     <path d="M 56.121875 48.389062 
L 66.121875 48.389062 
L 76.121875 48.389062 
" style="fill: none; stroke-dasharray: 1.6,2.64; stroke-dashoffset: 0; stroke: #ff9b71; stroke-width: 1.6"/>
     <g>
      <use xlink:href="#mbdb68ed053" x="66.121875" y="48.389062" style="fill: #ff9b71; stroke: #ff9b71"/>
     </g>
    </g>
    <g id="text_18">
     <text style="font-size: 10px; font-family: 'Helvetica', 'Arial', sans-serif; text-anchor: start" x="84.121875" y="51.889062" transform="rotate(-0 84.121875 51.889062)">ROWS</text>
    </g>
   </g>
  </g>
 </g>
 <defs>
  <clipPath id="p3d2f190f06">
   <rect x="47.121875" y="7.2" width="366.045" height="231.960469"/>
  </clipPath>
 </defs>
</svg>
