<?xml version="1.0" encoding="utf-8" standalone="no"?>
<!DOCTYPE svg PUBLIC "-//W3C//DTD SVG 1.1//EN"
  "http://www.w3.org/Graphics/SVG/1.1/DTD/svg11.dtd">
<svg xmlns:xlink="http://www.w3.org/1999/xlink" width="420.726875pt" height="276.639375pt" viewBox="0 0 420.726875 276.639375" xmlns="http://www.w3.org/2000/svg" version="1.1">
 <metadata>
  <rdf:RDF xmlns:dc="http://purl.org/dc/elements/1.1/" xmlns:cc="http://creativecommons.org/ns#" xmlns:rdf="http://www.w3.org/1999/02/22-rdf-syntax-ns#">
   <cc:Work>
    <dc:type rdf:resource="http://purl.org/dc/dcmitype/StillImage"/>
    <dc:date>2026-04-15T11:59:22.768428</dc:date>
    <dc:format>image/svg+xml</dc:format>
    <dc:creator>
     <cc:Agent>
      <dc:title>Matplotlib v3.9.2, https://matplotlib.org/</dc:title>
     </cc:Agent>
    </dc:creator>
   </cc:Work>
  </rdf:RDF>
 </metadata>
 <defs>
  <style type="text/css">*{stroke-linejoin: round; stroke-linecap: butt}</style>
 </defs>
 <g id="figure_1">
  <g id="patch_1">
   <path d="M 0 276.639375 
L 420.726875 276.639375 
L 420.726875 0 
L 0 0 
z
" style="fill: #ffffff"/>
  </g>
  <g id="axes_1">
   <g id="patch_2">
    <path d="M 46.964375 239.82 
L 413.526875 239.82 
L 413.526875 7.2 
L 46.964375 7.2 
z
" style="fill: #ffffff"/>
   </g>
   <g id="PolyCollection_1">
    <defs>
     <path id="m5d8048e54c" d="M 63.626307 -58.831391 
L 63.626307 -47.393011 
L 230.245625 -169.587046 
L 396.864943 -241.9177 
L 396.864943 -254.56803 
L 396.864943 -254.56803 
L 230.245625 -175.709996 
L 63.626307 -58.831391 
z
" style="stroke: #2d3047; stroke-opacity: 0.2"/>
    </defs>
    <g clip-path="url(#p69720c0832)">
     <use xlink:href="#m5d8048e54c" x="0" y="276.639375" style="fill: #2d3047; fill-opacity: 0.2; stroke: #2d3047; stroke-opacity: 0.2"/>
    </g>
   </g>
   <g id="PolyCollection_2">
    <defs>
     <path id="mbb59142202" d="M 63.626307 -62.883264 
L 63.626307 -49.719463 
L 230.245625 -153.838534 
L 396.864943 -244.246474 
L 396.864943 -251.836901 
L 396.864943 -251.836901 
L 230.245625 -164.061824 
L 63.626307 -62.883264 
z
" style="stroke: #d1345b; stroke-opacity: 0.2"/>
    </defs>
    <g clip-path="url(#p69720c0832)">
     <use xlink:href="#mbb59142202" x="0" y="276.639375" style="fill: #d1345b; fill-opacity: 0.2; stroke: #d1345b; stroke-opacity: 0.2"/>
    </g>
   </g>
   <g id="PolyCollection_3">
    <defs>
     <path id="m3ae9feb2a1" d="M 63.626307 -62.34876 
L 63.626307 -50.210005 
L 230.245625 -169.494159 
L 396.864943 -242.865842 
L 396.864943 -258.865739 
L 396.864943 -258.865739 
L 230.245625 -180.333359 
L 63.626307 -62.34876 
z
" style="stroke: #ff9b71; stroke-opacity: 0.2"/>
    </defs>
    <g clip-path="url(#p69720c0832)">
     <use xlink:href="#m3ae9feb2a1" x="0" y="276.639375" style="fill: #ff9b71; fill-opacity: 0.2; stroke: #ff9b71; stroke-opacity: 0.2"/>
    </g>
   </g>
   <g id="matplotlib.axis_1">
    <g id="xtick_1">
     <g id="line2d_1">
      <defs>
       <path id="m53780961eb" d="M 0 0 
L 0 -4 
" style="stroke: #000000; stroke-width: 0.8"/>
      </defs>
      <g>
       <use xlink:href="#m53780961eb" x="63.626307" y="239.82" style="stroke: #000000; stroke-width: 0.8"/>
      </g>
     </g>
     <g id="text_1">
      <text style="font: 10px 'Helvetica', 'Arial', sans-serif; text-anchor: middle" x="63.626307" y="250.477813" transform="rotate(-0 63.626307 250.477813)">1</text>
     </g>
    </g>
    <g id="xtick_2">
     <g id="line2d_2">
      <g>
       <use xlink:href="#m53780961eb" x="230.245625" y="239.82" style="stroke: #000000; stroke-width: 0.8"/>
      </g>
     </g>
     <g id="text_2">
      <text style="font: 10px 'Helvetica', 'Arial', sans-serif; text-anchor: middle" x="230.245625" y="250.477813" transform="rotate(-0 230.245625 250.477813)">2</text>
     </g>
    </g>
    <g id="xtick_3">
     <g id="line2d_3">
      <g>
       <use xlink:href="#m53780961eb" x="396.864943" y="239.82" style="stroke: #000000; stroke-width: 0.8"/>
      </g>
     </g>
     <g id="text_3">
      <text style="font: 10px 'Helvetica', 'Arial', sans-serif; text-anchor: middle" x="396.864943" y="250.477813" transform="rotate(-0 396.864943 250.477813)">3</text>
     </g>
    </g>
    <g id="text_4">
     <text style="font: 14px 'Helvetica', 'Arial', sans-serif; text-anchor: middle" x="230.245625" y="266.656875" transform="rotate(-0 230.245625 266.656875)">Sensor Groups Count</text>
    </g>
   </g>
   <g id="matplotlib.axis_2">
    <g id="ytick_1">
     <g id="line2d_4">
      <defs>
       <path id="ma2199e39ae" d="M 0 0 
L 4 0 
" style="stroke: #000000; stroke-width: 0.8"/>
      </defs>
      <g>
       <use xlink:href="#ma2199e39ae" x="46.964375" y="228.359903" style="stroke: #000000; stroke-width: 0.8"/>
      </g>
     </g>
     <g id="text_5">
      <text style="font: 10px 'Helvetica', 'Arial', sans-serif; text-anchor: end" x="43.464375" y="231.938809" transform="rotate(-0 43.464375 231.938809)">0.30</text>
     </g>
    </g>
    <g id="ytick_2">
     <g id="line2d_5">
      <g>
       <use xlink:href="#ma2199e39ae" x="46.964375" y="185.443575" style="stroke: #000000; stroke-width: 0.8"/>
      </g>
     </g>
     <g id="text_6">
      <text style="font: 10px 'Helvetica', 'Arial', sans-serif; text-anchor: end" x="43.464375" y="189.022481" transform="rotate(-0 43.464375 189.022481)">0.35</text>
     </g>
    </g>
    <g id="ytick_3">
     <g id="line2d_6">
      <g>
       <use xlink:href="#ma2199e39ae" x="46.964375" y="142.527247" style="stroke: #000000; stroke-width: 0.8"/>
      </g>
     </g>
     <g id="text_7">
      <text style="font: 10px 'Helvetica', 'Arial', sans-serif; text-anchor: end" x="43.464375" y="146.106153" transform="rotate(-0 43.464375 146.106153)">0.40</text>
     </g>
    </g>
    <g id="ytick_4">
     <g id="line2d_7">
      <g>
       <use xlink:href="#ma2199e39ae" x="46.964375" y="99.610919" style="stroke: #000000; stroke-width: 0.8"/>
      </g>
     </g>
     <g id="text_8">
      <text style="font: 10px 'Helvetica', 'Arial', sans-serif; text-anchor: end" x="43.464375" y="103.189825" transform="rotate(-0 43.464375 103.189825)">0.45</text>
     </g>
    </g>
    <g id="ytick_5">
     <g id="line2d_8">
      <g>
       <use xlink:href="#ma2199e39ae" x="46.964375" y="56.694591" style="stroke: #000000; stroke-width: 0.8"/>
      </g>
     </g>
     <g id="text_9">
      <text style="font: 10px 'Helvetica', 'Arial', sans-serif; text-anchor: end" x="43.464375" y="60.273498" transform="rotate(-0 43.464375 60.273498)">0.50</text>
     </g>
    </g>
    <g id="ytick_6">
     <g id="line2d_9">
      <g>
       <use xlink:href="#ma2199e39ae" x="46.964375" y="13.778263" style="stroke: #000000; stroke-width: 0.8"/>
      </g>
     </g>
     <g id="text_10">
      <text style="font: 10px 'Helvetica', 'Arial', sans-serif; text-anchor: end" x="43.464375" y="17.35717" transform="rotate(-0 43.464375 17.35717)">0.55</text>
     </g>
    </g>
    <g id="text_11">
     <text style="font: 14px 'Helvetica', 'Arial', sans-serif; text-anchor: middle" x="17.220938" y="123.51" transform="rotate(-90 17.220938 123.51)">Mutual Information</text>
    </g>
   </g>
   <g id="line2d_10">
    <path d="M 63.626307 221.122908 
L 230.245625 103.024267 
L 396.864943 28.721653 
" clip-path="url(#p69720c0832)" style="fill: none; stroke: #2d3047; stroke-width: 1.6; stroke-linecap: square"/>
    <defs>
     <path id="mf6a6c875b3" d="M 0 3 
C 0.795609 3 1.55874 2.683901 2.12132 2.12132 
C 2.683901 1.55874 3 0.795609 3 0 
C 3 -0.795609 2.683901 -1.55874 2.12132 -2.12132 
C 1.55874 -2.683901 0.795609 -3 0 -3 
C -0.795609 -3 -1.55874 -2.683901 -2.12132 -2.12132 
C -2.683901 -1.55874 -3 -0.795609 -3 0 
C -3 0.795609 -2.683901 1.55874 -2.12132 2.12132 
C -1.55874 2.683901 -0.795609 3 0 3 
z
" style="stroke: #2d3047"/>
    </defs>
    <g clip-path="url(#p69720c0832)">
     <use xlink:href="#mf6a6c875b3" x="63.626307" y="221.122908" style="fill: #2d3047; stroke: #2d3047"/>
     <use xlink:href="#mf6a6c875b3" x="230.245625" y="103.024267" style="fill: #2d3047; stroke: #2d3047"/>
     <use xlink:href="#mf6a6c875b3" x="396.864943" y="28.721653" style="fill: #2d3047; stroke: #2d3047"/>
    </g>
   </g>
   <g id="line2d_11">
    <path d="M 63.626307 220.865723 
L 230.245625 118.156321 
L 396.864943 29.157687 
" clip-path="url(#p69720c0832)" style="fill: none; stroke-dasharray: 5.92,2.56; stroke-dashoffset: 0; stroke: #d1345b; stroke-width: 1.6"/>
    <defs>
     <path id="m984740f8f4" d="M 0 3 
C 0.795609 3 1.55874 2.683901 2.12132 2.12132 
C 2.683901 1.55874 3 0.795609 3 0 
C 3 -0.795609 2.683901 -1.55874 2.12132 -2.12132 
C 1.55874 -2.683901 0.795609 -3 0 -3 
C -0.795609 -3 -1.55874 -2.683901 -2.12132 -2.12132 
C -2.683901 -1.55874 -3 -0.795609 -3 0 
C -3 0.795609 -2.683901 1.55874 -2.12132 2.12132 
C -1.55874 2.683901 -0.795609 3 0 3 
z
" style="stroke: #d1345b"/>
    </defs>
    <g clip-path="url(#p69720c0832)">
     <use xlink:href="#m984740f8f4" x="63.626307" y="220.865723" style="fill: #d1345b; stroke: #d1345b"/>
     <use xlink:href="#m984740f8f4" x="230.245625" y="118.156321" style="fill: #d1345b; stroke: #d1345b"/>
     <use xlink:href="#m984740f8f4" x="396.864943" y="29.157687" style="fill: #d1345b; stroke: #d1345b"/>
    </g>
   </g>
   <g id="line2d_12">
    <path d="M 63.626307 221.095506 
L 230.245625 102.846903 
L 396.864943 28.905304 
" clip-path="url(#p69720c0832)" style="fill: none; stroke-dasharray: 1.6,2.64; stroke-dashoffset: 0; stroke: #ff9b71; stroke-width: 1.6"/>
    <defs>
     <path id="m245b54da4a" d="M 0 3 
C 0.795609 3 1.55874 2.683901 2.12132 2.12132 
C 2.683901 1.55874 3 0.795609 3 0 
C 3 -0.795609 2.683901 -1.55874 2.12132 -2.12132 
C 1.55874 -2.683901 0.795609 -3 0 -3 
C -0.795609 -3 -1.55874 -2.683901 -2.12132 -2.12132 
C -2.683901 -1.55874 -3 -0.795609 -3 0 
C -3 0.795609 -2.683901 1.55874 -2.12132 2.12132 
C -1.55874 2.683901 -0.795609 3 0 3 
z
" style="stroke: #ff9b71"/>
    </defs>
    <g clip-path="url(#p69720c0832)">
     <use xlink:href="#m245b54da4a" x="63.626307" y="221.095506" style="fill: #ff9b71; stroke: #ff9b71"/>
     <use xlink:href="#m245b54da4a" x="230.245625" y="102.846903" style="fill: #ff9b71; stroke: #ff9b71"/>
     <use xlink:href="#m245b54da4a" x="396.864943" y="28.905304" style="fill: #ff9b71; stroke: #ff9b71"/>
    </g>
   </g>
   <g id="patch_3">
    <path d="M 46.964375 239.82 
L 46.964375 7.2 
" style="fill: none; stroke: #000000; stroke-width: 0.8; stroke-linejoin: miter; stroke-linecap: square"/>
   </g>
   <g id="patch_4">
    <path d="M 413.526875 239.82 
L 413.526875 7.2 
" style="fill: none; stroke: #000000; stroke-width: 0.8; stroke-linejoin: miter; stroke-linecap: square"/>
   </g>
   <g id="patch_5">
    <path d="M 46.964375 239.82 
L 413.526875 239.82 
" style="fill: none; stroke: #000000; stroke-width: 0.8; stroke-linejoin: miter; stroke-linecap: square"/>
   </g>
   <g id="patch_6">
    <path d="M 46.964375 7.2 
L 413.526875 7.2 
" style="fill: none; stroke: #000000; stroke-width: 0.8; stroke-linejoin: miter; stroke-linecap: square"/>
   </g>
   <g id="legend_1">
    <g id="patch_7">
     <path d="M 53.964375 57.635938 
L 114.856563 57.635938 
Q 116.856563 57.635938 116.856563 55.635938 
L 116.856563 14.2 
Q 116.856563 12.2 114.856563 12.2 
L 53.964375 12.2 
Q 51.964375 12.2 51.964375 14.2 
L 51.964375 55.635938 
Q 51.964375 57.635938 53.964375 57.635938 
z
" style="fill: #ffffff; opacity: 0.8"/>
    </g>
    <g id="line2d_13">
     <path d="M 55.964375 19.857813 
L 65.964375 19.857813 
L 75.964375 19.857813 
" style="fill: none; stroke: #2d3047; stroke-width: 1.6; stroke-linecap: square"/>
     <g>
      <use xlink:href="#mf6a6c875b3" x="65.964375" y="19.857813" style="fill: #2d3047; stroke: #2d3047"/>
     </g>
    </g>
    <g id="text_12">
     <text style="font: 10px 'Helvetica', 'Arial', sans-serif; text-anchor: start" x="83.964375" y="23.357813" transform="rotate(-0 83.964375 23.357813)">SAGE</text>
    </g>
    <g id="line2d_14">
     <path d="M 55.964375 34.003125 
L 65.964375 34.003125 
L 75.964375 34.003125 
" style="fill: none; stroke-dasharray: 5.92,2.56; stroke-dashoffset: 0; stroke: #d1345b; stroke-width: 1.6"/>
     <g>
      <use xlink:href="#m984740f8f4" x="65.964375" y="34.003125" style="fill: #d1345b; stroke: #d1345b"/>
     </g>
    </g>
    <g id="text_13">
     <text style="font: 10px 'Helvetica', 'Arial', sans-serif; text-anchor: start" x="83.964375" y="37.503125" transform="rotate(-0 83.964375 37.503125)">PFI</text>
    </g>
    <g id="line2d_15">
     <path d="M 55.964375 48.148438 
L 65.964375 48.148438 
L 75.964375 48.148438 
" style="fill: none; stroke-dasharray: 1.6,2.64; stroke-dashoffset: 0; stroke: #ff9b71; stroke-width: 1.6"/>
     <g>
      <use xlink:href="#m245b54da4a" x="65.964375" y="48.148438" style="fill: #ff9b71; stroke: #ff9b71"/>
     </g>
    </g>
    <g id="text_14">
     <text style="font: 10px 'Helvetica', 'Arial', sans-serif; text-anchor: start" x="83.964375" y="51.648438" transform="rotate(-0 83.964375 51.648438)">OURS</text>
    </g>
   </g>
  </g>
 </g>
 <defs>
  <clipPath id="p69720c0832">
   <rect x="46.964375" y="7.2" width="366.5625" height="232.62"/>
  </clipPath>
 </defs>
</svg>
