<?xml version="1.0" encoding="utf-8" standalone="no"?>
<!DOCTYPE svg PUBLIC "-//W3C//DTD SVG 1.1//EN"
  "http://www.w3.org/Graphics/SVG/1.1/DTD/svg11.dtd">
<svg xmlns:xlink="http://www.w3.org/1999/xlink" width="420.726875pt" height="276.639375pt" viewBox="0 0 420.726875 276.639375" xmlns="http://www.w3.org/2000/svg" version="1.1">
 <metadata>
  <rdf:RDF xmlns:dc="http://purl.org/dc/elements/1.1/" xmlns:cc="http://creativecommons.org/ns#" xmlns:rdf="http://www.w3.org/1999/02/22-rdf-syntax-ns#">
   <cc:Work>
    <dc:type rdf:resource="http://purl.org/dc/dcmitype/StillImage"/>
    <dc:date>2026-04-15T11:59:22.941353</dc:date>
    <dc:format>image/svg+xml</dc:format>
    <dc:creator>
     <cc:Agent>
      <dc:title>Matplotlib v3.9.2, https://matplotlib.org/</dc:title>
     </cc:Agent>
    </dc:creator>
   </cc:Work>
  </rdf:RDF>
 </metadata>
 <defs>
  <style type="text/css">*{stroke-linejoin: round; stroke-linecap: butt}</style>
 </defs>
 <g id="figure_1">
  <g id="patch_1">
   <path d="M 0 276.639375 
L 420.726875 276.639375 
L 420.726875 0 
L 0 0 
z
" style="fill: #ffffff"/>
  </g>
  <g id="axes_1">
   <g id="patch_2">
    <path d="M 46.964375 239.82 
L 413.526875 239.82 
L 413.526875 7.2 
L 46.964375 7.2 
z
" style="fill: #ffffff"/>
   </g>
   <g id="PolyCollection_1">
    <defs>
     <path id="m751db51745" d="M 63.626307 -65.876636 
L 63.626307 -47.56688 
L 146.935966 -219.841352 
L 230.245625 -220.683738 
L 313.555284 -230.295524 
L 396.864943 -235.7627 
L 396.864943 -254.003029 
L 396.864943 -254.003029 
L 313.555284 -246.108877 
L 230.245625 -242.581011 
L 146.935966 -236.865991 
L 63.626307 -65.876636 
z
" style="stroke: #2d3047; stroke-opacity: 0.2"/>
    </defs>
    <g clip-path="url(#p27dfbf314d)">
     <use xlink:href="#m751db51745" x="0" y="276.639375" style="fill: #2d3047; fill-opacity: 0.2; stroke: #2d3047; stroke-opacity: 0.2"/>
    </g>
   </g>
   <g id="PolyCollection_2">
    <defs>
     <path id="m90afad1f8f" d="M 63.626307 -69.935045 
L 63.626307 -47.393011 
L 146.935966 -232.742064 
L 230.245625 -236.959859 
L 313.555284 -231.649541 
L 396.864943 -233.82597 
L 396.864943 -250.275862 
L 396.864943 -250.275862 
L 313.555284 -253.586678 
L 230.245625 -252.628006 
L 146.935966 -248.901681 
L 63.626307 -69.935045 
z
" style="stroke: #d1345b; stroke-opacity: 0.2"/>
    </defs>
    <g clip-path="url(#p27dfbf314d)">
     <use xlink:href="#m90afad1f8f" x="0" y="276.639375" style="fill: #d1345b; fill-opacity: 0.2; stroke: #d1345b; stroke-opacity: 0.2"/>
    </g>
   </g>
   <g id="PolyCollection_3">
    <defs>
     <path id="m2721c6e4a7" d="M 63.626307 -64.875262 
L 63.626307 -49.359167 
L 146.935966 -109.903405 
L 230.245625 -105.328614 
L 313.555284 -230.223641 
L 396.864943 -234.486415 
L 396.864943 -258.865739 
L 396.864943 -258.865739 
L 313.555284 -255.243053 
L 230.245625 -125.837474 
L 146.935966 -126.373785 
L 63.626307 -64.875262 
z
" style="stroke: #ff9b71; stroke-opacity: 0.2"/>
    </defs>
    <g clip-path="url(#p27dfbf314d)">
     <use xlink:href="#m2721c6e4a7" x="0" y="276.639375" style="fill: #ff9b71; fill-opacity: 0.2; stroke: #ff9b71; stroke-opacity: 0.2"/>
    </g>
   </g>
   <g id="matplotlib.axis_1">
    <g id="xtick_1">
     <g id="line2d_1">
      <defs>
       <path id="mc128288906" d="M 0 0 
L 0 -4 
" style="stroke: #000000; stroke-width: 0.8"/>
      </defs>
      <g>
       <use xlink:href="#mc128288906" x="63.626307" y="239.82" style="stroke: #000000; stroke-width: 0.8"/>
      </g>
     </g>
     <g id="text_1">
      <text style="font: 10px 'Helvetica', 'Arial', sans-serif; text-anchor: middle" x="63.626307" y="250.477812" transform="rotate(-0 63.626307 250.477812)">1</text>
     </g>
    </g>
    <g id="xtick_2">
     <g id="line2d_2">
      <g>
       <use xlink:href="#mc128288906" x="146.935966" y="239.82" style="stroke: #000000; stroke-width: 0.8"/>
      </g>
     </g>
     <g id="text_2">
      <text style="font: 10px 'Helvetica', 'Arial', sans-serif; text-anchor: middle" x="146.935966" y="250.477812" transform="rotate(-0 146.935966 250.477812)">2</text>
     </g>
    </g>
    <g id="xtick_3">
     <g id="line2d_3">
      <g>
       <use xlink:href="#mc128288906" x="230.245625" y="239.82" style="stroke: #000000; stroke-width: 0.8"/>
      </g>
     </g>
     <g id="text_3">
      <text style="font: 10px 'Helvetica', 'Arial', sans-serif; text-anchor: middle" x="230.245625" y="250.477812" transform="rotate(-0 230.245625 250.477812)">3</text>
     </g>
    </g>
    <g id="xtick_4">
     <g id="line2d_4">
      <g>
       <use xlink:href="#mc128288906" x="313.555284" y="239.82" style="stroke: #000000; stroke-width: 0.8"/>
      </g>
     </g>
     <g id="text_4">
      <text style="font: 10px 'Helvetica', 'Arial', sans-serif; text-anchor: middle" x="313.555284" y="250.477812" transform="rotate(-0 313.555284 250.477812)">4</text>
     </g>
    </g>
    <g id="xtick_5">
     <g id="line2d_5">
      <g>
       <use xlink:href="#mc128288906" x="396.864943" y="239.82" style="stroke: #000000; stroke-width: 0.8"/>
      </g>
     </g>
     <g id="text_5">
      <text style="font: 10px 'Helvetica', 'Arial', sans-serif; text-anchor: middle" x="396.864943" y="250.477812" transform="rotate(-0 396.864943 250.477812)">5</text>
     </g>
    </g>
    <g id="text_6">
     <text style="font: 14px 'Helvetica', 'Arial', sans-serif; text-anchor: middle" x="230.245625" y="266.656875" transform="rotate(-0 230.245625 266.656875)">Sensor Groups Count</text>
    </g>
   </g>
   <g id="matplotlib.axis_2">
    <g id="ytick_1">
     <g id="line2d_6">
      <defs>
       <path id="mdca45fd4b0" d="M 0 0 
L 4 0 
" style="stroke: #000000; stroke-width: 0.8"/>
      </defs>
      <g>
       <use xlink:href="#mdca45fd4b0" x="46.964375" y="223.035395" style="stroke: #000000; stroke-width: 0.8"/>
      </g>
     </g>
     <g id="text_7">
      <text style="font: 10px 'Helvetica', 'Arial', sans-serif; text-anchor: end" x="43.464375" y="226.614302" transform="rotate(-0 43.464375 226.614302)">0.40</text>
     </g>
    </g>
    <g id="ytick_2">
     <g id="line2d_7">
      <g>
       <use xlink:href="#mdca45fd4b0" x="46.964375" y="194.255913" style="stroke: #000000; stroke-width: 0.8"/>
      </g>
     </g>
     <g id="text_8">
      <text style="font: 10px 'Helvetica', 'Arial', sans-serif; text-anchor: end" x="43.464375" y="197.834819" transform="rotate(-0 43.464375 197.834819)">0.42</text>
     </g>
    </g>
    <g id="ytick_3">
     <g id="line2d_8">
      <g>
       <use xlink:href="#mdca45fd4b0" x="46.964375" y="165.476431" style="stroke: #000000; stroke-width: 0.8"/>
      </g>
     </g>
     <g id="text_9">
      <text style="font: 10px 'Helvetica', 'Arial', sans-serif; text-anchor: end" x="43.464375" y="169.055337" transform="rotate(-0 43.464375 169.055337)">0.44</text>
     </g>
    </g>
    <g id="ytick_4">
     <g id="line2d_9">
      <g>
       <use xlink:href="#mdca45fd4b0" x="46.964375" y="136.696948" style="stroke: #000000; stroke-width: 0.8"/>
      </g>
     </g>
     <g id="text_10">
      <text style="font: 10px 'Helvetica', 'Arial', sans-serif; text-anchor: end" x="43.464375" y="140.275854" transform="rotate(-0 43.464375 140.275854)">0.46</text>
     </g>
    </g>
    <g id="ytick_5">
     <g id="line2d_10">
      <g>
       <use xlink:href="#mdca45fd4b0" x="46.964375" y="107.917466" style="stroke: #000000; stroke-width: 0.8"/>
      </g>
     </g>
     <g id="text_11">
      <text style="font: 10px 'Helvetica', 'Arial', sans-serif; text-anchor: end" x="43.464375" y="111.496372" transform="rotate(-0 43.464375 111.496372)">0.48</text>
     </g>
    </g>
    <g id="ytick_6">
     <g id="line2d_11">
      <g>
       <use xlink:href="#mdca45fd4b0" x="46.964375" y="79.137983" style="stroke: #000000; stroke-width: 0.8"/>
      </g>
     </g>
     <g id="text_12">
      <text style="font: 10px 'Helvetica', 'Arial', sans-serif; text-anchor: end" x="43.464375" y="82.71689" transform="rotate(-0 43.464375 82.71689)">0.50</text>
     </g>
    </g>
    <g id="ytick_7">
     <g id="line2d_12">
      <g>
       <use xlink:href="#mdca45fd4b0" x="46.964375" y="50.358501" style="stroke: #000000; stroke-width: 0.8"/>
      </g>
     </g>
     <g id="text_13">
      <text style="font: 10px 'Helvetica', 'Arial', sans-serif; text-anchor: end" x="43.464375" y="53.937407" transform="rotate(-0 43.464375 53.937407)">0.52</text>
     </g>
    </g>
    <g id="ytick_8">
     <g id="line2d_13">
      <g>
       <use xlink:href="#mdca45fd4b0" x="46.964375" y="21.579019" style="stroke: #000000; stroke-width: 0.8"/>
      </g>
     </g>
     <g id="text_14">
      <text style="font: 10px 'Helvetica', 'Arial', sans-serif; text-anchor: end" x="43.464375" y="25.157925" transform="rotate(-0 43.464375 25.157925)">0.54</text>
     </g>
    </g>
    <g id="text_15">
     <text style="font: 14px 'Helvetica', 'Arial', sans-serif; text-anchor: middle" x="17.220938" y="123.51" transform="rotate(-90 17.220938 123.51)">Mutual Information</text>
    </g>
   </g>
   <g id="line2d_14">
    <path d="M 63.626307 221.161538 
L 146.935966 48.914547 
L 230.245625 45.640155 
L 313.555284 34.036063 
L 396.864943 32.671647 
" clip-path="url(#p27dfbf314d)" style="fill: none; stroke: #2d3047; stroke-width: 1.6; stroke-linecap: square"/>
    <defs>
     <path id="m97dae34583" d="M 0 3 
C 0.795609 3 1.55874 2.683901 2.12132 2.12132 
C 2.683901 1.55874 3 0.795609 3 0 
C 3 -0.795609 2.683901 -1.55874 2.12132 -2.12132 
C 1.55874 -2.683901 0.795609 -3 0 -3 
C -0.795609 -3 -1.55874 -2.683901 -2.12132 -2.12132 
C -2.683901 -1.55874 -3 -0.795609 -3 0 
C -3 0.795609 -2.683901 1.55874 -2.12132 2.12132 
C -1.55874 2.683901 -0.795609 3 0 3 
z
" style="stroke: #2d3047"/>
    </defs>
    <g clip-path="url(#p27dfbf314d)">
     <use xlink:href="#m97dae34583" x="63.626307" y="221.161538" style="fill: #2d3047; stroke: #2d3047"/>
     <use xlink:href="#m97dae34583" x="146.935966" y="48.914547" style="fill: #2d3047; stroke: #2d3047"/>
     <use xlink:href="#m97dae34583" x="230.245625" y="45.640155" style="fill: #2d3047; stroke: #2d3047"/>
     <use xlink:href="#m97dae34583" x="313.555284" y="34.036063" style="fill: #2d3047; stroke: #2d3047"/>
     <use xlink:href="#m97dae34583" x="396.864943" y="32.671647" style="fill: #2d3047; stroke: #2d3047"/>
    </g>
   </g>
   <g id="line2d_15">
    <path d="M 63.626307 220.279337 
L 146.935966 35.475498 
L 230.245625 30.798754 
L 313.555284 34.087535 
L 396.864943 32.624165 
" clip-path="url(#p27dfbf314d)" style="fill: none; stroke-dasharray: 5.92,2.56; stroke-dashoffset: 0; stroke: #d1345b; stroke-width: 1.6"/>
    <defs>
     <path id="m758de307f3" d="M 0 3 
C 0.795609 3 1.55874 2.683901 2.12132 2.12132 
C 2.683901 1.55874 3 0.795609 3 0 
C 3 -0.795609 2.683901 -1.55874 2.12132 -2.12132 
C 1.55874 -2.683901 0.795609 -3 0 -3 
C -0.795609 -3 -1.55874 -2.683901 -2.12132 -2.12132 
C -2.683901 -1.55874 -3 -0.795609 -3 0 
C -3 0.795609 -2.683901 1.55874 -2.12132 2.12132 
C -1.55874 2.683901 -0.795609 3 0 3 
z
" style="stroke: #d1345b"/>
    </defs>
    <g clip-path="url(#p27dfbf314d)">
     <use xlink:href="#m758de307f3" x="63.626307" y="220.279337" style="fill: #d1345b; stroke: #d1345b"/>
     <use xlink:href="#m758de307f3" x="146.935966" y="35.475498" style="fill: #d1345b; stroke: #d1345b"/>
     <use xlink:href="#m758de307f3" x="230.245625" y="30.798754" style="fill: #d1345b; stroke: #d1345b"/>
     <use xlink:href="#m758de307f3" x="313.555284" y="34.087535" style="fill: #d1345b; stroke: #d1345b"/>
     <use xlink:href="#m758de307f3" x="396.864943" y="32.624165" style="fill: #d1345b; stroke: #d1345b"/>
    </g>
   </g>
   <g id="line2d_16">
    <path d="M 63.626307 219.41724 
L 146.935966 157.307027 
L 230.245625 160.699339 
L 313.555284 33.970326 
L 396.864943 32.790218 
" clip-path="url(#p27dfbf314d)" style="fill: none; stroke-dasharray: 1.6,2.64; stroke-dashoffset: 0; stroke: #ff9b71; stroke-width: 1.6"/>
    <defs>
     <path id="m7d0ba8a103" d="M 0 3 
C 0.795609 3 1.55874 2.683901 2.12132 2.12132 
C 2.683901 1.55874 3 0.795609 3 0 
C 3 -0.795609 2.683901 -1.55874 2.12132 -2.12132 
C 1.55874 -2.683901 0.795609 -3 0 -3 
C -0.795609 -3 -1.55874 -2.683901 -2.12132 -2.12132 
C -2.683901 -1.55874 -3 -0.795609 -3 0 
C -3 0.795609 -2.683901 1.55874 -2.12132 2.12132 
C -1.55874 2.683901 -0.795609 3 0 3 
z
" style="stroke: #ff9b71"/>
    </defs>
    <g clip-path="url(#p27dfbf314d)">
     <use xlink:href="#m7d0ba8a103" x="63.626307" y="219.41724" style="fill: #ff9b71; stroke: #ff9b71"/>
     <use xlink:href="#m7d0ba8a103" x="146.935966" y="157.307027" style="fill: #ff9b71; stroke: #ff9b71"/>
     <use xlink:href="#m7d0ba8a103" x="230.245625" y="160.699339" style="fill: #ff9b71; stroke: #ff9b71"/>
     <use xlink:href="#m7d0ba8a103" x="313.555284" y="33.970326" style="fill: #ff9b71; stroke: #ff9b71"/>
     <use xlink:href="#m7d0ba8a103" x="396.864943" y="32.790218" style="fill: #ff9b71; stroke: #ff9b71"/>
    </g>
   </g>
   <g id="patch_3">
    <path d="M 46.964375 239.82 
L 46.964375 7.2 
" style="fill: none; stroke: #000000; stroke-width: 0.8; stroke-linejoin: miter; stroke-linecap: square"/>
   </g>
   <g id="patch_4">
    <path d="M 413.526875 239.82 
L 413.526875 7.2 
" style="fill: none; stroke: #000000; stroke-width: 0.8; stroke-linejoin: miter; stroke-linecap: square"/>
   </g>
   <g id="patch_5">
    <path d="M 46.964375 239.82 
L 413.526875 239.82 
" style="fill: none; stroke: #000000; stroke-width: 0.8; stroke-linejoin: miter; stroke-linecap: square"/>
   </g>
   <g id="patch_6">
    <path d="M 46.964375 7.2 
L 413.526875 7.2 
" style="fill: none; stroke: #000000; stroke-width: 0.8; stroke-linejoin: miter; stroke-linecap: square"/>
   </g>
   <g id="legend_1">
    <g id="patch_7">
     <path d="M 53.964375 57.635937 
L 114.856563 57.635937 
Q 116.856563 57.635937 116.856563 55.635937 
L 116.856563 14.2 
Q 116.856563 12.2 114.856563 12.2 
L 53.964375 12.2 
Q 51.964375 12.2 51.964375 14.2 
L 51.964375 55.635937 
Q 51.964375 57.635937 53.964375 57.635937 
z
" style="fill: #ffffff; opacity: 0.8"/>
    </g>
    <g id="line2d_17">
     <path d="M 55.964375 19.857812 
L 65.964375 19.857812 
L 75.964375 19.857812 
" style="fill: none; stroke: #2d3047; stroke-width: 1.6; stroke-linecap: square"/>
     <g>
      <use xlink:href="#m97dae34583" x="65.964375" y="19.857812" style="fill: #2d3047; stroke: #2d3047"/>
     </g>
    </g>
    <g id="text_16">
     <text style="font: 10px 'Helvetica', 'Arial', sans-serif; text-anchor: start" x="83.964375" y="23.357812" transform="rotate(-0 83.964375 23.357812)">SAGE</text>
    </g>
    <g id="line2d_18">
     <path d="M 55.964375 34.003125 
L 65.964375 34.003125 
L 75.964375 34.003125 
" style="fill: none; stroke-dasharray: 5.92,2.56; stroke-dashoffset: 0; stroke: #d1345b; stroke-width: 1.6"/>
     <g>
      <use xlink:href="#m758de307f3" x="65.964375" y="34.003125" style="fill: #d1345b; stroke: #d1345b"/>
     </g>
    </g>
    <g id="text_17">
     <text style="font: 10px 'Helvetica', 'Arial', sans-serif; text-anchor: start" x="83.964375" y="37.503125" transform="rotate(-0 83.964375 37.503125)">PFI</text>
    </g>
    <g id="line2d_19">
     <path d="M 55.964375 48.148437 
L 65.964375 48.148437 
L 75.964375 48.148437 
" style="fill: none; stroke-dasharray: 1.6,2.64; stroke-dashoffset: 0; stroke: #ff9b71; stroke-width: 1.6"/>
     <g>
      <use xlink:href="#m7d0ba8a103" x="65.964375" y="48.148437" style="fill: #ff9b71; stroke: #ff9b71"/>
     </g>
    </g>
    <g id="text_18">
     <text style="font: 10px 'Helvetica', 'Arial', sans-serif; text-anchor: start" x="83.964375" y="51.648437" transform="rotate(-0 83.964375 51.648437)">OURS</text>
    </g>
   </g>
  </g>
 </g>
 <defs>
  <clipPath id="p27dfbf314d">
   <rect x="46.964375" y="7.2" width="366.5625" height="232.62"/>
  </clipPath>
 </defs>
</svg>
