<?xml version="1.0" encoding="utf-8" standalone="no"?>
<!DOCTYPE svg PUBLIC "-//W3C//DTD SVG 1.1//EN"
  "http://www.w3.org/Graphics/SVG/1.1/DTD/svg11.dtd">
<svg xmlns:xlink="http://www.w3.org/1999/xlink" width="420.374687pt" height="276.352656pt" viewBox="0 0 420.374687 276.352656" xmlns="http://www.w3.org/2000/svg" version="1.1">
 <metadata>
  <rdf:RDF xmlns:dc="http://purl.org/dc/elements/1.1/" xmlns:cc="http://creativecommons.org/ns#" xmlns:rdf="http://www.w3.org/1999/02/22-rdf-syntax-ns#">
   <cc:Work>
    <dc:type rdf:resource="http://purl.org/dc/dcmitype/StillImage"/>
    <dc:date>2026-05-03T16:55:22.603497</dc:date>
    <dc:format>image/svg+xml</dc:format>
    <dc:creator>
     <cc:Agent>
      <dc:title>Matplotlib v3.10.8, https://matplotlib.org/</dc:title>
     </cc:Agent>
    </dc:creator>
   </cc:Work>
  </rdf:RDF>
 </metadata>
 <defs>
  <style type="text/css">*{stroke-linejoin: round; stroke-linecap: butt}</style>
 </defs>
 <g id="figure_1">
  <g id="patch_1">
   <path d="M 0 276.352656 
L 420.374687 276.352656 
L 420.374687 0 
L 0 0 
z
" style="fill: #ffffff"/>
  </g>
  <g id="axes_1">
   <g id="patch_2">
    <path d="M 41.560938 239.160469 
L 413.174687 239.160469 
L 413.174687 7.2 
L 41.560938 7.2 
z
" style="fill: #ffffff"/>
   </g>
   <g id="FillBetweenPolyCollection_1">
    <defs>
     <path id="m0bfbb2bd80" d="M 58.452472 -49.5402 
L 58.452472 -47.735845 
L 142.910142 -255.245059 
L 227.367812 -256.420256 
L 311.825483 -256.268226 
L 396.283153 -256.378509 
L 396.283153 -257.855663 
L 396.283153 -257.855663 
L 311.825483 -257.903759 
L 227.367812 -258.274099 
L 142.910142 -257.130896 
L 58.452472 -49.5402 
z
" style="stroke: #2d3047; stroke-opacity: 0.2"/>
    </defs>
    <g clip-path="url(#p0eb3192355)">
     <use xlink:href="#m0bfbb2bd80" x="0" y="276.352656" style="fill: #2d3047; fill-opacity: 0.2; stroke: #2d3047; stroke-opacity: 0.2"/>
    </g>
   </g>
   <g id="FillBetweenPolyCollection_2">
    <defs>
     <path id="mfc6321737c" d="M 58.452472 -237.707157 
L 58.452472 -235.664144 
L 142.910142 -256.190665 
L 227.367812 -256.756205 
L 311.825483 -256.730768 
L 396.283153 -256.502275 
L 396.283153 -258.608999 
L 396.283153 -258.608999 
L 311.825483 -257.887468 
L 227.367812 -258.157781 
L 142.910142 -258.291777 
L 58.452472 -237.707157 
z
" style="stroke: #d1345b; stroke-opacity: 0.2"/>
    </defs>
    <g clip-path="url(#p0eb3192355)">
     <use xlink:href="#mfc6321737c" x="0" y="276.352656" style="fill: #d1345b; fill-opacity: 0.2; stroke: #d1345b; stroke-opacity: 0.2"/>
    </g>
   </g>
   <g id="FillBetweenPolyCollection_3">
    <defs>
     <path id="mb710e97fc5" d="M 58.452472 -237.666355 
L 58.452472 -236.294418 
L 142.910142 -256.650234 
L 227.367812 -256.504696 
L 311.825483 -256.65573 
L 396.283153 -256.604102 
L 396.283153 -258.208645 
L 396.283153 -258.208645 
L 311.825483 -258.302643 
L 227.367812 -257.895878 
L 142.910142 -258.454891 
L 58.452472 -237.666355 
z
" style="stroke: #ff9b71; stroke-opacity: 0.2"/>
    </defs>
    <g clip-path="url(#p0eb3192355)">
     <use xlink:href="#mb710e97fc5" x="0" y="276.352656" style="fill: #ff9b71; fill-opacity: 0.2; stroke: #ff9b71; stroke-opacity: 0.2"/>
    </g>
   </g>
   <g id="matplotlib.axis_1">
    <g id="xtick_1">
     <g id="line2d_1">
      <defs>
       <path id="m1a8d324d28" d="M 0 0 
L 0 -4 
" style="stroke: #000000; stroke-width: 0.8"/>
      </defs>
      <g>
       <use xlink:href="#m1a8d324d28" x="58.452472" y="239.160469" style="stroke: #000000; stroke-width: 0.8"/>
      </g>
     </g>
     <g id="text_1">
      <text style="font-size: 10px; font-family: 'Helvetica', 'Arial', sans-serif; text-anchor: middle" x="58.452472" y="249.833906" transform="rotate(-0 58.452472 249.833906)">1</text>
     </g>
    </g>
    <g id="xtick_2">
     <g id="line2d_2">
      <g>
       <use xlink:href="#m1a8d324d28" x="142.910142" y="239.160469" style="stroke: #000000; stroke-width: 0.8"/>
      </g>
     </g>
     <g id="text_2">
      <text style="font-size: 10px; font-family: 'Helvetica', 'Arial', sans-serif; text-anchor: middle" x="142.910142" y="249.833906" transform="rotate(-0 142.910142 249.833906)">2</text>
     </g>
    </g>
    <g id="xtick_3">
     <g id="line2d_3">
      <g>
       <use xlink:href="#m1a8d324d28" x="227.367812" y="239.160469" style="stroke: #000000; stroke-width: 0.8"/>
      </g>
     </g>
     <g id="text_3">
      <text style="font-size: 10px; font-family: 'Helvetica', 'Arial', sans-serif; text-anchor: middle" x="227.367812" y="249.833906" transform="rotate(-0 227.367812 249.833906)">3</text>
     </g>
    </g>
    <g id="xtick_4">
     <g id="line2d_4">
      <g>
       <use xlink:href="#m1a8d324d28" x="311.825483" y="239.160469" style="stroke: #000000; stroke-width: 0.8"/>
      </g>
     </g>
     <g id="text_4">
      <text style="font-size: 10px; font-family: 'Helvetica', 'Arial', sans-serif; text-anchor: middle" x="311.825483" y="249.833906" transform="rotate(-0 311.825483 249.833906)">4</text>
     </g>
    </g>
    <g id="xtick_5">
     <g id="line2d_5">
      <g>
       <use xlink:href="#m1a8d324d28" x="396.283153" y="239.160469" style="stroke: #000000; stroke-width: 0.8"/>
      </g>
     </g>
     <g id="text_5">
      <text style="font-size: 10px; font-family: 'Helvetica', 'Arial', sans-serif; text-anchor: middle" x="396.283153" y="249.833906" transform="rotate(-0 396.283153 249.833906)">5</text>
     </g>
    </g>
    <g id="text_6">
     <text style="font-size: 14px; font-family: 'Helvetica', 'Arial', sans-serif; text-anchor: middle" x="227.367812" y="266.234531" transform="rotate(-0 227.367812 266.234531)">Sensor Groups Count</text>
    </g>
   </g>
   <g id="matplotlib.axis_2">
    <g id="ytick_1">
     <g id="line2d_6">
      <defs>
       <path id="m23b074107f" d="M 0 0 
L 4 0 
" style="stroke: #000000; stroke-width: 0.8"/>
      </defs>
      <g>
       <use xlink:href="#m23b074107f" x="41.560938" y="223.512095" style="stroke: #000000; stroke-width: 0.8"/>
      </g>
     </g>
     <g id="text_7">
      <text style="font-size: 10px; font-family: 'Helvetica', 'Arial', sans-serif; text-anchor: end" x="38.060938" y="227.098814" transform="rotate(-0 38.060938 227.098814)">0.6</text>
     </g>
    </g>
    <g id="ytick_2">
     <g id="line2d_7">
      <g>
       <use xlink:href="#m23b074107f" x="41.560938" y="194.942184" style="stroke: #000000; stroke-width: 0.8"/>
      </g>
     </g>
     <g id="text_8">
      <text style="font-size: 10px; font-family: 'Helvetica', 'Arial', sans-serif; text-anchor: end" x="38.060938" y="198.528903" transform="rotate(-0 38.060938 198.528903)">0.8</text>
     </g>
    </g>
    <g id="ytick_3">
     <g id="line2d_8">
      <g>
       <use xlink:href="#m23b074107f" x="41.560938" y="166.372273" style="stroke: #000000; stroke-width: 0.8"/>
      </g>
     </g>
     <g id="text_9">
      <text style="font-size: 10px; font-family: 'Helvetica', 'Arial', sans-serif; text-anchor: end" x="38.060938" y="169.958992" transform="rotate(-0 38.060938 169.958992)">1.0</text>
     </g>
    </g>
    <g id="ytick_4">
     <g id="line2d_9">
      <g>
       <use xlink:href="#m23b074107f" x="41.560938" y="137.802362" style="stroke: #000000; stroke-width: 0.8"/>
      </g>
     </g>
     <g id="text_10">
      <text style="font-size: 10px; font-family: 'Helvetica', 'Arial', sans-serif; text-anchor: end" x="38.060938" y="141.38908" transform="rotate(-0 38.060938 141.38908)">1.2</text>
     </g>
    </g>
    <g id="ytick_5">
     <g id="line2d_10">
      <g>
       <use xlink:href="#m23b074107f" x="41.560938" y="109.232451" style="stroke: #000000; stroke-width: 0.8"/>
      </g>
     </g>
     <g id="text_11">
      <text style="font-size: 10px; font-family: 'Helvetica', 'Arial', sans-serif; text-anchor: end" x="38.060938" y="112.819169" transform="rotate(-0 38.060938 112.819169)">1.4</text>
     </g>
    </g>
    <g id="ytick_6">
     <g id="line2d_11">
      <g>
       <use xlink:href="#m23b074107f" x="41.560938" y="80.66254" style="stroke: #000000; stroke-width: 0.8"/>
      </g>
     </g>
     <g id="text_12">
      <text style="font-size: 10px; font-family: 'Helvetica', 'Arial', sans-serif; text-anchor: end" x="38.060938" y="84.249258" transform="rotate(-0 38.060938 84.249258)">1.6</text>
     </g>
    </g>
    <g id="ytick_7">
     <g id="line2d_12">
      <g>
       <use xlink:href="#m23b074107f" x="41.560938" y="52.092629" style="stroke: #000000; stroke-width: 0.8"/>
      </g>
     </g>
     <g id="text_13">
      <text style="font-size: 10px; font-family: 'Helvetica', 'Arial', sans-serif; text-anchor: end" x="38.060938" y="55.679347" transform="rotate(-0 38.060938 55.679347)">1.8</text>
     </g>
    </g>
    <g id="ytick_8">
     <g id="line2d_13">
      <g>
       <use xlink:href="#m23b074107f" x="41.560938" y="23.522717" style="stroke: #000000; stroke-width: 0.8"/>
      </g>
     </g>
     <g id="text_14">
      <text style="font-size: 10px; font-family: 'Helvetica', 'Arial', sans-serif; text-anchor: end" x="38.060938" y="27.109436" transform="rotate(-0 38.060938 27.109436)">2.0</text>
     </g>
    </g>
    <g id="text_15">
     <text style="font-size: 14px; font-family: 'Helvetica', 'Arial', sans-serif; text-anchor: middle" x="17.242813" y="123.180234" transform="rotate(-90 17.242813 123.180234)">Mutual Information</text>
    </g>
   </g>
   <g id="line2d_14">
    <path d="M 58.452472 227.684265 
L 142.910142 20.326367 
L 227.367812 19.022911 
L 311.825483 19.023124 
L 396.283153 19.022852 
" clip-path="url(#p0eb3192355)" style="fill: none; stroke: #2d3047; stroke-width: 1.6; stroke-linecap: square"/>
    <defs>
     <path id="ma1b7b68828" d="M 0 3 
C 0.795609 3 1.55874 2.683901 2.12132 2.12132 
C 2.683901 1.55874 3 0.795609 3 0 
C 3 -0.795609 2.683901 -1.55874 2.12132 -2.12132 
C 1.55874 -2.683901 0.795609 -3 0 -3 
C -0.795609 -3 -1.55874 -2.683901 -2.12132 -2.12132 
C -2.683901 -1.55874 -3 -0.795609 -3 0 
C -3 0.795609 -2.683901 1.55874 -2.12132 2.12132 
C -1.55874 2.683901 -0.795609 3 0 3 
z
" style="stroke: #2d3047"/>
    </defs>
    <g clip-path="url(#p0eb3192355)">
     <use xlink:href="#ma1b7b68828" x="58.452472" y="227.684265" style="fill: #2d3047; stroke: #2d3047"/>
     <use xlink:href="#ma1b7b68828" x="142.910142" y="20.326367" style="fill: #2d3047; stroke: #2d3047"/>
     <use xlink:href="#ma1b7b68828" x="227.367812" y="19.022911" style="fill: #2d3047; stroke: #2d3047"/>
     <use xlink:href="#ma1b7b68828" x="311.825483" y="19.023124" style="fill: #2d3047; stroke: #2d3047"/>
     <use xlink:href="#ma1b7b68828" x="396.283153" y="19.022852" style="fill: #2d3047; stroke: #2d3047"/>
    </g>
   </g>
   <g id="line2d_15">
    <path d="M 58.452472 39.507622 
L 142.910142 19.023805 
L 227.367812 19.022257 
L 311.825483 19.023438 
L 396.283153 19.022597 
" clip-path="url(#p0eb3192355)" style="fill: none; stroke-dasharray: 5.92,2.56; stroke-dashoffset: 0; stroke: #d1345b; stroke-width: 1.6"/>
    <defs>
     <path id="m02fe634a77" d="M 0 3 
C 0.795609 3 1.55874 2.683901 2.12132 2.12132 
C 2.683901 1.55874 3 0.795609 3 0 
C 3 -0.795609 2.683901 -1.55874 2.12132 -2.12132 
C 1.55874 -2.683901 0.795609 -3 0 -3 
C -0.795609 -3 -1.55874 -2.683901 -2.12132 -2.12132 
C -2.683901 -1.55874 -3 -0.795609 -3 0 
C -3 0.795609 -2.683901 1.55874 -2.12132 2.12132 
C -1.55874 2.683901 -0.795609 3 0 3 
z
" style="stroke: #d1345b"/>
    </defs>
    <g clip-path="url(#p0eb3192355)">
     <use xlink:href="#m02fe634a77" x="58.452472" y="39.507622" style="fill: #d1345b; stroke: #d1345b"/>
     <use xlink:href="#m02fe634a77" x="142.910142" y="19.023805" style="fill: #d1345b; stroke: #d1345b"/>
     <use xlink:href="#m02fe634a77" x="227.367812" y="19.022257" style="fill: #d1345b; stroke: #d1345b"/>
     <use xlink:href="#m02fe634a77" x="311.825483" y="19.023438" style="fill: #d1345b; stroke: #d1345b"/>
     <use xlink:href="#m02fe634a77" x="396.283153" y="19.022597" style="fill: #d1345b; stroke: #d1345b"/>
    </g>
   </g>
   <g id="line2d_16">
    <path d="M 58.452472 39.509303 
L 142.910142 19.022784 
L 227.367812 19.023056 
L 311.825483 19.022911 
L 396.283153 19.023115 
" clip-path="url(#p0eb3192355)" style="fill: none; stroke-dasharray: 1.6,2.64; stroke-dashoffset: 0; stroke: #ff9b71; stroke-width: 1.6"/>
    <defs>
     <path id="m29d8fc7f02" d="M 0 3 
C 0.795609 3 1.55874 2.683901 2.12132 2.12132 
C 2.683901 1.55874 3 0.795609 3 0 
C 3 -0.795609 2.683901 -1.55874 2.12132 -2.12132 
C 1.55874 -2.683901 0.795609 -3 0 -3 
C -0.795609 -3 -1.55874 -2.683901 -2.12132 -2.12132 
C -2.683901 -1.55874 -3 -0.795609 -3 0 
C -3 0.795609 -2.683901 1.55874 -2.12132 2.12132 
C -1.55874 2.683901 -0.795609 3 0 3 
z
" style="stroke: #ff9b71"/>
    </defs>
    <g clip-path="url(#p0eb3192355)">
     <use xlink:href="#m29d8fc7f02" x="58.452472" y="39.509303" style="fill: #ff9b71; stroke: #ff9b71"/>
     <use xlink:href="#m29d8fc7f02" x="142.910142" y="19.022784" style="fill: #ff9b71; stroke: #ff9b71"/>
     <use xlink:href="#m29d8fc7f02" x="227.367812" y="19.023056" style="fill: #ff9b71; stroke: #ff9b71"/>
     <use xlink:href="#m29d8fc7f02" x="311.825483" y="19.022911" style="fill: #ff9b71; stroke: #ff9b71"/>
     <use xlink:href="#m29d8fc7f02" x="396.283153" y="19.023115" style="fill: #ff9b71; stroke: #ff9b71"/>
    </g>
   </g>
   <g id="patch_3">
    <path d="M 41.560938 239.160469 
L 41.560938 7.2 
" style="fill: none; stroke: #000000; stroke-width: 0.8; stroke-linejoin: miter; stroke-linecap: square"/>
   </g>
   <g id="patch_4">
    <path d="M 413.174687 239.160469 
L 413.174687 7.2 
" style="fill: none; stroke: #000000; stroke-width: 0.8; stroke-linejoin: miter; stroke-linecap: square"/>
   </g>
   <g id="patch_5">
    <path d="M 41.560938 239.160469 
L 413.174687 239.160469 
" style="fill: none; stroke: #000000; stroke-width: 0.8; stroke-linejoin: miter; stroke-linecap: square"/>
   </g>
   <g id="patch_6">
    <path d="M 41.560938 7.2 
L 413.174687 7.2 
" style="fill: none; stroke: #000000; stroke-width: 0.8; stroke-linejoin: miter; stroke-linecap: square"/>
   </g>
   <g id="legend_1">
    <g id="patch_7">
     <path d="M 343.065312 234.160469 
L 406.174687 234.160469 
Q 408.174687 234.160469 408.174687 232.160469 
L 408.174687 190.387031 
Q 408.174687 188.387031 406.174687 188.387031 
L 343.065312 188.387031 
Q 341.065312 188.387031 341.065312 190.387031 
L 341.065312 232.160469 
Q 341.065312 234.160469 343.065312 234.160469 
z
" style="fill: #ffffff; opacity: 0.8"/>
    </g>
    <g id="line2d_17">
     <path d="M 345.065312 196.060469 
L 355.065312 196.060469 
L 365.065312 196.060469 
" style="fill: none; stroke: #2d3047; stroke-width: 1.6; stroke-linecap: square"/>
     <g>
      <use xlink:href="#ma1b7b68828" x="355.065312" y="196.060469" style="fill: #2d3047; stroke: #2d3047"/>
     </g>
    </g>
    <g id="text_16">
     <text style="font-size: 10px; font-family: 'Helvetica', 'Arial', sans-serif; text-anchor: start" x="373.065312" y="199.560469" transform="rotate(-0 373.065312 199.560469)">SAGE</text>
    </g>
    <g id="line2d_18">
     <path d="M 345.065312 210.318281 
L 355.065312 210.318281 
L 365.065312 210.318281 
" style="fill: none; stroke-dasharray: 5.92,2.56; stroke-dashoffset: 0; stroke: #d1345b; stroke-width: 1.6"/>
     <g>
      <use xlink:href="#m02fe634a77" x="355.065312" y="210.318281" style="fill: #d1345b; stroke: #d1345b"/>
     </g>
    </g>
    <g id="text_17">
     <text style="font-size: 10px; font-family: 'Helvetica', 'Arial', sans-serif; text-anchor: start" x="373.065312" y="213.818281" transform="rotate(-0 373.065312 213.818281)">PFI</text>
    </g>
    <g id="line2d_19">
     <path d="M 345.065312 224.576094 
L 355.065312 224.576094 
L 365.065312 224.576094 
" style="fill: none; stroke-dasharray: 1.6,2.64; stroke-dashoffset: 0; stroke: #ff9b71; stroke-width: 1.6"/>
     <g>
      <use xlink:href="#m29d8fc7f02" x="355.065312" y="224.576094" style="fill: #ff9b71; stroke: #ff9b71"/>
     </g>
    </g>
    <g id="text_18">
     <text style="font-size: 10px; font-family: 'Helvetica', 'Arial', sans-serif; text-anchor: start" x="373.065312" y="228.076094" transform="rotate(-0 373.065312 228.076094)">ROWS</text>
    </g>
   </g>
  </g>
 </g>
 <defs>
  <clipPath id="p0eb3192355">
   <rect x="41.560938" y="7.2" width="371.61375" height="231.960469"/>
  </clipPath>
 </defs>
</svg>
