<?xml version="1.0" encoding="utf-8" standalone="no"?>
<!DOCTYPE svg PUBLIC "-//W3C//DTD SVG 1.1//EN"
  "http://www.w3.org/Graphics/SVG/1.1/DTD/svg11.dtd">
<svg xmlns:xlink="http://www.w3.org/1999/xlink" width="420.700938pt" height="276.639375pt" viewBox="0 0 420.700938 276.639375" xmlns="http://www.w3.org/2000/svg" version="1.1">
 <metadata>
  <rdf:RDF xmlns:dc="http://purl.org/dc/elements/1.1/" xmlns:cc="http://creativecommons.org/ns#" xmlns:rdf="http://www.w3.org/1999/02/22-rdf-syntax-ns#">
   <cc:Work>
    <dc:type rdf:resource="http://purl.org/dc/dcmitype/StillImage"/>
    <dc:date>2026-04-15T11:59:23.291810</dc:date>
    <dc:format>image/svg+xml</dc:format>
    <dc:creator>
     <cc:Agent>
      <dc:title>Matplotlib v3.9.2, https://matplotlib.org/</dc:title>
     </cc:Agent>
    </dc:creator>
   </cc:Work>
  </rdf:RDF>
 </metadata>
 <defs>
  <style type="text/css">*{stroke-linejoin: round; stroke-linecap: butt}</style>
 </defs>
 <g id="figure_1">
  <g id="patch_1">
   <path d="M 0 276.639375 
L 420.700938 276.639375 
L 420.700938 0 
L 0 0 
z
" style="fill: #ffffff"/>
  </g>
  <g id="axes_1">
   <g id="patch_2">
    <path d="M 41.403438 239.82 
L 413.500937 239.82 
L 413.500937 7.2 
L 41.403438 7.2 
z
" style="fill: #ffffff"/>
   </g>
   <g id="PolyCollection_1">
    <defs>
     <path id="m562aa35c59" d="M 58.31696 -49.202497 
L 58.31696 -47.393011 
L 142.884574 -255.492234 
L 227.452187 -256.670773 
L 312.019801 -256.518311 
L 396.587415 -256.628907 
L 396.587415 -258.110261 
L 396.587415 -258.110261 
L 312.019801 -258.158494 
L 227.452187 -258.529887 
L 142.884574 -257.383434 
L 58.31696 -49.202497 
z
" style="stroke: #2d3047; stroke-opacity: 0.2"/>
    </defs>
    <g clip-path="url(#p6e5b1c4201)">
     <use xlink:href="#m562aa35c59" x="0" y="276.639375" style="fill: #2d3047; fill-opacity: 0.2; stroke: #2d3047; stroke-opacity: 0.2"/>
    </g>
   </g>
   <g id="PolyCollection_2">
    <defs>
     <path id="m22fc12968b" d="M 58.31696 -237.904467 
L 58.31696 -235.855645 
L 142.884574 -256.440529 
L 227.452187 -257.007677 
L 312.019801 -256.982168 
L 396.587415 -256.753025 
L 396.587415 -258.865739 
L 396.587415 -258.865739 
L 312.019801 -258.142157 
L 227.452187 -258.413238 
L 142.884574 -258.547615 
L 58.31696 -237.904467 
z
" style="stroke: #d1345b; stroke-opacity: 0.2"/>
    </defs>
    <g clip-path="url(#p6e5b1c4201)">
     <use xlink:href="#m22fc12968b" x="0" y="276.639375" style="fill: #d1345b; fill-opacity: 0.2; stroke: #d1345b; stroke-opacity: 0.2"/>
    </g>
   </g>
   <g id="PolyCollection_3">
    <defs>
     <path id="mc34b60c4bc" d="M 58.31696 -237.863549 
L 58.31696 -236.487711 
L 142.884574 -256.901405 
L 227.452187 -256.755453 
L 312.019801 -256.906916 
L 396.587415 -256.855141 
L 396.587415 -258.464247 
L 396.587415 -258.464247 
L 312.019801 -258.558512 
L 227.452187 -258.150591 
L 142.884574 -258.711193 
L 58.31696 -237.863549 
z
" style="stroke: #ff9b71; stroke-opacity: 0.2"/>
    </defs>
    <g clip-path="url(#p6e5b1c4201)">
     <use xlink:href="#mc34b60c4bc" x="0" y="276.639375" style="fill: #ff9b71; fill-opacity: 0.2; stroke: #ff9b71; stroke-opacity: 0.2"/>
    </g>
   </g>
   <g id="matplotlib.axis_1">
    <g id="xtick_1">
     <g id="line2d_1">
      <defs>
       <path id="m9ebbae4b2e" d="M 0 0 
L 0 -4 
" style="stroke: #000000; stroke-width: 0.8"/>
      </defs>
      <g>
       <use xlink:href="#m9ebbae4b2e" x="58.31696" y="239.82" style="stroke: #000000; stroke-width: 0.8"/>
      </g>
     </g>
     <g id="text_1">
      <text style="font: 10px 'Helvetica', 'Arial', sans-serif; text-anchor: middle" x="58.31696" y="250.477812" transform="rotate(-0 58.31696 250.477812)">1</text>
     </g>
    </g>
    <g id="xtick_2">
     <g id="line2d_2">
      <g>
       <use xlink:href="#m9ebbae4b2e" x="142.884574" y="239.82" style="stroke: #000000; stroke-width: 0.8"/>
      </g>
     </g>
     <g id="text_2">
      <text style="font: 10px 'Helvetica', 'Arial', sans-serif; text-anchor: middle" x="142.884574" y="250.477812" transform="rotate(-0 142.884574 250.477812)">2</text>
     </g>
    </g>
    <g id="xtick_3">
     <g id="line2d_3">
      <g>
       <use xlink:href="#m9ebbae4b2e" x="227.452187" y="239.82" style="stroke: #000000; stroke-width: 0.8"/>
      </g>
     </g>
     <g id="text_3">
      <text style="font: 10px 'Helvetica', 'Arial', sans-serif; text-anchor: middle" x="227.452187" y="250.477812" transform="rotate(-0 227.452187 250.477812)">3</text>
     </g>
    </g>
    <g id="xtick_4">
     <g id="line2d_4">
      <g>
       <use xlink:href="#m9ebbae4b2e" x="312.019801" y="239.82" style="stroke: #000000; stroke-width: 0.8"/>
      </g>
     </g>
     <g id="text_4">
      <text style="font: 10px 'Helvetica', 'Arial', sans-serif; text-anchor: middle" x="312.019801" y="250.477812" transform="rotate(-0 312.019801 250.477812)">4</text>
     </g>
    </g>
    <g id="xtick_5">
     <g id="line2d_5">
      <g>
       <use xlink:href="#m9ebbae4b2e" x="396.587415" y="239.82" style="stroke: #000000; stroke-width: 0.8"/>
      </g>
     </g>
     <g id="text_5">
      <text style="font: 10px 'Helvetica', 'Arial', sans-serif; text-anchor: middle" x="396.587415" y="250.477812" transform="rotate(-0 396.587415 250.477812)">5</text>
     </g>
    </g>
    <g id="text_6">
     <text style="font: 14px 'Helvetica', 'Arial', sans-serif; text-anchor: middle" x="227.452187" y="266.656875" transform="rotate(-0 227.452187 266.656875)">Sensor Groups Count</text>
    </g>
   </g>
   <g id="matplotlib.axis_2">
    <g id="ytick_1">
     <g id="line2d_6">
      <defs>
       <path id="m71265724c6" d="M 0 0 
L 4 0 
" style="stroke: #000000; stroke-width: 0.8"/>
      </defs>
      <g>
       <use xlink:href="#m71265724c6" x="41.403438" y="224.127133" style="stroke: #000000; stroke-width: 0.8"/>
      </g>
     </g>
     <g id="text_7">
      <text style="font: 10px 'Helvetica', 'Arial', sans-serif; text-anchor: end" x="37.903438" y="227.70604" transform="rotate(-0 37.903438 227.70604)">0.6</text>
     </g>
    </g>
    <g id="ytick_2">
     <g id="line2d_7">
      <g>
       <use xlink:href="#m71265724c6" x="41.403438" y="195.47599" style="stroke: #000000; stroke-width: 0.8"/>
      </g>
     </g>
     <g id="text_8">
      <text style="font: 10px 'Helvetica', 'Arial', sans-serif; text-anchor: end" x="37.903438" y="199.054896" transform="rotate(-0 37.903438 199.054896)">0.8</text>
     </g>
    </g>
    <g id="ytick_3">
     <g id="line2d_8">
      <g>
       <use xlink:href="#m71265724c6" x="41.403438" y="166.824846" style="stroke: #000000; stroke-width: 0.8"/>
      </g>
     </g>
     <g id="text_9">
      <text style="font: 10px 'Helvetica', 'Arial', sans-serif; text-anchor: end" x="37.903438" y="170.403752" transform="rotate(-0 37.903438 170.403752)">1.0</text>
     </g>
    </g>
    <g id="ytick_4">
     <g id="line2d_9">
      <g>
       <use xlink:href="#m71265724c6" x="41.403438" y="138.173702" style="stroke: #000000; stroke-width: 0.8"/>
      </g>
     </g>
     <g id="text_10">
      <text style="font: 10px 'Helvetica', 'Arial', sans-serif; text-anchor: end" x="37.903438" y="141.752609" transform="rotate(-0 37.903438 141.752609)">1.2</text>
     </g>
    </g>
    <g id="ytick_5">
     <g id="line2d_10">
      <g>
       <use xlink:href="#m71265724c6" x="41.403438" y="109.522559" style="stroke: #000000; stroke-width: 0.8"/>
      </g>
     </g>
     <g id="text_11">
      <text style="font: 10px 'Helvetica', 'Arial', sans-serif; text-anchor: end" x="37.903438" y="113.101465" transform="rotate(-0 37.903438 113.101465)">1.4</text>
     </g>
    </g>
    <g id="ytick_6">
     <g id="line2d_11">
      <g>
       <use xlink:href="#m71265724c6" x="41.403438" y="80.871415" style="stroke: #000000; stroke-width: 0.8"/>
      </g>
     </g>
     <g id="text_12">
      <text style="font: 10px 'Helvetica', 'Arial', sans-serif; text-anchor: end" x="37.903438" y="84.450321" transform="rotate(-0 37.903438 84.450321)">1.6</text>
     </g>
    </g>
    <g id="ytick_7">
     <g id="line2d_12">
      <g>
       <use xlink:href="#m71265724c6" x="41.403438" y="52.220271" style="stroke: #000000; stroke-width: 0.8"/>
      </g>
     </g>
     <g id="text_13">
      <text style="font: 10px 'Helvetica', 'Arial', sans-serif; text-anchor: end" x="37.903438" y="55.799178" transform="rotate(-0 37.903438 55.799178)">1.8</text>
     </g>
    </g>
    <g id="ytick_8">
     <g id="line2d_13">
      <g>
       <use xlink:href="#m71265724c6" x="41.403438" y="23.569128" style="stroke: #000000; stroke-width: 0.8"/>
      </g>
     </g>
     <g id="text_14">
      <text style="font: 10px 'Helvetica', 'Arial', sans-serif; text-anchor: end" x="37.903438" y="27.148034" transform="rotate(-0 37.903438 27.148034)">2.0</text>
     </g>
    </g>
    <g id="text_15">
     <text style="font: 14px 'Helvetica', 'Arial', sans-serif; text-anchor: middle" x="17.220938" y="123.51" transform="rotate(-90 17.220938 123.51)">Mutual Information</text>
    </g>
   </g>
   <g id="line2d_14">
    <path d="M 58.31696 228.311166 
L 142.884574 20.363689 
L 227.452187 19.056527 
L 312.019801 19.056741 
L 396.587415 19.056468 
" clip-path="url(#p6e5b1c4201)" style="fill: none; stroke: #2d3047; stroke-width: 1.6; stroke-linecap: square"/>
    <defs>
     <path id="m059b5450f3" d="M 0 3 
C 0.795609 3 1.55874 2.683901 2.12132 2.12132 
C 2.683901 1.55874 3 0.795609 3 0 
C 3 -0.795609 2.683901 -1.55874 2.12132 -2.12132 
C 1.55874 -2.683901 0.795609 -3 0 -3 
C -0.795609 -3 -1.55874 -2.683901 -2.12132 -2.12132 
C -2.683901 -1.55874 -3 -0.795609 -3 0 
C -3 0.795609 -2.683901 1.55874 -2.12132 2.12132 
C -1.55874 2.683901 -0.795609 3 0 3 
z
" style="stroke: #2d3047"/>
    </defs>
    <g clip-path="url(#p6e5b1c4201)">
     <use xlink:href="#m059b5450f3" x="58.31696" y="228.311166" style="fill: #2d3047; stroke: #2d3047"/>
     <use xlink:href="#m059b5450f3" x="142.884574" y="20.363689" style="fill: #2d3047; stroke: #2d3047"/>
     <use xlink:href="#m059b5450f3" x="227.452187" y="19.056527" style="fill: #2d3047; stroke: #2d3047"/>
     <use xlink:href="#m059b5450f3" x="312.019801" y="19.056741" style="fill: #2d3047; stroke: #2d3047"/>
     <use xlink:href="#m059b5450f3" x="396.587415" y="19.056468" style="fill: #2d3047; stroke: #2d3047"/>
    </g>
   </g>
   <g id="line2d_15">
    <path d="M 58.31696 39.599482 
L 142.884574 19.057423 
L 227.452187 19.055871 
L 312.019801 19.057056 
L 396.587415 19.056212 
" clip-path="url(#p6e5b1c4201)" style="fill: none; stroke-dasharray: 5.92,2.56; stroke-dashoffset: 0; stroke: #d1345b; stroke-width: 1.6"/>
    <defs>
     <path id="m471ce9c407" d="M 0 3 
C 0.795609 3 1.55874 2.683901 2.12132 2.12132 
C 2.683901 1.55874 3 0.795609 3 0 
C 3 -0.795609 2.683901 -1.55874 2.12132 -2.12132 
C 1.55874 -2.683901 0.795609 -3 0 -3 
C -0.795609 -3 -1.55874 -2.683901 -2.12132 -2.12132 
C -2.683901 -1.55874 -3 -0.795609 -3 0 
C -3 0.795609 -2.683901 1.55874 -2.12132 2.12132 
C -1.55874 2.683901 -0.795609 3 0 3 
z
" style="stroke: #d1345b"/>
    </defs>
    <g clip-path="url(#p6e5b1c4201)">
     <use xlink:href="#m471ce9c407" x="58.31696" y="39.599482" style="fill: #d1345b; stroke: #d1345b"/>
     <use xlink:href="#m471ce9c407" x="142.884574" y="19.057423" style="fill: #d1345b; stroke: #d1345b"/>
     <use xlink:href="#m471ce9c407" x="227.452187" y="19.055871" style="fill: #d1345b; stroke: #d1345b"/>
     <use xlink:href="#m471ce9c407" x="312.019801" y="19.057056" style="fill: #d1345b; stroke: #d1345b"/>
     <use xlink:href="#m471ce9c407" x="396.587415" y="19.056212" style="fill: #d1345b; stroke: #d1345b"/>
    </g>
   </g>
   <g id="line2d_16">
    <path d="M 58.31696 39.601168 
L 142.884574 19.0564 
L 227.452187 19.056673 
L 312.019801 19.056527 
L 396.587415 19.056732 
" clip-path="url(#p6e5b1c4201)" style="fill: none; stroke-dasharray: 1.6,2.64; stroke-dashoffset: 0; stroke: #ff9b71; stroke-width: 1.6"/>
    <defs>
     <path id="m2473fc1e3e" d="M 0 3 
C 0.795609 3 1.55874 2.683901 2.12132 2.12132 
C 2.683901 1.55874 3 0.795609 3 0 
C 3 -0.795609 2.683901 -1.55874 2.12132 -2.12132 
C 1.55874 -2.683901 0.795609 -3 0 -3 
C -0.795609 -3 -1.55874 -2.683901 -2.12132 -2.12132 
C -2.683901 -1.55874 -3 -0.795609 -3 0 
C -3 0.795609 -2.683901 1.55874 -2.12132 2.12132 
C -1.55874 2.683901 -0.795609 3 0 3 
z
" style="stroke: #ff9b71"/>
    </defs>
    <g clip-path="url(#p6e5b1c4201)">
     <use xlink:href="#m2473fc1e3e" x="58.31696" y="39.601168" style="fill: #ff9b71; stroke: #ff9b71"/>
     <use xlink:href="#m2473fc1e3e" x="142.884574" y="19.0564" style="fill: #ff9b71; stroke: #ff9b71"/>
     <use xlink:href="#m2473fc1e3e" x="227.452187" y="19.056673" style="fill: #ff9b71; stroke: #ff9b71"/>
     <use xlink:href="#m2473fc1e3e" x="312.019801" y="19.056527" style="fill: #ff9b71; stroke: #ff9b71"/>
     <use xlink:href="#m2473fc1e3e" x="396.587415" y="19.056732" style="fill: #ff9b71; stroke: #ff9b71"/>
    </g>
   </g>
   <g id="patch_3">
    <path d="M 41.403438 239.82 
L 41.403438 7.2 
" style="fill: none; stroke: #000000; stroke-width: 0.8; stroke-linejoin: miter; stroke-linecap: square"/>
   </g>
   <g id="patch_4">
    <path d="M 413.500937 239.82 
L 413.500937 7.2 
" style="fill: none; stroke: #000000; stroke-width: 0.8; stroke-linejoin: miter; stroke-linecap: square"/>
   </g>
   <g id="patch_5">
    <path d="M 41.403438 239.82 
L 413.500938 239.82 
" style="fill: none; stroke: #000000; stroke-width: 0.8; stroke-linejoin: miter; stroke-linecap: square"/>
   </g>
   <g id="patch_6">
    <path d="M 41.403438 7.2 
L 413.500938 7.2 
" style="fill: none; stroke: #000000; stroke-width: 0.8; stroke-linejoin: miter; stroke-linecap: square"/>
   </g>
   <g id="legend_1">
    <g id="patch_7">
     <path d="M 345.60875 234.82 
L 406.500937 234.82 
Q 408.500937 234.82 408.500937 232.82 
L 408.500937 191.384062 
Q 408.500937 189.384062 406.500937 189.384062 
L 345.60875 189.384062 
Q 343.60875 189.384062 343.60875 191.384062 
L 343.60875 232.82 
Q 343.60875 234.82 345.60875 234.82 
z
" style="fill: #ffffff; opacity: 0.8"/>
    </g>
    <g id="line2d_17">
     <path d="M 347.60875 197.041875 
L 357.60875 197.041875 
L 367.60875 197.041875 
" style="fill: none; stroke: #2d3047; stroke-width: 1.6; stroke-linecap: square"/>
     <g>
      <use xlink:href="#m059b5450f3" x="357.60875" y="197.041875" style="fill: #2d3047; stroke: #2d3047"/>
     </g>
    </g>
    <g id="text_16">
     <text style="font: 10px 'Helvetica', 'Arial', sans-serif; text-anchor: start" x="375.60875" y="200.541875" transform="rotate(-0 375.60875 200.541875)">SAGE</text>
    </g>
    <g id="line2d_18">
     <path d="M 347.60875 211.187187 
L 357.60875 211.187187 
L 367.60875 211.187187 
" style="fill: none; stroke-dasharray: 5.92,2.56; stroke-dashoffset: 0; stroke: #d1345b; stroke-width: 1.6"/>
     <g>
      <use xlink:href="#m471ce9c407" x="357.60875" y="211.187187" style="fill: #d1345b; stroke: #d1345b"/>
     </g>
    </g>
    <g id="text_17">
     <text style="font: 10px 'Helvetica', 'Arial', sans-serif; text-anchor: start" x="375.60875" y="214.687187" transform="rotate(-0 375.60875 214.687187)">PFI</text>
    </g>
    <g id="line2d_19">
     <path d="M 347.60875 225.3325 
L 357.60875 225.3325 
L 367.60875 225.3325 
" style="fill: none; stroke-dasharray: 1.6,2.64; stroke-dashoffset: 0; stroke: #ff9b71; stroke-width: 1.6"/>
     <g>
      <use xlink:href="#m2473fc1e3e" x="357.60875" y="225.3325" style="fill: #ff9b71; stroke: #ff9b71"/>
     </g>
    </g>
    <g id="text_18">
     <text style="font: 10px 'Helvetica', 'Arial', sans-serif; text-anchor: start" x="375.60875" y="228.8325" transform="rotate(-0 375.60875 228.8325)">OURS</text>
    </g>
   </g>
  </g>
 </g>
 <defs>
  <clipPath id="p6e5b1c4201">
   <rect x="41.403438" y="7.2" width="372.0975" height="232.62"/>
  </clipPath>
 </defs>
</svg>
