<?xml version="1.0" encoding="utf-8" standalone="no"?>
<!DOCTYPE svg PUBLIC "-//W3C//DTD SVG 1.1//EN"
  "http://www.w3.org/Graphics/SVG/1.1/DTD/svg11.dtd">
<svg xmlns:xlink="http://www.w3.org/1999/xlink" width="420.700938pt" height="276.639375pt" viewBox="0 0 420.700938 276.639375" xmlns="http://www.w3.org/2000/svg" version="1.1">
 <metadata>
  <rdf:RDF xmlns:dc="http://purl.org/dc/elements/1.1/" xmlns:cc="http://creativecommons.org/ns#" xmlns:rdf="http://www.w3.org/1999/02/22-rdf-syntax-ns#">
   <cc:Work>
    <dc:type rdf:resource="http://purl.org/dc/dcmitype/StillImage"/>
    <dc:date>2026-04-15T11:59:23.115993</dc:date>
    <dc:format>image/svg+xml</dc:format>
    <dc:creator>
     <cc:Agent>
      <dc:title>Matplotlib v3.9.2, https://matplotlib.org/</dc:title>
     </cc:Agent>
    </dc:creator>
   </cc:Work>
  </rdf:RDF>
 </metadata>
 <defs>
  <style type="text/css">*{stroke-linejoin: round; stroke-linecap: butt}</style>
 </defs>
 <g id="figure_1">
  <g id="patch_1">
   <path d="M 0 276.639375 
L 420.700938 276.639375 
L 420.700938 0 
L 0 0 
z
" style="fill: #ffffff"/>
  </g>
  <g id="axes_1">
   <g id="patch_2">
    <path d="M 41.403438 239.82 
L 413.500937 239.82 
L 413.500937 7.2 
L 41.403438 7.2 
z
" style="fill: #ffffff"/>
   </g>
   <g id="PolyCollection_1">
    <defs>
     <path id="mf58956042d" d="M 58.31696 -49.333652 
L 58.31696 -47.393011 
L 142.884574 -57.554892 
L 227.452187 -244.165167 
L 312.019801 -231.785449 
L 396.587415 -256.533822 
L 396.587415 -258.370298 
L 396.587415 -258.370298 
L 312.019801 -233.29372 
L 227.452187 -245.261389 
L 142.884574 -59.114664 
L 58.31696 -49.333652 
z
" style="stroke: #2d3047; stroke-opacity: 0.2"/>
    </defs>
    <g clip-path="url(#pee229e7fbe)">
     <use xlink:href="#mf58956042d" x="0" y="276.639375" style="fill: #2d3047; fill-opacity: 0.2; stroke: #2d3047; stroke-opacity: 0.2"/>
    </g>
   </g>
   <g id="PolyCollection_2">
    <defs>
     <path id="m245fff865a" d="M 58.31696 -139.504535 
L 58.31696 -138.079188 
L 142.884574 -213.886012 
L 227.452187 -233.447246 
L 312.019801 -231.160781 
L 396.587415 -256.878177 
L 396.587415 -258.865739 
L 396.587415 -258.865739 
L 312.019801 -233.43576 
L 227.452187 -234.802528 
L 142.884574 -215.514223 
L 58.31696 -139.504535 
z
" style="stroke: #d1345b; stroke-opacity: 0.2"/>
    </defs>
    <g clip-path="url(#pee229e7fbe)">
     <use xlink:href="#m245fff865a" x="0" y="276.639375" style="fill: #d1345b; fill-opacity: 0.2; stroke: #d1345b; stroke-opacity: 0.2"/>
    </g>
   </g>
   <g id="PolyCollection_3">
    <defs>
     <path id="m4b09a68d0c" d="M 58.31696 -139.514297 
L 58.31696 -137.994759 
L 142.884574 -238.666038 
L 227.452187 -232.954303 
L 312.019801 -231.669855 
L 396.587415 -257.007572 
L 396.587415 -258.236901 
L 396.587415 -258.236901 
L 312.019801 -233.582429 
L 227.452187 -235.222729 
L 142.884574 -240.102557 
L 58.31696 -139.514297 
z
" style="stroke: #ff9b71; stroke-opacity: 0.2"/>
    </defs>
    <g clip-path="url(#pee229e7fbe)">
     <use xlink:href="#m4b09a68d0c" x="0" y="276.639375" style="fill: #ff9b71; fill-opacity: 0.2; stroke: #ff9b71; stroke-opacity: 0.2"/>
    </g>
   </g>
   <g id="matplotlib.axis_1">
    <g id="xtick_1">
     <g id="line2d_1">
      <defs>
       <path id="m07f274def7" d="M 0 0 
L 0 -4 
" style="stroke: #000000; stroke-width: 0.8"/>
      </defs>
      <g>
       <use xlink:href="#m07f274def7" x="58.31696" y="239.82" style="stroke: #000000; stroke-width: 0.8"/>
      </g>
     </g>
     <g id="text_1">
      <text style="font: 10px 'Helvetica', 'Arial', sans-serif; text-anchor: middle" x="58.31696" y="250.477812" transform="rotate(-0 58.31696 250.477812)">1</text>
     </g>
    </g>
    <g id="xtick_2">
     <g id="line2d_2">
      <g>
       <use xlink:href="#m07f274def7" x="142.884574" y="239.82" style="stroke: #000000; stroke-width: 0.8"/>
      </g>
     </g>
     <g id="text_2">
      <text style="font: 10px 'Helvetica', 'Arial', sans-serif; text-anchor: middle" x="142.884574" y="250.477812" transform="rotate(-0 142.884574 250.477812)">2</text>
     </g>
    </g>
    <g id="xtick_3">
     <g id="line2d_3">
      <g>
       <use xlink:href="#m07f274def7" x="227.452187" y="239.82" style="stroke: #000000; stroke-width: 0.8"/>
      </g>
     </g>
     <g id="text_3">
      <text style="font: 10px 'Helvetica', 'Arial', sans-serif; text-anchor: middle" x="227.452187" y="250.477812" transform="rotate(-0 227.452187 250.477812)">3</text>
     </g>
    </g>
    <g id="xtick_4">
     <g id="line2d_4">
      <g>
       <use xlink:href="#m07f274def7" x="312.019801" y="239.82" style="stroke: #000000; stroke-width: 0.8"/>
      </g>
     </g>
     <g id="text_4">
      <text style="font: 10px 'Helvetica', 'Arial', sans-serif; text-anchor: middle" x="312.019801" y="250.477812" transform="rotate(-0 312.019801 250.477812)">4</text>
     </g>
    </g>
    <g id="xtick_5">
     <g id="line2d_5">
      <g>
       <use xlink:href="#m07f274def7" x="396.587415" y="239.82" style="stroke: #000000; stroke-width: 0.8"/>
      </g>
     </g>
     <g id="text_5">
      <text style="font: 10px 'Helvetica', 'Arial', sans-serif; text-anchor: middle" x="396.587415" y="250.477812" transform="rotate(-0 396.587415 250.477812)">5</text>
     </g>
    </g>
    <g id="text_6">
     <text style="font: 14px 'Helvetica', 'Arial', sans-serif; text-anchor: middle" x="227.452187" y="266.656875" transform="rotate(-0 227.452187 266.656875)">Sensor Groups Count</text>
    </g>
   </g>
   <g id="matplotlib.axis_2">
    <g id="ytick_1">
     <g id="line2d_6">
      <defs>
       <path id="m96358765cb" d="M 0 0 
L 4 0 
" style="stroke: #000000; stroke-width: 0.8"/>
      </defs>
      <g>
       <use xlink:href="#m96358765cb" x="41.403438" y="222.590675" style="stroke: #000000; stroke-width: 0.8"/>
      </g>
     </g>
     <g id="text_7">
      <text style="font: 10px 'Helvetica', 'Arial', sans-serif; text-anchor: end" x="37.903438" y="226.169582" transform="rotate(-0 37.903438 226.169582)">0.6</text>
     </g>
    </g>
    <g id="ytick_2">
     <g id="line2d_7">
      <g>
       <use xlink:href="#m96358765cb" x="41.403438" y="194.156256" style="stroke: #000000; stroke-width: 0.8"/>
      </g>
     </g>
     <g id="text_8">
      <text style="font: 10px 'Helvetica', 'Arial', sans-serif; text-anchor: end" x="37.903438" y="197.735163" transform="rotate(-0 37.903438 197.735163)">0.8</text>
     </g>
    </g>
    <g id="ytick_3">
     <g id="line2d_8">
      <g>
       <use xlink:href="#m96358765cb" x="41.403438" y="165.721838" style="stroke: #000000; stroke-width: 0.8"/>
      </g>
     </g>
     <g id="text_9">
      <text style="font: 10px 'Helvetica', 'Arial', sans-serif; text-anchor: end" x="37.903438" y="169.300744" transform="rotate(-0 37.903438 169.300744)">1.0</text>
     </g>
    </g>
    <g id="ytick_4">
     <g id="line2d_9">
      <g>
       <use xlink:href="#m96358765cb" x="41.403438" y="137.287419" style="stroke: #000000; stroke-width: 0.8"/>
      </g>
     </g>
     <g id="text_10">
      <text style="font: 10px 'Helvetica', 'Arial', sans-serif; text-anchor: end" x="37.903438" y="140.866325" transform="rotate(-0 37.903438 140.866325)">1.2</text>
     </g>
    </g>
    <g id="ytick_5">
     <g id="line2d_10">
      <g>
       <use xlink:href="#m96358765cb" x="41.403438" y="108.853" style="stroke: #000000; stroke-width: 0.8"/>
      </g>
     </g>
     <g id="text_11">
      <text style="font: 10px 'Helvetica', 'Arial', sans-serif; text-anchor: end" x="37.903438" y="112.431906" transform="rotate(-0 37.903438 112.431906)">1.4</text>
     </g>
    </g>
    <g id="ytick_6">
     <g id="line2d_11">
      <g>
       <use xlink:href="#m96358765cb" x="41.403438" y="80.418581" style="stroke: #000000; stroke-width: 0.8"/>
      </g>
     </g>
     <g id="text_12">
      <text style="font: 10px 'Helvetica', 'Arial', sans-serif; text-anchor: end" x="37.903438" y="83.997487" transform="rotate(-0 37.903438 83.997487)">1.6</text>
     </g>
    </g>
    <g id="ytick_7">
     <g id="line2d_12">
      <g>
       <use xlink:href="#m96358765cb" x="41.403438" y="51.984162" style="stroke: #000000; stroke-width: 0.8"/>
      </g>
     </g>
     <g id="text_13">
      <text style="font: 10px 'Helvetica', 'Arial', sans-serif; text-anchor: end" x="37.903438" y="55.563068" transform="rotate(-0 37.903438 55.563068)">1.8</text>
     </g>
    </g>
    <g id="ytick_8">
     <g id="line2d_13">
      <g>
       <use xlink:href="#m96358765cb" x="41.403438" y="23.549743" style="stroke: #000000; stroke-width: 0.8"/>
      </g>
     </g>
     <g id="text_14">
      <text style="font: 10px 'Helvetica', 'Arial', sans-serif; text-anchor: end" x="37.903438" y="27.128649" transform="rotate(-0 37.903438 27.128649)">2.0</text>
     </g>
    </g>
    <g id="text_15">
     <text style="font: 14px 'Helvetica', 'Arial', sans-serif; text-anchor: middle" x="17.220938" y="123.51" transform="rotate(-90 17.220938 123.51)">Mutual Information</text>
    </g>
   </g>
   <g id="line2d_14">
    <path d="M 58.31696 228.541094 
L 142.884574 218.388474 
L 227.452187 32.101301 
L 312.019801 44.194014 
L 396.587415 19.071548 
" clip-path="url(#pee229e7fbe)" style="fill: none; stroke: #2d3047; stroke-width: 1.6; stroke-linecap: square"/>
    <defs>
     <path id="m190842db5a" d="M 0 3 
C 0.795609 3 1.55874 2.683901 2.12132 2.12132 
C 2.683901 1.55874 3 0.795609 3 0 
C 3 -0.795609 2.683901 -1.55874 2.12132 -2.12132 
C 1.55874 -2.683901 0.795609 -3 0 -3 
C -0.795609 -3 -1.55874 -2.683901 -2.12132 -2.12132 
C -2.683901 -1.55874 -3 -0.795609 -3 0 
C -3 0.795609 -2.683901 1.55874 -2.12132 2.12132 
C -1.55874 2.683901 -0.795609 3 0 3 
z
" style="stroke: #2d3047"/>
    </defs>
    <g clip-path="url(#pee229e7fbe)">
     <use xlink:href="#m190842db5a" x="58.31696" y="228.541094" style="fill: #2d3047; stroke: #2d3047"/>
     <use xlink:href="#m190842db5a" x="142.884574" y="218.388474" style="fill: #2d3047; stroke: #2d3047"/>
     <use xlink:href="#m190842db5a" x="227.452187" y="32.101301" style="fill: #2d3047; stroke: #2d3047"/>
     <use xlink:href="#m190842db5a" x="312.019801" y="44.194014" style="fill: #2d3047; stroke: #2d3047"/>
     <use xlink:href="#m190842db5a" x="396.587415" y="19.071548" style="fill: #2d3047; stroke: #2d3047"/>
    </g>
   </g>
   <g id="line2d_15">
    <path d="M 58.31696 138.01019 
L 142.884574 61.946216 
L 227.452187 42.353023 
L 312.019801 44.194028 
L 396.587415 19.071548 
" clip-path="url(#pee229e7fbe)" style="fill: none; stroke-dasharray: 5.92,2.56; stroke-dashoffset: 0; stroke: #d1345b; stroke-width: 1.6"/>
    <defs>
     <path id="m34579028e3" d="M 0 3 
C 0.795609 3 1.55874 2.683901 2.12132 2.12132 
C 2.683901 1.55874 3 0.795609 3 0 
C 3 -0.795609 2.683901 -1.55874 2.12132 -2.12132 
C 1.55874 -2.683901 0.795609 -3 0 -3 
C -0.795609 -3 -1.55874 -2.683901 -2.12132 -2.12132 
C -2.683901 -1.55874 -3 -0.795609 -3 0 
C -3 0.795609 -2.683901 1.55874 -2.12132 2.12132 
C -1.55874 2.683901 -0.795609 3 0 3 
z
" style="stroke: #d1345b"/>
    </defs>
    <g clip-path="url(#pee229e7fbe)">
     <use xlink:href="#m34579028e3" x="58.31696" y="138.01019" style="fill: #d1345b; stroke: #d1345b"/>
     <use xlink:href="#m34579028e3" x="142.884574" y="61.946216" style="fill: #d1345b; stroke: #d1345b"/>
     <use xlink:href="#m34579028e3" x="227.452187" y="42.353023" style="fill: #d1345b; stroke: #d1345b"/>
     <use xlink:href="#m34579028e3" x="312.019801" y="44.194028" style="fill: #d1345b; stroke: #d1345b"/>
     <use xlink:href="#m34579028e3" x="396.587415" y="19.071548" style="fill: #d1345b; stroke: #d1345b"/>
    </g>
   </g>
   <g id="line2d_16">
    <path d="M 58.31696 138.001206 
L 142.884574 37.275699 
L 227.452187 42.352874 
L 312.019801 44.194108 
L 396.587415 19.071489 
" clip-path="url(#pee229e7fbe)" style="fill: none; stroke-dasharray: 1.6,2.64; stroke-dashoffset: 0; stroke: #ff9b71; stroke-width: 1.6"/>
    <defs>
     <path id="me056b8fbe0" d="M 0 3 
C 0.795609 3 1.55874 2.683901 2.12132 2.12132 
C 2.683901 1.55874 3 0.795609 3 0 
C 3 -0.795609 2.683901 -1.55874 2.12132 -2.12132 
C 1.55874 -2.683901 0.795609 -3 0 -3 
C -0.795609 -3 -1.55874 -2.683901 -2.12132 -2.12132 
C -2.683901 -1.55874 -3 -0.795609 -3 0 
C -3 0.795609 -2.683901 1.55874 -2.12132 2.12132 
C -1.55874 2.683901 -0.795609 3 0 3 
z
" style="stroke: #ff9b71"/>
    </defs>
    <g clip-path="url(#pee229e7fbe)">
     <use xlink:href="#me056b8fbe0" x="58.31696" y="138.001206" style="fill: #ff9b71; stroke: #ff9b71"/>
     <use xlink:href="#me056b8fbe0" x="142.884574" y="37.275699" style="fill: #ff9b71; stroke: #ff9b71"/>
     <use xlink:href="#me056b8fbe0" x="227.452187" y="42.352874" style="fill: #ff9b71; stroke: #ff9b71"/>
     <use xlink:href="#me056b8fbe0" x="312.019801" y="44.194108" style="fill: #ff9b71; stroke: #ff9b71"/>
     <use xlink:href="#me056b8fbe0" x="396.587415" y="19.071489" style="fill: #ff9b71; stroke: #ff9b71"/>
    </g>
   </g>
   <g id="patch_3">
    <path d="M 41.403438 239.82 
L 41.403438 7.2 
" style="fill: none; stroke: #000000; stroke-width: 0.8; stroke-linejoin: miter; stroke-linecap: square"/>
   </g>
   <g id="patch_4">
    <path d="M 413.500937 239.82 
L 413.500937 7.2 
" style="fill: none; stroke: #000000; stroke-width: 0.8; stroke-linejoin: miter; stroke-linecap: square"/>
   </g>
   <g id="patch_5">
    <path d="M 41.403438 239.82 
L 413.500938 239.82 
" style="fill: none; stroke: #000000; stroke-width: 0.8; stroke-linejoin: miter; stroke-linecap: square"/>
   </g>
   <g id="patch_6">
    <path d="M 41.403438 7.2 
L 413.500938 7.2 
" style="fill: none; stroke: #000000; stroke-width: 0.8; stroke-linejoin: miter; stroke-linecap: square"/>
   </g>
   <g id="legend_1">
    <g id="patch_7">
     <path d="M 48.403438 57.635937 
L 109.295625 57.635937 
Q 111.295625 57.635937 111.295625 55.635937 
L 111.295625 14.2 
Q 111.295625 12.2 109.295625 12.2 
L 48.403438 12.2 
Q 46.403438 12.2 46.403438 14.2 
L 46.403438 55.635937 
Q 46.403438 57.635937 48.403438 57.635937 
z
" style="fill: #ffffff; opacity: 0.8"/>
    </g>
    <g id="line2d_17">
     <path d="M 50.403438 19.857812 
L 60.403438 19.857812 
L 70.403437 19.857812 
" style="fill: none; stroke: #2d3047; stroke-width: 1.6; stroke-linecap: square"/>
     <g>
      <use xlink:href="#m190842db5a" x="60.403438" y="19.857812" style="fill: #2d3047; stroke: #2d3047"/>
     </g>
    </g>
    <g id="text_16">
     <text style="font: 10px 'Helvetica', 'Arial', sans-serif; text-anchor: start" x="78.403437" y="23.357812" transform="rotate(-0 78.403437 23.357812)">SAGE</text>
    </g>
    <g id="line2d_18">
     <path d="M 50.403438 34.003125 
L 60.403438 34.003125 
L 70.403437 34.003125 
" style="fill: none; stroke-dasharray: 5.92,2.56; stroke-dashoffset: 0; stroke: #d1345b; stroke-width: 1.6"/>
     <g>
      <use xlink:href="#m34579028e3" x="60.403438" y="34.003125" style="fill: #d1345b; stroke: #d1345b"/>
     </g>
    </g>
    <g id="text_17">
     <text style="font: 10px 'Helvetica', 'Arial', sans-serif; text-anchor: start" x="78.403437" y="37.503125" transform="rotate(-0 78.403437 37.503125)">PFI</text>
    </g>
    <g id="line2d_19">
     <path d="M 50.403438 48.148437 
L 60.403438 48.148437 
L 70.403437 48.148437 
" style="fill: none; stroke-dasharray: 1.6,2.64; stroke-dashoffset: 0; stroke: #ff9b71; stroke-width: 1.6"/>
     <g>
      <use xlink:href="#me056b8fbe0" x="60.403438" y="48.148437" style="fill: #ff9b71; stroke: #ff9b71"/>
     </g>
    </g>
    <g id="text_18">
     <text style="font: 10px 'Helvetica', 'Arial', sans-serif; text-anchor: start" x="78.403437" y="51.648437" transform="rotate(-0 78.403437 51.648437)">OURS</text>
    </g>
   </g>
  </g>
 </g>
 <defs>
  <clipPath id="pee229e7fbe">
   <rect x="41.403438" y="7.2" width="372.0975" height="232.62"/>
  </clipPath>
 </defs>
</svg>
