<?xml version="1.0" encoding="utf-8" standalone="no"?>
<!DOCTYPE svg PUBLIC "-//W3C//DTD SVG 1.1//EN"
  "http://www.w3.org/Graphics/SVG/1.1/DTD/svg11.dtd">
<svg xmlns:xlink="http://www.w3.org/1999/xlink" width="420.374687pt" height="276.352656pt" viewBox="0 0 420.374687 276.352656" xmlns="http://www.w3.org/2000/svg" version="1.1">
 <metadata>
  <rdf:RDF xmlns:dc="http://purl.org/dc/elements/1.1/" xmlns:cc="http://creativecommons.org/ns#" xmlns:rdf="http://www.w3.org/1999/02/22-rdf-syntax-ns#">
   <cc:Work>
    <dc:type rdf:resource="http://purl.org/dc/dcmitype/StillImage"/>
    <dc:date>2026-05-03T16:55:22.498545</dc:date>
    <dc:format>image/svg+xml</dc:format>
    <dc:creator>
     <cc:Agent>
      <dc:title>Matplotlib v3.10.8, https://matplotlib.org/</dc:title>
     </cc:Agent>
    </dc:creator>
   </cc:Work>
  </rdf:RDF>
 </metadata>
 <defs>
  <style type="text/css">*{stroke-linejoin: round; stroke-linecap: butt}</style>
 </defs>
 <g id="figure_1">
  <g id="patch_1">
   <path d="M 0 276.352656 
L 420.374687 276.352656 
L 420.374687 0 
L 0 0 
z
" style="fill: #ffffff"/>
  </g>
  <g id="axes_1">
   <g id="patch_2">
    <path d="M 41.560938 239.160469 
L 413.174687 239.160469 
L 413.174687 7.2 
L 41.560938 7.2 
z
" style="fill: #ffffff"/>
   </g>
   <g id="FillBetweenPolyCollection_1">
    <defs>
     <path id="m91cdb69615" d="M 58.452472 -49.670983 
L 58.452472 -47.735845 
L 142.910142 -57.868915 
L 227.367812 -243.950107 
L 311.825483 -231.605488 
L 396.283153 -256.283694 
L 396.283153 -258.114963 
L 396.283153 -258.114963 
L 311.825483 -233.109483 
L 227.367812 -245.04322 
L 142.910142 -59.424264 
L 58.452472 -49.670983 
z
" style="stroke: #2d3047; stroke-opacity: 0.2"/>
    </defs>
    <g clip-path="url(#pec7d8e6093)">
     <use xlink:href="#m91cdb69615" x="0" y="276.352656" style="fill: #2d3047; fill-opacity: 0.2; stroke: #2d3047; stroke-opacity: 0.2"/>
    </g>
   </g>
   <g id="FillBetweenPolyCollection_2">
    <defs>
     <path id="mc817e4808d" d="M 58.452472 -139.586212 
L 58.452472 -138.164905 
L 142.910142 -213.7568 
L 227.367812 -233.262573 
L 311.825483 -230.982591 
L 396.283153 -256.627072 
L 396.283153 -258.608999 
L 396.283153 -258.608999 
L 311.825483 -233.25112 
L 227.367812 -234.614013 
L 142.910142 -215.380394 
L 58.452472 -139.586212 
z
" style="stroke: #d1345b; stroke-opacity: 0.2"/>
    </defs>
    <g clip-path="url(#pec7d8e6093)">
     <use xlink:href="#mc817e4808d" x="0" y="276.352656" style="fill: #d1345b; fill-opacity: 0.2; stroke: #d1345b; stroke-opacity: 0.2"/>
    </g>
   </g>
   <g id="FillBetweenPolyCollection_3">
    <defs>
     <path id="ma337ae05ce" d="M 58.452472 -139.595946 
L 58.452472 -138.080716 
L 142.910142 -238.466569 
L 227.367812 -232.771027 
L 311.825483 -231.490222 
L 396.283153 -256.7561 
L 396.283153 -257.981944 
L 396.283153 -257.981944 
L 311.825483 -233.397373 
L 227.367812 -235.033022 
L 142.910142 -239.899015 
L 58.452472 -139.595946 
z
" style="stroke: #ff9b71; stroke-opacity: 0.2"/>
    </defs>
    <g clip-path="url(#pec7d8e6093)">
     <use xlink:href="#ma337ae05ce" x="0" y="276.352656" style="fill: #ff9b71; fill-opacity: 0.2; stroke: #ff9b71; stroke-opacity: 0.2"/>
    </g>
   </g>
   <g id="matplotlib.axis_1">
    <g id="xtick_1">
     <g id="line2d_1">
      <defs>
       <path id="m837257e2ed" d="M 0 0 
L 0 -4 
" style="stroke: #000000; stroke-width: 0.8"/>
      </defs>
      <g>
       <use xlink:href="#m837257e2ed" x="58.452472" y="239.160469" style="stroke: #000000; stroke-width: 0.8"/>
      </g>
     </g>
     <g id="text_1">
      <text style="font-size: 10px; font-family: 'Helvetica', 'Arial', sans-serif; text-anchor: middle" x="58.452472" y="249.833906" transform="rotate(-0 58.452472 249.833906)">1</text>
     </g>
    </g>
    <g id="xtick_2">
     <g id="line2d_2">
      <g>
       <use xlink:href="#m837257e2ed" x="142.910142" y="239.160469" style="stroke: #000000; stroke-width: 0.8"/>
      </g>
     </g>
     <g id="text_2">
      <text style="font-size: 10px; font-family: 'Helvetica', 'Arial', sans-serif; text-anchor: middle" x="142.910142" y="249.833906" transform="rotate(-0 142.910142 249.833906)">2</text>
     </g>
    </g>
    <g id="xtick_3">
     <g id="line2d_3">
      <g>
       <use xlink:href="#m837257e2ed" x="227.367812" y="239.160469" style="stroke: #000000; stroke-width: 0.8"/>
      </g>
     </g>
     <g id="text_3">
      <text style="font-size: 10px; font-family: 'Helvetica', 'Arial', sans-serif; text-anchor: middle" x="227.367812" y="249.833906" transform="rotate(-0 227.367812 249.833906)">3</text>
     </g>
    </g>
    <g id="xtick_4">
     <g id="line2d_4">
      <g>
       <use xlink:href="#m837257e2ed" x="311.825483" y="239.160469" style="stroke: #000000; stroke-width: 0.8"/>
      </g>
     </g>
     <g id="text_4">
      <text style="font-size: 10px; font-family: 'Helvetica', 'Arial', sans-serif; text-anchor: middle" x="311.825483" y="249.833906" transform="rotate(-0 311.825483 249.833906)">4</text>
     </g>
    </g>
    <g id="xtick_5">
     <g id="line2d_5">
      <g>
       <use xlink:href="#m837257e2ed" x="396.283153" y="239.160469" style="stroke: #000000; stroke-width: 0.8"/>
      </g>
     </g>
     <g id="text_5">
      <text style="font-size: 10px; font-family: 'Helvetica', 'Arial', sans-serif; text-anchor: middle" x="396.283153" y="249.833906" transform="rotate(-0 396.283153 249.833906)">5</text>
     </g>
    </g>
    <g id="text_6">
     <text style="font-size: 14px; font-family: 'Helvetica', 'Arial', sans-serif; text-anchor: middle" x="227.367812" y="266.234531" transform="rotate(-0 227.367812 266.234531)">Sensor Groups Count</text>
    </g>
   </g>
   <g id="matplotlib.axis_2">
    <g id="ytick_1">
     <g id="line2d_6">
      <defs>
       <path id="m5cc7695c83" d="M 0 0 
L 4 0 
" style="stroke: #000000; stroke-width: 0.8"/>
      </defs>
      <g>
       <use xlink:href="#m5cc7695c83" x="41.560938" y="221.979993" style="stroke: #000000; stroke-width: 0.8"/>
      </g>
     </g>
     <g id="text_7">
      <text style="font-size: 10px; font-family: 'Helvetica', 'Arial', sans-serif; text-anchor: end" x="38.060938" y="225.566712" transform="rotate(-0 38.060938 225.566712)">0.6</text>
     </g>
    </g>
    <g id="ytick_2">
     <g id="line2d_7">
      <g>
       <use xlink:href="#m5cc7695c83" x="41.560938" y="193.626192" style="stroke: #000000; stroke-width: 0.8"/>
      </g>
     </g>
     <g id="text_8">
      <text style="font-size: 10px; font-family: 'Helvetica', 'Arial', sans-serif; text-anchor: end" x="38.060938" y="197.212911" transform="rotate(-0 38.060938 197.212911)">0.8</text>
     </g>
    </g>
    <g id="ytick_3">
     <g id="line2d_8">
      <g>
       <use xlink:href="#m5cc7695c83" x="41.560938" y="165.272392" style="stroke: #000000; stroke-width: 0.8"/>
      </g>
     </g>
     <g id="text_9">
      <text style="font-size: 10px; font-family: 'Helvetica', 'Arial', sans-serif; text-anchor: end" x="38.060938" y="168.85911" transform="rotate(-0 38.060938 168.85911)">1.0</text>
     </g>
    </g>
    <g id="ytick_4">
     <g id="line2d_9">
      <g>
       <use xlink:href="#m5cc7695c83" x="41.560938" y="136.918591" style="stroke: #000000; stroke-width: 0.8"/>
      </g>
     </g>
     <g id="text_10">
      <text style="font-size: 10px; font-family: 'Helvetica', 'Arial', sans-serif; text-anchor: end" x="38.060938" y="140.50531" transform="rotate(-0 38.060938 140.50531)">1.2</text>
     </g>
    </g>
    <g id="ytick_5">
     <g id="line2d_10">
      <g>
       <use xlink:href="#m5cc7695c83" x="41.560938" y="108.56479" style="stroke: #000000; stroke-width: 0.8"/>
      </g>
     </g>
     <g id="text_11">
      <text style="font-size: 10px; font-family: 'Helvetica', 'Arial', sans-serif; text-anchor: end" x="38.060938" y="112.151509" transform="rotate(-0 38.060938 112.151509)">1.4</text>
     </g>
    </g>
    <g id="ytick_6">
     <g id="line2d_11">
      <g>
       <use xlink:href="#m5cc7695c83" x="41.560938" y="80.210989" style="stroke: #000000; stroke-width: 0.8"/>
      </g>
     </g>
     <g id="text_12">
      <text style="font-size: 10px; font-family: 'Helvetica', 'Arial', sans-serif; text-anchor: end" x="38.060938" y="83.797708" transform="rotate(-0 38.060938 83.797708)">1.6</text>
     </g>
    </g>
    <g id="ytick_7">
     <g id="line2d_12">
      <g>
       <use xlink:href="#m5cc7695c83" x="41.560938" y="51.857189" style="stroke: #000000; stroke-width: 0.8"/>
      </g>
     </g>
     <g id="text_13">
      <text style="font-size: 10px; font-family: 'Helvetica', 'Arial', sans-serif; text-anchor: end" x="38.060938" y="55.443907" transform="rotate(-0 38.060938 55.443907)">1.8</text>
     </g>
    </g>
    <g id="ytick_8">
     <g id="line2d_13">
      <g>
       <use xlink:href="#m5cc7695c83" x="41.560938" y="23.503388" style="stroke: #000000; stroke-width: 0.8"/>
      </g>
     </g>
     <g id="text_14">
      <text style="font-size: 10px; font-family: 'Helvetica', 'Arial', sans-serif; text-anchor: end" x="38.060938" y="27.090107" transform="rotate(-0 38.060938 27.090107)">2.0</text>
     </g>
    </g>
    <g id="text_15">
     <text style="font-size: 14px; font-family: 'Helvetica', 'Arial', sans-serif; text-anchor: middle" x="17.242813" y="123.180234" transform="rotate(-90 17.242813 123.180234)">Mutual Information</text>
    </g>
   </g>
   <g id="line2d_14">
    <path d="M 58.452472 227.913541 
L 142.910142 217.789706 
L 227.367812 32.0307 
L 311.825483 44.089127 
L 396.283153 19.037889 
" clip-path="url(#pec7d8e6093)" style="fill: none; stroke: #2d3047; stroke-width: 1.6; stroke-linecap: square"/>
    <defs>
     <path id="m3fea354709" d="M 0 3 
C 0.795609 3 1.55874 2.683901 2.12132 2.12132 
C 2.683901 1.55874 3 0.795609 3 0 
C 3 -0.795609 2.683901 -1.55874 2.12132 -2.12132 
C 1.55874 -2.683901 0.795609 -3 0 -3 
C -0.795609 -3 -1.55874 -2.683901 -2.12132 -2.12132 
C -2.683901 -1.55874 -3 -0.795609 -3 0 
C -3 0.795609 -2.683901 1.55874 -2.12132 2.12132 
C -1.55874 2.683901 -0.795609 3 0 3 
z
" style="stroke: #2d3047"/>
    </defs>
    <g clip-path="url(#pec7d8e6093)">
     <use xlink:href="#m3fea354709" x="58.452472" y="227.913541" style="fill: #2d3047; stroke: #2d3047"/>
     <use xlink:href="#m3fea354709" x="142.910142" y="217.789706" style="fill: #2d3047; stroke: #2d3047"/>
     <use xlink:href="#m3fea354709" x="227.367812" y="32.0307" style="fill: #2d3047; stroke: #2d3047"/>
     <use xlink:href="#m3fea354709" x="311.825483" y="44.089127" style="fill: #2d3047; stroke: #2d3047"/>
     <use xlink:href="#m3fea354709" x="396.283153" y="19.037889" style="fill: #2d3047; stroke: #2d3047"/>
    </g>
   </g>
   <g id="line2d_15">
    <path d="M 58.452472 137.639313 
L 142.910142 61.790998 
L 227.367812 42.253356 
L 311.825483 44.089141 
L 396.283153 19.037889 
" clip-path="url(#pec7d8e6093)" style="fill: none; stroke-dasharray: 5.92,2.56; stroke-dashoffset: 0; stroke: #d1345b; stroke-width: 1.6"/>
    <defs>
     <path id="m9835355824" d="M 0 3 
C 0.795609 3 1.55874 2.683901 2.12132 2.12132 
C 2.683901 1.55874 3 0.795609 3 0 
C 3 -0.795609 2.683901 -1.55874 2.12132 -2.12132 
C 1.55874 -2.683901 0.795609 -3 0 -3 
C -0.795609 -3 -1.55874 -2.683901 -2.12132 -2.12132 
C -2.683901 -1.55874 -3 -0.795609 -3 0 
C -3 0.795609 -2.683901 1.55874 -2.12132 2.12132 
C -1.55874 2.683901 -0.795609 3 0 3 
z
" style="stroke: #d1345b"/>
    </defs>
    <g clip-path="url(#pec7d8e6093)">
     <use xlink:href="#m9835355824" x="58.452472" y="137.639313" style="fill: #d1345b; stroke: #d1345b"/>
     <use xlink:href="#m9835355824" x="142.910142" y="61.790998" style="fill: #d1345b; stroke: #d1345b"/>
     <use xlink:href="#m9835355824" x="227.367812" y="42.253356" style="fill: #d1345b; stroke: #d1345b"/>
     <use xlink:href="#m9835355824" x="311.825483" y="44.089141" style="fill: #d1345b; stroke: #d1345b"/>
     <use xlink:href="#m9835355824" x="396.283153" y="19.037889" style="fill: #d1345b; stroke: #d1345b"/>
    </g>
   </g>
   <g id="line2d_16">
    <path d="M 58.452472 137.630354 
L 142.910142 37.190427 
L 227.367812 42.253207 
L 311.825483 44.089222 
L 396.283153 19.037831 
" clip-path="url(#pec7d8e6093)" style="fill: none; stroke-dasharray: 1.6,2.64; stroke-dashoffset: 0; stroke: #ff9b71; stroke-width: 1.6"/>
    <defs>
     <path id="m4f74c0b8aa" d="M 0 3 
C 0.795609 3 1.55874 2.683901 2.12132 2.12132 
C 2.683901 1.55874 3 0.795609 3 0 
C 3 -0.795609 2.683901 -1.55874 2.12132 -2.12132 
C 1.55874 -2.683901 0.795609 -3 0 -3 
C -0.795609 -3 -1.55874 -2.683901 -2.12132 -2.12132 
C -2.683901 -1.55874 -3 -0.795609 -3 0 
C -3 0.795609 -2.683901 1.55874 -2.12132 2.12132 
C -1.55874 2.683901 -0.795609 3 0 3 
z
" style="stroke: #ff9b71"/>
    </defs>
    <g clip-path="url(#pec7d8e6093)">
     <use xlink:href="#m4f74c0b8aa" x="58.452472" y="137.630354" style="fill: #ff9b71; stroke: #ff9b71"/>
     <use xlink:href="#m4f74c0b8aa" x="142.910142" y="37.190427" style="fill: #ff9b71; stroke: #ff9b71"/>
     <use xlink:href="#m4f74c0b8aa" x="227.367812" y="42.253207" style="fill: #ff9b71; stroke: #ff9b71"/>
     <use xlink:href="#m4f74c0b8aa" x="311.825483" y="44.089222" style="fill: #ff9b71; stroke: #ff9b71"/>
     <use xlink:href="#m4f74c0b8aa" x="396.283153" y="19.037831" style="fill: #ff9b71; stroke: #ff9b71"/>
    </g>
   </g>
   <g id="patch_3">
    <path d="M 41.560938 239.160469 
L 41.560938 7.2 
" style="fill: none; stroke: #000000; stroke-width: 0.8; stroke-linejoin: miter; stroke-linecap: square"/>
   </g>
   <g id="patch_4">
    <path d="M 413.174687 239.160469 
L 413.174687 7.2 
" style="fill: none; stroke: #000000; stroke-width: 0.8; stroke-linejoin: miter; stroke-linecap: square"/>
   </g>
   <g id="patch_5">
    <path d="M 41.560938 239.160469 
L 413.174687 239.160469 
" style="fill: none; stroke: #000000; stroke-width: 0.8; stroke-linejoin: miter; stroke-linecap: square"/>
   </g>
   <g id="patch_6">
    <path d="M 41.560938 7.2 
L 413.174687 7.2 
" style="fill: none; stroke: #000000; stroke-width: 0.8; stroke-linejoin: miter; stroke-linecap: square"/>
   </g>
   <g id="legend_1">
    <g id="patch_7">
     <path d="M 48.560938 57.973438 
L 111.670313 57.973438 
Q 113.670313 57.973438 113.670313 55.973438 
L 113.670313 14.2 
Q 113.670313 12.2 111.670313 12.2 
L 48.560938 12.2 
Q 46.560938 12.2 46.560938 14.2 
L 46.560938 55.973438 
Q 46.560938 57.973438 48.560938 57.973438 
z
" style="fill: #ffffff; opacity: 0.8"/>
    </g>
    <g id="line2d_17">
     <path d="M 50.560938 19.873438 
L 60.560938 19.873438 
L 70.560938 19.873438 
" style="fill: none; stroke: #2d3047; stroke-width: 1.6; stroke-linecap: square"/>
     <g>
      <use xlink:href="#m3fea354709" x="60.560938" y="19.873438" style="fill: #2d3047; stroke: #2d3047"/>
     </g>
    </g>
    <g id="text_16">
     <text style="font-size: 10px; font-family: 'Helvetica', 'Arial', sans-serif; text-anchor: start" x="78.560938" y="23.373438" transform="rotate(-0 78.560938 23.373438)">SAGE</text>
    </g>
    <g id="line2d_18">
     <path d="M 50.560938 34.13125 
L 60.560938 34.13125 
L 70.560938 34.13125 
" style="fill: none; stroke-dasharray: 5.92,2.56; stroke-dashoffset: 0; stroke: #d1345b; stroke-width: 1.6"/>
     <g>
      <use xlink:href="#m9835355824" x="60.560938" y="34.13125" style="fill: #d1345b; stroke: #d1345b"/>
     </g>
    </g>
    <g id="text_17">
     <text style="font-size: 10px; font-family: 'Helvetica', 'Arial', sans-serif; text-anchor: start" x="78.560938" y="37.63125" transform="rotate(-0 78.560938 37.63125)">PFI</text>
    </g>
    <g id="line2d_19">
     <path d="M 50.560938 48.389063 
L 60.560938 48.389063 
L 70.560938 48.389063 
" style="fill: none; stroke-dasharray: 1.6,2.64; stroke-dashoffset: 0; stroke: #ff9b71; stroke-width: 1.6"/>
     <g>
      <use xlink:href="#m4f74c0b8aa" x="60.560938" y="48.389063" style="fill: #ff9b71; stroke: #ff9b71"/>
     </g>
    </g>
    <g id="text_18">
     <text style="font-size: 10px; font-family: 'Helvetica', 'Arial', sans-serif; text-anchor: start" x="78.560938" y="51.889063" transform="rotate(-0 78.560938 51.889063)">ROWS</text>
    </g>
   </g>
  </g>
 </g>
 <defs>
  <clipPath id="pec7d8e6093">
   <rect x="41.560938" y="7.2" width="371.61375" height="231.960469"/>
  </clipPath>
 </defs>
</svg>
